<svg xmlns="http://www.w3.org/2000/svg" xmlns:xlink="http://www.w3.org/1999/xlink" width="150" height="150" viewBox="0 0 150 150">
  <defs>
    <clipPath id="clip-path">
      <rect id="Rectángulo_456267" data-name="Rectángulo 456267" width="150" height="150" fill="none"/>
    </clipPath>
    <clipPath id="clip-path-2">
      <rect id="Rectángulo_468147" data-name="Rectángulo 468147" width="72.965" height="70.51" fill="#19538d"/>
    </clipPath>
  </defs>
  <g id="Grupo_1212957" data-name="Grupo 1212957" transform="translate(533.746 8549) rotate(180)">
    <path id="Trazado_999622" data-name="Trazado 999622" d="M70.07,0A70.07,70.07,0,1,1,0,70.07,70.071,70.071,0,0,1,70.07,0" transform="translate(388.676 8403.93)" fill="#e1f5ff"/>
    <g id="Grupo_1179902" data-name="Grupo 1179902" transform="translate(383.746 8399)">
      <g id="Grupo_1179905" data-name="Grupo 1179905" clip-path="url(#clip-path)">
        <path id="Trazado_999618" data-name="Trazado 999618" d="M75,0A75,75,0,1,1,0,75,75,75,0,0,1,75,0" fill="none"/>
        <path id="Trazado_999619" data-name="Trazado 999619" d="M5.859,59A5.859,5.859,0,1,1,0,64.859,5.86,5.86,0,0,1,5.859,59" transform="translate(0 10.141)" fill="#19538d"/>
        <path id="Trazado_999620" data-name="Trazado 999620" d="M21.859,19A5.859,5.859,0,1,1,16,24.859,5.86,5.86,0,0,1,21.859,19" transform="translate(2.75 3.266)" fill="#19538d"/>
        <path id="Trazado_999621" data-name="Trazado 999621" d="M74.313,144.625A70.392,70.392,0,0,1,4,74.313H7.516A66.8,66.8,0,1,0,25.572,28.638l-2.564-2.4a70.312,70.312,0,1,1,51.3,118.392" transform="translate(0.688 0.688)" fill="#19538d"/>
        <rect id="Rectángulo_456268" data-name="Rectángulo 456268" width="150" height="150" fill="none"/>
        <rect id="Rectángulo_456269" data-name="Rectángulo 456269" width="150" height="150" fill="none"/>
      </g>
    </g>
    <g id="Grupo_1213216" data-name="Grupo 1213216" transform="translate(495.229 8509.256) rotate(180)">
      <g id="Grupo_1213215" data-name="Grupo 1213215" clip-path="url(#clip-path-2)">
        <path id="Trazado_1286208" data-name="Trazado 1286208" d="M52.466,70.491,20.6,70.51a3.637,3.637,0,1,1,.368-7.261c3.095.138,5.688-.1,7.108-2.872a10.93,10.93,0,0,0,1.051-4.413l-24.3-.051A4.843,4.843,0,0,1,0,50.968L0,4.95A4.828,4.828,0,0,1,4.876,0H68.089A4.826,4.826,0,0,1,72.963,4.95l0,46.019a4.847,4.847,0,0,1-4.821,4.945l-24.3.045a10.851,10.851,0,0,0,1.05,4.418C46.3,63.15,48.906,63.386,52,63.25a3.613,3.613,0,0,1,3.915,3.374,3.557,3.557,0,0,1-3.446,3.867m14.3-65.6A1.209,1.209,0,0,1,68.12,6.14l.01,37.538a5.788,5.788,0,0,0,2.407-.029L70.482,4.518c0-1.5-1.539-2.108-2.794-2.108L5.049,2.416A2.446,2.446,0,0,0,2.443,4.953l0,38.7a5.589,5.589,0,0,0,2.394.022L4.856,5.957c0-.719.7-1.062,1.339-1.062ZM65.663,43.74,65.658,7.3H7.306V43.746Zm2.354,9.774A2.446,2.446,0,0,0,70.515,51l-.039-4.795H2.492L2.43,50.768a2.54,2.54,0,0,0,2.626,2.745ZM43.858,63.22a12.06,12.06,0,0,1-2.437-7.236H31.545a12.061,12.061,0,0,1-2.438,7.237ZM52.183,68.1a1.222,1.222,0,0,0,1.3-1.262,1.246,1.246,0,0,0-1.15-1.153l-31.708,0a1.209,1.209,0,1,0,.154,2.412Z" fill="#19538d"/>
        <path id="Trazado_1286209" data-name="Trazado 1286209" d="M108.1,73.809a1.051,1.051,0,0,1-1.424.142L103.487,70.9,101.5,72.778c-.268.254-.758.17-1.1.069A1.218,1.218,0,0,1,99.717,72l-1.182-3.9L70.607,68.1a1.259,1.259,0,0,1-1.33-1.208L69.27,43.744A1.22,1.22,0,0,1,70.6,42.535l33.919,0a1.167,1.167,0,0,1,1.242,1.153V60.819l4.109,1.276a1.133,1.133,0,0,1,.721.754,1.174,1.174,0,0,1-.278,1.189l-1.642,1.681,2.782,2.763a1.4,1.4,0,0,1-.076,2.1Zm-4.789-25.185.023-3.585-31.6,0v3.59Zm-5.6,9.8,5.668,1.669-.033-9.03H71.71V65.639l26.054,0-1.642-5.546a1.377,1.377,0,0,1,.283-1.385,1.243,1.243,0,0,1,1.3-.283m11.236,10.989-3.077-3.158c-.309-.985.358-1.7,1.278-2.415L99.156,61.5l2.367,7.946c.83-1.135,2.023-1.862,2.909-1.018l2.85,2.716a9.1,9.1,0,0,0,1.661-1.736" transform="translate(-53.474 -32.835)" fill="#19538d"/>
        <path id="Trazado_1286210" data-name="Trazado 1286210" d="M147.057,215.736l-6.85,0c-.834,0-1.356-.395-1.4-1.1-.054-.836.479-1.316,1.4-1.315l6.851,0c.837,0,1.355.378,1.4,1.093.054.829-.483,1.324-1.4,1.324" transform="translate(-107.148 -164.672)" fill="#19538d"/>
        <path id="Trazado_1286211" data-name="Trazado 1286211" d="M101.743,108.72l-9.8-.018a1.277,1.277,0,0,1-1.252-1.278l.013-4.815a1.115,1.115,0,0,1,1.19-1.171l9.8.018a1.134,1.134,0,0,1,1.142,1.165l.013,4.79a1.306,1.306,0,0,1-1.111,1.31m-1.374-2.464.026-2.408-7.256-.009L93.1,106.26Z" transform="translate(-70.013 -78.305)" fill="#19538d"/>
      </g>
    </g>
  </g>
</svg>
