<svg xmlns="http://www.w3.org/2000/svg" xmlns:xlink="http://www.w3.org/1999/xlink" width="150" height="150" viewBox="0 0 150 150">
  <defs>
    <clipPath id="clip-path">
      <rect id="Rectángulo_456267" data-name="Rectángulo 456267" width="150" height="150" fill="none"/>
    </clipPath>
    <clipPath id="clip-path-2">
      <rect id="Rectángulo_468155" data-name="Rectángulo 468155" width="77.956" height="72.588" fill="#19538d"/>
    </clipPath>
  </defs>
  <g id="Grupo_1212970" data-name="Grupo 1212970" transform="translate(533.746 8549) rotate(180)">
    <path id="Trazado_999622" data-name="Trazado 999622" d="M70.07,0A70.07,70.07,0,1,1,0,70.07,70.071,70.071,0,0,1,70.07,0" transform="translate(388.676 8403.93)" fill="#e1f5ff"/>
    <g id="Grupo_1179902" data-name="Grupo 1179902" transform="translate(383.746 8399)">
      <g id="Grupo_1179905" data-name="Grupo 1179905" clip-path="url(#clip-path)">
        <path id="Trazado_999618" data-name="Trazado 999618" d="M75,0A75,75,0,1,1,0,75,75,75,0,0,1,75,0" fill="none"/>
        <path id="Trazado_999619" data-name="Trazado 999619" d="M5.859,59A5.859,5.859,0,1,1,0,64.859,5.86,5.86,0,0,1,5.859,59" transform="translate(0 10.141)" fill="#19538d"/>
        <path id="Trazado_999620" data-name="Trazado 999620" d="M21.859,19A5.859,5.859,0,1,1,16,24.859,5.86,5.86,0,0,1,21.859,19" transform="translate(2.75 3.266)" fill="#19538d"/>
        <path id="Trazado_999621" data-name="Trazado 999621" d="M74.313,144.625A70.392,70.392,0,0,1,4,74.313H7.516A66.8,66.8,0,1,0,25.572,28.638l-2.564-2.4a70.312,70.312,0,1,1,51.3,118.392" transform="translate(0.688 0.688)" fill="#19538d"/>
        <rect id="Rectángulo_456268" data-name="Rectángulo 456268" width="150" height="150" fill="none"/>
        <rect id="Rectángulo_456269" data-name="Rectángulo 456269" width="150" height="150" fill="none"/>
      </g>
    </g>
    <g id="Grupo_1213233" data-name="Grupo 1213233" transform="translate(497.724 8510.294) rotate(180)">
      <g id="Grupo_1213232" data-name="Grupo 1213232" clip-path="url(#clip-path-2)">
        <path id="Trazado_1286271" data-name="Trazado 1286271" d="M72.992,60.691l-25.45.038a59.212,59.212,0,0,0,.917,9.485l3.881.052a1.2,1.2,0,0,1,1.222,1.025c.051.409-.315,1.291-1,1.291L25.4,72.588c-.6,0-.971-.741-1-1.1a1.144,1.144,0,0,1,1.026-1.2l4.079-.06a59.44,59.44,0,0,0,.909-9.509L4.865,60.687A4.9,4.9,0,0,1,.011,55.769L0,10.492A4.817,4.817,0,0,1,4.128,5.62c2.3-.292,4.48-.029,6.823-.117l.023-2.571A2.9,2.9,0,0,1,14.132,0l17,.046c.6,0,.964.665,1.009,1.061.042.363-.3,1.179-.887,1.181l-17.933.072-.057,5.656,51.432,0-.061-5.672L36.37,2.327a1.142,1.142,0,0,1-1.175-1.2,1.2,1.2,0,0,1,1.366-1.1L63.821.008c1.7,0,3.131.923,3.152,2.7l.034,2.8,6.62.074a4.655,4.655,0,0,1,4.321,4.677l.007,45.506a4.91,4.91,0,0,1-4.963,4.927M4.761,13.288a2.775,2.775,0,0,1,2.782-2.54l3.421-.024-.007-2.955L4.85,7.8a2.667,2.667,0,0,0-2.58,2.718l0,38.067H4.76ZM73.2,48.573l2.495.009-.005-38.035a2.747,2.747,0,0,0-2.818-2.776l-5.868.006L67,10.733l3.418.014a2.78,2.78,0,0,1,2.787,2.912Zm-8.486.047V10.261H13.248l0,38.358Zm-53.738-.032,0-35.581-3.9.071L7.065,48.626c1.39.007,2.559.029,3.916-.038m59.929-.03-.028-35.481-3.9-.068V48.626Zm1.775,9.9a2.826,2.826,0,0,0,3.01-2.926l0-4.643-73.371,0-.049,4.653a2.816,2.816,0,0,0,2.888,2.912Zm-26.6,11.764a65.759,65.759,0,0,1-.81-9.514l-12.589,0a65.307,65.307,0,0,1-.821,9.555Z" transform="translate(0.001 0)" fill="#19538d"/>
        <path id="Trazado_1286272" data-name="Trazado 1286272" d="M125.462,76.516a12.9,12.9,0,1,0-1.95,4.471,1.146,1.146,0,0,1,1.537-.292,1.1,1.1,0,0,1,.4,1.477,15.14,15.14,0,1,1,2.261-5.3,1.175,1.175,0,0,1-1.107,1,1.109,1.109,0,0,1-1.138-1.351" transform="translate(-73.887 -44.275)" fill="#19538d"/>
        <path id="Trazado_1286273" data-name="Trazado 1286273" d="M144.7,94.219l-2.227-2.893a1.217,1.217,0,0,1,.128-1.72c.5-.4,1.232-.2,1.9.319a6.829,6.829,0,0,0-4.6-5.484,7.079,7.079,0,0,0-7.242,1.635,1.174,1.174,0,0,1-1.46.058c-.358-.273-.68-1.115-.258-1.553a9.228,9.228,0,0,1,9.829-2.266,9.42,9.42,0,0,1,6.1,7.586,1.311,1.311,0,0,1,1.648-.343,1.174,1.174,0,0,1,.28,1.723l-2.206,2.9a1.293,1.293,0,0,1-.83.511,1.136,1.136,0,0,1-1.061-.477" transform="translate(-98.878 -61.835)" fill="#19538d"/>
        <path id="Trazado_1286274" data-name="Trazado 1286274" d="M130.505,115.294a1.2,1.2,0,0,1,1.523.133,1.183,1.183,0,0,1-.053,1.578,9.2,9.2,0,0,1-9.8,2.079,9.4,9.4,0,0,1-5.97-7.508c-.6.461-1.14.587-1.59.324a1.124,1.124,0,0,1-.371-1.7l2.212-2.905a1.173,1.173,0,0,1,1.846-.186l2.323,3.04a1.153,1.153,0,0,1-.359,1.786c-.486.246-1.038.046-1.7-.563a6.736,6.736,0,0,0,4.493,5.592,7.087,7.087,0,0,0,7.451-1.669" transform="translate(-86.218 -80.724)" fill="#19538d"/>
        <path id="Trazado_1286275" data-name="Trazado 1286275" d="M150.957,221.937l-5,.015a1.154,1.154,0,1,1,0-2.293l5.129.03a1.092,1.092,0,0,1,1.048,1.134,1.123,1.123,0,0,1-1.171,1.115" transform="translate(-109.414 -166.132)" fill="#19538d"/>
      </g>
    </g>
  </g>
</svg>
