<svg xmlns="http://www.w3.org/2000/svg" xmlns:xlink="http://www.w3.org/1999/xlink" width="85" height="85" viewBox="0 0 85 85">
  <defs>
    <clipPath id="clip-path">
      <rect id="Rectángulo_468106" data-name="Rectángulo 468106" width="53.66" height="50.089" fill="#12263f"/>
    </clipPath>
  </defs>
  <g id="Grupo_1212752" data-name="Grupo 1212752" transform="translate(-705.629 -410)">
    <g id="Grupo_1180019" data-name="Grupo 1180019">
      <g id="Grupo_1180023" data-name="Grupo 1180023">
        <rect id="Rectángulo_456333" data-name="Rectángulo 456333" width="85" height="85" rx="10" transform="translate(705.629 410)" fill="#68eae0"/>
        <g id="Grupo_1213119" data-name="Grupo 1213119" transform="translate(721.299 427.456)">
          <g id="Grupo_1213118" data-name="Grupo 1213118" clip-path="url(#clip-path)">
            <path id="Trazado_1285860" data-name="Trazado 1285860" d="M85.5,85.654l-39.112.018a3.591,3.591,0,0,1-3.772-3.616l.015-35.838a3.52,3.52,0,0,1,3.625-3.465l39.255,0a3.558,3.558,0,0,1,3.605,3.627l.012,35.511A3.583,3.583,0,0,1,85.5,85.654m-.024-1.733a1.835,1.835,0,0,0,1.847-1.865l0-35.671a1.819,1.819,0,0,0-1.916-1.864l-39.187.006a1.755,1.755,0,0,0-1.809,1.757l-.008,35.738a1.827,1.827,0,0,0,1.833,1.884Z" transform="translate(-35.472 -35.583)" fill="#12263f"/>
            <path id="Trazado_1285861" data-name="Trazado 1285861" d="M1.79,3.675,1.785,39.262a1.784,1.784,0,0,0,1.895,1.88H5.356l0,1.814-1.994-.029a3.469,3.469,0,0,1-3.358-3.5L0,3.588A3.525,3.525,0,0,1,3.535.022L42.726,0A3.606,3.606,0,0,1,46.5,3.74l-.044,1.644-1.7,0-.047-1.794a1.832,1.832,0,0,0-1.851-1.811L3.582,1.79A1.771,1.771,0,0,0,1.79,3.675" transform="translate(0 -0.001)" fill="#12263f"/>
            <path id="Trazado_1285862" data-name="Trazado 1285862" d="M22.993,23.124a11.867,11.867,0,0,1-1.814,0v-1.75a15.981,15.981,0,0,1,1.8.007Z" transform="translate(-17.627 -17.772)" fill="#12263f"/>
            <path id="Trazado_1285863" data-name="Trazado 1285863" d="M65.775,23.093a9.624,9.624,0,0,1-1.78.052l0-1.763a13.616,13.616,0,0,1,1.781-.01Z" transform="translate(-53.263 -17.767)" fill="#12263f"/>
            <path id="Trazado_1285864" data-name="Trazado 1285864" d="M44.292,23.172l-1.732.01a6.7,6.7,0,0,1,0-1.779,15.97,15.97,0,0,1,1.712,0Z" transform="translate(-35.373 -17.796)" fill="#12263f"/>
            <path id="Trazado_1285865" data-name="Trazado 1285865" d="M112.925,135.306l-5.288.008a.957.957,0,0,1-1.007-1.006V132.1l-1.685-.715-1.628,1.6a1,1,0,0,1-1.488-.087l-3.511-3.52a1,1,0,0,1-.076-1.472l1.578-1.646-.635-1.654-2.444-.038a.93.93,0,0,1-.846-.991l.011-5.2a.9.9,0,0,1,.9-.938l2.334-.021.7-1.721-1.625-1.646a.881.881,0,0,1,0-1.254l3.674-3.7a.935.935,0,0,1,1.369-.085l1.664,1.648,1.7-.7.02-2.314a.884.884,0,0,1,.895-.933l5.276-.007a.914.914,0,0,1,.956.827l.063,2.422,1.658.684,1.52-1.515a1.022,1.022,0,0,1,1.481-.08l3.537,3.5a1.059,1.059,0,0,1,.221,1.5l-1.668,1.691.684,1.641,2.28.056a.978.978,0,0,1,.977.976l-.009,5.269c0,.638-.5.929-1.094.928h-2.153l-.685,1.751,1.618,1.605a.934.934,0,0,1-.076,1.376l-3.607,3.6a.978.978,0,0,1-.726.363,1.023,1.023,0,0,1-.723-.363l-1.54-1.541-1.733.7-.009,2.355a.847.847,0,0,1-.857.861m-.915-1.805L112,131.443a.92.92,0,0,1,.73-.939c1.75-.5,2.889-1.528,3.49-.937l1.579,1.549,2.491-2.509-1.45-1.482a.975.975,0,0,1-.134-1.211c1.031-1.8.825-3.079,1.9-3.106l2.114-.053,0-3.507-2.015,0a1.048,1.048,0,0,1-1.048-.848c-.493-1.808-1.488-2.776-.926-3.347l1.584-1.608-2.466-2.531-1.493,1.427c-.819.783-1.627-.254-3.574-.793A1.036,1.036,0,0,1,112,110.5v-2.019l-3.537,0-.025,2.009a1.029,1.029,0,0,1-.771,1.043c-1.88.509-2.814,1.6-3.578.848l-1.483-1.458-2.5,2.492,1.607,1.678c.5.52-.527,1.737-1,3.4a.982.982,0,0,1-.951.762l-2.075.046.031,3.463,2,.047c1.2.028.932,1.268,1.951,3.046a1.218,1.218,0,0,1-.3,1.519l-1.244,1.3,2.525,2.451,1.6-1.566a1.012,1.012,0,0,1,1.1-.01c1.8,1.01,3.071.79,3.082,1.92l.02,2.066Z" transform="translate(-79.812 -88.81)" fill="#12263f"/>
            <path id="Trazado_1285866" data-name="Trazado 1285866" d="M103.468,87.12l-39.307.006V85.292h39.318Z" transform="translate(-53.401 -70.989)" fill="#12263f"/>
            <path id="Trazado_1285867" data-name="Trazado 1285867" d="M71.214,113.867l-7.133.009,0-1.771,7.134.01Z" transform="translate(-53.332 -93.306)" fill="#12263f"/>
            <rect id="Rectángulo_468105" data-name="Rectángulo 468105" width="5.336" height="1.799" transform="translate(10.738 22.354)" fill="#12263f"/>
            <path id="Trazado_1285868" data-name="Trazado 1285868" d="M272.068,268.467l-5.333.011-.03-1.772,5.334-.006Z" transform="translate(-221.981 -221.976)" fill="#12263f"/>
            <path id="Trazado_1285869" data-name="Trazado 1285869" d="M65.816,65.754a5.454,5.454,0,0,1-1.787.007V64.052l1.743-.03Z" transform="translate(-53.291 -53.286)" fill="#12263f"/>
            <path id="Trazado_1285870" data-name="Trazado 1285870" d="M87.079,65.714a7.512,7.512,0,0,1-1.762.039l-.032-1.736a8.562,8.562,0,0,1,1.776,0Z" transform="translate(-70.983 -53.245)" fill="#12263f"/>
            <path id="Trazado_1285871" data-name="Trazado 1285871" d="M108.531,65.874l-1.761.01,0-1.737,1.741,0Z" transform="translate(-88.862 -53.388)" fill="#12263f"/>
            <path id="Trazado_1285872" data-name="Trazado 1285872" d="M149.994,154.793a6.251,6.251,0,1,1-6.007,6.674,6.233,6.233,0,0,1,6.007-6.674m-.5,1.85a4.453,4.453,0,1,0,5.113,3.6,4.43,4.43,0,0,0-5.113-3.6" transform="translate(-119.829 -128.832)" fill="#12263f"/>
          </g>
        </g>
      </g>
    </g>
  </g>
</svg>
