<svg xmlns="http://www.w3.org/2000/svg" xmlns:xlink="http://www.w3.org/1999/xlink" width="85" height="85" viewBox="0 0 85 85">
  <defs>
    <clipPath id="clip-path">
      <rect id="Rectángulo_468132" data-name="Rectángulo 468132" width="57.502" height="57.483" fill="#12263f"/>
    </clipPath>
  </defs>
  <g id="Grupo_1212796" data-name="Grupo 1212796" transform="translate(-705.629 -410)">
    <g id="Grupo_1180019" data-name="Grupo 1180019">
      <g id="Grupo_1180023" data-name="Grupo 1180023">
        <rect id="Rectángulo_456333" data-name="Rectángulo 456333" width="85" height="85" rx="10" transform="translate(705.629 410)" fill="#68eae0"/>
        <g id="Grupo_1213186" data-name="Grupo 1213186" transform="translate(719.378 423.759)">
          <g id="Grupo_1213185" data-name="Grupo 1213185" clip-path="url(#clip-path)">
            <path id="Trazado_1286086" data-name="Trazado 1286086" d="M44.934,50.8l-.016-4.689a3.587,3.587,0,1,1,1.823,0l-.016,4.615a2.669,2.669,0,0,1-2.69,2.7l-6.289,0,.006,3.6L51.2,57.015c.631,0,.923-.507.922-1.086l-.01-15.2a3.589,3.589,0,1,1,1.806,0L53.91,56.11a2.649,2.649,0,0,1-2.7,2.7l-13.834.011a4.5,4.5,0,0,1-4.147,2.687l-28.715,0a4.438,4.438,0,0,1-4.5-4.483l.01-5.586a4.349,4.349,0,0,1,2.664-3.929L2.7,44.961a4.541,4.541,0,0,1-2.7-4.3l.009-5.221a4.433,4.433,0,0,1,2.685-4.108l-.006-2.548A4.362,4.362,0,0,1,.025,24.854L.013,19.271A4.438,4.438,0,0,1,4.488,14.8h5.4L9.9,10.114a2.636,2.636,0,0,1,2.683-2.5l6.409-.02a3.59,3.59,0,1,1,0,1.814L12.59,9.4a.914.914,0,0,0-.9.9l0,4.5,11.666-.006a.864.864,0,0,1,.892.817.889.889,0,0,1-.9.974l-19.01.026A2.6,2.6,0,0,0,1.81,19.263v5.414a2.647,2.647,0,0,0,2.706,2.69l22.584.019c.542,0,.776.6.742.95a.893.893,0,0,1-.909.832l-22.409,0,0,1.8,24.366.008c.546,0,.778.6.744.951a.887.887,0,0,1-.91.83l-24.39.022a2.6,2.6,0,0,0-2.529,2.652v5.417a2.65,2.65,0,0,0,2.71,2.691H33.228a2.652,2.652,0,0,0,2.716-2.689l.007-1.8a.875.875,0,0,1,.817-.892.866.866,0,0,1,.966.893l.008,1.616a4.558,4.558,0,0,1-2.688,4.3V47.5a4.475,4.475,0,0,1,2.687,4.135l6.281-.017a.922.922,0,0,0,.91-.818M21.924,6.8a1.79,1.79,0,1,0,2.25,1.158A1.775,1.775,0,0,0,21.924,6.8M52.472,35.546A1.79,1.79,0,1,0,54.722,36.7a1.775,1.775,0,0,0-2.251-1.158m-7.188,5.391a1.79,1.79,0,1,0,2.251,1.158,1.775,1.775,0,0,0-2.251-1.158M33.213,47.144l.007-1.8H4.528l0,1.8Zm.11,12.561a2.615,2.615,0,0,0,2.614-2.674l0-5.427a2.6,2.6,0,0,0-2.532-2.653H4.343A2.6,2.6,0,0,0,1.811,51.6v5.42a2.654,2.654,0,0,0,2.71,2.692Z" transform="translate(0 -4.027)" fill="#12263f"/>
            <path id="Trazado_1286087" data-name="Trazado 1286087" d="M172.631,29.438a31.855,31.855,0,0,1-7.279,4.764,32.144,32.144,0,0,1-7.223-4.715,23.677,23.677,0,0,1-7.788-21.094l14.221-8.1a1.221,1.221,0,0,1,1.585,0l14.223,8.1a23.68,23.68,0,0,1-7.739,21.045m-7.276,2.726a25.1,25.1,0,0,0,8.085-6.128,21.809,21.809,0,0,0,5.265-16.53L165.353,1.912,152,9.512a21.818,21.818,0,0,0,5.432,16.718,25.172,25.172,0,0,0,7.923,5.934" transform="translate(-123.119 0)" fill="#12263f"/>
            <path id="Trazado_1286088" data-name="Trazado 1286088" d="M30.83,87.056a2.767,2.767,0,0,1,2.954-2.139,2.691,2.691,0,0,1,.159,5.337,2.75,2.75,0,0,1-3.112-2.12,2.767,2.767,0,0,1-5.4,0,2.758,2.758,0,0,1-2.954,2.141,2.691,2.691,0,0,1-.159-5.337,2.757,2.757,0,0,1,3.111,2.118,2.768,2.768,0,0,1,5.4,0m-8.385-.3a.889.889,0,1,0,1.109.473.875.875,0,0,0-1.109-.473m5.391,0a.889.889,0,1,0,1.109.473.875.875,0,0,0-1.109-.473m5.391,0a.889.889,0,1,0,1.109.473.875.875,0,0,0-1.109-.473" transform="translate(-16.446 -69.65)" fill="#12263f"/>
            <path id="Trazado_1286089" data-name="Trazado 1286089" d="M30.83,177.056a2.767,2.767,0,0,1,2.954-2.139,2.691,2.691,0,0,1,.159,5.337,2.75,2.75,0,0,1-3.112-2.12,2.767,2.767,0,0,1-5.4,0,2.758,2.758,0,0,1-2.954,2.141,2.691,2.691,0,0,1-.159-5.337,2.757,2.757,0,0,1,3.111,2.118,2.768,2.768,0,0,1,5.4,0m-8.385-.3a.889.889,0,1,0,1.109.473.875.875,0,0,0-1.109-.473m5.391,0a.889.889,0,1,0,1.109.473.875.875,0,0,0-1.109-.473m5.391,0a.889.889,0,1,0,1.109.473.875.875,0,0,0-1.109-.473" transform="translate(-16.446 -143.477)" fill="#12263f"/>
            <path id="Trazado_1286090" data-name="Trazado 1286090" d="M130.865,186.734l-9.857-.009a.892.892,0,0,1-.9-.825.874.874,0,0,1,.892-.965l10.025.015c.518,0,.767.589.733.943a.921.921,0,0,1-.9.84" transform="translate(-98.526 -151.704)" fill="#12263f"/>
            <path id="Trazado_1286091" data-name="Trazado 1286091" d="M122.788,96.71H121a.89.89,0,1,1,0-1.78l1.789-.005a.859.859,0,0,1,.887.814.873.873,0,0,1-.887.971" transform="translate(-98.527 -77.868)" fill="#12263f"/>
            <path id="Trazado_1286092" data-name="Trazado 1286092" d="M30.83,267.056a2.767,2.767,0,0,1,2.954-2.139,2.691,2.691,0,0,1,.159,5.337,2.75,2.75,0,0,1-3.112-2.12,2.767,2.767,0,0,1-5.4,0,2.758,2.758,0,0,1-2.954,2.141,2.691,2.691,0,0,1-.159-5.337,2.758,2.758,0,0,1,3.111,2.118,2.768,2.768,0,0,1,5.4,0m-8.385-.3a.889.889,0,1,0,1.109.473.875.875,0,0,0-1.109-.473m5.391,0a.889.889,0,1,0,1.109.473.875.875,0,0,0-1.109-.473m5.391,0a.889.889,0,1,0,1.109.473.875.875,0,0,0-1.109-.473" transform="translate(-16.446 -217.305)" fill="#12263f"/>
            <path id="Trazado_1286093" data-name="Trazado 1286093" d="M130.865,276.734l-9.857-.009a.892.892,0,0,1-.9-.825.874.874,0,0,1,.892-.965l10.025.015c.518,0,.767.589.733.943a.921.921,0,0,1-.9.84" transform="translate(-98.526 -225.531)" fill="#12263f"/>
            <path id="Trazado_1286094" data-name="Trazado 1286094" d="M193.384,29.524a20.7,20.7,0,0,1-11.676,18.8,20.692,20.692,0,0,1-11.674-18.619,1.1,1.1,0,0,1,.5-1.135l11.178-6.355,11.174,6.351a1.019,1.019,0,0,1,.5.959m-6.5,12.626a18.455,18.455,0,0,0,4.706-12.258l-9.877-5.62L171.821,29.9a18.887,18.887,0,0,0,9.9,16.395,20.436,20.436,0,0,0,5.154-4.144" transform="translate(-139.474 -18.223)" fill="#12263f"/>
            <path id="Trazado_1286095" data-name="Trazado 1286095" d="M223.66,76.9a.914.914,0,1,1-1.817,0l-.018-1.781a2.7,2.7,0,1,1,1.854,0Zm-1.205-5.158a.889.889,0,1,0,1.109.473.875.875,0,0,0-1.109-.473" transform="translate(-180.516 -57.326)" fill="#12263f"/>
          </g>
        </g>
      </g>
    </g>
  </g>
</svg>
