<svg xmlns="http://www.w3.org/2000/svg" xmlns:xlink="http://www.w3.org/1999/xlink" width="98" height="98" viewBox="0 0 98 98">
  <defs>
    <clipPath id="clip-path">
      <rect id="Rectángulo_456312" data-name="Rectángulo 456312" width="98" height="98" transform="translate(0.059 0.059)" fill="none"/>
    </clipPath>
    <clipPath id="clip-path-3">
      <rect id="Rectángulo_468133" data-name="Rectángulo 468133" width="63.092" height="62.229" fill="#19538d"/>
    </clipPath>
  </defs>
  <g id="Grupo_1212797" data-name="Grupo 1212797" transform="translate(-307.117 -10093.059)">
    <g id="Grupo_1179968" data-name="Grupo 1179968" transform="translate(307.059 10093)">
      <g id="Grupo_1179959" data-name="Grupo 1179959" clip-path="url(#clip-path)">
        <path id="Trazado_999654" data-name="Trazado 999654" d="M1.5,5.146H81.261A12.087,12.087,0,0,1,93.377,17.2V96.585H13.616A12.087,12.087,0,0,1,1.5,84.527Z" transform="translate(0.014 0.025)" fill="#fff"/>
      </g>
      <g id="Grupo_1179960" data-name="Grupo 1179960">
        <g id="Grupo_1179956" data-name="Grupo 1179956" clip-path="url(#clip-path)">
          <path id="Trazado_999651" data-name="Trazado 999651" d="M92.229,30a5.024,5.024,0,1,1-5.048,5.024A5.037,5.037,0,0,1,92.229,30" transform="translate(0.84 0.145)" fill="#19538d"/>
          <path id="Trazado_999652" data-name="Trazado 999652" d="M63.229,0a5.024,5.024,0,1,1-5.048,5.024A5.037,5.037,0,0,1,63.229,0" transform="translate(0.56 0)" fill="#19538d"/>
          <path id="Trazado_999653" data-name="Trazado 999653" d="M93.377,35.144V96.585H13.616A12.087,12.087,0,0,1,1.5,84.527V5.146H64.459" transform="translate(0.014 0.025)" fill="none" stroke="#19538d" stroke-miterlimit="10" stroke-width="3"/>
        </g>
      </g>
    </g>
    <g id="Grupo_1213188" data-name="Grupo 1213188" transform="translate(322.233 10111.407)">
      <g id="Grupo_1213187" data-name="Grupo 1213187" clip-path="url(#clip-path-3)">
        <path id="Trazado_1286096" data-name="Trazado 1286096" d="M33.152,55.8l-8.515,5.637L13.063,53.688A29.773,29.773,0,0,1,.011,28.9L0,12.328,24.653,0,49.3,12.327l-.019,16.662A16.747,16.747,0,1,1,33.152,55.8M3.946,28.5,3.955,14.76l20.7-10.337L45.34,14.761l.012,13.945c.7.027,1.272.026,1.971-.005l-.006-15.17L24.65,2.2,1.976,13.532l.008,15.753A28.523,28.523,0,0,0,14.122,52.051L24.65,59.075l7.336-4.9-.92-1.725L24.645,56.7l-8.991-5.989A26.556,26.556,0,0,1,3.946,28.5M15.82,20.758a6.341,6.341,0,0,1,5.111-7.235,11.829,11.829,0,0,1,7.263.428,2.9,2.9,0,0,1,3.323,2.718l.032,11.577-1.823,1.4c-.359.277-.177,1.087-.093,1.515L35.6,32.62a16.853,16.853,0,0,1,7.786-3.631l-.019-13.018L24.651,6.618,5.928,15.967,5.917,28.888A24.429,24.429,0,0,0,8.8,40.2l.066-2.446A5.013,5.013,0,0,1,12.694,32.9l6.97-1.732c.076-.421.265-1.234-.1-1.516l-1.81-1.416-.014-7.419Zm12.286-2.77,1.429,1.687.05-2.629a1.133,1.133,0,0,0-1.367-1.156,2.843,2.843,0,0,1-1.644-.354c-3.147-1.016-8.314-.107-8.69,3.291l5.383-.011c1.554,0,4.139-1.655,4.839-.828M26.428,29.631c1.1-.9,2.036-1.574,3.149-2.379-.148-1.293.278-2.768-.126-4.046s-1.737-2.223-2.358-3.448c-2.642,1.254-4.705,1.077-7.378,1.057l.012,6.445,3.2,2.39a27.842,27.842,0,0,0,3.5-.019m18.525,1.128a14.785,14.785,0,1,0,16.1,13.284,14.786,14.786,0,0,0-16.1-13.284M27.58,31.28a2.071,2.071,0,0,1-1.151.384l-3.563,0a1.66,1.66,0,0,1-1.138-.435,7.076,7.076,0,0,0,.056,2.123,2.951,2.951,0,0,0,5.729,0,7.592,7.592,0,0,0,.068-2.073m2.774,19.234a16.7,16.7,0,0,1,3.553-16.249l-4.376-1.092a4.909,4.909,0,0,1-3.855,4.3l-.046,4.017-1.967,0-.047-4.021a4.918,4.918,0,0,1-3.859-4.3L13.214,34.8a3.071,3.071,0,0,0-2.405,2.974l.177,5.616c.489,1.318,1.873,2.249,2.764,3.287l.061-7.129,1.96,0,.015,8.861,8.9,5.919Z" fill="#19538d"/>
        <path id="Trazado_1286097" data-name="Trazado 1286097" d="M271.906,87.5H260.123l0-1.982,11.785.005Z" transform="translate(-208.836 -68.655)" fill="#19538d"/>
        <path id="Trazado_1286098" data-name="Trazado 1286098" d="M267.953,107.486l-7.849,0,0-1.984h7.841Z" transform="translate(-208.821 -84.704)" fill="#19538d"/>
        <path id="Trazado_1286099" data-name="Trazado 1286099" d="M264,127.469l-3.921.005,0-1.985h3.907Z" transform="translate(-208.798 -100.746)" fill="#19538d"/>
        <path id="Trazado_1286100" data-name="Trazado 1286100" d="M170.624,189.528l5.568-5.594,3.508,3.486,9.765-9.722,5.562,5.529-15.346,15.348Zm2.793.031,6.261,6.246,12.532-12.534L189.44,180.5l-9.761,9.759-3.509-3.528Z" transform="translate(-136.983 -142.662)" fill="#19538d"/>
      </g>
    </g>
  </g>
</svg>
