<svg xmlns="http://www.w3.org/2000/svg" xmlns:xlink="http://www.w3.org/1999/xlink" width="98" height="98" viewBox="0 0 98 98">
  <defs>
    <clipPath id="clip-path">
      <rect id="Rectángulo_456312" data-name="Rectángulo 456312" width="98" height="98" transform="translate(0.059 0.059)" fill="none"/>
    </clipPath>
    <clipPath id="clip-path-3">
      <rect id="Rectángulo_468134" data-name="Rectángulo 468134" width="51.583" height="57.431" fill="#19538d"/>
    </clipPath>
  </defs>
  <g id="Grupo_1212798" data-name="Grupo 1212798" transform="translate(-307.117 -10093.059)">
    <g id="Grupo_1179968" data-name="Grupo 1179968" transform="translate(307.059 10093)">
      <g id="Grupo_1179959" data-name="Grupo 1179959" clip-path="url(#clip-path)">
        <path id="Trazado_999654" data-name="Trazado 999654" d="M1.5,5.146H81.261A12.087,12.087,0,0,1,93.377,17.2V96.585H13.616A12.087,12.087,0,0,1,1.5,84.527Z" transform="translate(0.014 0.025)" fill="#fff"/>
      </g>
      <g id="Grupo_1179960" data-name="Grupo 1179960">
        <g id="Grupo_1179956" data-name="Grupo 1179956" clip-path="url(#clip-path)">
          <path id="Trazado_999651" data-name="Trazado 999651" d="M92.229,30a5.024,5.024,0,1,1-5.048,5.024A5.037,5.037,0,0,1,92.229,30" transform="translate(0.84 0.145)" fill="#19538d"/>
          <path id="Trazado_999652" data-name="Trazado 999652" d="M63.229,0a5.024,5.024,0,1,1-5.048,5.024A5.037,5.037,0,0,1,63.229,0" transform="translate(0.56 0)" fill="#19538d"/>
          <path id="Trazado_999653" data-name="Trazado 999653" d="M93.377,35.144V96.585H13.616A12.087,12.087,0,0,1,1.5,84.527V5.146H64.459" transform="translate(0.014 0.025)" fill="none" stroke="#19538d" stroke-miterlimit="10" stroke-width="3"/>
        </g>
      </g>
    </g>
    <g id="Grupo_1213190" data-name="Grupo 1213190" transform="translate(331.326 10114.344)">
      <g id="Grupo_1213189" data-name="Grupo 1213189" clip-path="url(#clip-path-3)">
        <path id="Trazado_1286101" data-name="Trazado 1286101" d="M51.582,32.994l-.06,8.582a11.632,11.632,0,0,1-8,10.254,6.694,6.694,0,0,1-6.63,5.593l-30.154.008A6.637,6.637,0,0,1,0,50.887L0,6.463A6.475,6.475,0,0,1,6.194,0L37.431.005A6.388,6.388,0,0,1,43.538,6.4L43.566,31a7.508,7.508,0,0,0,3.462,1.377c1.871.281,2.62-1,3.818-.5a1.584,1.584,0,0,1,.736,1.118M32.9,33.165a1.5,1.5,0,0,1,.687-1.253c1.022-.625,2,.73,3.786.469a7.567,7.567,0,0,0,3.5-1.4L40.841,6.429a3.88,3.88,0,0,0-4.128-3.8l-30.33.045A3.821,3.821,0,0,0,2.689,6.506l0,44.345a3.931,3.931,0,0,0,4.051,3.883l30.144-.006a3.907,3.907,0,0,0,3.854-2.964A11.59,11.59,0,0,1,32.973,41.8Zm9.311,16.22a8.8,8.8,0,0,0,6.6-7.891l.058-6.482a9.791,9.791,0,0,1-6.67-1.637,9.62,9.62,0,0,1-6.589,1.65l.008,6.58a8.948,8.948,0,0,0,6.589,7.779" transform="translate(0)" fill="#19538d"/>
        <path id="Trazado_1286102" data-name="Trazado 1286102" d="M64.614,106.187l-27.954,0a1.382,1.382,0,0,1-1.479-1c-.161-.561.092-1.673.937-1.673l28.872-.014c.824,0,1.169.949,1.086,1.516a1.335,1.335,0,0,1-1.462,1.167" transform="translate(-28.825 -84.913)" fill="#19538d"/>
        <path id="Trazado_1286103" data-name="Trazado 1286103" d="M65.063,154.883l-28.76-.011a1.233,1.233,0,0,1-1.154-1.241c-.045-.533.3-1.427,1.078-1.427l28.85,0c.679,0,1,.83,1.013,1.25a1.338,1.338,0,0,1-1.027,1.43" transform="translate(-28.833 -124.865)" fill="#19538d"/>
        <path id="Trazado_1286104" data-name="Trazado 1286104" d="M78.52,57.1,57.96,57.07c-.727,0-1.068-.767-1.082-1.282a1.263,1.263,0,0,1,1.192-1.377l20.456-.019a1.338,1.338,0,0,1,1.493,1.393,1.355,1.355,0,0,1-1.5,1.317" transform="translate(-46.661 -44.623)" fill="#19538d"/>
        <path id="Trazado_1286105" data-name="Trazado 1286105" d="M53.94,252.542l-17.61-.016a1.192,1.192,0,0,1-1.148-1.179c-.057-.553.24-1.456,1.016-1.457l17.671-.019c.673,0,1.005.7,1.058,1.171a1.344,1.344,0,0,1-.988,1.5" transform="translate(-28.858 -204.991)" fill="#19538d"/>
        <path id="Trazado_1286106" data-name="Trazado 1286106" d="M51.993,203.541l-15.881-.014c-.767,0-1.036-.971-.958-1.513a1.394,1.394,0,0,1,1.5-1.16l15.046.009a1.3,1.3,0,0,1,1.413,1.19c.067.517-.246,1.488-1.119,1.488" transform="translate(-28.829 -164.779)" fill="#19538d"/>
        <path id="Trazado_1286107" data-name="Trazado 1286107" d="M209.918,215.62l-2.277-2.295a1.327,1.327,0,0,1-.059-1.784c.313-.379,1.12-.8,1.626-.33l1.726,1.6,4.059-4.036a1.338,1.338,0,0,1,2.041.227c.465.666.209,1.327-.41,1.954l-4.543,4.6a1.5,1.5,0,0,1-2.163.058" transform="translate(-170.039 -170.971)" fill="#19538d"/>
      </g>
    </g>
  </g>
</svg>
