<svg xmlns="http://www.w3.org/2000/svg" xmlns:xlink="http://www.w3.org/1999/xlink" width="98" height="98" viewBox="0 0 98 98">
  <defs>
    <clipPath id="clip-path">
      <rect id="Rectángulo_456312" data-name="Rectángulo 456312" width="98" height="98" transform="translate(0.059 0.059)" fill="none"/>
    </clipPath>
    <clipPath id="clip-path-3">
      <rect id="Rectángulo_468136" data-name="Rectángulo 468136" width="56.255" height="58.242" fill="#19538d"/>
    </clipPath>
  </defs>
  <g id="Grupo_1212800" data-name="Grupo 1212800" transform="translate(-307.117 -10093.059)">
    <g id="Grupo_1179968" data-name="Grupo 1179968" transform="translate(307.059 10093)">
      <g id="Grupo_1179959" data-name="Grupo 1179959" clip-path="url(#clip-path)">
        <path id="Trazado_999654" data-name="Trazado 999654" d="M1.5,5.146H81.261A12.087,12.087,0,0,1,93.377,17.2V96.585H13.616A12.087,12.087,0,0,1,1.5,84.527Z" transform="translate(0.014 0.025)" fill="#fff"/>
      </g>
      <g id="Grupo_1179960" data-name="Grupo 1179960">
        <g id="Grupo_1179956" data-name="Grupo 1179956" clip-path="url(#clip-path)">
          <path id="Trazado_999651" data-name="Trazado 999651" d="M92.229,30a5.024,5.024,0,1,1-5.048,5.024A5.037,5.037,0,0,1,92.229,30" transform="translate(0.84 0.145)" fill="#19538d"/>
          <path id="Trazado_999652" data-name="Trazado 999652" d="M63.229,0a5.024,5.024,0,1,1-5.048,5.024A5.037,5.037,0,0,1,63.229,0" transform="translate(0.56 0)" fill="#19538d"/>
          <path id="Trazado_999653" data-name="Trazado 999653" d="M93.377,35.144V96.585H13.616A12.087,12.087,0,0,1,1.5,84.527V5.146H64.459" transform="translate(0.014 0.025)" fill="none" stroke="#19538d" stroke-miterlimit="10" stroke-width="3"/>
        </g>
      </g>
    </g>
    <g id="Grupo_1213194" data-name="Grupo 1213194" transform="translate(327.99 10112.938)">
      <g id="Grupo_1213193" data-name="Grupo 1213193" clip-path="url(#clip-path-3)">
        <path id="Trazado_1286129" data-name="Trazado 1286129" d="M19.856,188.435c0-1.756,1.546-2.317,2.96-2.278,1.3.035,2.5.169,3.053,1.483l4.18-1.081c2.28-.589,5.1-3.2,8.31-2.239l7.876,2.349a3.4,3.4,0,0,1,2.433,2.778,15.269,15.269,0,0,0,4.666-1.6c3.162-1.491,6.135-3.17,9.166-4.921,1.386-.8,2.833-.995,4.116.157.932.837,1.616,2.83.448,4.022-4.644,4.736-12.419,11.1-18.47,13.515a12.1,12.1,0,0,1-7.427.511c-5.387-1.25-9.6-1.283-15.192-1.19-.6,1.454-1.71,1.667-3.165,1.665-1.3,0-2.923-.386-2.927-2.016Zm14.535-1.9-3.262,1.534c-1.689.544-3.342.858-5.119,1.325L26,198.183c5.5-.115,10.1-.061,15.414,1.212a10.98,10.98,0,0,0,7.637-.875c5.87-2.845,11.834-7.866,16.6-12.406.545-.519.121-1.368-.208-1.694a1.4,1.4,0,0,0-1.794-.1c-3.5,2-6.924,3.926-10.586,5.607a16.13,16.13,0,0,1-4.8,1.391,3.375,3.375,0,0,1-3.75,1.543l-4.393-.909-2.315-.056c-.535-.013-.644-.727-.556-1.041.144-.514.595-.663,1.15-.7,4.178-.253,7.613,2.309,8.408.063a1.423,1.423,0,0,0-.853-1.772l-7.695-2.332a5.286,5.286,0,0,0-3.869.419M24.26,199.525l-.05-11.416a6.227,6.227,0,0,0-2.618.054l.014,11.519a3.653,3.653,0,0,0,2.654-.157" transform="translate(-15.617 -143.365)" fill="#19538d"/>
        <path id="Trazado_1286130" data-name="Trazado 1286130" d="M84.768,34.08,74.736,41.212a.973.973,0,0,1-1.053,0L63.716,34.13a14.117,14.117,0,0,1-5.132-10.754L58.6,8.205,74.2,0l15.58,8.164.032,15.209A13.9,13.9,0,0,1,84.768,34.08M74.232,39.422l8.876-6.274a12.435,12.435,0,0,0,4.97-9.764L88.061,9.235,74.2,2,60.333,9.263,60.344,23.6a12.423,12.423,0,0,0,4.963,9.553Z" transform="translate(-46.079)" fill="#19538d"/>
        <path id="Trazado_1286131" data-name="Trazado 1286131" d="M210.3,84.677c2.893-.771,6.988-1.962,8.638-4.146s-2.177-4.361-5.061-5.325c.193.582.257.964.037,1.259a.9.9,0,0,1-1.344.131L209.8,73.818a.889.889,0,0,1-.125-.944,1,1,0,0,1,.691-.507l3.56-.942a.821.821,0,0,1,1.118.734c.058.588-.367.884-1.049,1.146a18.174,18.174,0,0,1,5.719,3.156A3.753,3.753,0,0,1,220,82.038c-2.121,2.235-6.133,3.6-9.319,4.34a.893.893,0,0,1-1.044-.584.875.875,0,0,1,.664-1.118" transform="translate(-164.854 -56.146)" fill="#19538d"/>
        <path id="Trazado_1286132" data-name="Trazado 1286132" d="M11.379,88.818c.37.373.025,1.1-.4,1.212L7.167,91.092a.89.89,0,0,1-1.086-.7c-.113-.651.337-.882,1.093-1.215a15.312,15.312,0,0,1-6.052-3.425,3.64,3.64,0,0,1-.238-5c2.036-2.438,6.081-3.733,9.289-4.587.571-.152,1.1-.023,1.27.43a.9.9,0,0,1-.673,1.255c-2.943.743-6.7,1.879-8.531,4.051-1.867,2.215,2.185,4.514,5,5.366-.25-.631-.251-.986.015-1.309a.839.839,0,0,1,1.187-.107Z" transform="translate(0 -59.86)" fill="#19538d"/>
        <path id="Trazado_1286133" data-name="Trazado 1286133" d="M89.195,93.035a.909.909,0,0,1,.343-1.241c1.449-.93,1.265,2.926,5.612,4.58a8.626,8.626,0,0,0,11.244-5.429,2.728,2.728,0,0,1-1.2-3.326,2.672,2.672,0,1,1,2.978,3.589,10.4,10.4,0,0,1-10.85,7.446,9.7,9.7,0,0,1-8.129-5.618m17.98-5.182a.944.944,0,0,0-.215,1.288.929.929,0,0,0,1.255.2.955.955,0,0,0,.308-1.151.9.9,0,0,0-1.348-.333" transform="translate(-70.064 -67.57)" fill="#19538d"/>
        <path id="Trazado_1286134" data-name="Trazado 1286134" d="M93.007,51.553c-.879,1.793-3.386-2.742-9.316-.673-2.077.725-4.529,2.835-5.036,5.368.764.915,1.674,1.986,1.09,3.372a2.764,2.764,0,0,1-2.864,1.7,2.812,2.812,0,0,1-2.331-2.372c-.324-1.53,1.143-2.326,2.062-2.99,1.3-3.041,3.363-5.591,6.226-6.653a10.424,10.424,0,0,1,9.87,1.151.894.894,0,0,1,.3,1.1M76.9,57.844a.841.841,0,0,0-.435,1.292.917.917,0,0,0,1.04.389.933.933,0,0,0,.586-1.16.867.867,0,0,0-1.191-.52" transform="translate(-58.6 -38.202)" fill="#19538d"/>
        <path id="Trazado_1286135" data-name="Trazado 1286135" d="M112.7,68l-4.206-4.164a.917.917,0,0,1,.178-1.252.927.927,0,0,1,1.184.1l3.306,3.3,9.347-11.427a.964.964,0,0,1,1.13-.234.888.888,0,0,1,.312,1.229l-9.764,11.992c-.314.385-.892,1.052-1.487.462" transform="translate(-85.191 -42.654)" fill="#19538d"/>
      </g>
    </g>
  </g>
</svg>
