<svg xmlns="http://www.w3.org/2000/svg" xmlns:xlink="http://www.w3.org/1999/xlink" width="85" height="85" viewBox="0 0 85 85">
  <defs>
    <clipPath id="clip-path">
      <rect id="Rectángulo_468138" data-name="Rectángulo 468138" width="60.069" height="60.076" fill="#12263f"/>
    </clipPath>
  </defs>
  <g id="Grupo_1212807" data-name="Grupo 1212807" transform="translate(-705.629 -410)">
    <g id="Grupo_1180019" data-name="Grupo 1180019">
      <g id="Grupo_1180023" data-name="Grupo 1180023">
        <rect id="Rectángulo_456333" data-name="Rectángulo 456333" width="85" height="85" rx="10" transform="translate(705.629 410)" fill="#68eae0"/>
        <g id="Grupo_1213198" data-name="Grupo 1213198" transform="translate(718.095 423.846)">
          <g id="Grupo_1213197" data-name="Grupo 1213197" clip-path="url(#clip-path)">
            <path id="Trazado_1286138" data-name="Trazado 1286138" d="M49.825,156.2c-1.631-.155-.725-2.453-2.323-2.776a1.5,1.5,0,0,0-1.631.828c-.893,1.681-2.667,2.041-4.46,2.035-4.771-.016-3.954-3.391-6.067-2.827-1.546.413-.476,2.758-2.511,2.787l-3.137.045a15.725,15.725,0,1,1,.042-14.358l20.874.008a6.738,6.738,0,0,1,4.865,1.959l4.093,4.042a1.516,1.516,0,0,1,.122,2.115l-4.417,4.377a6.793,6.793,0,0,1-5.451,1.767m1.45-2.854A4.748,4.748,0,0,0,53.7,152l2.935-2.958-3.293-3.218a3.7,3.7,0,0,0-2.721-.987l-21.63,0a1.594,1.594,0,0,1-1.465-.9,12.886,12.886,0,0,0-13.391-7.614A12.726,12.726,0,0,0,3,147.214a12.864,12.864,0,0,0,24.542,6.965,1.454,1.454,0,0,1,1.406-.772l2.775-.038a4.287,4.287,0,0,1,3.995-2.845c1.859-.058,3.089,1.051,4.152,2.589a3.931,3.931,0,0,0,3.3-.025,4.708,4.708,0,0,1,4.135-2.572,4.475,4.475,0,0,1,3.978,2.832" transform="translate(-0.001 -104.747)" fill="#12263f"/>
            <path id="Trazado_1286139" data-name="Trazado 1286139" d="M216.143,53.827a12.9,12.9,0,0,1-2.865.08l-.024-8.406a1.733,1.733,0,0,1,1.143-1.618l4.582-2.279.027-6.518a4.3,4.3,0,0,1-2.816-4.712,4.281,4.281,0,1,1,5.67,4.688l-.024,7.42a1.47,1.47,0,0,1-.871,1.329l-4.835,2.452Zm3.8-24.121a1.414,1.414,0,1,0,1.024,2.634,1.416,1.416,0,0,0,.733-1.9,1.358,1.358,0,0,0-1.757-.739" transform="translate(-167.497 -21.026)" fill="#12263f"/>
            <path id="Trazado_1286140" data-name="Trazado 1286140" d="M109.1,27.039l-2.546-1.361c-.575-.308-.368-2.1.278-2.436l5.177-2.691.025-12.218a4.293,4.293,0,1,1,2.863-.009l0,13.076a1.626,1.626,0,0,1-1.066,1.5l-4.605,2.274ZM113.222,2.9A1.382,1.382,0,0,0,112.1,4.674a1.416,1.416,0,0,0,2.758-.621A1.365,1.365,0,0,0,113.222,2.9" transform="translate(-83.425 0)" fill="#12263f"/>
            <path id="Trazado_1286141" data-name="Trazado 1286141" d="M2.723,49.878C2.233,51.105.755,51.751.068,52.858L.01,45.264a1.451,1.451,0,0,1,.861-1.272l4.86-2.421-.014-6.52a4.277,4.277,0,0,1-2.8-4.623,4.226,4.226,0,0,1,4.1-3.668,4.262,4.262,0,0,1,1.594,8.272l-.028,7.432a1.383,1.383,0,0,1-.713,1.225L2.921,46.231ZM6.638,29.7a1.434,1.434,0,0,0-.721,2.014,1.4,1.4,0,0,0,1.817.6,1.373,1.373,0,0,0,.725-1.836A1.431,1.431,0,0,0,6.638,29.7" transform="translate(-0.008 -21.017)" fill="#12263f"/>
            <path id="Trazado_1286142" data-name="Trazado 1286142" d="M179.066,74.693a8.083,8.083,0,0,1-2.855.036l-.01-13.048a4.311,4.311,0,0,1-2.8-4.743,4.284,4.284,0,1,1,5.666,4.736Zm-2.136-18.269a1.414,1.414,0,0,0-.43,2.084,1.392,1.392,0,0,0,1.821.371,1.411,1.411,0,1,0-1.391-2.455" transform="translate(-136.149 -41.91)" fill="#12263f"/>
            <path id="Trazado_1286143" data-name="Trazado 1286143" d="M72.388,66.774a13.649,13.649,0,0,0-2.835-.423l-.016-4.674a4.284,4.284,0,1,1,2.87,0Zm-2.006-10.4a1.366,1.366,0,0,0-.629,1.971,1.413,1.413,0,0,0,2.527-1.257,1.393,1.393,0,0,0-1.9-.713" transform="translate(-52.389 -41.916)" fill="#12263f"/>
            <path id="Trazado_1286144" data-name="Trazado 1286144" d="M242.822,138.241a16.927,16.927,0,0,0-2.824-.492l.007-2.972a1.418,1.418,0,0,1,1.387-1.423,1.4,1.4,0,0,1,1.444,1.406Z" transform="translate(-188.502 -104.741)" fill="#12263f"/>
            <path id="Trazado_1286145" data-name="Trazado 1286145" d="M162.863,137.566a12.4,12.4,0,0,1-2.846.023l0-2.811a1.417,1.417,0,0,1,1.387-1.423,1.4,1.4,0,0,1,1.445,1.408Z" transform="translate(-125.683 -104.741)" fill="#12263f"/>
            <path id="Trazado_1286146" data-name="Trazado 1286146" d="M27.7.08a1.422,1.422,0,0,1,1.75.8,1.444,1.444,0,0,1-.711,1.863,1.443,1.443,0,0,1-1.91-.759A1.388,1.388,0,0,1,27.7.08" transform="translate(-20.982 -0.012)" fill="#12263f"/>
            <path id="Trazado_1286147" data-name="Trazado 1286147" d="M240.966.123a1.442,1.442,0,0,1,1.785.721,1.446,1.446,0,0,1-.742,1.92,1.4,1.4,0,0,1-1.884-.781,1.424,1.424,0,0,1,.842-1.859" transform="translate(-188.532 -0.034)" fill="#12263f"/>
            <path id="Trazado_1286148" data-name="Trazado 1286148" d="M80.686,26.9a1.43,1.43,0,1,1,1.443,2.468,1.47,1.47,0,0,1-1.837-.41,1.445,1.445,0,0,1,.393-2.059" transform="translate(-62.855 -20.966)" fill="#12263f"/>
            <path id="Trazado_1286149" data-name="Trazado 1286149" d="M187.421,26.9a1.393,1.393,0,0,1,1.966.542,1.436,1.436,0,0,1-2.4,1.558,1.434,1.434,0,0,1,.434-2.1" transform="translate(-146.646 -20.972)" fill="#12263f"/>
            <path id="Trazado_1286150" data-name="Trazado 1286150" d="M136.459,135.965l-2.057-2a1.451,1.451,0,1,1,2.057,2" transform="translate(-105.564 -104.747)" fill="#12263f"/>
            <path id="Trazado_1286151" data-name="Trazado 1286151" d="M56.252,108.362a10.465,10.465,0,0,0-2.749.325,1.35,1.35,0,0,1,1.03-1.816,1.406,1.406,0,0,1,1.719,1.491" transform="translate(-41.957 -83.92)" fill="#12263f"/>
            <path id="Trazado_1286152" data-name="Trazado 1286152" d="M62.351,193.42a2.8,2.8,0,0,1,3.315,2.269,2.882,2.882,0,0,1-2.216,3.325,2.851,2.851,0,1,1-1.1-5.594" transform="translate(-47.126 -151.878)" fill="#12263f"/>
          </g>
        </g>
      </g>
    </g>
  </g>
</svg>
