<svg xmlns="http://www.w3.org/2000/svg" xmlns:xlink="http://www.w3.org/1999/xlink" width="85" height="85" viewBox="0 0 85 85">
  <defs>
    <clipPath id="clip-path">
      <rect id="Rectángulo_468112" data-name="Rectángulo 468112" width="60.254" height="60.276" fill="#12263f"/>
    </clipPath>
  </defs>
  <g id="Grupo_1180022" data-name="Grupo 1180022" transform="translate(-705.629 -1685)">
    <g id="Grupo_1180020" data-name="Grupo 1180020" transform="translate(0 1275)">
      <rect id="Rectángulo_456333" data-name="Rectángulo 456333" width="85" height="85" rx="10" transform="translate(705.629 410)" fill="#fff"/>
    </g>
    <g id="Grupo_1213146" data-name="Grupo 1213146" transform="translate(718.002 1697.362)">
      <g id="Grupo_1213145" data-name="Grupo 1213145" clip-path="url(#clip-path)">
        <path id="Trazado_1285891" data-name="Trazado 1285891" d="M60.254,52.4a2.884,2.884,0,0,1-2.918,3l-7.775,0A2.87,2.87,0,0,1,46.65,52.5l-.005-4.861-3.88,0-.037,7.955c-.01,2.218-3.557,3.607-6.032,4.071a35.337,35.337,0,0,1-13.122,0c-2.49-.473-6.044-1.838-6.054-4.072l-.036-7.954-3.88,0L13.6,52.5A2.87,2.87,0,0,1,10.688,55.4H2.91A2.869,2.869,0,0,1,0,52.487V40.824a2.864,2.864,0,0,1,2.9-2.905h7.789a2.865,2.865,0,0,1,2.906,2.9l0,4.879,3.885,0,.01-7.787c0-2.366,3.259-3.671,5.79-4.167l.021-2.624-10.676,0-.007-5.834H2.911A2.894,2.894,0,0,1,0,22.348V2.927A2.8,2.8,0,0,1,2.731.038L24.089,0A2.909,2.909,0,0,1,27.2,2.936l0,19.412a2.866,2.866,0,0,1-2.911,2.926l-9.716.011,0,3.892,10.679-.01.017,4.182a41.035,41.035,0,0,1,9.7,0l.017-4.18,10.679.01,0-3.892-9.716-.011a2.867,2.867,0,0,1-2.911-2.925V2.926A2.8,2.8,0,0,1,35.775.038L57.132,0a2.909,2.909,0,0,1,3.114,2.936l0,19.41a2.9,2.9,0,0,1-2.911,2.937H47.621l-.007,5.828-10.676,0-.015,2.595c2.593.588,5.843,1.712,5.84,4.387l-.008,7.594,3.889,0,0-4.879a2.865,2.865,0,0,1,2.906-2.9h7.789a2.864,2.864,0,0,1,2.9,2.906Zm-35-44.612.008-4.866a1.007,1.007,0,0,0-.824-.966l-21.678,0a.968.968,0,0,0-.815.967l0,4.87ZM57.384,23.342a.994.994,0,0,0,.921-1.008V2.945a.984.984,0,0,0-.82-.987l-21.68,0a.979.979,0,0,0-.82.985v19.39a1,1,0,0,0,1,1.006Zm-33.044,0a.991.991,0,0,0,.919-1l.008-12.608H1.938V22.343a1.013,1.013,0,0,0,1,1Zm16.031,15.31c1.458-1-1.023-2.42-3.426-2.939L36.921,37.9l-1.938.008-.056-2.619a38.842,38.842,0,0,0-9.65.024L25.26,37.9l-1.932.013-.024-2.2c-1.646.4-3.951,1.3-3.827,2.264.349,2.716,15.3,4.494,20.894.674M10.762,53.465a1,1,0,0,0,.893-.993V40.837a.968.968,0,0,0-.973-.978l-7.765,0a.964.964,0,0,0-.972.977L1.938,52.473a1.009,1.009,0,0,0,.984.992Zm46.65,0a1,1,0,0,0,.893-.993V40.837a.968.968,0,0,0-.973-.978l-7.765,0a.964.964,0,0,0-.972.977l-.006,11.636a1.009,1.009,0,0,0,.984.992ZM39.627,45c.527-.347,1.158-.68,1.159-1.274l0-2.993c-4.651,2.418-11.914,2.4-17.083,1.474a14.878,14.878,0,0,1-4.242-1.472l-.04,2.623a1.417,1.417,0,0,0,.667,1.288c3.506,2.094,8.951,2.187,13.14,1.878A17.944,17.944,0,0,0,39.627,45m0,5.831c.527-.347,1.158-.68,1.159-1.274l0-2.993c-4.651,2.418-11.914,2.4-17.083,1.474a14.878,14.878,0,0,1-4.242-1.472l-.04,2.623a1.417,1.417,0,0,0,.667,1.288c3.506,2.094,8.951,2.187,13.14,1.878a17.944,17.944,0,0,0,6.395-1.523m.588,5.452a1.462,1.462,0,0,0,.607-1.263L40.783,52.4a14.708,14.708,0,0,1-4.246,1.472c-5.155.927-12.443.944-17.071-1.47l-.042,2.622a1.472,1.472,0,0,0,.789,1.371c4.182,2.347,11.356,2.246,16.118,1.365a11.764,11.764,0,0,0,3.884-1.472" transform="translate(0 0)" fill="#12263f"/>
        <path id="Trazado_1285892" data-name="Trazado 1285892" d="M212.479,29.763l-17.438.005-.017-1.951,1.937,0V21.984l3.878.007.018-1.954h5.818l.006,3.9,3.882-.007,0,3.889H212.5Zm-7.733-1.986-.011-5.788-1.948,0V27.8Zm-3.885.014-.014-3.859-1.948,0v3.873Zm7.765.019-.013-1.938-1.93,0v1.94Z" transform="translate(-157.116 -16.142)" fill="#12263f"/>
        <path id="Trazado_1285893" data-name="Trazado 1285893" d="M212.54,102.018l-17.437.005,0-1.95h17.445Z" transform="translate(-157.178 -80.621)" fill="#12263f"/>
        <path id="Trazado_1285894" data-name="Trazado 1285894" d="M236.7,82.006l-11.618.007,0-1.952H236.7Z" transform="translate(-181.327 -64.5)" fill="#12263f"/>
        <path id="Trazado_1285895" data-name="Trazado 1285895" d="M198.905,81.964l-3.869.011V80.021H198.9Z" transform="translate(-157.125 -64.466)" fill="#12263f"/>
        <path id="Trazado_1285896" data-name="Trazado 1285896" d="M55.593,102.015l-15.5.006,0-1.95H55.6Z" transform="translate(-32.301 -80.619)" fill="#12263f"/>
        <path id="Trazado_1285897" data-name="Trazado 1285897" d="M25.814,65.855l-5.839.028V60.041h5.833Zm-1.945-1.929-.013-1.938-1.93,0v1.94Z" transform="translate(-16.092 -48.37)" fill="#12263f"/>
        <path id="Trazado_1285898" data-name="Trazado 1285898" d="M71.7,82.006l-11.618.007,0-1.952H71.7Z" transform="translate(-48.399 -64.5)" fill="#12263f"/>
        <path id="Trazado_1285899" data-name="Trazado 1285899" d="M71.7,62.006l-11.618.007,0-1.952H71.7Z" transform="translate(-48.399 -48.387)" fill="#12263f"/>
        <path id="Trazado_1285900" data-name="Trazado 1285900" d="M21.956,101.969l-1.941.015v-1.94l1.93,0Z" transform="translate(-16.123 -80.597)" fill="#12263f"/>
        <path id="Trazado_1285901" data-name="Trazado 1285901" d="M21.956,21.969l-1.941.015v-1.94l1.93,0Z" transform="translate(-16.123 -16.147)" fill="#12263f"/>
        <path id="Trazado_1285902" data-name="Trazado 1285902" d="M41.956,21.969l-1.941.015v-1.94l1.93,0Z" transform="translate(-32.235 -16.147)" fill="#12263f"/>
        <path id="Trazado_1285903" data-name="Trazado 1285903" d="M61.956,21.969l-1.941.015v-1.94l1.93,0Z" transform="translate(-48.348 -16.147)" fill="#12263f"/>
        <path id="Trazado_1285904" data-name="Trazado 1285904" d="M265.854,216.981l-5.8.011v-1.955h5.8Z" transform="translate(-209.503 -173.238)" fill="#12263f"/>
        <path id="Trazado_1285905" data-name="Trazado 1285905" d="M265.854,236.981l-5.8.011v-1.955h5.8Z" transform="translate(-209.503 -189.351)" fill="#12263f"/>
        <path id="Trazado_1285906" data-name="Trazado 1285906" d="M265.854,256.981l-5.8.011v-1.955h5.8Z" transform="translate(-209.503 -205.463)" fill="#12263f"/>
        <path id="Trazado_1285907" data-name="Trazado 1285907" d="M25.854,216.981l-5.8.011v-1.955h5.8Z" transform="translate(-16.152 -173.238)" fill="#12263f"/>
        <path id="Trazado_1285908" data-name="Trazado 1285908" d="M25.854,236.981l-5.8.011v-1.955h5.8Z" transform="translate(-16.152 -189.351)" fill="#12263f"/>
        <path id="Trazado_1285909" data-name="Trazado 1285909" d="M25.854,256.981l-5.8.011v-1.955h5.8Z" transform="translate(-16.152 -205.463)" fill="#12263f"/>
      </g>
    </g>
  </g>
</svg>
