<svg xmlns="http://www.w3.org/2000/svg" xmlns:xlink="http://www.w3.org/1999/xlink" width="85" height="85" viewBox="0 0 85 85">
  <defs>
    <clipPath id="clip-path">
      <rect id="Rectángulo_468113" data-name="Rectángulo 468113" width="62.718" height="62.771" fill="none"/>
    </clipPath>
  </defs>
  <g id="Grupo_1212761" data-name="Grupo 1212761" transform="translate(-705.629 -410)">
    <g id="Grupo_1180019" data-name="Grupo 1180019">
      <g id="Grupo_1180023" data-name="Grupo 1180023">
        <rect id="Rectángulo_456333" data-name="Rectángulo 456333" width="85" height="85" rx="10" transform="translate(705.629 410)" fill="#68eae0"/>
        <g id="Grupo_1213148" data-name="Grupo 1213148" transform="translate(716.77 421.114)">
          <g id="Grupo_1213147" data-name="Grupo 1213147" clip-path="url(#clip-path)">
            <path id="Trazado_1285910" data-name="Trazado 1285910" d="M13.332,55.144l-.159,4.342c-.088,2.412-6,4.5-10.758,2.443C1.376,61.479.08,60.585.072,59.4L0,49.426a3.063,3.063,0,0,1,1.5-2.418.982.982,0,0,1,1.437.166c.687,1-1,1.573-1.091,2.192a1.108,1.108,0,0,0,.6.988c4.537,2.58,10.973-.131,8.253-1.836-2.471-1.549-4.954-.334-5.242-1.758-.467-2.306,7.7-.673,7.756,2.368l.078,4.208,8.2-.019,3.537-3.575a15.191,15.191,0,0,1-6.037-2.632,4.111,4.111,0,0,1-1.806-2.895l-.048-6.32a3.435,3.435,0,0,1,.523-1.691,7.154,7.154,0,0,1-.507-3.886H13.278l-.062,4.1c-.042,2.776-6.035,4.637-10.741,2.7C1.393,38.67.058,37.725.058,36.484V26.28c0-1.246,1.333-2.175,2.421-2.626C7.2,21.7,13.133,23.646,13.19,26.2l.1,4.254,3.868,0a7.2,7.2,0,0,1,.508-3.9,3.308,3.308,0,0,1-.512-1.528l.015-6.325c0-1.62,2.214-4.149,3.187-3.066s-1.126,1.625-1.335,3.127c-.273,1.957,2.885,3.493,5.2,4.105a27.9,27.9,0,0,0,14.459-.045,10.164,10.164,0,0,0,4.376-2.282,2.052,2.052,0,0,0,.028-3.041c-3.7-3.7-13.913-3.93-19.2-2.252a.982.982,0,0,1-1.15-.421.869.869,0,0,1,.2-1.114,8.987,8.987,0,0,1,2.1-.707L21.5,9.455H13.294l-.121,4.336C13.1,16.213,6.85,18.526,1.9,15.979A3.073,3.073,0,0,1,.03,13.53L.07,3.365c0-1.2,1.306-2.083,2.345-2.525C7.263-1.221,13.1.891,13.172,3.276L13.3,7.638l8.978.03,4.985,4.977a31.46,31.46,0,0,1,8.231,0L40.474,7.67l8.979-.042.122-4.353c.068-2.419,6.2-4.64,11.158-2.253.889.428,1.949,1.332,1.952,2.343l.033,10.165a3.072,3.072,0,0,1-1.868,2.447c-4.97,2.54-11.206.243-11.274-2.188l-.121-4.336-8.208,0-3.526,3.561c3.046.619,7.815,2.759,7.838,5.525l.053,6.324a3.483,3.483,0,0,1-.523,1.691,7.2,7.2,0,0,1,.508,3.894h3.873l.063-4.11c.043-2.806,6.117-4.609,10.742-2.691.993.412,2.381,1.308,2.385,2.472l.034,10.356c0,1.187-1.263,2.129-2.289,2.572-4.757,2.057-10.83.148-10.872-2.633l-.063-4.1-3.874.012a7.163,7.163,0,0,1-.506,3.874,3.483,3.483,0,0,1,.522,1.691l-.052,6.322c-.022,2.76-4.791,4.917-7.839,5.524l3.538,3.588,8.194-.008.124-4.352c.069-2.431,6.246-4.656,11.146-2.256a3.148,3.148,0,0,1,1.995,2.515L62.682,59.4c0,1.066-1.141,1.97-2.072,2.406-4.9,2.3-10.967.086-11.034-2.317l-.122-4.346-8.9-.007-5.072-5.017a29.816,29.816,0,0,1-8.225,0l-4.992,4.986ZM11.369,3.654a1.206,1.206,0,0,0-.565-.786c-4.94-2.647-10.879.4-8.363,1.8,4,2.232,9.163.453,8.927-1.017m48.86-.792c-3.743-2.135-8.962-.516-8.856.957a1.326,1.326,0,0,0,.653.9c4.61,2.547,10.919-.306,8.2-1.855M11.363,8.626a9.244,9.244,0,0,0,.007-2.111,11.149,11.149,0,0,1-9.544-.04c-.036,1.851-.293,2.714,1.451,3.39,3.435,1.333,7.874.214,8.085-1.24m49.526-.047.038-2.1a11.139,11.139,0,0,1-9.538.037,5.416,5.416,0,0,0,.1,2.436c2.535,2.665,9.367,1.375,9.4-.372M11.331,13.518a6.532,6.532,0,0,0,.011-2.223,10.985,10.985,0,0,1-9.457-.035,6.027,6.027,0,0,0,.02,2.2c.171.586.915.981,1.48,1.2,3.444,1.324,7.69.1,7.946-1.14m49.517-.058a6.547,6.547,0,0,0,.018-2.2,10.967,10.967,0,0,1-9.464.039c-.144,1.579-.286,2.549.891,3.1,3.657,1.724,8.192.477,8.555-.937M43.729,24.915l-.015-2.464a14.2,14.2,0,0,1-4.451,2.126C33.069,26.29,24.47,26.19,19.032,22.459l-.013,2.453c-.01,1.81,3.674,3.337,5.972,3.871a28.049,28.049,0,0,0,12.767,0c2.306-.54,5.982-2.067,5.971-3.866M11.375,26.586c-.108-1.451-5.133-2.982-8.933-.857a1.127,1.127,0,0,0-.588,1,1.527,1.527,0,0,0,.664.82c3.8,2.132,8.965.488,8.857-.96m48.932-.858c-3.8-2.124-8.831-.6-8.934.858a1.1,1.1,0,0,0,.574.949c4.922,2.651,10.87-.405,8.36-1.807M39.859,37.656a6.393,6.393,0,0,0,3.7-2.671c.484-.894.126-2.044.174-3.021l-1.473.89a.863.863,0,0,1-1.2-.475c-.59-1.49,2.983-1.664,2.638-4.224a14.752,14.752,0,0,1-5.2,2.336c-5.967,1.46-14.29,1.287-19.462-2.345-.337,2.239,3.1,3.693,5.418,4.3a28.181,28.181,0,0,0,12.909.242c.627-.131,1.1.049,1.265.611A.968.968,0,0,1,37.8,34.5c-5.906,1.2-13.754.972-18.773-2.535.028.982-.321,2.133.163,3.026a6.521,6.521,0,0,0,3.777,2.7,26.256,26.256,0,0,0,16.9-.026m-28.532-6.09a6.435,6.435,0,0,0,.027-2.192,11.293,11.293,0,0,1-9.5-.027l.03,2.178c.006.486.712.9,1.2,1.1,3.427,1.407,7.894.387,8.247-1.059m49.528-.049a6.91,6.91,0,0,0,.02-2.164,11.308,11.308,0,0,1-9.483.029,5.209,5.209,0,0,0,.087,2.312,2.455,2.455,0,0,0,1.464,1.072c3.162,1.148,7.532.286,7.912-1.25M11.371,34.069a10.853,10.853,0,0,1-9.513,0l.012,2.165c.007,1.2,4.305,2.693,8.122,1.232,1.622-.621,1.518-1.59,1.379-3.394m49.516,2.1,0-2.1a10.868,10.868,0,0,1-9.516.006c-.146,1.877-.232,2.817,1.519,3.446,3.695,1.328,7.994-.013,8-1.352M43.7,37.666c-5.06,3.575-13.266,3.821-19.218,2.4a14.658,14.658,0,0,1-5.433-2.4c-.39,2.287,3.311,3.809,5.788,4.4a27.893,27.893,0,0,0,12.919.04c2.525-.592,6.322-2.1,5.944-4.443m.056,6.088-.035-2.271a14.286,14.286,0,0,1-3.862,1.945,28.715,28.715,0,0,1-17.26-.1,14.225,14.225,0,0,1-3.577-1.85l-.005,2.454c0,1.685,3.234,3.166,5.331,3.716a27.532,27.532,0,0,0,14.053,0c2.179-.576,5.386-2.005,5.356-3.9m16.71,5.008c-2.8-2.284-9.249-.979-9.088.752a1.271,1.271,0,0,0,.639.889c4.463,2.406,10.433-.025,8.449-1.641m-49.3,5.954c.536-.614.187-1.778.181-2.5a11.251,11.251,0,0,1-9.509-.047l.026,2.1c.023,1.821,7.153,2.911,9.3.448m49.73-.446.025-2.1a11.284,11.284,0,0,1-9.511.045c-.006.722-.355,1.884.18,2.5,2.149,2.465,9.285,1.367,9.306-.446M11.328,59.213a6.233,6.233,0,0,0,.01-2.233,11.2,11.2,0,0,1-9.454-.018,5.957,5.957,0,0,0,.023,2.195c.169.565.916.992,1.48,1.2,3.377,1.241,7.655.166,7.94-1.143m49.517-.06a6.335,6.335,0,0,0,.023-2.195,11.214,11.214,0,0,1-9.459.024c-.173,1.663-.282,2.608,1.018,3.178,3.473,1.521,8,.493,8.418-1.007" transform="translate(0 0)"/>
          </g>
        </g>
      </g>
    </g>
  </g>
</svg>
