<svg xmlns="http://www.w3.org/2000/svg" xmlns:xlink="http://www.w3.org/1999/xlink" width="128" height="128" viewBox="0 0 128 128">
  <defs>
    <clipPath id="clip-path">
      <rect id="Rectángulo_456267" data-name="Rectángulo 456267" width="128" height="128" fill="none"/>
    </clipPath>
    <clipPath id="clip-path-2">
      <rect id="Rectángulo_468115" data-name="Rectángulo 468115" width="62.78" height="70.536" fill="#19538d"/>
    </clipPath>
  </defs>
  <g id="Grupo_1212758" data-name="Grupo 1212758" transform="translate(511.746 8527) rotate(180)">
    <path id="Trazado_999622" data-name="Trazado 999622" d="M59.07,0A59.07,59.07,0,1,1,0,59.07,59.071,59.071,0,0,1,59.07,0" transform="translate(388.676 8403.93)" fill="#fff"/>
    <g id="Grupo_1179902" data-name="Grupo 1179902" transform="translate(383.746 8399)">
      <g id="Grupo_1179905" data-name="Grupo 1179905" clip-path="url(#clip-path)">
        <path id="Trazado_999618" data-name="Trazado 999618" d="M64,0A64,64,0,1,1,0,64,64,64,0,0,1,64,0" fill="none"/>
        <path id="Trazado_999619" data-name="Trazado 999619" d="M5,59a5,5,0,1,1-5,5,5,5,0,0,1,5-5" fill="#19538d"/>
        <path id="Trazado_999620" data-name="Trazado 999620" d="M21,19a5,5,0,1,1-5,5,5,5,0,0,1,5-5" fill="#19538d"/>
        <path id="Trazado_999621" data-name="Trazado 999621" d="M64,124A60.068,60.068,0,0,1,4,64H7A57,57,0,1,0,22.408,25.024L20.22,22.972A60,60,0,1,1,64,124" fill="#19538d"/>
        <rect id="Rectángulo_456268" data-name="Rectángulo 456268" width="128" height="128" fill="none"/>
        <rect id="Rectángulo_456269" data-name="Rectángulo 456269" width="128" height="128" fill="none"/>
      </g>
    </g>
    <g id="Grupo_1213152" data-name="Grupo 1213152" transform="translate(479.136 8498.268) rotate(180)">
      <g id="Grupo_1213151" data-name="Grupo 1213151" clip-path="url(#clip-path-2)">
        <path id="Trazado_1285913" data-name="Trazado 1285913" d="M107.229,210.494c-5.347,3.811-16.024,3.775-21.26,0a4.821,4.821,0,0,1-2.3-3.6l-.032-17.154c0-2.6,3.091-4.593,5.771-5.468a23.921,23.921,0,0,1,13.386-.312c3.026.782,6.764,2.906,6.758,5.776l-.03,17.157a4.823,4.823,0,0,1-2.291,3.6m-.577-19.041c3.351-3.36-6.1-7.924-15.85-5.32a9.661,9.661,0,0,0-4.177,2.191,2.053,2.053,0,0,0-.09,3.126c4.086,4.057,16.106,4.024,20.117,0m.617,7.146.1-4.768a16.22,16.22,0,0,1-5.15,2.222c-5.278,1.206-11.77.839-16.4-2.223l.121,4.867c.026,1.07,1.353,1.936,2.408,2.423a20.631,20.631,0,0,0,16.512.051c1-.726,2.381-1.248,2.408-2.571m-.06,8.379.151-4.781A17.07,17.07,0,0,1,99.8,204.84c-4.755.6-9.918,0-13.986-2.644.16,1.7-.281,3.277.166,4.84.406,1.421,2.066,2.344,3.479,2.855a21.17,21.17,0,0,0,14.109.068c1.45-.5,3.236-1.456,3.639-2.981" transform="translate(-65.207 -142.803)" fill="#19538d"/>
        <path id="Trazado_1285914" data-name="Trazado 1285914" d="M205.588,25.489a2.293,2.293,0,0,1-2.406-2.347l.005-17.614a2.049,2.049,0,0,1,.578-1.46l3.069-3.1a3.365,3.365,0,0,1,1.511-.938L219.322.019a2.223,2.223,0,0,1,1.864,2.119l.008,21.093a2.278,2.278,0,0,1-2.33,2.253Zm-.146-2.209,13.543,0,0-21.072-8.842.007,0,3.536a1.128,1.128,0,0,1-1.164,1.18l-3.6.032Zm2.477-18.638a3.406,3.406,0,0,0-.093-1.552l-1.509,1.516a2.341,2.341,0,0,0,1.6.035" transform="translate(-158.415 -0.015)" fill="#19538d"/>
        <path id="Trazado_1285915" data-name="Trazado 1285915" d="M117.4,25.594l-13.666.017a2.214,2.214,0,0,1-2.215-2.131l-.024-17.81a1.953,1.953,0,0,1,.584-1.4L106.23.192l11.528.017a2.165,2.165,0,0,1,1.764,1.933V23.478a2.18,2.18,0,0,1-2.125,2.116m-13.688-2.148,13.625-.041,0-21.058-8.828,0-.036,3.518a1.044,1.044,0,0,1-1.03,1.191l-3.732.031Zm2.579-18.68-.049-1.524-1.508,1.491a2.124,2.124,0,0,0,1.557.033" transform="translate(-79.13 -0.15)" fill="#19538d"/>
        <path id="Trazado_1285916" data-name="Trazado 1285916" d="M2.416,25.476a2.258,2.258,0,0,1-2.4-2.122L0,5.514A2.125,2.125,0,0,1,.6,4.03L4.02.613A2.022,2.022,0,0,1,5.4.012L15.951,0a2.175,2.175,0,0,1,2.054,2.212l0,20.913a2.276,2.276,0,0,1-2.317,2.341Zm-.17-2.191,13.563-.011L15.8,2.2l-8.848-.01L6.946,5.739A1.068,1.068,0,0,1,5.837,6.921l-3.644.036Zm2.5-18.676L4.68,3.073,3.148,4.583a2.151,2.151,0,0,0,1.595.025" transform="translate(0)" fill="#19538d"/>
        <path id="Trazado_1285917" data-name="Trazado 1285917" d="M202.058,137.251a1.165,1.165,0,0,1-.858-1.454l1.144-3.511a1.079,1.079,0,0,1,.967-.772,1.1,1.1,0,0,1,1.074.544c.239.456.048.924-.106,1.621a10.829,10.829,0,0,0,5.276-7.179,1.126,1.126,0,0,1,1.443-.906c.609.161.846.793.7,1.519-1.257,6.074-6.579,8.478-6.5,8.782.053.2,1.788.308,1.655,1.513a1.13,1.13,0,0,1-1.58.92Z" transform="translate(-156.827 -97.887)" fill="#19538d"/>
        <path id="Trazado_1285918" data-name="Trazado 1285918" d="M45.5,137.223l-3.37,1.143a1.128,1.128,0,0,1-1.555-.762c-.338-1.3,1.6-1.489,1.628-1.667.051-.334-5.248-2.72-6.5-8.784a1.21,1.21,0,0,1,.529-1.457c.429-.21,1.38-.091,1.5.524a11.2,11.2,0,0,0,5.386,7.513c-.226-.832-.368-1.465.092-1.895a1.112,1.112,0,0,1,1.762.33l1.227,3.671a1.118,1.118,0,0,1-.7,1.382" transform="translate(-27.802 -97.928)" fill="#19538d"/>
        <path id="Trazado_1285919" data-name="Trazado 1285919" d="M129.832,135.626c-.3.321-1,.531-1.3.227l-3.138-3.221c-.477-.49.246-1.334.683-1.432.692-.156,1.2.2,1.79.936l.055-5.367a1.11,1.11,0,1,1,2.216,0l.052,5.363c.557-.663.989-1,1.6-.968.563.032,1.391.915.869,1.468Z" transform="translate(-97.645 -97.913)" fill="#19538d"/>
        <path id="Trazado_1285920" data-name="Trazado 1285920" d="M229.59,41.692h-8.166a1.084,1.084,0,0,1-1.129-1.082,1.112,1.112,0,0,1,1-1.1h8.418a1.123,1.123,0,0,1,1.023,1.1,1.1,1.1,0,0,1-1.151,1.084" transform="translate(-171.757 -30.802)" fill="#19538d"/>
        <path id="Trazado_1285921" data-name="Trazado 1285921" d="M229.6,74.681H221.43A1.093,1.093,0,0,1,221.3,72.5l8.424-.007a1.1,1.1,0,0,1-.133,2.188" transform="translate(-171.763 -56.521)" fill="#19538d"/>
        <path id="Trazado_1285922" data-name="Trazado 1285922" d="M128.02,74.627l-8.061.011a1.126,1.126,0,0,1-1.26-1.089,1.1,1.1,0,0,1,1.085-1.123l8.291,0a1.1,1.1,0,1,1-.056,2.2" transform="translate(-92.546 -56.469)" fill="#19538d"/>
        <path id="Trazado_1285923" data-name="Trazado 1285923" d="M127.9,41.654h-7.946a1.109,1.109,0,1,1-.13-2.207h8.208a1.109,1.109,0,1,1-.132,2.207" transform="translate(-92.541 -30.756)" fill="#19538d"/>
        <path id="Trazado_1285924" data-name="Trazado 1285924" d="M26.5,41.684l-8.165,0A1.1,1.1,0,0,1,17.184,40.6a1.13,1.13,0,0,1,1.027-1.1l8.416.006a1.109,1.109,0,0,1,1.005,1.1A1.085,1.085,0,0,1,26.5,41.684" transform="translate(-13.398 -30.797)" fill="#19538d"/>
        <path id="Trazado_1285925" data-name="Trazado 1285925" d="M26.508,74.681l-8.166,0a1.1,1.1,0,0,1-.132-2.191l8.424.007a1.093,1.093,0,0,1-.126,2.181" transform="translate(-13.402 -56.521)" fill="#19538d"/>
      </g>
    </g>
  </g>
</svg>
