<svg xmlns="http://www.w3.org/2000/svg" xmlns:xlink="http://www.w3.org/1999/xlink" width="98" height="98" viewBox="0 0 98 98">
  <defs>
    <clipPath id="clip-path">
      <rect id="Rectángulo_456312" data-name="Rectángulo 456312" width="98" height="98" transform="translate(0.059 0.059)" fill="none"/>
    </clipPath>
    <clipPath id="clip-path-3">
      <rect id="Rectángulo_468120" data-name="Rectángulo 468120" width="56.483" height="58.399" fill="#19538d"/>
    </clipPath>
  </defs>
  <g id="Grupo_1212767" data-name="Grupo 1212767" transform="translate(-307.117 -10093.059)">
    <g id="Grupo_1179968" data-name="Grupo 1179968" transform="translate(307.059 10093)">
      <g id="Grupo_1179959" data-name="Grupo 1179959" clip-path="url(#clip-path)">
        <path id="Trazado_999654" data-name="Trazado 999654" d="M1.5,5.146H81.261A12.087,12.087,0,0,1,93.377,17.2V96.585H13.616A12.087,12.087,0,0,1,1.5,84.527Z" transform="translate(0.014 0.025)" fill="#fff"/>
      </g>
      <g id="Grupo_1179960" data-name="Grupo 1179960">
        <g id="Grupo_1179956" data-name="Grupo 1179956" clip-path="url(#clip-path)">
          <path id="Trazado_999651" data-name="Trazado 999651" d="M92.229,30a5.024,5.024,0,1,1-5.048,5.024A5.037,5.037,0,0,1,92.229,30" transform="translate(0.84 0.145)" fill="#19538d"/>
          <path id="Trazado_999652" data-name="Trazado 999652" d="M63.229,0a5.024,5.024,0,1,1-5.048,5.024A5.037,5.037,0,0,1,63.229,0" transform="translate(0.56 0)" fill="#19538d"/>
          <path id="Trazado_999653" data-name="Trazado 999653" d="M93.377,35.144V96.585H13.616A12.087,12.087,0,0,1,1.5,84.527V5.146H64.459" transform="translate(0.014 0.025)" fill="none" stroke="#19538d" stroke-miterlimit="10" stroke-width="3"/>
        </g>
      </g>
    </g>
    <g id="Grupo_1213162" data-name="Grupo 1213162" transform="translate(328.876 10112.859)">
      <g id="Grupo_1213161" data-name="Grupo 1213161" clip-path="url(#clip-path-3)">
        <path id="Trazado_1285966" data-name="Trazado 1285966" d="M47.725,15.3a12.653,12.653,0,0,1,.589,13.1L50.968,31.1a.9.9,0,0,1-.1,1.063.773.773,0,0,1-1.042.1l-2.474-2.4a10.975,10.975,0,0,1-2.521,2.519l6.9,6.885a1.783,1.783,0,0,0,2.525-2.516l-1.812-1.837a.814.814,0,0,1-.071-1.04.827.827,0,0,1,1.156-.206l2.019,1.98a3.415,3.415,0,0,1,.075,4.634,3.323,3.323,0,0,1-4.786.443l-3.066-2.982-.041,18.066A2.643,2.643,0,0,1,44.993,58.4L7.462,58.391a2.652,2.652,0,0,1-2.626-2.709l0-2.235-2.315-.041A2.613,2.613,0,0,1,0,50.869L0,2.612A2.554,2.554,0,0,1,2.5.039L12.35.012a.843.843,0,0,1,.876.821.814.814,0,0,1-.865.875L2.72,1.719A1.013,1.013,0,0,0,1.7,2.779V50.693a.848.848,0,0,0,.8.938l2.33-.01L4.841,7.7A2.563,2.563,0,0,1,7.348,5.042l33.8-.031.029-2.269a.966.966,0,0,0-.957-1.025L16.206,1.7c-.5,0-.7-.541-.672-.842a.853.853,0,0,1,.857-.837L39.891,0a2.7,2.7,0,0,1,2.991,2.576L42.919,5l2.4.039A2.6,2.6,0,0,1,47.735,7.67ZM43.333,33.346A12.5,12.5,0,0,1,29,31.731a12.327,12.327,0,0,1-3.711-12.914,12.537,12.537,0,0,1,20.669-5.6l.049-5.547c.005-.6-.416-.915-1.019-.915l-37.347,0c-.6,0-1.113.284-1.113.96l0,47.9a1.063,1.063,0,0,0,1.133,1.112H44.788a1.1,1.1,0,0,0,1.227-1.074V35.97Zm2.373-4.194a10.822,10.822,0,1,0-14.58,2.091,10.8,10.8,0,0,0,14.58-2.091" transform="translate(0 -0.001)" fill="#19538d"/>
        <path id="Trazado_1285967" data-name="Trazado 1285967" d="M72.207,201.544l9.047.013a.883.883,0,0,1,.843.847c0,.571-.412.876-1.019.876l-9.31,0a.986.986,0,0,1-.92-.615l-1.078-2.331a9.782,9.782,0,1,1,2.84-13.9l9.344.018c.441,0,.7.523.706.809a.841.841,0,0,1-.849.865l-8.246-.007a9.807,9.807,0,0,1-2.328,11.1Zm-.573-13.43-2.43.02a.881.881,0,0,1-1-.892c-.006-.912,1.017-.776,2.119-.9a8.069,8.069,0,1,0-6.581,13.7l0-7.971a.881.881,0,0,1,.918-.91l7.944-.044a7.358,7.358,0,0,0-.971-3.009m-1.126,9.369a7.759,7.759,0,0,0,2.1-4.576l-7.149-.013,0,7.159a7.8,7.8,0,0,0,3.639-1.346l-.823-1.868a.843.843,0,0,1,.51-1.144c1.115-.255,1.059.765,1.726,1.787" transform="translate(-44.817 -149.006)" fill="#19538d"/>
        <path id="Trazado_1285968" data-name="Trazado 1285968" d="M66.354,94.216l-10.6.033a.9.9,0,0,1-.9-.832.865.865,0,0,1,.928-.91l10.468.005a.822.822,0,0,1,.881.742.842.842,0,0,1-.778.962" transform="translate(-44.844 -75.63)" fill="#19538d"/>
        <path id="Trazado_1285969" data-name="Trazado 1285969" d="M66.356,149.151l-10.6.018a.941.941,0,0,1-.9-.815.87.87,0,0,1,.924-.922l10.657.015c.454,0,.656.45.695.744a.842.842,0,0,1-.775.96" transform="translate(-44.845 -120.534)" fill="#19538d"/>
        <path id="Trazado_1285970" data-name="Trazado 1285970" d="M66.139,120.8l-10.4-.009a.839.839,0,0,1-.893-.877.856.856,0,0,1,.9-.835l10.564.005a.826.826,0,0,1,.814.814c.016.585-.36.9-.987.9" transform="translate(-44.842 -97.35)" fill="#19538d"/>
        <path id="Trazado_1285971" data-name="Trazado 1285971" d="M66.429,67.676,55.781,67.7a.825.825,0,0,1-.873-.73c-.059-.372.141-.968.691-.968L66.353,66a.838.838,0,0,1,.8.666.828.828,0,0,1-.72,1.01" transform="translate(-44.882 -53.959)" fill="#19538d"/>
        <path id="Trazado_1285972" data-name="Trazado 1285972" d="M204.354,232.817l-5.337,0a.852.852,0,0,1-.909-.767.893.893,0,0,1,.842-.964h5.469a.884.884,0,0,1,.839.836.856.856,0,0,1-.9.889" transform="translate(-161.961 -188.93)" fill="#19538d"/>
        <path id="Trazado_1285973" data-name="Trazado 1285973" d="M204.421,255.835l-5.405.015a.883.883,0,0,1-.913-.77.892.892,0,0,1,.846-.962h5.466a.883.883,0,0,1,.841.836.84.84,0,0,1-.835.882" transform="translate(-161.957 -207.755)" fill="#19538d"/>
        <path id="Trazado_1285974" data-name="Trazado 1285974" d="M162.921,73.2a9.007,9.007,0,1,1-7.673,10.227A8.967,8.967,0,0,1,162.921,73.2m.917,1.641a7.291,7.291,0,1,0,.78,14.56,7.291,7.291,0,0,0-.78-14.56" transform="translate(-126.847 -59.775)" fill="#19538d"/>
        <path id="Trazado_1285975" data-name="Trazado 1285975" d="M182.07,109.723l-1.62-3.207a.818.818,0,0,1,.5-1.157.885.885,0,0,1,1.074.505l1.02,2,4.445-4.287c.283-.272.5-.523.868-.488a.917.917,0,0,1,.747.53.889.889,0,0,1-.327,1.066l-5.287,5.107c-.383.371-1.1.563-1.421-.065" transform="translate(-147.454 -84.275)" fill="#19538d"/>
      </g>
    </g>
  </g>
</svg>
