<svg xmlns="http://www.w3.org/2000/svg" xmlns:xlink="http://www.w3.org/1999/xlink" width="85" height="85" viewBox="0 0 85 85">
  <defs>
    <clipPath id="clip-path">
      <rect id="Rectángulo_468124" data-name="Rectángulo 468124" width="59.829" height="59.836" fill="#12263f"/>
    </clipPath>
  </defs>
  <g id="Grupo_1212775" data-name="Grupo 1212775" transform="translate(-705.629 -410)">
    <g id="Grupo_1180019" data-name="Grupo 1180019">
      <g id="Grupo_1180023" data-name="Grupo 1180023">
        <rect id="Rectángulo_456333" data-name="Rectángulo 456333" width="85" height="85" rx="10" transform="translate(705.629 410)" fill="#68eae0"/>
        <g id="Grupo_1213170" data-name="Grupo 1213170" transform="translate(720.214 422.582)">
          <g id="Grupo_1213169" data-name="Grupo 1213169" clip-path="url(#clip-path)">
            <path id="Trazado_1285999" data-name="Trazado 1285999" d="M4.828,51.235l-2.539-2.6,1.1-2.376c.046-.756-.614-1.573-.8-2.28L0,43.163l0-7.218,2.58-.81c.19-.706.854-1.524.8-2.279l-1.1-2.377L4.82,27.9l0-27.9L45.338,0l.03,3.907a15.424,15.424,0,0,1,2.827,30.345,6.955,6.955,0,0,1-.221,2.815,3.749,3.749,0,0,1,1.253,2.49l-.017,7.718A4.758,4.758,0,0,1,45.366,52l-.019,7.838-40.519,0ZM25.455,53.7c-.962-.3-1.54-1.04-2.352-1.117-.755-.071-1.571.625-2.28.8L20,55.972l-7.2-.011a11.4,11.4,0,0,0-.945-2.59,5.252,5.252,0,0,0-2.139-.8l-2.083.994c-.334.159-.593-.094-.864-.35l-.008,4.694H43.418l-.009-5.916a4.659,4.659,0,0,1-3.826-4.522l-.05-7.9c-.007-1.145.808-1.765,1.191-2.511.083-.763-.405-1.925-.2-2.818A15.421,15.421,0,0,1,43.395,3.911l0-1.978-36.639,0,.008,23.932c.254-.136.4-.377.761-.372,2.255,1.233,2.063,1.383,4.468.242l.812-2.57,7.206.008c.387.836.383,1.91.942,2.538a9.477,9.477,0,0,0,2.149.941l2.4-1.233,5.048,5.048-1.227,2.4a11.179,11.179,0,0,0,.927,2.163l2.567.985,0,7.149-2.581.814c-.191.705-.851,1.525-.8,2.279l1.115,2.4ZM42.842,5.88A13.5,13.5,0,1,0,57.806,17.741,13.517,13.517,0,0,0,42.842,5.88M18.662,53.972l.689-2.234a13.287,13.287,0,0,0,3.6-1.473L25.1,51.333l3.089-3.085L27.129,46.1A14.251,14.251,0,0,0,28.59,42.5l2.29-.789-.039-4.372-2.251-.717a14.147,14.147,0,0,0-1.461-3.612l1.058-2.145L25.1,27.776l-2.146,1.061a13.875,13.875,0,0,0-3.607-1.461l-.726-2.263H14.186l-.724,2.258A14.084,14.084,0,0,0,9.85,28.836L7.716,27.779,4.622,30.863l1.062,2.148a13.83,13.83,0,0,0-1.465,3.6L1.928,37.4l.039,4.364,2.251.728a13.906,13.906,0,0,0,1.465,3.6L4.619,48.253,7.71,51.335l2.148-1.071a13.276,13.276,0,0,0,3.606,1.477l.788,2.294ZM45.93,36.406c.613-.352.384-1.359.362-1.809a15.065,15.065,0,0,1-3.82.019c-.035.644-.17,1.561.413,1.83a3.961,3.961,0,0,0,3.046-.04M47.3,47l-.026-7.438a.952.952,0,0,0-.96-.966H42.461a.958.958,0,0,0-.962.965v7.718a2.861,2.861,0,0,0,2.98,2.885A2.938,2.938,0,0,0,47.3,47" fill="#12263f"/>
            <path id="Trazado_1286000" data-name="Trazado 1286000" d="M64.29,29.637l-19.3.016V20h19.3Zm-1.933-1.925,0-5.787H46.918v5.8Z" transform="translate(-36.303 -16.136)" fill="#12263f"/>
            <path id="Trazado_1286001" data-name="Trazado 1286001" d="M63.4,101.928l-18.277.005,0-1.936H63.4Z" transform="translate(-36.409 -80.698)" fill="#12263f"/>
            <path id="Trazado_1286002" data-name="Trazado 1286002" d="M79.53,81.922l-14.424.006,0-1.937H79.534Z" transform="translate(-52.538 -64.553)" fill="#12263f"/>
            <path id="Trazado_1286003" data-name="Trazado 1286003" d="M167.76,261.9l-7.686.009,0-1.94h7.688Z" transform="translate(-129.179 -209.796)" fill="#12263f"/>
            <path id="Trazado_1286004" data-name="Trazado 1286004" d="M167.76,281.9l-7.686.009,0-1.94h7.688Z" transform="translate(-129.179 -225.936)" fill="#12263f"/>
            <path id="Trazado_1286005" data-name="Trazado 1286005" d="M46.955,81.877l-1.928.015V79.966l1.916,0Z" transform="translate(-36.336 -64.532)" fill="#12263f"/>
            <path id="Trazado_1286006" data-name="Trazado 1286006" d="M39.273,150.088a10.61,10.61,0,1,1-9.149,12.026,10.592,10.592,0,0,1,9.149-12.026m-3.36,9.537a4.709,4.709,0,0,1,3.734-3.735v-3.9A8.673,8.673,0,0,0,32,159.637Zm9.438.028,3.9-.016a8.668,8.668,0,0,0-7.646-7.647l0,3.892a4.747,4.747,0,0,1,3.741,3.771m-5.5-1.826a2.89,2.89,0,1,0,3.566,2,2.863,2.863,0,0,0-3.566-2m-.24,7.472a4.67,4.67,0,0,1-3.7-3.711h-3.9a8.7,8.7,0,0,0,7.641,7.643Zm2.01,3.924a8.681,8.681,0,0,0,7.633-7.632l-3.912-.008a4.785,4.785,0,0,1-3.762,3.764Z" transform="translate(-24.224 -121.048)" fill="#12263f"/>
            <path id="Trazado_1286007" data-name="Trazado 1286007" d="M180.231,40.074a11.575,11.575,0,1,1-10.124,13,11.571,11.571,0,0,1,10.124-13m0,1.949a9.642,9.642,0,1,0,10.9,8.183,9.62,9.62,0,0,0-10.9-8.183" transform="translate(-137.197 -32.272)" fill="#12263f"/>
            <path id="Trazado_1286008" data-name="Trazado 1286008" d="M196.806,78.728a4.359,4.359,0,0,1,1.278-1.44l2.241,2.142,7.986-7.959,1.363,1.365-9.349,9.379Z" transform="translate(-158.823 -57.676)" fill="#12263f"/>
          </g>
        </g>
      </g>
    </g>
  </g>
</svg>
