<svg xmlns="http://www.w3.org/2000/svg" xmlns:xlink="http://www.w3.org/1999/xlink" width="128" height="128" viewBox="0 0 128 128">
  <defs>
    <clipPath id="clip-path">
      <rect id="Rectángulo_456267" data-name="Rectángulo 456267" width="128" height="128" fill="none"/>
    </clipPath>
    <clipPath id="clip-path-2">
      <rect id="Rectángulo_468129" data-name="Rectángulo 468129" width="65.318" height="61.873" fill="#19538d"/>
    </clipPath>
  </defs>
  <g id="Grupo_1212789" data-name="Grupo 1212789" transform="translate(511.746 8527) rotate(180)">
    <path id="Trazado_999622" data-name="Trazado 999622" d="M59.07,0A59.07,59.07,0,1,1,0,59.07,59.071,59.071,0,0,1,59.07,0" transform="translate(388.676 8403.93)" fill="#fff"/>
    <g id="Grupo_1179902" data-name="Grupo 1179902" transform="translate(383.746 8399)">
      <g id="Grupo_1179905" data-name="Grupo 1179905" clip-path="url(#clip-path)">
        <path id="Trazado_999618" data-name="Trazado 999618" d="M64,0A64,64,0,1,1,0,64,64,64,0,0,1,64,0" fill="none"/>
        <path id="Trazado_999619" data-name="Trazado 999619" d="M5,59a5,5,0,1,1-5,5,5,5,0,0,1,5-5" fill="#19538d"/>
        <path id="Trazado_999620" data-name="Trazado 999620" d="M21,19a5,5,0,1,1-5,5,5,5,0,0,1,5-5" fill="#19538d"/>
        <path id="Trazado_999621" data-name="Trazado 999621" d="M64,124A60.068,60.068,0,0,1,4,64H7A57,57,0,1,0,22.408,25.024L20.22,22.972A60,60,0,1,1,64,124" fill="#19538d"/>
        <rect id="Rectángulo_456268" data-name="Rectángulo 456268" width="128" height="128" fill="none"/>
        <rect id="Rectángulo_456269" data-name="Rectángulo 456269" width="128" height="128" fill="none"/>
      </g>
    </g>
    <g id="Grupo_1213180" data-name="Grupo 1213180" transform="translate(476.405 8493.937) rotate(180)">
      <g id="Grupo_1213179" data-name="Grupo 1213179" clip-path="url(#clip-path-2)">
        <path id="Trazado_1286054" data-name="Trazado 1286054" d="M53.124,36.892a3.389,3.389,0,0,1-.179-3.188,13.264,13.264,0,0,0-1.983-2.9l-.067,28.588a2.518,2.518,0,0,1-2.6,2.479l-40.428,0a2.51,2.51,0,0,1-2.627-2.428L5.22,57.289l-2.848-.015a2.4,2.4,0,0,1-2.365-2.45L0,8.542,7.031,0,43.489.034c1.438,0,2.131,1.618,2.176,2.744l.052,1.3a13.753,13.753,0,0,1,10.626,24.1l1.416,2.689a3.369,3.369,0,0,1,2.758,1.8l4.434,7.728A3.029,3.029,0,0,1,63.8,44.429l-1.938,1.137a3.142,3.142,0,0,1-4.3-1.034Zm-37.46-6.3a2.743,2.743,0,0,1-2.5,3.678,2.826,2.826,0,0,1-2.9-3.094L6.578,29.355c-.4-.2-.4-.8-.263-1.119a.826.826,0,0,1,1.052-.371l3.683,1.756c.927-1.253,2.411-.775,3.55-.55l5.534-4.405c-.048-1.133-.052-2.469,1.027-3.165a2.856,2.856,0,0,1,3.2-.082,3.242,3.242,0,0,1,1.257,2.919l5.2,3.075c.948-.425,2.126-1.016,3.116-.175l2.033-1.971a13.713,13.713,0,0,1,7.9-20.806c.192-1.564.228-2.718-.8-2.718l-34.546,0L8.444,7.626a2.423,2.423,0,0,1-2.412,2.1l-4.3.042L1.737,54.8a.844.844,0,0,0,.913.755l40.405,0a.862.862,0,0,0,.881-.938l0-23.645a13.705,13.705,0,0,1-6.869-4.25l-1.881,1.791a2.815,2.815,0,0,1-.778,3.19,2.863,2.863,0,0,1-3.184.324c-1.15-.533-1.292-1.875-1.441-3l-5.118-3.119a3.63,3.63,0,0,1-3.37.249ZM6.2,7.907c.4,0,.555-.446.552-.7L6.7,3.187,2.779,7.87ZM46.131,5.791a11.984,11.984,0,1,0,13.2,10.522,11.969,11.969,0,0,0-13.2-10.522M22.62,22.755a.994.994,0,0,0-.729,1.393,1.072,1.072,0,0,0,1.182.582,1.025,1.025,0,0,0,.757-1.221.991.991,0,0,0-1.211-.754m9.624,5.907a1.011,1.011,0,0,0-.563,1.376,1.021,1.021,0,0,0,1.9-.749,1,1,0,0,0-1.335-.626m23.811,2.663-1.2-2.033-1.957,1.02,1.29,2.045Zm-43.431-.742a1.025,1.025,0,0,0-.495,1.381,1.013,1.013,0,0,0,1.413.462A.989.989,0,0,0,14,31.184a1,1,0,0,0-1.381-.6M7.336,60.089l40.945.005a.831.831,0,0,0,.894-.91V31.371a22.5,22.5,0,0,1-3.506-.006l-.041,23.652a2.36,2.36,0,0,1-2.342,2.262L7.042,57.3a4.165,4.165,0,0,0,.293,2.793M61.181,43.965l1.64-.955a1.416,1.416,0,0,0,.557-1.912l-4.544-7.839a1.372,1.372,0,0,0-1.877-.447l-1.793,1.044a1.419,1.419,0,0,0-.638,1.956l4.73,8.1c.338.579,1.46.321,1.925.05" fill="#19538d"/>
        <path id="Trazado_1286055" data-name="Trazado 1286055" d="M61.209,163.916l-32.178.013c-.409,0-.62-.558-.615-.787.006-.273.243-.86.654-.875l2.747-.1v-10a.886.886,0,0,1,.86-.918l5.225.006a.88.88,0,0,1,.859.913v10.01l2.846-.015V146.077a.845.845,0,0,1,.9-.831l4.965-.017a.991.991,0,0,1,1.081,1.073l0,15.861,2.851.005-.008-13.051a.833.833,0,0,1,.879-.879l5.218.006a.842.842,0,0,1,.844.885l.008,13.039,2.592.055c.432.009.564.356.686.539.146.219.1,1.152-.407,1.152m-14.436-1.784,0-15.156-3.42,0,0,15.2Zm9.783,0,0-12.158H53.136v12.2Zm-19.561,0-.006-9.116-3.411,0,.03,9.183Z" transform="translate(-22.232 -113.622)" fill="#19538d"/>
        <path id="Trazado_1286056" data-name="Trazado 1286056" d="M66.957,63.343l-9.127.01a.9.9,0,0,1-.944-.921.864.864,0,0,1,.984-.873l9.183.008a.851.851,0,0,1,.826.866.92.92,0,0,1-.922.909" transform="translate(-44.505 -48.161)" fill="#19538d"/>
        <path id="Trazado_1286057" data-name="Trazado 1286057" d="M65.547,44.868l-7.711,0a.83.83,0,0,1-.876-.789.864.864,0,0,1,.883-.957l7.6,0a.827.827,0,0,1,.844.765.871.871,0,0,1-.74.981" transform="translate(-44.56 -33.734)" fill="#19538d"/>
        <path id="Trazado_1286058" data-name="Trazado 1286058" d="M180.692,36.16a9.866,9.866,0,1,1-7.967,11.582,9.841,9.841,0,0,1,7.967-11.582m.21,1.742a8.12,8.12,0,1,0,9.525,6.556A8.079,8.079,0,0,0,180.9,37.9" transform="translate(-134.993 -28.166)" fill="#19538d"/>
        <path id="Trazado_1286059" data-name="Trazado 1286059" d="M198.988,71.752l-3.173-2.471a.953.953,0,0,1-.344-1.176.892.892,0,0,1,1.351-.273l2.637,2.042,4.261-4.937a.926.926,0,0,1,1.156-.054.913.913,0,0,1,.072,1.286l-4.526,5.262c-.385.448-.9.739-1.433.321" transform="translate(-152.86 -50.624)" fill="#19538d"/>
      </g>
    </g>
  </g>
</svg>
