<svg xmlns="http://www.w3.org/2000/svg" xmlns:xlink="http://www.w3.org/1999/xlink" width="128" height="128" viewBox="0 0 128 128">
  <defs>
    <clipPath id="clip-path">
      <rect id="Rectángulo_456267" data-name="Rectángulo 456267" width="128" height="128" fill="none"/>
    </clipPath>
    <clipPath id="clip-path-2">
      <rect id="Rectángulo_468126" data-name="Rectángulo 468126" width="65.139" height="58.594" fill="#19538d"/>
    </clipPath>
  </defs>
  <g id="Grupo_1212781" data-name="Grupo 1212781" transform="translate(511.746 8527) rotate(180)">
    <path id="Trazado_999622" data-name="Trazado 999622" d="M59.07,0A59.07,59.07,0,1,1,0,59.07,59.071,59.071,0,0,1,59.07,0" transform="translate(388.676 8403.93)" fill="#fff"/>
    <g id="Grupo_1179902" data-name="Grupo 1179902" transform="translate(383.746 8399)">
      <g id="Grupo_1179905" data-name="Grupo 1179905" clip-path="url(#clip-path)">
        <path id="Trazado_999618" data-name="Trazado 999618" d="M64,0A64,64,0,1,1,0,64,64,64,0,0,1,64,0" fill="none"/>
        <path id="Trazado_999619" data-name="Trazado 999619" d="M5,59a5,5,0,1,1-5,5,5,5,0,0,1,5-5" fill="#19538d"/>
        <path id="Trazado_999620" data-name="Trazado 999620" d="M21,19a5,5,0,1,1-5,5,5,5,0,0,1,5-5" fill="#19538d"/>
        <path id="Trazado_999621" data-name="Trazado 999621" d="M64,124A60.068,60.068,0,0,1,4,64H7A57,57,0,1,0,22.408,25.024L20.22,22.972A60,60,0,1,1,64,124" fill="#19538d"/>
        <rect id="Rectángulo_456268" data-name="Rectángulo 456268" width="128" height="128" fill="none"/>
        <rect id="Rectángulo_456269" data-name="Rectángulo 456269" width="128" height="128" fill="none"/>
      </g>
    </g>
    <g id="Grupo_1213174" data-name="Grupo 1213174" transform="translate(480.631 8492.297) rotate(180)">
      <g id="Grupo_1213173" data-name="Grupo 1213173" clip-path="url(#clip-path-2)">
        <path id="Trazado_1286018" data-name="Trazado 1286018" d="M65.139,57.452a1,1,0,0,1-1.062,1.142l-33.533-.027a4.678,4.678,0,0,1-4.576-5.784c-6.832.392-18.054-.057-23.574-3.555-.908-.575-2.379-1.607-2.38-2.9L0,6.707C0,3.771,6.244,1.786,9.523,1.143a62.4,62.4,0,0,1,23.494-.055,24.044,24.044,0,0,1,7.283,2.5c1.071.772,2.424,1.656,2.439,3.077l.087,8.5,11.9.021,6.228,6.248.01,13.235a9.048,9.048,0,0,0,2.125.133,2.257,2.257,0,0,1,2.027,2.227ZM32.776,11.32c2.812-.542,8.19-2.156,8.208-4.246C41,5.011,35.289,3.308,32.509,2.8a60.115,60.115,0,0,0-23.632.31C6.038,3.737.8,5.7,1.9,7.6c1.131,1.948,5.333,3.2,7.948,3.7a60.278,60.278,0,0,0,22.925.019m1.705,3.854,6.537-.02.006-5.03a21.782,21.782,0,0,1-7.318,2.852,62.589,62.589,0,0,1-24.362.036A21.069,21.069,0,0,1,1.78,10.135l.051,9.952c.335.884,1.389,1.44,2.141,1.927a28.852,28.852,0,0,0,7.239,2.158A61.2,61.2,0,0,0,33.541,23.8l.015-7.762a.886.886,0,0,1,.925-.869m24.73,7.55-4.844-.005a.928.928,0,0,1-.936-.964l-.048-4.828-18.031.006V39.947l11.252,0,3.165-5.127,9.408-.04Zm-1.389-1.85-2.612-2.628-.023,2.674ZM25.893,35.3a.932.932,0,0,1,.873-1.026l6.784-.041v-8.61a61.876,61.876,0,0,1-24.517-.07,20.672,20.672,0,0,1-7.259-2.805l.079,10.4c.329,1.012,1.7,1.722,2.674,2.156,6.071,2.707,14.588,2.958,21.32,2.643Zm.017,15.661-.022-11.3a46.3,46.3,0,0,1-8.024.078A46.912,46.912,0,0,1,5.953,37.788a15.091,15.091,0,0,1-4.166-2.006l.016,10.2c0,.787.849,1.218,1.383,1.683a21.714,21.714,0,0,0,6.455,2.32,58.656,58.656,0,0,0,16.269.978m5.456-11,2.183-.061V36.046l-5.891.01.02,18.053a2.755,2.755,0,0,0,1.849,2.476l.021-14.665a1.919,1.919,0,0,1,1.818-1.959m-.024,16.807,31.988,0L63.308,36.6l-12.579-.031L47.6,41.693l-16.27.019Z" transform="translate(0 0)" fill="#19538d"/>
        <path id="Trazado_1286019" data-name="Trazado 1286019" d="M200.357,141.716l-19.111,0a.955.955,0,0,1-.944-.911.941.941,0,0,1,.944-.891l19.283.009a.916.916,0,0,1,.86.884c.014.568-.377.912-1.031.912" transform="translate(-143.586 -111.42)" fill="#19538d"/>
        <path id="Trazado_1286020" data-name="Trazado 1286020" d="M200.738,123.212l-19.777-.008c-.412,0-.485-.542-.52-.754-.043-.255.058-.923.51-.923l19.512-.034a.964.964,0,0,1,.993.61c.117.3-.03,1.109-.718,1.109" transform="translate(-143.69 -96.753)" fill="#19538d"/>
        <path id="Trazado_1286021" data-name="Trazado 1286021" d="M194.378,104.521l-13.025.022a.94.94,0,0,1-.919-.691c-.113-.442.118-1.087.7-1.088l13.2-.022a.9.9,0,0,1,.945.759.927.927,0,0,1-.9,1.02" transform="translate(-143.669 -81.82)" fill="#19538d"/>
        <path id="Trazado_1286022" data-name="Trazado 1286022" d="M97.492,92.626l-3.1.077a.882.882,0,1,1,.035-1.763l2.809-.046a.894.894,0,0,1,.983.729c.059.349-.135.988-.722,1" transform="translate(-74.463 -72.385)" fill="#19538d"/>
        <path id="Trazado_1286023" data-name="Trazado 1286023" d="M97.307,156.532l-2.934.054a.829.829,0,0,1-.891-.925.883.883,0,0,1,.926-.86l2.819-.067a.913.913,0,0,1,.974.76.874.874,0,0,1-.894,1.037" transform="translate(-74.445 -123.225)" fill="#19538d"/>
        <path id="Trazado_1286024" data-name="Trazado 1286024" d="M97.48,220.635l-3.1.073a.828.828,0,0,1-.889-.922.858.858,0,0,1,.93-.835l2.8-.063a.9.9,0,0,1,.978.735c.067.339-.132,1-.718,1.012" transform="translate(-74.451 -174.314)" fill="#19538d"/>
      </g>
    </g>
  </g>
</svg>
