<svg xmlns="http://www.w3.org/2000/svg" xmlns:xlink="http://www.w3.org/1999/xlink" width="128" height="128" viewBox="0 0 128 128">
  <defs>
    <clipPath id="clip-path">
      <rect id="Rectángulo_456267" data-name="Rectángulo 456267" width="128" height="128" fill="none"/>
    </clipPath>
    <clipPath id="clip-path-2">
      <rect id="Rectángulo_468127" data-name="Rectángulo 468127" width="64.477" height="64.487" fill="#19538d"/>
    </clipPath>
  </defs>
  <g id="Grupo_1212782" data-name="Grupo 1212782" transform="translate(511.746 8527) rotate(180)">
    <path id="Trazado_999622" data-name="Trazado 999622" d="M59.07,0A59.07,59.07,0,1,1,0,59.07,59.071,59.071,0,0,1,59.07,0" transform="translate(388.676 8403.93)" fill="#fff"/>
    <g id="Grupo_1179902" data-name="Grupo 1179902" transform="translate(383.746 8399)">
      <g id="Grupo_1179905" data-name="Grupo 1179905" clip-path="url(#clip-path)">
        <path id="Trazado_999618" data-name="Trazado 999618" d="M64,0A64,64,0,1,1,0,64,64,64,0,0,1,64,0" fill="none"/>
        <path id="Trazado_999619" data-name="Trazado 999619" d="M5,59a5,5,0,1,1-5,5,5,5,0,0,1,5-5" fill="#19538d"/>
        <path id="Trazado_999620" data-name="Trazado 999620" d="M21,19a5,5,0,1,1-5,5,5,5,0,0,1,5-5" fill="#19538d"/>
        <path id="Trazado_999621" data-name="Trazado 999621" d="M64,124A60.068,60.068,0,0,1,4,64H7A57,57,0,1,0,22.408,25.024L20.22,22.972A60,60,0,1,1,64,124" fill="#19538d"/>
        <rect id="Rectángulo_456268" data-name="Rectángulo 456268" width="128" height="128" fill="none"/>
        <rect id="Rectángulo_456269" data-name="Rectángulo 456269" width="128" height="128" fill="none"/>
      </g>
    </g>
    <g id="Grupo_1213176" data-name="Grupo 1213176" transform="translate(479.985 8495.243) rotate(180)">
      <g id="Grupo_1213175" data-name="Grupo 1213175" clip-path="url(#clip-path-2)">
        <path id="Trazado_1286025" data-name="Trazado 1286025" d="M60.385,49.419l.039,3.332,3.236.019a.779.779,0,0,1,.725,1.063l-4,9.994a1,1,0,0,1-.984.658H43.615a.883.883,0,0,1-1-.827L42.6,57.374l-7.708.013a2.778,2.778,0,0,1-5.33,0L17.8,57.377l0,6.1a.944.944,0,0,1-1.012,1.007H1a.89.89,0,0,1-1-.843L0,43.437c0-.342.292-.805.65-.805h11.6l5.524,5.518.035,7.66L29.565,55.8a2.773,2.773,0,0,1,1.879-1.879l.006-10.745-11.175,0a.952.952,0,0,1-1.025-.83l.121-8.392c.008-.553,1.28-.6,1.795-.394a6.2,6.2,0,0,0,.061-2.613c-.423.118-1.839.172-1.847-.435l-.106-8.392c-.007-.565.513-.82,1-.82l11.182.006-.007-8.73a2.794,2.794,0,0,1-1.871-1.867l-9.232.008-2.564,6.444a1,1,0,0,1-.982.652H1a.89.89,0,0,1-1-.839L0,.823A.819.819,0,0,1,.808.008l7.218,0a11.58,11.58,0,0,1,1.553,2l7.407.028a.869.869,0,0,1,.821.974V6.084L21.05,6.1a.828.828,0,0,1,.685.422.893.893,0,0,1-.006.784l-.7,1.788,8.524.037a2.786,2.786,0,0,1,5.352,0l11.757.005L46.675.813A.83.83,0,0,1,47.482,0L58.917.024l5.534,5.528.026,15.306a.945.945,0,0,1-1.014,1.018H47.675a.926.926,0,0,1-1.015-1.013l.007-10.154-11.77.006a2.813,2.813,0,0,1-1.873,1.865l-.006,8.732H44.379a.892.892,0,0,1,.83.987l-.128,8.2c-.01.614-1.418.569-1.841.445a8.181,8.181,0,0,0,0,2.583c.428-.117,1.834-.192,1.844.423l.134,8.213a.975.975,0,0,1-1.028,1.012l-11.177,0,.007,10.74A2.8,2.8,0,0,1,34.9,55.8h7.707l.012-8.319a.87.87,0,0,1,.982-.819l7.038.022a11.368,11.368,0,0,1,1.551,1.995l7.411.026a.772.772,0,0,1,.786.713M16.174,3.6,8.953,3.576,7.428,1.589l-5.87-.015.055,11.265L4.375,6.133,16.2,6.083ZM58.728,6.648a.865.865,0,0,1-.9-.816l-.014-4.255-9.584,0V20.3l14.667,0V6.657ZM61.683,5,59.459,2.748l-.05,2.319ZM16.525,16.229l3.4-8.567-14.6.016-3.4,8.558ZM31.638,8.82a1.25,1.25,0,1,0,1.194,2.2,1.264,1.264,0,0,0,.5-1.7,1.24,1.24,0,0,0-1.7-.491m11.984,20.6,0-6.532H20.848v6.547Zm-2.06,4.065V31H22.9l0,2.487Zm2.06,8.109,0-6.532H20.848v6.547ZM12.059,49.259a.864.864,0,0,1-.9-.816l-.014-4.255-9.584,0V62.912l14.667,0V49.267Zm2.955-1.648L12.79,45.359l-.05,2.319Zm43.771,2.661-7.221-.027-1.525-1.988-5.87-.015.055,11.265L46.985,52.8l11.828-.051ZM59.136,62.9l3.4-8.567-14.6.016-3.4,8.558Zm-27.5-7.409a1.251,1.251,0,1,0,1.2,2.2,1.263,1.263,0,0,0,.5-1.705,1.241,1.241,0,0,0-1.7-.492" transform="translate(0.001)" fill="#19538d"/>
        <path id="Trazado_1286026" data-name="Trazado 1286026" d="M259.027,46.573l-8.13.018a.816.816,0,0,1-.793-.713.784.784,0,0,1,.789-.849l8.057,0a.812.812,0,0,1,.79.7.794.794,0,0,1-.713.845" transform="translate(-199.353 -35.89)" fill="#19538d"/>
        <path id="Trazado_1286027" data-name="Trazado 1286027" d="M259.027,66.571l-8.13.018a.816.816,0,0,1-.793-.713.784.784,0,0,1,.789-.849l8.057,0a.815.815,0,0,1,.79.7.794.794,0,0,1-.713.846" transform="translate(-199.353 -51.829)" fill="#19538d"/>
        <path id="Trazado_1286028" data-name="Trazado 1286028" d="M29.027,256.572l-8.129.018a.816.816,0,0,1-.793-.713.785.785,0,0,1,.789-.849l8.057,0a.809.809,0,0,1,.79.705.793.793,0,0,1-.713.842" transform="translate(-16.022 -203.278)" fill="#19538d"/>
        <path id="Trazado_1286029" data-name="Trazado 1286029" d="M29.027,276.569l-8.13.018a.816.816,0,0,1-.793-.713.784.784,0,0,1,.789-.849l8.057,0a.816.816,0,0,1,.79.7.794.794,0,0,1-.713.846" transform="translate(-16.022 -219.217)" fill="#19538d"/>
        <path id="Trazado_1286030" data-name="Trazado 1286030" d="M188.112,126.57l-2.22.032a.773.773,0,1,1,0-1.545l1.979,0a.781.781,0,0,1,.754.552.81.81,0,0,1-.512.963" transform="translate(-147.545 -99.68)" fill="#19538d"/>
        <path id="Trazado_1286031" data-name="Trazado 1286031" d="M114.515,123.994a.972.972,0,0,1,1.326.5,1.006,1.006,0,1,1-1.326-.5" transform="translate(-90.806 -98.758)" fill="#19538d"/>
        <path id="Trazado_1286032" data-name="Trazado 1286032" d="M134.515,123.994a.972.972,0,0,1,1.326.5,1.006,1.006,0,1,1-1.326-.5" transform="translate(-106.748 -98.758)" fill="#19538d"/>
        <path id="Trazado_1286033" data-name="Trazado 1286033" d="M154.515,123.994a.972.972,0,0,1,1.326.5,1.006,1.006,0,1,1-1.326-.5" transform="translate(-122.689 -98.758)" fill="#19538d"/>
        <path id="Trazado_1286034" data-name="Trazado 1286034" d="M188.112,186.57l-2.22.032a.773.773,0,1,1,0-1.545l1.979,0a.781.781,0,0,1,.754.552.81.81,0,0,1-.512.963" transform="translate(-147.545 -147.505)" fill="#19538d"/>
        <path id="Trazado_1286035" data-name="Trazado 1286035" d="M114.515,183.994a.972.972,0,0,1,1.326.5,1.006,1.006,0,1,1-1.326-.5" transform="translate(-90.806 -146.583)" fill="#19538d"/>
        <path id="Trazado_1286036" data-name="Trazado 1286036" d="M134.515,183.994a.972.972,0,0,1,1.326.5,1.006,1.006,0,1,1-1.326-.5" transform="translate(-106.748 -146.583)" fill="#19538d"/>
        <path id="Trazado_1286037" data-name="Trazado 1286037" d="M154.515,183.994a.972.972,0,0,1,1.326.5,1.006,1.006,0,1,1-1.326-.5" transform="translate(-122.689 -146.583)" fill="#19538d"/>
      </g>
    </g>
  </g>
</svg>
