<svg xmlns="http://www.w3.org/2000/svg" xmlns:xlink="http://www.w3.org/1999/xlink" width="150" height="150" viewBox="0 0 150 150">
  <defs>
    <clipPath id="clip-path">
      <rect id="Rectángulo_456312" data-name="Rectángulo 456312" width="150" height="150" fill="none"/>
    </clipPath>
    <clipPath id="clip-path-3">
      <rect id="Rectángulo_468159" data-name="Rectángulo 468159" width="91.678" height="91.684" fill="#19538d"/>
    </clipPath>
  </defs>
  <g id="Grupo_1212998" data-name="Grupo 1212998" transform="translate(-307.059 -10093)">
    <g id="Grupo_1179968" data-name="Grupo 1179968" transform="translate(-115 658)">
      <g id="Grupo_1179959" data-name="Grupo 1179959" transform="translate(422.059 9435)" clip-path="url(#clip-path)">
        <path id="Trazado_999654" data-name="Trazado 999654" d="M1.5,5.146H123.437A18.479,18.479,0,0,1,141.96,23.58V144.937H20.022A18.479,18.479,0,0,1,1.5,126.5Z" transform="translate(0.815 2.76)" fill="#fff"/>
      </g>
      <g id="Grupo_1179960" data-name="Grupo 1179960" transform="translate(422.059 9435)">
        <g id="Grupo_1179956" data-name="Grupo 1179956" clip-path="url(#clip-path)">
          <path id="Trazado_999651" data-name="Trazado 999651" d="M94.9,30a7.681,7.681,0,1,1-7.718,7.681A7.7,7.7,0,0,1,94.9,30" transform="translate(47.384 16.085)" fill="#19538d"/>
          <path id="Trazado_999652" data-name="Trazado 999652" d="M65.9,0a7.681,7.681,0,1,1-7.718,7.681A7.7,7.7,0,0,1,65.9,0" transform="translate(31.622 0)" fill="#19538d"/>
          <path id="Trazado_999653" data-name="Trazado 999653" d="M141.96,51.007v93.93H20.022A18.479,18.479,0,0,1,1.5,126.5V5.146H97.75" transform="translate(0.815 2.76)" fill="none" stroke="#19538d" stroke-miterlimit="10" stroke-width="4"/>
        </g>
      </g>
    </g>
    <g id="Grupo_1213241" data-name="Grupo 1213241" transform="translate(335.22 10125.158)">
      <g id="Grupo_1213240" data-name="Grupo 1213240" clip-path="url(#clip-path-3)">
        <path id="Trazado_1286314" data-name="Trazado 1286314" d="M46.084,84.048l-24.508-.013a1.538,1.538,0,0,1-1.549-1.542V73.337a1.489,1.489,0,0,1,1.542-1.516l24.4-.006a1.474,1.474,0,0,1,1.54,1.519l.031,3.077,7.612-.038a1.517,1.517,0,0,0,1.536-1.561l.006-39.659a4.4,4.4,0,0,1,4.265-4.572l4.9-.042.006-28.994A1.489,1.489,0,0,1,67.424,0l36.6,0a1.483,1.483,0,0,1,1.563,1.589V90.061a1.538,1.538,0,0,1-1.571,1.616l-36.584,0a1.54,1.54,0,0,1-1.569-1.6l0-56.444-4.579-.018a1.507,1.507,0,0,0-1.532,1.556l-.008,39.656a4.492,4.492,0,0,1-4.567,4.614l-7.635.011-.029,3.037a1.554,1.554,0,0,1-1.424,1.557m56.443-71.827V3.056H68.917v9.178Zm.009,76.391,0-73.328-33.623,0V88.638ZM44.458,80.983l0-6.112-21.376,0,0,6.124Z" transform="translate(-13.907 -0.001)" fill="#19538d"/>
        <path id="Trazado_1286315" data-name="Trazado 1286315" d="M36.6,88.634l.085-6.122,3.05,0-.021,7.614a1.554,1.554,0,0,1-1.559,1.554l-36.584,0A1.567,1.567,0,0,1,0,90.058V1.588A1.483,1.483,0,0,1,1.565.006L38.162,0a1.483,1.483,0,0,1,1.561,1.582l.006,71.683-3.062.031.008-30.515-33.625,0,0,45.848Zm.068-76.415V3.055H3.058v9.178ZM24.8,21.882a1.67,1.67,0,0,1,2.283-.061l9.564,9.493.036-16.037H3.044l.037,17.575L14.022,21.968a1.67,1.67,0,0,1,2.507,0l4.125,4.06Zm1.175,3.234-3.109,3.167,2.6,2.641a9.077,9.077,0,0,1-2.179,2.2l-8.014-8.026L3.112,37.282a8.276,8.276,0,0,0,.009,2.452H36.637V35.768Z" transform="translate(0 0)" fill="#19538d"/>
        <path id="Trazado_1286316" data-name="Trazado 1286316" d="M47.533,158.044l-27.415.009,0-3.066H47.541Z" transform="translate(-13.967 -107.622)" fill="#19538d"/>
        <path id="Trazado_1286317" data-name="Trazado 1286317" d="M47.533,183.044l-27.415.009,0-3.066H47.541Z" transform="translate(-13.967 -124.982)" fill="#19538d"/>
        <path id="Trazado_1286318" data-name="Trazado 1286318" d="M47.533,208.044l-27.415.009,0-3.066H47.541Z" transform="translate(-13.967 -142.342)" fill="#19538d"/>
        <path id="Trazado_1286319" data-name="Trazado 1286319" d="M201.631,115.153a13.74,13.74,0,1,1-11.4,15.921,13.7,13.7,0,0,1,11.4-15.921m1.546,12,6.976-7.012a10.674,10.674,0,0,0-16.94,7.052Zm7.26,9.972a10.788,10.788,0,0,0,1.918-14.8l-6.658,6.7Zm-8.872-6.835-8.36-.03a10.672,10.672,0,0,0,5.422,7.85Zm6.08,8.231-3.584-6.111-2.532,6.721a8.527,8.527,0,0,0,6.117-.61" transform="translate(-131.956 -79.839)" fill="#19538d"/>
        <path id="Trazado_1286320" data-name="Trazado 1286320" d="M216.057,252.218H191.55a1.6,1.6,0,0,1-1.563-1.558l.014-9.148a1.486,1.486,0,0,1,1.541-1.517l24.4-.006a1.487,1.487,0,0,1,1.539,1.526l0,9.145a1.567,1.567,0,0,1-1.425,1.559m-1.627-3.062,0-6.112-21.376,0,0,6.124Z" transform="translate(-131.926 -166.647)" fill="#19538d"/>
        <path id="Trazado_1286321" data-name="Trazado 1286321" d="M194.89,60.115a6.1,6.1,0,1,1-4.679,7.449,6.047,6.047,0,0,1,4.679-7.449m.32,3.071a3.041,3.041,0,1,0,3.822,1.969,3.024,3.024,0,0,0-3.822-1.969" transform="translate(-131.957 -41.651)" fill="#19538d"/>
        <path id="Trazado_1286322" data-name="Trazado 1286322" d="M252.245,68.019l-12.17.015,0-3.073h12.173Z" transform="translate(-166.705 -45.109)" fill="#19538d"/>
        <path id="Trazado_1286323" data-name="Trazado 1286323" d="M252.245,88.019l-12.17.015,0-3.073h12.173Z" transform="translate(-166.705 -58.997)" fill="#19538d"/>
        <path id="Trazado_1286324" data-name="Trazado 1286324" d="M201.133,217.991l-6.083.018,0-3.074h6.077Z" transform="translate(-135.441 -149.249)" fill="#19538d"/>
        <path id="Trazado_1286325" data-name="Trazado 1286325" d="M231.133,217.991l-6.083.018,0-3.074h6.077Z" transform="translate(-156.273 -149.249)" fill="#19538d"/>
        <path id="Trazado_1286326" data-name="Trazado 1286326" d="M261.133,217.991l-6.083.018,0-3.074h6.077Z" transform="translate(-177.105 -149.249)" fill="#19538d"/>
        <path id="Trazado_1286327" data-name="Trazado 1286327" d="M196.133,22.991l-6.083.018,0-3.074h6.077Z" transform="translate(-131.969 -13.842)" fill="#19538d"/>
        <path id="Trazado_1286328" data-name="Trazado 1286328" d="M273.081,22.985l-3.052.024,0-3.05,3.035,0Z" transform="translate(-187.505 -13.857)" fill="#19538d"/>
        <path id="Trazado_1286329" data-name="Trazado 1286329" d="M26.133,22.991l-6.083.018,0-3.074h6.077Z" transform="translate(-13.922 -13.842)" fill="#19538d"/>
        <path id="Trazado_1286330" data-name="Trazado 1286330" d="M103.081,22.985l-3.052.024,0-3.05,3.035,0Z" transform="translate(-69.458 -13.857)" fill="#19538d"/>
      </g>
    </g>
  </g>
</svg>
