<svg xmlns="http://www.w3.org/2000/svg" xmlns:xlink="http://www.w3.org/1999/xlink" width="85" height="85" viewBox="0 0 85 85">
  <defs>
    <clipPath id="clip-path">
      <rect id="Rectángulo_468141" data-name="Rectángulo 468141" width="59.882" height="53.404" fill="#12263f"/>
    </clipPath>
  </defs>
  <g id="Grupo_1212883" data-name="Grupo 1212883" transform="translate(-705.629 -410)">
    <g id="Grupo_1180019" data-name="Grupo 1180019">
      <g id="Grupo_1180023" data-name="Grupo 1180023">
        <rect id="Rectángulo_456333" data-name="Rectángulo 456333" width="85" height="85" rx="10" transform="translate(705.629 410)" fill="#68eae0"/>
        <g id="Grupo_1213204" data-name="Grupo 1213204" transform="translate(712.188 419.798)">
          <g id="Grupo_1213203" data-name="Grupo 1213203" transform="translate(6 6)" clip-path="url(#clip-path)">
            <path id="Trazado_1286164" data-name="Trazado 1286164" d="M1.74,48.98A2.614,2.614,0,0,0,4.5,51.614H40.723a.878.878,0,0,1,.916.823.915.915,0,0,1-.918.967l-36.4-.022A4.338,4.338,0,0,1,.021,49.3L0,4.234A4.3,4.3,0,0,1,4.171.014L55.518,0a4.414,4.414,0,0,1,4.364,4.6l-.052,21.843a.893.893,0,0,1-.828.9.875.875,0,0,1-.917-.939l-.009-15.682-56.334,0ZM58.048,8.971,58.091,4.4a2.6,2.6,0,0,0-2.369-2.625H4.32A2.464,2.464,0,0,0,1.8,4.219l.009,4.756Z" transform="translate(0 0)" fill="#12263f"/>
            <path id="Trazado_1286165" data-name="Trazado 1286165" d="M79.337,74.251a1.89,1.89,0,0,1,1.727,1.883l.023,7.121a1.991,1.991,0,0,1-1.8,2.085l-3.761.023,1.144,1.231a1.828,1.828,0,0,1,.615,1.413c-.057.7-1.969,2.713-2.925,1.8l-1.844-1.755-1.476,1.365a1.392,1.392,0,0,1-1.194.388A1.243,1.243,0,0,1,68.829,89L67.4,85.371l-31.145.007A2.1,2.1,0,0,1,34,83.243l0-6.93a1.95,1.95,0,0,1,1.679-2.032l6.736-.082c.573-.007,1.026.2,1.1.731a.891.891,0,0,1-.929,1.016l-6.785.009.006,7.682H66.742l-1.485-3.97a1.358,1.358,0,0,1,.265-1.284,1.325,1.325,0,0,1,1.4-.372l9.329,3.57a1.347,1.347,0,0,1,.575,2.032l2.467-.008-.005-7.655-32.178,0a.856.856,0,0,1-.975-.688c-.072-.305.062-1.023.614-1.022Zm-4.07,13.5L73.431,85.9a.948.948,0,0,1-.006-1.383l1.553-1.56-7.714-2.944,2.946,7.665,1.647-1.557a.85.85,0,0,1,1.081-.1l2.09,2.044c.081.079.371-.182.239-.314" transform="translate(-27.631 -60.314)" fill="#12263f"/>
            <path id="Trazado_1286166" data-name="Trazado 1286166" d="M238.324,183.9a.937.937,0,0,1-.973-.838.88.88,0,0,1,.888-.948l10.081,0a2.569,2.569,0,0,0,2.67-2.5l.037-18.242a.866.866,0,0,1,.917-.831.9.9,0,0,1,.83.958l-.03,18.115a4.417,4.417,0,0,1-4.105,4.279Z" transform="translate(-192.933 -130.5)" fill="#12263f"/>
            <path id="Trazado_1286167" data-name="Trazado 1286167" d="M138.671,200.911l-7.591.027a1.975,1.975,0,0,1-2.017-1.879l-.011-4.68a1.981,1.981,0,0,1,2.034-1.866l7.492,0a1.962,1.962,0,0,1,2.006,1.9l.019,4.481a1.98,1.98,0,0,1-1.932,2.024m.151-1.77-.046-4.892-7.965.027.013,4.9Z" transform="translate(-104.903 -156.487)" fill="#12263f"/>
            <path id="Trazado_1286168" data-name="Trazado 1286168" d="M42.711,200.864l-6.662,0a2.024,2.024,0,0,1-2.034-2.041l-.009-4.475a2.118,2.118,0,0,1,2.23-1.914l6.549.023a1.934,1.934,0,0,1,1.963,1.942l0,4.536a1.97,1.97,0,0,1-2.033,1.933m.307-1.8L43,194.228l-7.192-.02.011,4.9Z" transform="translate(-27.643 -156.422)" fill="#12263f"/>
            <path id="Trazado_1286169" data-name="Trazado 1286169" d="M237.247,200.91l-6.654.03a2.015,2.015,0,0,1-2.137-1.946l0-4.534a1.938,1.938,0,0,1,1.964-1.941l6.733-.009a2.062,2.062,0,0,1,2.045,1.892l-.01,4.484a1.979,1.979,0,0,1-1.938,2.024m.159-1.766-.012-4.875-7.192.023v4.875Z" transform="translate(-185.702 -156.486)" fill="#12263f"/>
            <path id="Trazado_1286170" data-name="Trazado 1286170" d="M110.362,169.4,83,169.408a.835.835,0,0,1-.93-.893.847.847,0,0,1,.94-.838l27.424.01a.834.834,0,0,1,.749.812.807.807,0,0,1-.826.9" transform="translate(-66.716 -136.3)" fill="#12263f"/>
            <path id="Trazado_1286171" data-name="Trazado 1286171" d="M135.369,149.118l-12.788.013a.809.809,0,0,1-.782-.856.865.865,0,0,1,.965-.874l12.519.012a.769.769,0,0,1,.743.7c.054.315-.056,1-.658,1.005" transform="translate(-99.007 -119.818)" fill="#12263f"/>
            <path id="Trazado_1286172" data-name="Trazado 1286172" d="M98.381,202.178l-3.267.039a.848.848,0,0,1-.871-.9.914.914,0,0,1,.881-.842l3-.023a.908.908,0,0,1,.959.7c.082.363-.114,1.023-.7,1.03" transform="translate(-76.608 -162.942)" fill="#12263f"/>
            <path id="Trazado_1286173" data-name="Trazado 1286173" d="M200.461,202.257l-2.822,0a.907.907,0,0,1-.981-.913.891.891,0,0,1,.981-.862l3,.015a.9.9,0,0,1,.86.869c.012.57-.425.9-1.038.894" transform="translate(-159.858 -162.964)" fill="#12263f"/>
            <path id="Trazado_1286174" data-name="Trazado 1286174" d="M96.7,222.68l-1.734-.029a.81.81,0,0,1-.7-.66.8.8,0,0,1,.509-.949c1.353-.311,2.823-.171,2.781.8a.818.818,0,0,1-.855.834" transform="translate(-76.61 -179.559)" fill="#12263f"/>
            <path id="Trazado_1286175" data-name="Trazado 1286175" d="M248.875,22.437a1.427,1.427,0,0,1,2.023.684,1.445,1.445,0,0,1-.65,1.811,1.424,1.424,0,1,1-1.373-2.495" transform="translate(-201.702 -18.089)" fill="#12263f"/>
            <path id="Trazado_1286176" data-name="Trazado 1286176" d="M222.858,22.4a1.426,1.426,0,1,1,1.372,2.5,1.426,1.426,0,1,1-1.372-2.5" transform="translate(-180.555 -18.057)" fill="#12263f"/>
            <path id="Trazado_1286177" data-name="Trazado 1286177" d="M274.832,22.435a1.427,1.427,0,0,1,1.96.569,1.447,1.447,0,1,1-1.96-.569" transform="translate(-222.787 -18.091)" fill="#12263f"/>
          </g>
        </g>
      </g>
    </g>
  </g>
</svg>
