<svg xmlns="http://www.w3.org/2000/svg" xmlns:xlink="http://www.w3.org/1999/xlink" width="98" height="98" viewBox="0 0 98 98">
  <defs>
    <clipPath id="clip-path">
      <rect id="Rectángulo_456312" data-name="Rectángulo 456312" width="98" height="98" transform="translate(0.059 0.059)" fill="none"/>
    </clipPath>
    <clipPath id="clip-path-3">
      <rect id="Rectángulo_468142" data-name="Rectángulo 468142" width="57.937" height="57.946" fill="#19538d"/>
    </clipPath>
  </defs>
  <g id="Grupo_1212919" data-name="Grupo 1212919" transform="translate(-307.117 -10093.059)">
    <g id="Grupo_1179968" data-name="Grupo 1179968" transform="translate(307.059 10093)">
      <g id="Grupo_1179959" data-name="Grupo 1179959" clip-path="url(#clip-path)">
        <path id="Trazado_999654" data-name="Trazado 999654" d="M1.5,5.146H81.261A12.087,12.087,0,0,1,93.377,17.2V96.585H13.616A12.087,12.087,0,0,1,1.5,84.527Z" transform="translate(0.014 0.025)" fill="#fff"/>
      </g>
      <g id="Grupo_1179960" data-name="Grupo 1179960">
        <g id="Grupo_1179956" data-name="Grupo 1179956" clip-path="url(#clip-path)">
          <path id="Trazado_999651" data-name="Trazado 999651" d="M92.229,30a5.024,5.024,0,1,1-5.048,5.024A5.037,5.037,0,0,1,92.229,30" transform="translate(0.84 0.145)" fill="#19538d"/>
          <path id="Trazado_999652" data-name="Trazado 999652" d="M63.229,0a5.024,5.024,0,1,1-5.048,5.024A5.037,5.037,0,0,1,63.229,0" transform="translate(0.56 0)" fill="#19538d"/>
          <path id="Trazado_999653" data-name="Trazado 999653" d="M93.377,35.144V96.585H13.616A12.087,12.087,0,0,1,1.5,84.527V5.146H64.459" transform="translate(0.014 0.025)" fill="none" stroke="#19538d" stroke-miterlimit="10" stroke-width="3"/>
        </g>
      </g>
    </g>
    <g id="Grupo_1213206" data-name="Grupo 1213206" transform="translate(324.117 10113.656)">
      <g id="Grupo_1213205" data-name="Grupo 1213205" clip-path="url(#clip-path-3)">
        <path id="Trazado_1286178" data-name="Trazado 1286178" d="M1.686,33.523a1.109,1.109,0,0,1-.325-1.578l10-17.3c.255-.44,1.022-.421,1.357-.235l3.816,2.117-2.122-3.812a1.109,1.109,0,0,1,.236-1.352l17.3-10.007a1.094,1.094,0,0,1,1.538.273l2.291,3.845.06-4.391A1.079,1.079,0,0,1,36.957,0H56.828a1.072,1.072,0,0,1,1.108,1.118l0,45.749A10.981,10.981,0,0,1,47.049,57.91l-45.922.035A1.105,1.105,0,0,1,0,56.82L0,36.95a1.143,1.143,0,0,1,1.256-1.126l4.225-.053Zm51.266-15.3-.035,10.164a35.413,35.413,0,0,1-3.9.059L50.7,31.325a6.377,6.377,0,0,1,2.165.163l.173,3.831,2.614,4.443.027-37.467L38.11,2.286l-.02,7.228,2.68,4.549.094-9.049,12.09.054-.029,10.155-11.5.029,1.651,2.895Zm-15.125.826,5.037,8.808-3.34,2.006,2.859,1.65a10.45,10.45,0,0,1,1.985-.971l2.125,3.273,4.461,2.567L32.2,3.853,16.958,12.619l3.68,6.354,4.583,2.582L20.74,13.6l10.433-6.02,5.116,8.854-9.962,5.811,2.9,1.643Zm-12.984,8.6c.2-.336.71-.113.91,0l8.092,4.72-1.829,3.456L35.29,35.8l1.17-1.8,3.436,1.7a26.151,26.151,0,0,0,5.271.044l-32.533-18.8L3.854,32.173l6.321,3.65,5.283-.047L7.591,31.145l6.07-10.435,8.827,5.11-5.694,9.938,3.3.054ZM47.338,55.6c5-.01,8.539-4.562,8.322-9.127a8.791,8.791,0,0,0-8.866-8.383L2.26,38.084l.007,17.6Z" transform="translate(0 0.001)" fill="#19538d"/>
        <path id="Trazado_1286179" data-name="Trazado 1286179" d="M110.736,237.582l-10.267.047v-12.1l10.246.014Z" transform="translate(-82.278 -184.696)" fill="#19538d"/>
        <path id="Trazado_1286180" data-name="Trazado 1286180" d="M183.287,237.5l-10.276.031-.035-11.444c0-.266.172-.641.475-.64l9.781.027Z" transform="translate(-141.657 -184.623)" fill="#19538d"/>
        <path id="Trazado_1286181" data-name="Trazado 1286181" d="M37.86,237.6l-10.253.04,0-12.1,10.235,0Z" transform="translate(-22.608 -184.702)" fill="#19538d"/>
        <path id="Trazado_1286182" data-name="Trazado 1286182" d="M247.7,246.045a2.356,2.356,0,1,1-1.472,3.071,2.346,2.346,0,0,1,1.472-3.071" transform="translate(-201.518 -201.398)" fill="#19538d"/>
      </g>
    </g>
  </g>
</svg>
