<svg xmlns="http://www.w3.org/2000/svg" width="85" height="85" viewBox="0 0 85 85">
  <g id="Grupo_1212914" data-name="Grupo 1212914" transform="translate(-705.629 -410)">
    <g id="Grupo_1180019" data-name="Grupo 1180019">
      <g id="Grupo_1180023" data-name="Grupo 1180023">
        <rect id="Rectángulo_456333" data-name="Rectángulo 456333" width="85" height="85" rx="10" transform="translate(705.629 410)" fill="#68eae0"/>
        <g id="Grupo_1178968" data-name="Grupo 1178968" transform="translate(17612.545 1370.666)">
          <path id="Trazado_997625" data-name="Trazado 997625" d="M593.132,569.958a6.994,6.994,0,0,0,.1-1.059l2.786-1.139-.59-2.367-2.965.164a7.15,7.15,0,0,0-1.214-1.7l1.165-2.773-2.091-1.257-1.98,2.214a6.909,6.909,0,0,0-1-.247,7.021,7.021,0,0,0-1.06-.1l-1.137-2.785-2.367.59.164,2.965a7.1,7.1,0,0,0-1.7,1.214l-2.774-1.165L577.2,564.6l2.214,1.98a7.12,7.12,0,0,0-.247,1,7.224,7.224,0,0,0-.1,1.06l-2.785,1.137.59,2.367,2.965-.164a7.106,7.106,0,0,0,1.214,1.7l-1.165,2.774,2.091,1.257,1.98-2.214a7.236,7.236,0,0,0,2.064.346l1.139,2.784,2.367-.588-.164-2.965a7.136,7.136,0,0,0,1.7-1.215l2.774,1.165,1.257-2.091-2.214-1.98A7.3,7.3,0,0,0,593.132,569.958Zm-7.427,1.429a2.652,2.652,0,1,1,3.059-2.171A2.652,2.652,0,0,1,585.7,571.387Z" transform="translate(-17438.879 -1467.59)" fill="none" stroke="#000" stroke-miterlimit="10" stroke-width="2"/>
          <path id="Trazado_997627" data-name="Trazado 997627" d="M551.9,568.551l1.98-3.049-3.193-3.064a10.523,10.523,0,0,0,.419-1.483,10.684,10.684,0,0,0,.2-1.572l4.206-1.551-.754-3.556-4.426.091a10.619,10.619,0,0,0-1.721-2.6l1.878-4.072-3.048-1.981-3.065,3.193a10.8,10.8,0,0,0-1.483-.419,10.49,10.49,0,0,0-1.573-.2l-1.551-4.206-3.556.754.091,4.426a10.626,10.626,0,0,0-2.6,1.72l-4.071-1.878-1.98,3.047,3.193,3.065a10.606,10.606,0,0,0-.419,1.483,10.493,10.493,0,0,0-.2,1.574l-4.206,1.551.754,3.556,4.426-.091a10.617,10.617,0,0,0,1.722,2.6l-1.879,4.071,3.048,1.981,3.065-3.195a10.482,10.482,0,0,0,1.483.42,10.89,10.89,0,0,0,1.574.2l1.551,4.206,3.556-.754-.091-4.427a10.6,10.6,0,0,0,2.6-1.72Zm-12.3-4.079a5.766,5.766,0,1,1,6.81-4.485A5.765,5.765,0,0,1,539.6,564.473Z" transform="translate(-17423.936 -1463.182)" fill="none" stroke="#000" stroke-miterlimit="10" stroke-width="2"/>
          <circle id="Elipse_13626" data-name="Elipse 13626" cx="15.401" cy="15.401" r="15.401" transform="translate(-16873.096 -916.863) rotate(-90)" fill="none" stroke="#000" stroke-miterlimit="10" stroke-width="2"/>
          <path id="Trazado_997628" data-name="Trazado 997628" d="M600.809,536.644l12.407,10.529a2.284,2.284,0,0,1-2.956,3.484l-12.371-10.489" transform="translate(-17445.303 -1460.972)" fill="none" stroke="#000" stroke-miterlimit="10" stroke-width="2"/>
          <circle id="Elipse_13627" data-name="Elipse 13627" cx="10.836" cy="10.836" r="10.836" transform="translate(-16870.129 -923.304) rotate(-80.783)" fill="none" stroke="#000" stroke-miterlimit="10" stroke-width="2"/>
        </g>
      </g>
    </g>
  </g>
</svg>
