<svg xmlns="http://www.w3.org/2000/svg" xmlns:xlink="http://www.w3.org/1999/xlink" width="150" height="150" viewBox="0 0 150 150">
  <defs>
    <clipPath id="clip-path">
      <rect id="Rectángulo_456267" data-name="Rectángulo 456267" width="150" height="150" fill="none"/>
    </clipPath>
    <clipPath id="clip-path-2">
      <rect id="Rectángulo_468148" data-name="Rectángulo 468148" width="73.534" height="67.551" fill="#19538d"/>
    </clipPath>
  </defs>
  <g id="Grupo_1212958" data-name="Grupo 1212958" transform="translate(533.746 8549) rotate(180)">
    <path id="Trazado_999622" data-name="Trazado 999622" d="M70.07,0A70.07,70.07,0,1,1,0,70.07,70.071,70.071,0,0,1,70.07,0" transform="translate(388.676 8403.93)" fill="#e1f5ff"/>
    <g id="Grupo_1179902" data-name="Grupo 1179902" transform="translate(383.746 8399)">
      <g id="Grupo_1179905" data-name="Grupo 1179905" clip-path="url(#clip-path)">
        <path id="Trazado_999618" data-name="Trazado 999618" d="M75,0A75,75,0,1,1,0,75,75,75,0,0,1,75,0" fill="none"/>
        <path id="Trazado_999619" data-name="Trazado 999619" d="M5.859,59A5.859,5.859,0,1,1,0,64.859,5.86,5.86,0,0,1,5.859,59" transform="translate(0 10.141)" fill="#19538d"/>
        <path id="Trazado_999620" data-name="Trazado 999620" d="M21.859,19A5.859,5.859,0,1,1,16,24.859,5.86,5.86,0,0,1,21.859,19" transform="translate(2.75 3.266)" fill="#19538d"/>
        <path id="Trazado_999621" data-name="Trazado 999621" d="M74.313,144.625A70.392,70.392,0,0,1,4,74.313H7.516A66.8,66.8,0,1,0,25.572,28.638l-2.564-2.4a70.312,70.312,0,1,1,51.3,118.392" transform="translate(0.688 0.688)" fill="#19538d"/>
        <rect id="Rectángulo_456268" data-name="Rectángulo 456268" width="150" height="150" fill="none"/>
        <rect id="Rectángulo_456269" data-name="Rectángulo 456269" width="150" height="150" fill="none"/>
      </g>
    </g>
    <g id="Grupo_1213218" data-name="Grupo 1213218" transform="translate(495.513 8507.775) rotate(180)">
      <g id="Grupo_1213217" data-name="Grupo 1213217" clip-path="url(#clip-path-2)">
        <path id="Trazado_1286212" data-name="Trazado 1286212" d="M13.533,33.6l-5.717-.109c-1.337-.025-2.213-1.483-2.207-2.75l.039-8.6a2.562,2.562,0,0,1,2.467-2.5l5.623-.079a23.733,23.733,0,0,1,4.119-7.516L2.145,12l.012,41.907a2.048,2.048,0,0,0,2.208,2.037l21.262,0a1.082,1.082,0,0,1,1.048,1.137,1.05,1.05,0,0,1-1.18,1.051L3.907,58.1A4.045,4.045,0,0,1,0,53.97L0,4.141A4.125,4.125,0,0,1,4.174,0H69.363a4.122,4.122,0,0,1,4.171,4.143l0,49.82c0,2.784-2.391,4.518-5.176,4.131a4.49,4.49,0,0,1-1.065,5.972L63.918,66.65a4.33,4.33,0,0,1-6.2-.987l-5.751-7.528-21.356-.025c-.63,0-.963-.814-.9-1.2a1.176,1.176,0,0,1,1.174-.967l19.618,0a6.237,6.237,0,0,1,.27-3.716l-3.835-5.145A23.18,23.18,0,0,1,13.533,33.6M51.385,9.857l19.993-.016,0-5.676c-.048-.67-.58-1.916-1.561-1.916l-66.107,0c-1.053,0-1.585,1.377-1.562,2.1L2.16,9.838l17.85.022a23.169,23.169,0,0,1,31.376,0m3.479,25.519a21.356,21.356,0,0,0-.011-17.011l-16.434-.028c-.636,0-.846-.845-.777-1.215a1.092,1.092,0,0,1,1.2-.909L53.68,16.18a20.962,20.962,0,0,0-36.064.015l15.936.026A1.022,1.022,0,0,1,34.6,17.33a1.112,1.112,0,0,1-1.062,1.027l-17.017.008a20.824,20.824,0,0,0,.009,17.024ZM52.878,42.33l4.062,5.318a4.469,4.469,0,0,1,4.589,1.59L66.6,55.923l3.284-.072c.839-.018,1.5-1.01,1.5-1.934L71.392,12l-17.949.031a24.8,24.8,0,0,1,4.217,7.538l7.56.042a2.739,2.739,0,0,1,2.7,2.525l.006,8.6a2.659,2.659,0,0,1-2.411,2.786l-7.712.055a22.839,22.839,0,0,1-4.925,8.751M12.97,31.4a23.465,23.465,0,0,1,.134-9.615l-5.262.08-.02,9.432Zm52.742-.047-.015-9.51-7.45-.074a22.3,22.3,0,0,1,.089,9.662ZM53.657,37.534,17.625,37.5a20.9,20.9,0,0,0,36.033.034m-1.2,13.143L55,48.73l-3.618-4.836-2.559,2.033ZM62.682,64.862l3.34-2.537a2.1,2.1,0,0,0,.479-2.911l-6.412-8.5a2.65,2.65,0,0,0-1.685-1.2,2.71,2.71,0,0,0-2.032.683L53.15,52.9a2.218,2.218,0,0,0-.043,3.149l6.583,8.569a2.121,2.121,0,0,0,2.992.244" transform="translate(0)" fill="#19538d"/>
        <path id="Trazado_1286213" data-name="Trazado 1286213" d="M188.961,103.326l-1.164,3.182a1.211,1.211,0,0,1-.975.762,1.253,1.253,0,0,1-1.215-.727l-2.151-5.653a1.122,1.122,0,0,1,.463-1.4,1.138,1.138,0,0,1,1.625.692l1.186,3.609,1.2-3.577a1.189,1.189,0,0,1,.983-.877,1.242,1.242,0,0,1,1.181.9l1.159,3.479,1.135-3.415a1.1,1.1,0,0,1,1.361-.877,1.039,1.039,0,0,1,.8,1.381l-2.152,5.69a1.245,1.245,0,0,1-1.163.758,1.193,1.193,0,0,1-1.112-.819Z" transform="translate(-141.225 -76.501)" fill="#19538d"/>
        <path id="Trazado_1286214" data-name="Trazado 1286214" d="M87.374,101.569l-2.064,5.5a1.349,1.349,0,0,1-1.075.9,1.257,1.257,0,0,1-1.211-.822l-1.229-3.267L80.715,107.1a1.22,1.22,0,0,1-1.037.846,1.3,1.3,0,0,1-1.253-.807l-2.145-5.66a1.093,1.093,0,0,1,2.075-.69l1.177,3.673,1.311-3.676a1.1,1.1,0,0,1,.945-.755,1.173,1.173,0,0,1,1.112.813l1.2,3.62,1.186-3.588a1.118,1.118,0,0,1,1.289-.807,1.063,1.063,0,0,1,.8,1.5" transform="translate(-58.695 -77.036)" fill="#19538d"/>
        <path id="Trazado_1286215" data-name="Trazado 1286215" d="M140.671,101.48l-2.157,5.782a1.19,1.19,0,0,1-2.22-.133l-1.156-3.193-1.076,3.032a1.285,1.285,0,0,1-1.107.954,1.251,1.251,0,0,1-1.263-.8l-2.075-5.546a1.09,1.09,0,1,1,2.022-.815l1.277,3.7,1.192-3.663a1.145,1.145,0,0,1,.943-.766,1.129,1.129,0,0,1,1.132.77l1.187,3.652,1.19-3.561a1.12,1.12,0,0,1,1.272-.83,1.033,1.033,0,0,1,.84,1.42" transform="translate(-99.757 -77.034)" fill="#19538d"/>
        <path id="Trazado_1286216" data-name="Trazado 1286216" d="M44.911,22.937a1.077,1.077,0,1,1,.973,1.921,1.127,1.127,0,0,1-1.484-.469,1.058,1.058,0,0,1,.511-1.452" transform="translate(-34.106 -17.559)" fill="#19538d"/>
        <path id="Trazado_1286217" data-name="Trazado 1286217" d="M64.8,23.026a1.1,1.1,0,0,1,1.483.6,1.076,1.076,0,0,1-.51,1.343,1.112,1.112,0,0,1-1.506-.48,1.058,1.058,0,0,1,.533-1.463" transform="translate(-49.41 -17.653)" fill="#19538d"/>
        <path id="Trazado_1286218" data-name="Trazado 1286218" d="M25.133,22.894a1.068,1.068,0,0,1,1.45.544,1.109,1.109,0,0,1-.543,1.423,1.164,1.164,0,0,1-1.455-.507,1.034,1.034,0,0,1,.547-1.46" transform="translate(-18.835 -17.552)" fill="#19538d"/>
      </g>
    </g>
  </g>
</svg>
