<svg xmlns="http://www.w3.org/2000/svg" xmlns:xlink="http://www.w3.org/1999/xlink" width="98" height="98" viewBox="0 0 98 98">
  <defs>
    <clipPath id="clip-path">
      <rect id="Rectángulo_456312" data-name="Rectángulo 456312" width="98" height="98" transform="translate(0.059 0.059)" fill="none"/>
    </clipPath>
    <clipPath id="clip-path-3">
      <rect id="Rectángulo_468135" data-name="Rectángulo 468135" width="61.575" height="61.584" fill="#19538d"/>
    </clipPath>
  </defs>
  <g id="Grupo_1212799" data-name="Grupo 1212799" transform="translate(-307.117 -10093.059)">
    <g id="Grupo_1179968" data-name="Grupo 1179968" transform="translate(307.059 10093)">
      <g id="Grupo_1179959" data-name="Grupo 1179959" clip-path="url(#clip-path)">
        <path id="Trazado_999654" data-name="Trazado 999654" d="M1.5,5.146H81.261A12.087,12.087,0,0,1,93.377,17.2V96.585H13.616A12.087,12.087,0,0,1,1.5,84.527Z" transform="translate(0.014 0.025)" fill="#fff"/>
      </g>
      <g id="Grupo_1179960" data-name="Grupo 1179960">
        <g id="Grupo_1179956" data-name="Grupo 1179956" clip-path="url(#clip-path)">
          <path id="Trazado_999651" data-name="Trazado 999651" d="M92.229,30a5.024,5.024,0,1,1-5.048,5.024A5.037,5.037,0,0,1,92.229,30" transform="translate(0.84 0.145)" fill="#19538d"/>
          <path id="Trazado_999652" data-name="Trazado 999652" d="M63.229,0a5.024,5.024,0,1,1-5.048,5.024A5.037,5.037,0,0,1,63.229,0" transform="translate(0.56 0)" fill="#19538d"/>
          <path id="Trazado_999653" data-name="Trazado 999653" d="M93.377,35.144V96.585H13.616A12.087,12.087,0,0,1,1.5,84.527V5.146H64.459" transform="translate(0.014 0.025)" fill="none" stroke="#19538d" stroke-miterlimit="10" stroke-width="3"/>
        </g>
      </g>
    </g>
    <g id="Grupo_1213192" data-name="Grupo 1213192" transform="translate(321.117 10113.275)">
      <g id="Grupo_1213191" data-name="Grupo 1213191" clip-path="url(#clip-path-3)">
        <path id="Trazado_1286108" data-name="Trazado 1286108" d="M109.11,51.4a3.948,3.948,0,0,1-3.9,3.99l-18.638.056,0-2.073,18.249.01a2.114,2.114,0,0,0,2.234-1.9l.027-39.148-6.171,0a4.114,4.114,0,0,1-4.095-4.108L96.808,2.07,69.327,2.057a2.053,2.053,0,0,0-2.266,2.064l-.01,14.328-2.058.01.016-14.34A4.092,4.092,0,0,1,69.325,0L98.218.024,102.411,4.1l6.524.006a4.118,4.118,0,0,1,4.294,4.137l0,47.151a4.049,4.049,0,0,1-4.112,4.129l-22.535.024,0-2.064,22.344.008a2.115,2.115,0,0,0,2.243-1.907l.017-47.333a2.076,2.076,0,0,0-2.242-2.089l-4.412.028,4.6,4.732ZM101,10.278l4.527-.06L98.91,3.6l-.047,4.621A2.09,2.09,0,0,0,101,10.278" transform="translate(-51.654 0)" fill="#19538d"/>
        <path id="Trazado_1286109" data-name="Trazado 1286109" d="M2.979,118.523l18.574-.012,0-6.175a5.082,5.082,0,0,0-5.228-5.12,5.166,5.166,0,0,0-5.032,5.323l0,2.878a1.016,1.016,0,0,1-1.024,1.029H5.143a1.016,1.016,0,0,1-1.025-1.028l-.007-3.085a11.909,11.909,0,0,1,3.857-8.9l1.415,1.425a10.034,10.034,0,0,0-3.212,7.264V114.4H9.232l.009-1.867a7.239,7.239,0,0,1,6.88-7.365,7.084,7.084,0,0,1,7.469,6.948l.024,6.383h3.074l0-6.161a10.271,10.271,0,0,0-15.822-8.636A7.984,7.984,0,0,1,9.741,102a12.3,12.3,0,0,1,12.806-.332,12.433,12.433,0,0,1,6.194,10.682l.061,6.235c2.047-.442,4,.782,4.007,2.8l.03,16.61a3.033,3.033,0,0,1-3.092,3.088H3.1A3.03,3.03,0,0,1,.012,138L0,125.7H2.058l.005,12.289a1.034,1.034,0,0,0,1.053,1.045H29.733a1.036,1.036,0,0,0,1.055-1.05V121.593a1,1,0,0,0-.87-1.024H2.93a.979.979,0,0,0-.864.993l-.015,2.057-2.04.011,0-2.074a2.97,2.97,0,0,1,2.97-3.033" transform="translate(0 -79.498)" fill="#19538d"/>
        <path id="Trazado_1286110" data-name="Trazado 1286110" d="M181.32,150.471a3.054,3.054,0,0,1-6.072.085v-2.84a3.056,3.056,0,0,1,6.066,0Zm-2.015-.41-.007-1.946a1.017,1.017,0,1,0-2.034,0v2.041a.994.994,0,0,0,1.1,1.016,1.022,1.022,0,0,0,.938-1.111" transform="translate(-139.278 -115.266)" fill="#19538d"/>
        <path id="Trazado_1286111" data-name="Trazado 1286111" d="M221.32,150.471a3.054,3.054,0,0,1-6.072.085v-2.84a3.056,3.056,0,0,1,6.066,0Zm-2.015-.41-.007-1.946a1.017,1.017,0,1,0-2.034,0v2.041a.994.994,0,0,0,1.1,1.016,1.022,1.022,0,0,0,.938-1.111" transform="translate(-171.068 -115.266)" fill="#19538d"/>
        <path id="Trazado_1286112" data-name="Trazado 1286112" d="M201.32,205.472a3.054,3.054,0,0,1-6.072.085v-2.84a3.056,3.056,0,0,1,6.066,0Zm-2.015-.41-.008-1.946a1.017,1.017,0,1,0-2.034,0v2.041a.994.994,0,0,0,1.1,1.016,1.023,1.023,0,0,0,.938-1.111" transform="translate(-155.173 -158.978)" fill="#19538d"/>
        <path id="Trazado_1286113" data-name="Trazado 1286113" d="M151.32,100.47a3.054,3.054,0,0,1-6.072.085v-2.84a3.056,3.056,0,0,1,6.066,0Zm-2.015-.41-.007-1.946a1.017,1.017,0,1,0-2.034,0v2.041a.994.994,0,0,0,1.1,1.016,1.022,1.022,0,0,0,.938-1.111" transform="translate(-115.436 -75.528)" fill="#19538d"/>
        <path id="Trazado_1286114" data-name="Trazado 1286114" d="M96.32,50.471a3.054,3.054,0,0,1-6.072.085v-2.84a3.056,3.056,0,0,1,6.066,0Zm-2.015-.41L94.3,48.115a1.017,1.017,0,1,0-2.034,0v2.041a.994.994,0,0,0,1.1,1.016,1.022,1.022,0,0,0,.938-1.111" transform="translate(-71.725 -35.791)" fill="#19538d"/>
        <path id="Trazado_1286115" data-name="Trazado 1286115" d="M211.32,100.472a3.054,3.054,0,0,1-6.072.085V97.716a3.056,3.056,0,0,1,6.065,0Zm-2.015-.41-.007-1.946a1.017,1.017,0,1,0-2.034,0v2.041a.994.994,0,0,0,1.1,1.016,1.022,1.022,0,0,0,.938-1.111" transform="translate(-163.121 -75.53)" fill="#19538d"/>
        <path id="Trazado_1286116" data-name="Trazado 1286116" d="M156.32,50.472a3.054,3.054,0,0,1-6.072.085V47.716a3.056,3.056,0,0,1,6.065,0Zm-2.015-.41-.007-1.946a1.017,1.017,0,1,0-2.034,0v2.041a.994.994,0,0,0,1.1,1.016,1.022,1.022,0,0,0,.938-1.111" transform="translate(-119.41 -35.792)" fill="#19538d"/>
        <path id="Trazado_1286117" data-name="Trazado 1286117" d="M196.32,50.472a3.054,3.054,0,0,1-6.072.085V47.716a3.056,3.056,0,0,1,6.065,0Zm-2.015-.41-.007-1.946a1.017,1.017,0,1,0-2.034,0v2.041a.994.994,0,0,0,1.1,1.016,1.022,1.022,0,0,0,.938-1.111" transform="translate(-151.2 -35.792)" fill="#19538d"/>
        <path id="Trazado_1286118" data-name="Trazado 1286118" d="M69.162,233.21l-2.064.018L67.064,231a3.071,3.071,0,0,1-1.987-3.385,3.077,3.077,0,0,1,6.047-.173A3.061,3.061,0,0,1,69.176,231Zm-1.387-6.066a1.015,1.015,0,1,0,.757,1.883,1.024,1.024,0,0,0,.513-1.347.992.992,0,0,0-1.27-.536" transform="translate(-51.693 -178.835)" fill="#19538d"/>
        <path id="Trazado_1286119" data-name="Trazado 1286119" d="M132.074,53.229l-2.065.039V45.085l2.057,0Z" transform="translate(-103.325 -35.83)" fill="#19538d"/>
        <path id="Trazado_1286120" data-name="Trazado 1286120" d="M157.074,153.229l-2.065.039v-8.183l2.057,0Z" transform="translate(-123.193 -115.305)" fill="#19538d"/>
        <path id="Trazado_1286121" data-name="Trazado 1286121" d="M247.074,103.229l-2.065.039V95.085l2.057,0Z" transform="translate(-194.721 -75.568)" fill="#19538d"/>
        <path id="Trazado_1286122" data-name="Trazado 1286122" d="M187.074,103.229l-2.065.039V95.085l2.057,0Z" transform="translate(-147.036 -75.568)" fill="#19538d"/>
        <path id="Trazado_1286123" data-name="Trazado 1286123" d="M177.074,208.229l-2.065.039v-8.183l2.057,0Z" transform="translate(-139.088 -159.017)" fill="#19538d"/>
        <path id="Trazado_1286124" data-name="Trazado 1286124" d="M237.074,208.229l-2.065.039v-8.183l2.057,0Z" transform="translate(-186.773 -159.017)" fill="#19538d"/>
        <path id="Trazado_1286125" data-name="Trazado 1286125" d="M67.077,156.154l-2.068.035v-6.141l2.057,0Z" transform="translate(-51.666 -119.25)" fill="#19538d"/>
        <path id="Trazado_1286126" data-name="Trazado 1286126" d="M92.105,22.063l-2.05.016V20.03l2.038,0Z" transform="translate(-71.57 -15.918)" fill="#19538d"/>
        <path id="Trazado_1286127" data-name="Trazado 1286127" d="M112.105,22.063l-2.05.016V20.03l2.038,0Z" transform="translate(-87.465 -15.918)" fill="#19538d"/>
        <path id="Trazado_1286128" data-name="Trazado 1286128" d="M132.105,22.063l-2.05.016V20.03l2.038,0Z" transform="translate(-103.36 -15.918)" fill="#19538d"/>
      </g>
    </g>
  </g>
</svg>
