<svg xmlns="http://www.w3.org/2000/svg" xmlns:xlink="http://www.w3.org/1999/xlink" width="150" height="150" viewBox="0 0 150 150">
  <defs>
    <clipPath id="clip-path">
      <rect id="Rectángulo_456267" data-name="Rectángulo 456267" width="150" height="150" fill="none"/>
    </clipPath>
    <clipPath id="clip-path-2">
      <rect id="Rectángulo_468149" data-name="Rectángulo 468149" width="54.47" height="77.468" fill="#19538d"/>
    </clipPath>
  </defs>
  <g id="Grupo_1212959" data-name="Grupo 1212959" transform="translate(533.746 8549) rotate(180)">
    <path id="Trazado_999622" data-name="Trazado 999622" d="M70.07,0A70.07,70.07,0,1,1,0,70.07,70.071,70.071,0,0,1,70.07,0" transform="translate(388.676 8403.93)" fill="#e1f5ff"/>
    <g id="Grupo_1179902" data-name="Grupo 1179902" transform="translate(383.746 8399)">
      <g id="Grupo_1179905" data-name="Grupo 1179905" clip-path="url(#clip-path)">
        <path id="Trazado_999618" data-name="Trazado 999618" d="M75,0A75,75,0,1,1,0,75,75,75,0,0,1,75,0" fill="none"/>
        <path id="Trazado_999619" data-name="Trazado 999619" d="M5.859,59A5.859,5.859,0,1,1,0,64.859,5.86,5.86,0,0,1,5.859,59" transform="translate(0 10.141)" fill="#19538d"/>
        <path id="Trazado_999620" data-name="Trazado 999620" d="M21.859,19A5.859,5.859,0,1,1,16,24.859,5.86,5.86,0,0,1,21.859,19" transform="translate(2.75 3.266)" fill="#19538d"/>
        <path id="Trazado_999621" data-name="Trazado 999621" d="M74.313,144.625A70.392,70.392,0,0,1,4,74.313H7.516A66.8,66.8,0,1,0,25.572,28.638l-2.564-2.4a70.312,70.312,0,1,1,51.3,118.392" transform="translate(0.688 0.688)" fill="#19538d"/>
        <rect id="Rectángulo_456268" data-name="Rectángulo 456268" width="150" height="150" fill="none"/>
        <rect id="Rectángulo_456269" data-name="Rectángulo 456269" width="150" height="150" fill="none"/>
      </g>
    </g>
    <g id="Grupo_1213220" data-name="Grupo 1213220" transform="translate(485.981 8512.734) rotate(180)">
      <g id="Grupo_1213219" data-name="Grupo 1213219" clip-path="url(#clip-path-2)">
        <path id="Trazado_1286219" data-name="Trazado 1286219" d="M63.666,110.246A9.819,9.819,0,0,1,53.929,120.6l-15.965.02a9.917,9.917,0,0,1-9.912-8.466,18.934,18.934,0,0,1-9.087-15.322l-.038-6.476c-.031-5.191,3.935-9.421,9.014-10.521l.044-16.357a6.694,6.694,0,0,1,6.934-6.543,6.828,6.828,0,0,1,6.643,7.029l-.008,9.226a6.818,6.818,0,0,1,7.705,2.356,6.8,6.8,0,0,1,9.034,1.544,6.779,6.779,0,0,1,7.015-.251,6.594,6.594,0,0,1,3.5,5.635l0,15.6a17.221,17.221,0,0,1-5.149,12.176m-3.763-2.71a12.189,12.189,0,0,0,4.323-8.758l.091-15.921a2.344,2.344,0,0,0-2.65-2.3,2.527,2.527,0,0,0-1.908,3.014A2.471,2.471,0,0,1,57.7,86.559a2.367,2.367,0,0,1-2.537-2.508l-.083-3.335a2.188,2.188,0,0,0-2.8-1.6,2.571,2.571,0,0,0-1.627,2.994,2.435,2.435,0,0,1-1.937,2.913,2.187,2.187,0,0,1-2.544-1.919l-.076-3.6a2.294,2.294,0,0,0-2.639-2.137,2.513,2.513,0,0,0-1.906,3.062,2.525,2.525,0,0,1-2.05,3.115A2.308,2.308,0,0,1,37,81.145l0-17.414a2.254,2.254,0,1,0-4.507.068l-.01,29.444a2.249,2.249,0,0,1-2.143,2.236A2.137,2.137,0,0,1,28,93.51l-.046-8.968A6.5,6.5,0,0,0,23.473,90.6l.005,5.345a14.419,14.419,0,0,0,7.714,12.771A2.428,2.428,0,0,1,32.54,111a5.186,5.186,0,0,0,4.919,5.022L54.182,116c3.161,0,5.216-3.062,4.925-6.022a2.706,2.706,0,0,1,.8-2.447" transform="translate(-14.345 -43.153)" fill="#19538d"/>
        <path id="Trazado_1286220" data-name="Trazado 1286220" d="M118.68,29.616a2.263,2.263,0,0,1-3.154.084,2.231,2.231,0,0,1-.12-3.221l3.526-3.472a2.225,2.225,0,0,1,3,.277,2.3,2.3,0,0,1-.056,3.138Z" transform="translate(-86.99 -17.084)" fill="#19538d"/>
        <path id="Trazado_1286221" data-name="Trazado 1286221" d="M28.951,26.406a2.33,2.33,0,0,1,.063,3.327,2.26,2.26,0,0,1-3.1.05l-3.38-3.374a2.247,2.247,0,0,1,.061-3.1,2.33,2.33,0,0,1,3.261,0Z" transform="translate(-16.633 -17.165)" fill="#19538d"/>
        <path id="Trazado_1286222" data-name="Trazado 1286222" d="M79.6,6.91A2.138,2.138,0,0,1,77.31,8.921a2.224,2.224,0,0,1-2.148-1.992v-4.9A2.2,2.2,0,0,1,77.542.005a2.287,2.287,0,0,1,2.1,2.4Z" transform="translate(-56.967 0)" fill="#19538d"/>
        <path id="Trazado_1286223" data-name="Trazado 1286223" d="M7.284,80.237,2.3,80.315A2.217,2.217,0,0,1,0,78.152a2.162,2.162,0,0,1,2.051-2.3l5.12.023a2.125,2.125,0,0,1,1.89,2.08c.048.925-.566,2.264-1.779,2.282" transform="translate(0 -57.491)" fill="#19538d"/>
        <path id="Trazado_1286224" data-name="Trazado 1286224" d="M137.917,80.375h-4.13a2.315,2.315,0,0,1-2.445-1.924,2.142,2.142,0,0,1,1.952-2.547l5.111,0a2.147,2.147,0,0,1,1.965,2.312,2.306,2.306,0,0,1-2.453,2.154" transform="translate(-99.53 -57.531)" fill="#19538d"/>
      </g>
    </g>
  </g>
</svg>
