<svg xmlns="http://www.w3.org/2000/svg" xmlns:xlink="http://www.w3.org/1999/xlink" width="128" height="128" viewBox="0 0 128 128">
  <defs>
    <clipPath id="clip-path">
      <rect id="Rectángulo_456267" data-name="Rectángulo 456267" width="128" height="128" fill="none"/>
    </clipPath>
    <clipPath id="clip-path-2">
      <rect id="Rectángulo_468114" data-name="Rectángulo 468114" width="72" height="71.986" fill="#19538d"/>
    </clipPath>
  </defs>
  <g id="Grupo_1212757" data-name="Grupo 1212757" transform="translate(511.746 8527) rotate(180)">
    <path id="Trazado_999622" data-name="Trazado 999622" d="M59.07,0A59.07,59.07,0,1,1,0,59.07,59.071,59.071,0,0,1,59.07,0" transform="translate(388.676 8403.93)" fill="#fff"/>
    <g id="Grupo_1179902" data-name="Grupo 1179902" transform="translate(383.746 8399)">
      <g id="Grupo_1179905" data-name="Grupo 1179905" clip-path="url(#clip-path)">
        <path id="Trazado_999618" data-name="Trazado 999618" d="M64,0A64,64,0,1,1,0,64,64,64,0,0,1,64,0" fill="none"/>
        <path id="Trazado_999619" data-name="Trazado 999619" d="M5,59a5,5,0,1,1-5,5,5,5,0,0,1,5-5" fill="#19538d"/>
        <path id="Trazado_999620" data-name="Trazado 999620" d="M21,19a5,5,0,1,1-5,5,5,5,0,0,1,5-5" fill="#19538d"/>
        <path id="Trazado_999621" data-name="Trazado 999621" d="M64,124A60.068,60.068,0,0,1,4,64H7A57,57,0,1,0,22.408,25.024L20.22,22.972A60,60,0,1,1,64,124" fill="#19538d"/>
        <rect id="Rectángulo_456268" data-name="Rectángulo 456268" width="128" height="128" fill="none"/>
        <rect id="Rectángulo_456269" data-name="Rectángulo 456269" width="128" height="128" fill="none"/>
      </g>
    </g>
    <g id="Grupo_1213150" data-name="Grupo 1213150" transform="translate(483.746 8498.992) rotate(180)">
      <g id="Grupo_1213149" data-name="Grupo 1213149" clip-path="url(#clip-path-2)">
        <path id="Trazado_1285911" data-name="Trazado 1285911" d="M64.742,8.466a6.43,6.43,0,0,1-2.614,3.022,4.891,4.891,0,0,1-4.533-.154L55.2,13.752A29.9,29.9,0,0,1,55.18,46.24L70.224,61.357A6.252,6.252,0,0,1,61.494,70.3L46.277,55.149a29.966,29.966,0,1,1,7.512-43.418l2.076-2.112A4.785,4.785,0,1,1,64.619,5.99l7.359.028L71.94,8.36ZM9.483,11.4a27.622,27.622,0,1,0,41.592.733A27.647,27.647,0,0,0,9.483,11.4M59.627,4.83a2.36,2.36,0,0,0-1.972,2.84,2.388,2.388,0,0,0,2.662,1.892,2.391,2.391,0,1,0-.69-4.732M51.64,57.076l5.459-5.5-3.312-3.308a32.164,32.164,0,0,1-5.518,5.478ZM63.127,68.568a3.862,3.862,0,0,0,5.514-5.393l-9.826-9.9-5.509,5.54Z" transform="translate(0 0.001)" fill="#19538d"/>
        <path id="Trazado_1285912" data-name="Trazado 1285912" d="M45.861,21.426A25.174,25.174,0,1,1,21.453,47.356,25.187,25.187,0,0,1,45.861,21.426M47.944,50.8,55.6,43c-.786-1.958-.821-4.391.946-5.938a4.9,4.9,0,0,1,5.72-.6l2.962-3.006a22.767,22.767,0,0,0-40.857,8.317l4.4.011a4.814,4.814,0,0,1,6.451-3.229,4.756,4.756,0,0,1,2.307,6.884L43,50.76a5.828,5.828,0,0,1,4.944.037m-6.692,1.689-5.469-5.271a5.193,5.193,0,0,1-4.469.065,5.057,5.057,0,0,1-2.535-3.112c-1.673.07-3.141.058-4.789.041A22.768,22.768,0,1,0,66.572,35.6l-2.614,2.571a4.85,4.85,0,0,1-.817,5.871c-1.536,1.61-3.833,1.466-5.746.8L49.68,52.551c.8,2.236.684,4.721-1.352,6.237a4.825,4.825,0,0,1-5.977-.131,4.971,4.971,0,0,1-1.1-6.17m17.89-14.194a2.391,2.391,0,1,0,1.392,4.576,2.449,2.449,0,0,0,1.609-2.86,2.37,2.37,0,0,0-3-1.716M32.584,40.776a2.346,2.346,0,0,0-1.357,3.146,2.393,2.393,0,0,0,4.445-1.768,2.327,2.327,0,0,0-3.088-1.378M44.731,52.7a2.379,2.379,0,1,0,1.4,4.547,2.379,2.379,0,1,0-1.4-4.547" transform="translate(-16.615 -16.596)" fill="#19538d"/>
      </g>
    </g>
  </g>
</svg>
