<svg xmlns="http://www.w3.org/2000/svg" xmlns:xlink="http://www.w3.org/1999/xlink" width="128" height="128" viewBox="0 0 128 128">
  <defs>
    <clipPath id="clip-path">
      <rect id="Rectángulo_456267" data-name="Rectángulo 456267" width="128" height="128" fill="none"/>
    </clipPath>
    <clipPath id="clip-path-2">
      <rect id="Rectángulo_468116" data-name="Rectángulo 468116" width="64.28" height="60.499" fill="#19538d"/>
    </clipPath>
  </defs>
  <g id="Grupo_1212759" data-name="Grupo 1212759" transform="translate(511.746 8527) rotate(180)">
    <path id="Trazado_999622" data-name="Trazado 999622" d="M59.07,0A59.07,59.07,0,1,1,0,59.07,59.071,59.071,0,0,1,59.07,0" transform="translate(388.676 8403.93)" fill="#fff"/>
    <g id="Grupo_1179902" data-name="Grupo 1179902" transform="translate(383.746 8399)">
      <g id="Grupo_1179905" data-name="Grupo 1179905" clip-path="url(#clip-path)">
        <path id="Trazado_999618" data-name="Trazado 999618" d="M64,0A64,64,0,1,1,0,64,64,64,0,0,1,64,0" fill="none"/>
        <path id="Trazado_999619" data-name="Trazado 999619" d="M5,59a5,5,0,1,1-5,5,5,5,0,0,1,5-5" fill="#19538d"/>
        <path id="Trazado_999620" data-name="Trazado 999620" d="M21,19a5,5,0,1,1-5,5,5,5,0,0,1,5-5" fill="#19538d"/>
        <path id="Trazado_999621" data-name="Trazado 999621" d="M64,124A60.068,60.068,0,0,1,4,64H7A57,57,0,1,0,22.408,25.024L20.22,22.972A60,60,0,1,1,64,124" fill="#19538d"/>
        <rect id="Rectángulo_456268" data-name="Rectángulo 456268" width="128" height="128" fill="none"/>
        <rect id="Rectángulo_456269" data-name="Rectángulo 456269" width="128" height="128" fill="none"/>
      </g>
    </g>
    <g id="Grupo_1213154" data-name="Grupo 1213154" transform="translate(479.492 8495.561) rotate(180)">
      <g id="Grupo_1213153" data-name="Grupo 1213153" clip-path="url(#clip-path-2)">
        <path id="Trazado_1285926" data-name="Trazado 1285926" d="M1.066,61.119l1.326-.07L2.4,41.5a1.127,1.127,0,0,1,1.188-1.138H9.537a1.16,1.16,0,0,1,1.224,1.108l.006,19.611,2.141-.018,0-28.044a1.053,1.053,0,0,1,1.056-1.034L20.272,32a.97.97,0,0,1,.954,1.018l.007,28a6.565,6.565,0,0,0,2.188.046l-.027-21.629A15.277,15.277,0,0,1,31.653,24.1l.01-13.335L38.9,3.527l24.332-.01a1.021,1.021,0,0,1,1.057,1l.008,41.328a1.042,1.042,0,0,1-1.054,1.112l-9.362.014,1.533,1.266,7.86,7.966a4.1,4.1,0,0,1-.224,5.679c-1.484,1.5-4.18,2.017-5.845.377L48.81,54,46.684,50.85a17.526,17.526,0,0,1-4.457,1.824l.013,8.278c.951.318,2.264-.083,2.36,1.135a1.069,1.069,0,0,1-1.071,1.137l-42.42,0a1.06,1.06,0,0,1-1.065-.958,1.036,1.036,0,0,1,1.022-1.144M57.3,22.035a1.055,1.055,0,0,1,1.1,1.123,1.006,1.006,0,0,1-1.079.991l-11.548.008A15.389,15.389,0,0,1,52.255,44.84h9.912l0-39.205-21.061,0-.068,6.208A1.086,1.086,0,0,1,39.973,12.9l-6.2,0L33.774,23.2a15.826,15.826,0,0,1,12.11.993c-.23-.514-.6-.766-.535-1.186.058-.363.336-.935.844-.937ZM38.937,10.764,38.889,6.5,34.649,10.74ZM37.01,24.647A13.211,13.211,0,1,0,51.755,36.1,13.19,13.19,0,0,0,37.01,24.647M19.122,60.96,19.109,34.1H15.022V61.084a18.822,18.822,0,0,0,4.1-.124m-10.471.111,0-18.569H4.51V61.1Zm20.957,0L29.6,50.147a18.01,18.01,0,0,1-4.039-4.2l-.037,15.134ZM49.92,51.668l2.832-2.83-2.143-1.45-2.178,2.179Zm8.6,8.963a2.236,2.236,0,0,0,3.028-.244,2.072,2.072,0,0,0,.131-2.806L54.373,50.21,51.194,53.4Zm-24.632.378-.027-8.686-2.145-.795,0,9.562a8.194,8.194,0,0,0,2.175-.082m6.217.023-.016-7.989a17.068,17.068,0,0,1-4.1-.181v8.244Z" transform="translate(-0.029 -2.773)" fill="#19538d"/>
        <path id="Trazado_1285927" data-name="Trazado 1285927" d="M12.465,26.074l10.312.018A11.412,11.412,0,1,1,12.461,15.76Zm-2.236.536.146-8.706a9.187,9.187,0,0,0-7.515,5.611,9.117,9.117,0,0,0,1.588,9.713Zm10.32,1.6-8.7,0L5.99,34.626a9.15,9.15,0,0,0,9.445.822,9.052,9.052,0,0,0,5.114-7.237" transform="translate(0 -12.391)" fill="#19538d"/>
        <path id="Trazado_1285928" data-name="Trazado 1285928" d="M76.982,12.457l-12.41-.008L64.55.056a11.409,11.409,0,0,1,12.432,12.4m-2.119-2.235a9.378,9.378,0,0,0-8.177-8.058l0,8.184Z" transform="translate(-50.899 0)" fill="#19538d"/>
        <path id="Trazado_1285929" data-name="Trazado 1285929" d="M197.271,68.686l-18.952.032a1.062,1.062,0,1,1,.165-2.115h18.593a1.02,1.02,0,0,1,1.078.822c.089.368-.149,1.26-.883,1.261" transform="translate(-139.798 -52.518)" fill="#19538d"/>
        <path id="Trazado_1285930" data-name="Trazado 1285930" d="M226.6,43.972l-11.085.046a1.092,1.092,0,0,1-1.167-1,1.079,1.079,0,0,1,1.168-1.136l10.776.012a1.022,1.022,0,0,1,1.068.763c.1.43-.04,1.309-.76,1.312" transform="translate(-169.014 -33.027)" fill="#19538d"/>
        <path id="Trazado_1285931" data-name="Trazado 1285931" d="M253.28,117.868l-3.571.015a1.06,1.06,0,1,1-.024-2.115l3.991.065c.547.009.75.686.684,1.1a1.08,1.08,0,0,1-1.081.934" transform="translate(-196.002 -91.286)" fill="#19538d"/>
        <path id="Trazado_1285932" data-name="Trazado 1285932" d="M261.826,165.74c-.114,1.036-1.422,1.172-2.932.916a1.057,1.057,0,0,1-.852-1.092c.143-1.19,2.225-1.2,3.257-.859a.924.924,0,0,1,.527,1.035" transform="translate(-203.469 -129.723)" fill="#19538d"/>
        <path id="Trazado_1285933" data-name="Trazado 1285933" d="M260.9,142.394H259.1a1.017,1.017,0,0,1-1.017-1.007,1.051,1.051,0,0,1,1.052-1.079l1.794.012a1,1,0,0,1,.934.872.98.98,0,0,1-.956,1.2" transform="translate(-203.501 -110.637)" fill="#19538d"/>
        <path id="Trazado_1285934" data-name="Trazado 1285934" d="M137.283,110.809a11.6,11.6,0,1,1-9.343,13.55,11.57,11.57,0,0,1,9.343-13.55m.212,2.116a9.477,9.477,0,1,0,11.14,7.445,9.433,9.433,0,0,0-11.14-7.445" transform="translate(-100.729 -87.231)" fill="#19538d"/>
        <path id="Trazado_1285935" data-name="Trazado 1285935" d="M167.969,158.544l-2.263-2.277c-.322-.324-.139-1,.106-1.288a.99.99,0,0,1,1.323-.15l1.578,1.493c1.675-1.4,3.38-4.226,4.409-4.14a1.124,1.124,0,0,1,.907.734c.187.57-.081.895-.428,1.277l-4.023,4.43a1.162,1.162,0,0,1-1.609-.079" transform="translate(-130.528 -119.998)" fill="#19538d"/>
      </g>
    </g>
  </g>
</svg>
