<svg xmlns="http://www.w3.org/2000/svg" xmlns:xlink="http://www.w3.org/1999/xlink" width="128" height="128" viewBox="0 0 128 128">
  <defs>
    <clipPath id="clip-path">
      <rect id="Rectángulo_456267" data-name="Rectángulo 456267" width="128" height="128" fill="none"/>
    </clipPath>
    <clipPath id="clip-path-2">
      <rect id="Rectángulo_468118" data-name="Rectángulo 468118" width="69.73" height="69.852" fill="#19538d"/>
    </clipPath>
  </defs>
  <g id="Grupo_1212764" data-name="Grupo 1212764" transform="translate(511.746 8527) rotate(180)">
    <path id="Trazado_999622" data-name="Trazado 999622" d="M59.07,0A59.07,59.07,0,1,1,0,59.07,59.071,59.071,0,0,1,59.07,0" transform="translate(388.676 8403.93)" fill="#fff"/>
    <g id="Grupo_1179902" data-name="Grupo 1179902" transform="translate(383.746 8399)">
      <g id="Grupo_1179905" data-name="Grupo 1179905" clip-path="url(#clip-path)">
        <path id="Trazado_999618" data-name="Trazado 999618" d="M64,0A64,64,0,1,1,0,64,64,64,0,0,1,64,0" fill="none"/>
        <path id="Trazado_999619" data-name="Trazado 999619" d="M5,59a5,5,0,1,1-5,5,5,5,0,0,1,5-5" fill="#19538d"/>
        <path id="Trazado_999620" data-name="Trazado 999620" d="M21,19a5,5,0,1,1-5,5,5,5,0,0,1,5-5" fill="#19538d"/>
        <path id="Trazado_999621" data-name="Trazado 999621" d="M64,124A60.068,60.068,0,0,1,4,64H7A57,57,0,1,0,22.408,25.024L20.22,22.972A60,60,0,1,1,64,124" fill="#19538d"/>
        <rect id="Rectángulo_456268" data-name="Rectángulo 456268" width="128" height="128" fill="none"/>
        <rect id="Rectángulo_456269" data-name="Rectángulo 456269" width="128" height="128" fill="none"/>
      </g>
    </g>
    <g id="Grupo_1213158" data-name="Grupo 1213158" transform="translate(480.611 8497.926) rotate(180)">
      <g id="Grupo_1213157" data-name="Grupo 1213157" clip-path="url(#clip-path-2)">
        <path id="Trazado_1285939" data-name="Trazado 1285939" d="M54.789,56.281l-2.476.539L52.3,64.353a.811.811,0,0,1-.834.922H1.04a1.219,1.219,0,0,1-.717-.152A.946.946,0,0,1,0,64.3V10.324L10.334,0h41.11c.6,0,.866.555.865,1.1L52.3,27.44a14.867,14.867,0,0,1,8.616,24.83l8.14,10.724c1.488,1.961.3,4.77-1.586,6.042-1.754,1.18-4.912,1.234-6.087-.879ZM21.852,48.526,36.62,48.5a15.318,15.318,0,0,1-1.059-9.667l-13.688.007a.909.909,0,1,1,0-1.812l14.273-.013a13.572,13.572,0,0,1,1.481-3.022l-15.963-.02c-.537,0-.814-.655-.761-1a.875.875,0,0,1,1.007-.717l17.1-.012A14.658,14.658,0,0,1,50.546,27.3l0-25.52H11.516l0,9.033a.778.778,0,0,1-.788.71l-8.969.016.008,52.017H50.512l.036-6.584a15.435,15.435,0,0,1-7.845-1.9l-20.829,0A.943.943,0,0,1,20.9,54.05a.914.914,0,0,1,1-.747l18.139-.019-2.476-3.065L21.631,50.21c-.586,0-.781-.662-.722-1.03a.8.8,0,0,1,.943-.654M9.816,9.807,9.766,3.068,3.11,9.786c2.44.1,4.447.1,6.705.021M47.8,29.23A13.108,13.108,0,1,0,62.992,39.978,13.107,13.107,0,0,0,47.8,29.23M67.647,63.857,59.633,53.5A15.856,15.856,0,0,1,56.4,55.537l6.217,11.4c.738,1.354,2.623,1.4,3.823.686a2.969,2.969,0,0,0,1.2-3.763" fill="#19538d"/>
        <path id="Trazado_1285940" data-name="Trazado 1285940" d="M38.919,205.884a.929.929,0,0,1,.885-.935.883.883,0,0,1,.865.832v4.644a.863.863,0,0,1-.836.815l-8.865,0a.856.856,0,0,1-.818-.817l0-8.8a.94.94,0,0,1,.96-.924h5.328c.594,0,.971.32.992.8a.914.914,0,0,1-.84.964H31.905l-.021,7.029,7.042-.012Z" transform="translate(-23.162 -154.188)" fill="#19538d"/>
        <path id="Trazado_1285941" data-name="Trazado 1285941" d="M38.893,65.62a.947.947,0,0,1,.879-1.021.9.9,0,0,1,.87.914l-.009,4.637a.759.759,0,0,1-.754.725l-8.8.016a.879.879,0,0,1-.97-.969l.017-8.8a.757.757,0,0,1,.726-.754l5.568-.026a.866.866,0,0,1,.989.888c0,.519-.346.876-.99.879l-4.552.022,0,7.01c2.381.084,4.623.079,7-.006Z" transform="translate(-23.13 -46.356)" fill="#19538d"/>
        <path id="Trazado_1285942" data-name="Trazado 1285942" d="M38.914,135.718a.928.928,0,0,1,.874-.984.9.9,0,0,1,.867.878l0,4.64a.792.792,0,0,1-.755.757h-9.03a.778.778,0,0,1-.73-.764l-.011-8.8a.947.947,0,0,1,.966-.963l5.339-.012c.652,0,.988.346.987.862a.873.873,0,0,1-.983.905l-4.555,0v7.015c2.4.094,4.656.051,7.029.022Z" transform="translate(-23.147 -100.237)" fill="#19538d"/>
        <path id="Trazado_1285943" data-name="Trazado 1285943" d="M112.239,91.508,91.2,91.532a1,1,0,0,1-1.009-.782.914.914,0,0,1,.971-1.019l21.255.006a.818.818,0,0,1,.82.795.932.932,0,0,1-.994.976" transform="translate(-69.284 -68.939)" fill="#19538d"/>
        <path id="Trazado_1285944" data-name="Trazado 1285944" d="M108.035,70.715l-16.871,0a.928.928,0,0,1-.973-.795.878.878,0,0,1,.969-.971l16.848.006a.88.88,0,0,1,.963.759.9.9,0,0,1-.936,1" transform="translate(-69.288 -52.971)" fill="#19538d"/>
        <path id="Trazado_1285945" data-name="Trazado 1285945" d="M45.475,138.885c-.784.811-2.287-.724-2.824-1.679a.791.791,0,0,1,.669-1.122c.544-.02.974.218,1.406.979l4.209-4.214a.838.838,0,0,1,1.2.158.962.962,0,0,1-.218,1.281Z" transform="translate(-32.696 -101.92)" fill="#19538d"/>
        <path id="Trazado_1285946" data-name="Trazado 1285946" d="M44.093,68.684l-1.258-1.3a.864.864,0,0,1-.033-1.144.874.874,0,0,1,1.265-.081l.827.706,4.063-4.1a.868.868,0,0,1,1.221.145c.318.422.14.849-.264,1.273l-4.185,4.387a1.2,1.2,0,0,1-.782.49,1.093,1.093,0,0,1-.854-.379" transform="translate(-32.73 -48.075)" fill="#19538d"/>
        <path id="Trazado_1285947" data-name="Trazado 1285947" d="M44.5,209.2a8.588,8.588,0,0,1-1.806-1.741.763.763,0,0,1,.261-1.112c1-.559,1.684,1.059,1.99.743,1.353-1.4,2.544-2.821,3.985-4.114a.854.854,0,0,1,1.178.158.92.92,0,0,1-.071,1.168l-4.214,4.378c-.272.282-.732.888-1.323.521" transform="translate(-32.681 -155.811)" fill="#19538d"/>
        <path id="Trazado_1285948" data-name="Trazado 1285948" d="M176.743,132.874A11.374,11.374,0,1,1,167.085,146a11.363,11.363,0,0,1,9.657-13.126m-.461,1.841a9.639,9.639,0,1,0,11.475,7.492,9.642,9.642,0,0,0-11.475-7.492" transform="translate(-128.253 -101.999)" fill="#19538d"/>
        <path id="Trazado_1285949" data-name="Trazado 1285949" d="M194.13,171.047c-.862.925-3.163-1.989-5.28-3.87a.9.9,0,0,1-.009-1.3.967.967,0,0,1,1.362.173l3.311,3.1,6.377-6.7c.278-.292.971,0,1.137.266a.813.813,0,0,1-.079,1.008Z" transform="translate(-144.873 -124.719)" fill="#19538d"/>
      </g>
    </g>
  </g>
</svg>
