<svg xmlns="http://www.w3.org/2000/svg" xmlns:xlink="http://www.w3.org/1999/xlink" width="85" height="85" viewBox="0 0 85 85">
  <defs>
    <clipPath id="clip-path">
      <rect id="Rectángulo_468107" data-name="Rectángulo 468107" width="56.268" height="56.251" fill="#12263f"/>
    </clipPath>
  </defs>
  <g id="Grupo_1180046" data-name="Grupo 1180046" transform="translate(-705.629 -410)">
    <g id="Grupo_1180019" data-name="Grupo 1180019">
      <g id="Grupo_1180023" data-name="Grupo 1180023">
        <rect id="Rectángulo_456333" data-name="Rectángulo 456333" width="85" height="85" rx="10" transform="translate(705.629 410)" fill="#68eae0"/>
        <g id="Grupo_1213121" data-name="Grupo 1213121" transform="translate(721.996 424.375)">
          <g id="Grupo_1213120" data-name="Grupo 1213120" clip-path="url(#clip-path)">
            <path id="Trazado_1285873" data-name="Trazado 1285873" d="M51.708,46.636a2.362,2.362,0,0,1,.123,2.212,10.918,10.918,0,0,1-2.976,2.975,2.391,2.391,0,0,1-2.273-.152l-1.968-.88a19.34,19.34,0,0,1-3.66,1.536l-.861,2.184a2.29,2.29,0,0,1-1.423,1.536,11.409,11.409,0,0,1-4.083.039,1.884,1.884,0,0,1-1.343-1.093l-1.085-2.659a18.171,18.171,0,0,1-3.587-1.527l-2.286.959c-1.9,1.08-3.611-1.152-5.106-3.035-5.756.089-13.97-.578-18.724-3.747-1.1-.731-2.406-1.9-2.408-3.37L0,7.578C-.006,3.545,6.559,1.555,10.378.86a50.119,50.119,0,0,1,20.216.351,17.559,17.559,0,0,1,6.686,2.8,4.23,4.23,0,0,1,2.03,3.03l.082,10.325c0,.268.361.452.427.617l1.125,2.805a15.658,15.658,0,0,1,3.57,1.5l2.693-1.1a1.832,1.832,0,0,1,1.652.087,12,12,0,0,1,2.975,2.986,1.966,1.966,0,0,1,.042,1.767L50.8,28.5a20.854,20.854,0,0,1,1.533,3.659l2.281.9a2.21,2.21,0,0,1,1.531,1.83c.219,2.1.3,4.4-1.27,5.035l-2.541,1.03a18.684,18.684,0,0,1-1.523,3.575ZM33.7,10.855A8.69,8.69,0,0,0,36.919,8.83a1.9,1.9,0,0,0-.105-2.767c-1.924-1.866-5.438-2.886-8.225-3.39a49.862,49.862,0,0,0-17.8,0C8,3.172,4.32,4.245,2.478,6.158a1.9,1.9,0,0,0,.059,2.763c2.088,2.105,6.674,3.221,9.855,3.673,6.585.935,15.163.748,21.308-1.739m-1.5,9.89.985-2.52a2.127,2.127,0,0,1,1.824-1.3l2.476-.054-.014-5.988a17.694,17.694,0,0,1-5.881,2.657,48.864,48.864,0,0,1-23.666.033,19.142,19.142,0,0,1-6.015-2.656l.037,8.062c0,.917.943,1.583,1.642,2.038,4.316,2.807,12.292,3.469,17.563,3.345,1.278-1.581,3.093-3.86,4.63-3.221l2.763,1.148A21.688,21.688,0,0,1,32.2,20.745m2.745,33.519,3.2.012,1.447-3.507a20.088,20.088,0,0,0,4.855-2.022L47.892,50.2a7.632,7.632,0,0,0,2.289-2.357l-1.433-3.414a20.111,20.111,0,0,0,2.027-4.855l3.508-1.446a14.4,14.4,0,0,0-.044-3.21,30.237,30.237,0,0,1-3.507-1.475,18.751,18.751,0,0,0-1.975-4.785l1.457-3.445a8.957,8.957,0,0,0-2.263-2.265l-2.663,1.085c-.282.115-.79.361-1.121.168a19.791,19.791,0,0,0-4.568-1.88l-1.461-3.494a24.548,24.548,0,0,0-3.163,0L33.521,22.31a18.033,18.033,0,0,0-4.209,1.719,1.518,1.518,0,0,1-1.5.008l-2.634-1.111a8.524,8.524,0,0,0-2.232,2.24l1.152,2.77c.1.245.284.721.116,1a19.518,19.518,0,0,0-1.877,4.56c-1.178.56-2.25.956-3.443,1.41a9.586,9.586,0,0,0,0,3.263l3.447,1.393a17.919,17.919,0,0,0,1.825,4.463,1.321,1.321,0,0,1-.064,1.133l-1.151,2.77A10.113,10.113,0,0,0,25.2,50.212l3.475-1.463a20.737,20.737,0,0,0,4.844,2.022ZM18.558,33.029l2.285-.907A15.2,15.2,0,0,1,22.3,28.53l-1.037-2.337c-6.427.151-14.143-.531-19.354-4.035l.028,8.068c0,.753.787,1.41,1.352,1.8,3.5,2.437,9.191,3.194,13.629,3.519a2.387,2.387,0,0,1,1.639-2.519M22.3,44.474a16.188,16.188,0,0,1-1.522-3.523l-2.663-1.084a2.334,2.334,0,0,1-1.2-2.444c-5.165-.362-10.761-1.024-15-4.1l.028,8.139c0,.745.706,1.35,1.238,1.75,3.489,2.624,10.209,3.425,14.735,3.606a13.575,13.575,0,0,0,3.482-.079Z" transform="translate(0 0)" fill="#12263f"/>
            <path id="Trazado_1285874" data-name="Trazado 1285874" d="M148.979,138.863a12.178,12.178,0,1,1-10.064,14.092,12.173,12.173,0,0,1,10.064-14.092m1.231,1.74a10.3,10.3,0,1,0,10.988,9.6,10.313,10.313,0,0,0-10.988-9.6" transform="translate(-114.358 -114.331)" fill="#12263f"/>
            <path id="Trazado_1285875" data-name="Trazado 1285875" d="M22.851,94.04l-1.072-.51a.838.838,0,0,1-.353-1.08.894.894,0,0,1,1.1-.551,3.292,3.292,0,0,1,1.321.606.869.869,0,0,1,.116,1.227.928.928,0,0,1-1.109.309" transform="translate(-17.603 -75.723)" fill="#12263f"/>
            <path id="Trazado_1285876" data-name="Trazado 1285876" d="M50.452,101.18a.907.907,0,0,1,.106,1.272c-.592.67-2.289.2-2.542-.417a.857.857,0,0,1,.373-1.155,2.4,2.4,0,0,1,2.063.3" transform="translate(-39.512 -83.062)" fill="#12263f"/>
            <path id="Trazado_1285877" data-name="Trazado 1285877" d="M172.4,165.45a7.486,7.486,0,1,1-6.935,8.132,7.451,7.451,0,0,1,6.935-8.132m-.531,1.946a5.614,5.614,0,1,0,6.571,4.476,5.594,5.594,0,0,0-6.571-4.476" transform="translate(-136.367 -136.361)" fill="#12263f"/>
          </g>
        </g>
      </g>
    </g>
  </g>
</svg>
