<svg xmlns="http://www.w3.org/2000/svg" xmlns:xlink="http://www.w3.org/1999/xlink" width="85" height="85" viewBox="0 0 85 85">
  <defs>
    <clipPath id="clip-path">
      <rect id="Rectángulo_468146" data-name="Rectángulo 468146" width="58.352" height="59.311" fill="#12263f"/>
    </clipPath>
  </defs>
  <g id="Grupo_1212956" data-name="Grupo 1212956" transform="translate(-705.629 -1685)">
    <g id="Grupo_1180020" data-name="Grupo 1180020" transform="translate(0 1275)">
      <rect id="Rectángulo_456333" data-name="Rectángulo 456333" width="85" height="85" rx="10" transform="translate(705.629 410)" fill="#fff"/>
    </g>
    <g id="Grupo_1213214" data-name="Grupo 1213214" transform="translate(718.953 1697.844)">
      <g id="Grupo_1213213" data-name="Grupo 1213213" clip-path="url(#clip-path)">
        <path id="Trazado_1286196" data-name="Trazado 1286196" d="M18.749,59.311c-.588,0-1.059-.279-1.071-.76a4.328,4.328,0,0,1,4.265-4.478l.009-4.717-8.9.009a.883.883,0,0,1-.989-.9c.014-.5.357-.834,1.029-.834l41.634,0a1.713,1.713,0,0,0,1.886-1.857l-.031-6.993H1.785l-.032,6.992a1.712,1.712,0,0,0,1.673,1.859l5.369,0a.88.88,0,0,1,.846.823.9.9,0,0,1-1.018.9l-5.213-.006A3.279,3.279,0,0,1,.019,46.12L0,12.064A3.181,3.181,0,0,1,2.862,8.731l5.113-.1,0-5.856A2.665,2.665,0,0,1,10.494,0L47.678.023a2.629,2.629,0,0,1,2.485,2.726v5.93l1.791.054c.423.013.57.474.554.8s-.149.787-.553.806l-1.792.082V37.037L56.6,37.03V12.061c-.106-2.192-2.457-1.211-2.433-2.527a.865.865,0,0,1,1-.865,3.282,3.282,0,0,1,3.187,3.211V46.118a3.275,3.275,0,0,1-3.412,3.241l-18.52,0,0,4.722a4.354,4.354,0,0,1,4.287,4.476.935.935,0,0,1-.989.753ZM48.426,37.031l0-22.4-30.149,0a.845.845,0,0,1-.747-1,.893.893,0,0,1,.965-.769H48.428l-.02-10.229a.921.921,0,0,0-.972-.885H10.747A.961.961,0,0,0,9.729,2.787l0,10.045,4.011.044a.876.876,0,0,1,.914.927.932.932,0,0,1-.843.84l-4.082.01,0,22.381ZM7.98,36.993l0-26.571H3.246A1.551,1.551,0,0,0,1.77,12.06V37.043ZM34.621,54.071l.013-4.7h-10.9l.032,4.718Zm4.118,3.465a2.569,2.569,0,0,0-2.519-1.753L22.15,55.8a2.571,2.571,0,0,0-2.543,1.745Z" transform="translate(0 -0.001)" fill="#12263f"/>
        <path id="Trazado_1286197" data-name="Trazado 1286197" d="M147.5,218.969a2.636,2.636,0,0,1,3.385,1.747,2.653,2.653,0,0,1-5.019,1.713,2.611,2.611,0,0,1,1.634-3.46m.772,1.633a.893.893,0,0,0-.8,1.108.88.88,0,0,0,1.024.628.82.82,0,0,0,.714-.967.87.87,0,0,0-.943-.769" transform="translate(-118.681 -178.273)" fill="#12263f"/>
        <path id="Trazado_1286198" data-name="Trazado 1286198" d="M81.584,110.734l-16.15.006a.874.874,0,0,1-.948-.9V93.567a.779.779,0,0,1,.753-.792l16.47-.006a.79.79,0,0,1,.761.794v16.279a.864.864,0,0,1-.886.893m-4.3-6.15a4.544,4.544,0,0,1,3.429-.9V94.519l-14.5,0,.014,8.006a5.037,5.037,0,0,1,5.16.621l2.2,1.664a2.877,2.877,0,0,0,3.7-.223m3.412.891a2.714,2.714,0,0,0-2.417.578,4.711,4.711,0,0,1-5.836.1l-2.322-1.769a3.645,3.645,0,0,0-3.916.112l.027,4.484,14.484-.012Z" transform="translate(-52.535 -75.576)" fill="#12263f"/>
        <path id="Trazado_1286199" data-name="Trazado 1286199" d="M71.172,26.508l-5.863.016a.937.937,0,0,1-.746-.315.9.9,0,0,1-.137-.821l2.959-5.17a.925.925,0,0,1,.8-.45.9.9,0,0,1,.773.478L71.853,25.3a.822.822,0,0,1-.681,1.211m-1.7-1.774-1.355-2.278L66.8,24.786Z" transform="translate(-52.441 -16.105)" fill="#12263f"/>
        <path id="Trazado_1286200" data-name="Trazado 1286200" d="M140.423,27.28l-15.207.057a.878.878,0,1,1,0-1.744l14.812-.014a1.007,1.007,0,0,1,1.027.588c.115.295-.029,1.111-.632,1.113" transform="translate(-101.212 -20.838)" fill="#12263f"/>
        <path id="Trazado_1286201" data-name="Trazado 1286201" d="M187.043,140.187l-12.584-.008a.886.886,0,0,1-.927-.842.867.867,0,0,1,.812-.909l12.813-.008a.845.845,0,0,1,.873.931.875.875,0,0,1-.987.836" transform="translate(-141.369 -112.767)" fill="#12263f"/>
        <path id="Trazado_1286202" data-name="Trazado 1286202" d="M187.1,161.014,174.3,161c-.5,0-.822-.662-.778-.973a.959.959,0,0,1,.956-.8l12.539-.009a.9.9,0,1,1,.081,1.8" transform="translate(-141.359 -129.709)" fill="#12263f"/>
        <path id="Trazado_1286203" data-name="Trazado 1286203" d="M187.04,119.255l-12.584-.005a.9.9,0,0,1-.929-.857.861.861,0,0,1,.851-.9l12.774-.012a.866.866,0,0,1,.878.921.893.893,0,0,1-.989.851" transform="translate(-141.365 -95.71)" fill="#12263f"/>
        <path id="Trazado_1286204" data-name="Trazado 1286204" d="M187.128,98.445h-12.67a.9.9,0,0,1-.908-.7.794.794,0,0,1,.717-1l12.779-.017a.862.862,0,0,1,.971.705.848.848,0,0,1-.889,1.013" transform="translate(-141.369 -78.8)" fill="#12263f"/>
        <path id="Trazado_1286205" data-name="Trazado 1286205" d="M131.95,47.575l-6.927.019a.873.873,0,1,1,.174-1.736h6.5a.917.917,0,0,1,.977.69c.082.327-.129,1.025-.72,1.027" transform="translate(-101.208 -37.358)" fill="#12263f"/>
        <path id="Trazado_1286206" data-name="Trazado 1286206" d="M180.39,182l-6.091-.007a.91.91,0,0,1-.8-.779.878.878,0,0,1,.806-.929l6.011-.022a.886.886,0,0,1,.893.809.853.853,0,0,1-.815.928" transform="translate(-141.338 -146.854)" fill="#12263f"/>
        <path id="Trazado_1286207" data-name="Trazado 1286207" d="M112.982,112.9a2.642,2.642,0,0,1,3.379,1.848,2.714,2.714,0,0,1-1.786,3.274,2.673,2.673,0,0,1-3.3-1.559,2.641,2.641,0,0,1,1.7-3.564m.641,1.659a.9.9,0,0,0-.761,1.088.952.952,0,0,0,1.146.7.919.919,0,0,0-.386-1.792" transform="translate(-90.497 -91.876)" fill="#12263f"/>
      </g>
    </g>
  </g>
</svg>
