<svg xmlns="http://www.w3.org/2000/svg" xmlns:xlink="http://www.w3.org/1999/xlink" width="85" height="85" viewBox="0 0 85 85">
  <defs>
    <clipPath id="clip-path">
      <rect id="Rectángulo_468140" data-name="Rectángulo 468140" width="55.643" height="55.659" fill="#12263f"/>
    </clipPath>
  </defs>
  <g id="Grupo_1212803" data-name="Grupo 1212803" transform="translate(-705.629 -1685)">
    <g id="Grupo_1180020" data-name="Grupo 1180020" transform="translate(0 1275)">
      <rect id="Rectángulo_456333" data-name="Rectángulo 456333" width="85" height="85" rx="10" transform="translate(705.629 410)" fill="#fff"/>
    </g>
    <g id="Grupo_1213202" data-name="Grupo 1213202" transform="translate(717.629 1701.319)">
      <g id="Grupo_1213201" data-name="Grupo 1213201" clip-path="url(#clip-path)">
        <path id="Trazado_1286162" data-name="Trazado 1286162" d="M34.913,59.435l-5.751-5.773a5.761,5.761,0,0,1-1.257-4.219,8.222,8.222,0,0,1,1-4.726l-4.721.02a5.128,5.128,0,0,1-5.248,5.223l-8.534,0a5.075,5.075,0,0,1-5.179-5.034l-.009-3.5a5.037,5.037,0,0,1,4.837-5.176l7.355-.035.03-3.756L5.2,32.48A5.038,5.038,0,0,1,.007,27.527L0,15.023A5.119,5.119,0,0,1,5.38,9.966l26.065.028a4.984,4.984,0,0,1,4.946,4.956l.035,8.991,14.133.015A4.993,4.993,0,0,1,55.6,28.924l.015,10.605a5.063,5.063,0,0,1-3.177,4.757,5.156,5.156,0,0,1,3.186,4.8v5.75a5.159,5.159,0,0,1-3.47,4.886l-.035,2.582a1.555,1.555,0,0,1-1.564,1.561l-13.883.022a1.59,1.59,0,0,1-1.729-1.41ZM22.523,23.96l10.663-.026-.032-8.9a1.843,1.843,0,0,0-1.545-1.763l-26.4-.008a1.783,1.783,0,0,0-1.944,1.762L3.295,27.7a1.757,1.757,0,0,0,1.734,1.519L17.446,29.2a5.076,5.076,0,0,1,5.077-5.236M45.117,35.83l.051,5.593,5.242.006a1.945,1.945,0,0,0,1.935-1.56l-.018-10.948a1.833,1.833,0,0,0-1.938-1.727l-27.783,0a1.87,1.87,0,0,0-1.912,1.9l.016,10.589A1.788,1.788,0,0,0,22.42,41.43l12.482,0,.062-5.877a4.936,4.936,0,0,1,5.18-4.584,4.876,4.876,0,0,1,4.972,4.863M48.86,60.6l.062-2.217c.037-1.327,3.339-1.638,3.348-3.045l.041-6.581c.005-.831-.844-1.357-1.531-1.587l-7.827-2.612a1.571,1.571,0,0,1-1.05-1.373L41.86,35.89a1.766,1.766,0,0,0-1.936-1.679,1.851,1.851,0,0,0-1.754,1.841l-.034,12.417a1.528,1.528,0,0,1-1.567,1.416,1.491,1.491,0,0,1-1.618-1.314l-.04-3.887a3.7,3.7,0,0,0-3.736,4.248c.082.743-.27,1.8.315,2.4L38.017,58a10.786,10.786,0,0,1,.151,2.6ZM19.379,46.641a1.813,1.813,0,0,0,1.545-2.162,5.2,5.2,0,0,1-3.486-4.994l-7.193.016a1.79,1.79,0,0,0-1.757,1.756L8.526,45.1a1.763,1.763,0,0,0,1.7,1.575Z" transform="translate(0 -8.233)" fill="#12263f"/>
        <path id="Trazado_1286163" data-name="Trazado 1286163" d="M241.463,11.992l-5.846,0a5.226,5.226,0,0,1-4.833-6.085,5.175,5.175,0,0,1,4.662-5.9L241.369,0a5.178,5.178,0,0,1,4.826,5.909,5.24,5.24,0,0,1-4.731,6.083m-.188-3.26a1.878,1.878,0,0,0,1.682-1.947V5.2a1.81,1.81,0,0,0-1.766-1.9l-5.581.011a1.714,1.714,0,0,0-1.588,1.72V6.961A1.767,1.767,0,0,0,235.8,8.714Z" transform="translate(-190.604)" fill="#12263f"/>
      </g>
    </g>
  </g>
</svg>
