<svg xmlns="http://www.w3.org/2000/svg" xmlns:xlink="http://www.w3.org/1999/xlink" width="128" height="128" viewBox="0 0 128 128">
  <defs>
    <clipPath id="clip-path">
      <rect id="Rectángulo_456267" data-name="Rectángulo 456267" width="128" height="128" fill="none"/>
    </clipPath>
    <clipPath id="clip-path-2">
      <rect id="Rectángulo_468117" data-name="Rectángulo 468117" width="68.026" height="68.157" fill="#19538d"/>
    </clipPath>
  </defs>
  <g id="Grupo_1212765" data-name="Grupo 1212765" transform="translate(511.746 8527) rotate(180)">
    <path id="Trazado_999622" data-name="Trazado 999622" d="M59.07,0A59.07,59.07,0,1,1,0,59.07,59.071,59.071,0,0,1,59.07,0" transform="translate(388.676 8403.93)" fill="#fff"/>
    <g id="Grupo_1179902" data-name="Grupo 1179902" transform="translate(383.746 8399)">
      <g id="Grupo_1179905" data-name="Grupo 1179905" clip-path="url(#clip-path)">
        <path id="Trazado_999618" data-name="Trazado 999618" d="M64,0A64,64,0,1,1,0,64,64,64,0,0,1,64,0" fill="none"/>
        <path id="Trazado_999619" data-name="Trazado 999619" d="M5,59a5,5,0,1,1-5,5,5,5,0,0,1,5-5" fill="#19538d"/>
        <path id="Trazado_999620" data-name="Trazado 999620" d="M21,19a5,5,0,1,1-5,5,5,5,0,0,1,5-5" fill="#19538d"/>
        <path id="Trazado_999621" data-name="Trazado 999621" d="M64,124A60.068,60.068,0,0,1,4,64H7A57,57,0,1,0,22.408,25.024L20.22,22.972A60,60,0,1,1,64,124" fill="#19538d"/>
        <rect id="Rectángulo_456268" data-name="Rectángulo 456268" width="128" height="128" fill="none"/>
        <rect id="Rectángulo_456269" data-name="Rectángulo 456269" width="128" height="128" fill="none"/>
      </g>
    </g>
    <g id="Grupo_1213156" data-name="Grupo 1213156" transform="translate(481.759 8497.078) rotate(180)">
      <g id="Grupo_1213155" data-name="Grupo 1213155" clip-path="url(#clip-path-2)">
        <path id="Trazado_1285936" data-name="Trazado 1285936" d="M137.857,44a8.3,8.3,0,0,1,3.946,2.087l9.659.094a4.977,4.977,0,1,1,.013,5.978l-9.671-.007-1.092,1.109a22.721,22.721,0,0,0,.045,3.448L144.3,60.2l7.132-.023a4.976,4.976,0,1,1,7.486,6.506,5.01,5.01,0,0,1-7.43-.489L143,66.2a2.894,2.894,0,0,1-2.093-.89L135.4,59.767a2.432,2.432,0,0,1-.679-1.651l-.027-5.068a4.91,4.91,0,0,1-1.732-5.3l-3.919-5.13a8.971,8.971,0,1,1,.079-17.109l3.843-5.139a4.955,4.955,0,0,1,1.728-5.32l.027-5.062a2.43,2.43,0,0,1,.68-1.65l5.3-5.331a3.02,3.02,0,0,1,2.1-1.073l8.679-.025a5.031,5.031,0,0,1,7.331-.6,4.971,4.971,0,0,1-.006,7.343,4.929,4.929,0,0,1-7.36-.72L144.2,7.95,140.7,11.5c-.032,1.174-.051,2.223.016,3.344l1.091,1.119,9.658-.008a4.982,4.982,0,1,1,7.322,6.692,4.91,4.91,0,0,1-7.322-.728l-9.679.167a8.456,8.456,0,0,1-3.981,2l-3.928,5a10,10,0,0,1,.931,1.975l6.071.016a1.027,1.027,0,0,1,.992.959c.006.689-.491,1.034-1.193,1.034l-5.328,0,.009,1.991h15.114l.026-1.97-4.731-.024a1.011,1.011,0,0,1-1.088-1.021.975.975,0,0,1,1.085-.982l5.719-.017a4.981,4.981,0,1,1-.018,6.009l-16.577-.016a20.2,20.2,0,0,1-1.053,2.035ZM155.14,2.015A2.991,2.991,0,1,0,158.4,4.6a3,3,0,0,0-3.261-2.582m-16.4,8.537,4.671-4.614,7.063-.029.012-1.97-7.916.022L136.7,9.851l-.027,4.19a13.9,13.9,0,0,1,2-.031Zm-1.7,5.508a2.982,2.982,0,1,0,3.61,2.168,2.957,2.957,0,0,0-3.61-2.168m17.665.006a2.98,2.98,0,1,0,3.632,2.149,2.975,2.975,0,0,0-3.632-2.149M150.476,20l0-2.054-7.844,0a5.533,5.533,0,0,1-.005,2.048Zm-17.865,7.52,2.99-4.03a8.46,8.46,0,0,1-1.585-1.206l-2.955,3.982Zm-7.061-.368a6.922,6.922,0,0,0-6.063,7.961A6.972,6.972,0,0,0,133.3,33.238a6.925,6.925,0,0,0-7.754-6.086m28.971,4.057a3,3,0,0,0-1.909,3.8,2.988,2.988,0,1,0,1.909-3.8m-20.5,14.639a7.187,7.187,0,0,1,1.565-1.22l-3.044-4.006-1.533,1.191Zm2.818.477a2.961,2.961,0,0,0-1.918,3.829,3,3,0,1,0,1.918-3.829m17.665,0a2.982,2.982,0,1,0,3.786,1.921,2.963,2.963,0,0,0-3.786-1.921m-4.027,3.857.008-2.045-7.858-.013a5.819,5.819,0,0,1,.008,2.065Zm-.044,12.027-7.018-.016-4.708-4.711-.052-3.421h-1.98l.026,4.2,5.956,5.925c2.755.1,5.274.07,7.864.019Zm3.879-1.831A2.951,2.951,0,0,0,152.7,64.3a2.987,2.987,0,0,0,5.548-2.209,2.954,2.954,0,0,0-3.933-1.711" transform="translate(-92.4 0)" fill="#19538d"/>
        <path id="Trazado_1285937" data-name="Trazado 1285937" d="M22.7,56.833c3.234,1.569,5.987,1.615,5.925,5.291a10.267,10.267,0,0,0,.133,3.11c.515,1.694,2.938.663,3.573,1.425a1.1,1.1,0,0,1,.088,1.181c-.208.416-.661.385-1.159.449-2.323.3-4.605-1.033-4.629-3.435L26.6,61.684a1.55,1.55,0,0,0-1.085-1.511c-2.794-.916-4.464-2.451-5.7-1.205L17.888,60.9a3.68,3.68,0,0,1-5.3.052L7.284,55.642a3.6,3.6,0,0,1-.124-5.058L9.56,48.1c.468-.484.245-1.388-.044-1.936-1.334-2.524-1.26-4.486-2.964-4.485l-2.786,0A3.672,3.672,0,0,1,0,38.058V30.4a3.663,3.663,0,0,1,3.765-3.6l2.786-.008c1.693,0,1.658-2,2.961-4.509.285-.55.524-1.427.047-1.921l-2.4-2.484a3.6,3.6,0,0,1,.124-5.057L12.7,7.4a3.6,3.6,0,0,1,5.071.051l2.032,2.034c1.206,1.208,2.907-.234,5.7-1.2a1.56,1.56,0,0,0,1.083-1.507l.007-2.8A3.614,3.614,0,0,1,29.962.221l8.074.011a3.372,3.372,0,0,1,3.191,3.939L40.2,6.988a1.115,1.115,0,0,1-1.109.74A1.026,1.026,0,0,1,38.3,6.389l.968-2.664c.257-.707-.7-1.548-1.464-1.548H30.224a1.615,1.615,0,0,0-1.611,1.6L28.6,6.723a3.6,3.6,0,0,1-2.461,3.457,35.087,35.087,0,0,0-3.6,1.5,3.4,3.4,0,0,1-3.783-.5L16.477,8.94c-.443-.437-1.547-.833-2.1-.283L8.426,14.593a1.536,1.536,0,0,0,.067,1.7l2.216,2.282a3.687,3.687,0,0,1,.7,4.349c-1.443,2.813-1.525,5.834-4.848,5.852l-2.92.016A1.626,1.626,0,0,0,2,30.395V38.06a1.626,1.626,0,0,0,1.648,1.606l2.919.022c3.34.026,3.389,3.014,4.849,5.848a3.7,3.7,0,0,1-.7,4.346L8.493,52.166a1.53,1.53,0,0,0-.066,1.7L14.379,59.8c.555.553,1.653.16,2.1-.283l2.156-2.146a3.536,3.536,0,0,1,4.062-.539" transform="translate(0 -0.174)" fill="#19538d"/>
        <path id="Trazado_1285938" data-name="Trazado 1285938" d="M87.882,101.609,84.275,91.67a21.057,21.057,0,0,1-14.559-4.444,1,1,0,0,1-.185-1.458,1.033,1.033,0,0,1,1.477-.061,18.835,18.835,0,0,0,12.422,3.97L81.9,85.636A14.837,14.837,0,0,1,81.868,56l1.5-3.893A18.8,18.8,0,0,0,67.793,82.489a1.111,1.111,0,0,1-.037,1.267c-.2.288-1.017.588-1.386.132A20.792,20.792,0,0,1,84.154,50.144l1.05-2.679a1.05,1.05,0,0,1,1.35-.623,1.013,1.013,0,0,1,.5,1.411l-3.145,8.133a2.342,2.342,0,0,1-2.029,1.6,12.849,12.849,0,0,0,.1,25.661,2.233,2.233,0,0,1,1.852,1.382l6.007,15.875c.65,1.717-1.076,3.545-2.592,3.882a5.953,5.953,0,0,1-2.817.03c-.538-.129-.615-.869-.484-1.232.49-1.354,3.392.369,3.931-1.978" transform="translate(-48.636 -36.824)" fill="#19538d"/>
      </g>
    </g>
  </g>
</svg>
