<svg xmlns="http://www.w3.org/2000/svg" xmlns:xlink="http://www.w3.org/1999/xlink" width="85" height="85" viewBox="0 0 85 85">
  <defs>
    <clipPath id="clip-path">
      <rect id="Rectángulo_468137" data-name="Rectángulo 468137" width="53.733" height="47.772" fill="#12263f"/>
    </clipPath>
  </defs>
  <g id="Grupo_1212803" data-name="Grupo 1212803" transform="translate(-705.629 -1685)">
    <g id="Grupo_1180020" data-name="Grupo 1180020" transform="translate(0 1275)">
      <rect id="Rectángulo_456333" data-name="Rectángulo 456333" width="85" height="85" rx="10" transform="translate(705.629 410)" fill="#fff"/>
    </g>
    <g id="Grupo_1213196" data-name="Grupo 1213196" transform="translate(721.262 1703.614)">
      <g id="Grupo_1213195" data-name="Grupo 1213195" clip-path="url(#clip-path)">
        <path id="Trazado_1286136" data-name="Trazado 1286136" d="M40.489,43.26l-27.126.017a3,3,0,0,1-2.923-3.124l-.03-4.272-4.4,0L6.026,39.1a4.486,4.486,0,1,1-3.032-.016l0-3.191a2.945,2.945,0,0,1,3.049-3.026l4.381-.023.026-8.951H6.038a2.839,2.839,0,0,1-3-2.582l-.085-3.7A4.424,4.424,0,0,1,.1,12.483,4.476,4.476,0,1,1,6,17.643L5.97,20.821l4.44.055.057-4.6A2.76,2.76,0,0,1,13,13.462l1.962-.083a11.985,11.985,0,1,1,23.826-.169c.019.282.9.223,1.21.2a3.089,3.089,0,0,1,3.288,3.038l.029,4.421,4.405.007.006-3.24a4.485,4.485,0,1,1,5.9-5.158,4.423,4.423,0,0,1-2.857,5.125L50.719,21.1a2.9,2.9,0,0,1-3.026,2.791l-4.411,0,.025,8.973,4.6.018a2.8,2.8,0,0,1,2.81,2.788l.019,3.412a4.455,4.455,0,1,1-3.034.014l.014-3.22-4.39-.012-.052,4.478a2.892,2.892,0,0,1-2.79,2.918M32.74,13.312l3.023.075a9,9,0,1,0-17.777.042,16.6,16.6,0,0,0,3.264-.151,6.148,6.148,0,0,1,2.533-6.336,5.876,5.876,0,0,1,6.559.075,6.149,6.149,0,0,1,2.4,6.3m-2.885.084v-1.75a2.849,2.849,0,0,0-5.618-.479,8.524,8.524,0,0,0-.042,2.256Zm-25.721-1.4A1.48,1.48,0,1,0,5.9,13.007a1.5,1.5,0,0,0-1.768-1.013m44.847-.02a1.5,1.5,0,0,0-1.171,1.8A1.459,1.459,0,0,0,49.5,14.881a1.41,1.41,0,0,0,1.189-1.814,1.491,1.491,0,0,0-1.706-1.093M28.371,38.827A1.544,1.544,0,0,1,29.9,40.281l10.4-.008V35.885l-1.6-.068a1.466,1.466,0,0,1-1.363-1.325c-.06-.681.2-1.466.967-1.531l1.985-.169-.006-8.917a6.358,6.358,0,0,1-1.973-.093,1.387,1.387,0,0,1-.972-1.5,1.3,1.3,0,0,1,1.147-1.347l1.811-.053-.059-4.462-26.8.006,0,4.482a6.307,6.307,0,0,1,1.964.073,1.361,1.361,0,0,1,.975,1.3,1.388,1.388,0,0,1-.818,1.445,5.167,5.167,0,0,1-2.125.145l-.007,8.924,1.988.168c.815.069,1.089.966.93,1.725a1.486,1.486,0,0,1-1.325,1.129l-1.607.082.035,4.4,10.375-.019c.151-.794.583-1.419,1.326-1.425ZM3.7,42.038a1.485,1.485,0,0,0-.437,2.116,1.443,1.443,0,0,0,2.036.363,1.475,1.475,0,0,0-1.6-2.479M48.555,42a1.434,1.434,0,0,0-.625,1.937,1.48,1.48,0,0,0,2.686-1.244A1.461,1.461,0,0,0,48.555,42" transform="translate(0 0)" fill="#12263f"/>
        <path id="Trazado_1286137" data-name="Trazado 1286137" d="M115.87,116.786c-.213,1.663.146,3.362-1.532,3.457a1.541,1.541,0,0,1-1.6-1.659,5.512,5.512,0,0,0-.1-1.8,2.982,2.982,0,1,1,3.236,0" transform="translate(-87.384 -87.412)" fill="#12263f"/>
      </g>
    </g>
  </g>
</svg>
