<svg xmlns="http://www.w3.org/2000/svg" xmlns:xlink="http://www.w3.org/1999/xlink" width="85" height="85" viewBox="0 0 85 85">
  <defs>
    <clipPath id="clip-path">
      <rect id="Rectángulo_468158" data-name="Rectángulo 468158" width="59.324" height="59.346" fill="#12263f"/>
    </clipPath>
  </defs>
  <g id="Grupo_1212996" data-name="Grupo 1212996" transform="translate(-705.629 -1685)">
    <g id="Grupo_1180020" data-name="Grupo 1180020" transform="translate(0 1275)">
      <rect id="Rectángulo_456333" data-name="Rectángulo 456333" width="85" height="85" rx="10" transform="translate(705.629 410)" fill="#fff"/>
    </g>
    <g id="Grupo_1213239" data-name="Grupo 1213239" transform="translate(718.467 1697.827)">
      <g id="Grupo_1213238" data-name="Grupo 1213238" clip-path="url(#clip-path)">
        <path id="Trazado_1286303" data-name="Trazado 1286303" d="M56.7,59.346l-54-.013A2.7,2.7,0,0,1,0,56.616V2.71A2.706,2.706,0,0,1,2.892,0H56.431A2.706,2.706,0,0,1,59.324,2.71v53.9A2.735,2.735,0,0,1,56.7,59.346m.7-51.878.024-4.605a.875.875,0,0,0-.834-.945H2.734a.842.842,0,0,0-.826.777l.015,4.777ZM56.467,57.43c.693-.078.842-.333.953-.839l-.009-47.21H1.914L1.9,56.593c.1.582.4.8,1.009.836Z" fill="#12263f"/>
        <path id="Trazado_1286304" data-name="Trazado 1286304" d="M50.715,87.074l-31.6,0a.923.923,0,0,1-.945-1l.009-15.054a1,1,0,0,1,1.123-.988l31.311,0a.968.968,0,0,1,.941.981V86.052a.964.964,0,0,1-.842,1.022M46.278,71.986l-22.858-.02,11.444,5.548Zm-13.689,6.59-12.5-6.061,0,12.113ZM49.635,84.59l-.013-12.044L37.145,78.582Zm-3.437.546L34.865,79.63,23.557,85.138Z" transform="translate(-14.695 -56.626)" fill="#12263f"/>
        <path id="Trazado_1286305" data-name="Trazado 1286305" d="M34.148,199.763l-15.573,0a1,1,0,0,1-1.043-1.04l.008-14.732a.962.962,0,0,1,1.054-.945H34.054a.945.945,0,0,1,1,.949l0,14.908a.941.941,0,0,1-.906.862m-2.5-14.788L21,184.968c1.678,1.779,3.422,3.321,5.228,5.016Zm1.464,11.457.015-10.192L27.6,191.3Zm-8.3-5.194-5.341-4.9,0,9.806Zm6.863,6.569-5.534-5.192-5.574,5.2Z" transform="translate(-14.175 -148.006)" fill="#12263f"/>
        <path id="Trazado_1286306" data-name="Trazado 1286306" d="M248.716,225.348h-7.1a.956.956,0,0,1-1.011-1.006l-.009-7.095a1,1,0,0,1,1.042-1.1l7.054,0a1.047,1.047,0,0,1,1.1.96l0,7.2a1.029,1.029,0,0,1-1.075,1.047m-.829-1.946-.014-5.318-5.332-.022v5.353Z" transform="translate(-194.545 -174.768)" fill="#12263f"/>
        <path id="Trazado_1286307" data-name="Trazado 1286307" d="M248.828,88.068l-7.143-.007a.959.959,0,0,1-1.024-.934l0-7.28a.921.921,0,0,1,1.009-.97l7.286.006a.962.962,0,0,1,.886,1l0,7.2a1.043,1.043,0,0,1-1.007.982m-.893-1.934-.023-5.348-5.327.012,0,5.347Z" transform="translate(-194.591 -63.778)" fill="#12263f"/>
        <path id="Trazado_1286308" data-name="Trazado 1286308" d="M248.918,156.9h-7.244a1.036,1.036,0,0,1-1.058-1.061l.006-7.1a.905.905,0,0,1,.823-.982l7.468,0a.928.928,0,0,1,.889.873l.006,7.355a1.012,1.012,0,0,1-.89.924m-1.022-1.926-.019-5.364c-1.885.087-3.508.072-5.336.027l.016,5.367Z" transform="translate(-194.558 -119.469)" fill="#12263f"/>
        <path id="Trazado_1286309" data-name="Trazado 1286309" d="M151.822,222.095l-14.991.026a.92.92,0,0,1-.982-.913.945.945,0,0,1,1-1.011l14.869.007a.967.967,0,0,1,.97.834.953.953,0,0,1-.862,1.056" transform="translate(-109.844 -178.047)" fill="#12263f"/>
        <path id="Trazado_1286310" data-name="Trazado 1286310" d="M151.715,249.876l-14.9,0a.907.907,0,0,1-1-.865.948.948,0,0,1,1-1.046l14.894,0a1.008,1.008,0,0,1,.943.875.96.96,0,0,1-.939,1.031" transform="translate(-109.815 -200.502)" fill="#12263f"/>
        <path id="Trazado_1286311" data-name="Trazado 1286311" d="M151.652,194.3l-14.825,0a.955.955,0,0,1-.118-1.906l15-.011a.959.959,0,1,1-.058,1.915" transform="translate(-109.841 -155.558)" fill="#12263f"/>
        <path id="Trazado_1286312" data-name="Trazado 1286312" d="M235.38,20.9l-9.835,0a.893.893,0,0,1-.811-1.04.935.935,0,0,1,1.007-.86l9.554,0a.971.971,0,0,1,.945.868.893.893,0,0,1-.861,1.026" transform="translate(-181.713 -15.367)" fill="#12263f"/>
        <path id="Trazado_1286313" data-name="Trazado 1286313" d="M193.116,17.318a1.291,1.291,0,0,1,1.626.842,1.321,1.321,0,0,1-.856,1.636,1.307,1.307,0,0,1-1.573-.736,1.276,1.276,0,0,1,.8-1.742" transform="translate(-155.417 -13.955)" fill="#12263f"/>
      </g>
    </g>
  </g>
</svg>
