<svg xmlns="http://www.w3.org/2000/svg" xmlns:xlink="http://www.w3.org/1999/xlink" width="85" height="85" viewBox="0 0 85 85">
  <defs>
    <clipPath id="clip-path">
      <rect id="Rectángulo_468111" data-name="Rectángulo 468111" width="57.242" height="58.158" fill="#12263f"/>
    </clipPath>
  </defs>
  <g id="Grupo_1212751" data-name="Grupo 1212751" transform="translate(-705.629 -410)">
    <g id="Grupo_1180019" data-name="Grupo 1180019">
      <g id="Grupo_1180023" data-name="Grupo 1180023">
        <rect id="Rectángulo_456333" data-name="Rectángulo 456333" width="85" height="85" rx="10" transform="translate(705.629 410)" fill="#68eae0"/>
        <g id="Grupo_1213144" data-name="Grupo 1213144" transform="translate(719.508 423.421)">
          <g id="Grupo_1213143" data-name="Grupo 1213143" clip-path="url(#clip-path)">
            <path id="Trazado_1285878" data-name="Trazado 1285878" d="M66.654,111.5l-13.167-.034v-1.9l12.738,0a13.186,13.186,0,0,1,.817-6.946l.018-10.477,1.9-.029L69,99.152A24.415,24.415,0,0,1,70.922,97.2l.012-7.014,1.906-.027.045,5.664a12.977,12.977,0,0,1,1.877-.842l.055-3.835,1.925-.021,0,3.224c.685-.127,1.246-.194,1.929-.275l.021-6.81H80.61l.021,6.809,1.93.249-.007-8.986,1.945,0,0,9.58,1.921.911.024-6.6,1.921,0,.013,7.968A23.654,23.654,0,0,1,90.3,99.149l.053-6.085,1.893.014-.007,9.43a13.528,13.528,0,0,1,.83,7.046l1.121.029-.006,1.866-1.53.061a15.325,15.325,0,0,1-1.137,2.709l9.287,9.326a.96.96,0,0,1-.121,1.272l-2.818,2.826a1.044,1.044,0,0,1-1.524-.008l-8.908-8.9A13.557,13.557,0,0,1,66.654,111.5M78.193,96.068A11.636,11.636,0,1,0,91.2,106.148a11.615,11.615,0,0,0-13.005-10.08M97.1,125.641l1.527-1.53L90.4,115.884,89,117.558Z" transform="translate(-43.758 -69.808)" fill="#12263f"/>
            <path id="Trazado_1285879" data-name="Trazado 1285879" d="M36.925,44.743a2.879,2.879,0,0,0-2.981,2.907l-.006,31A2.906,2.906,0,0,0,36.964,81.6l12.454-.013.008,1.98-12.618-.027a4.748,4.748,0,0,1-4.789-4.683l-.031-31.083c0-2.447,1.84-4.91,4.443-4.909l39.806.015a4.561,4.561,0,0,1,4.194,4.338l.058,31.262A4.606,4.606,0,0,1,79.235,81.9l-1.385-1.272a3.479,3.479,0,0,0,.716-2.145L78.549,47.62a2.85,2.85,0,0,0-2.723-2.859Z" transform="translate(-26.17 -35.07)" fill="#12263f"/>
            <path id="Trazado_1285880" data-name="Trazado 1285880" d="M1.967,4.686l-.02,31.229a2.972,2.972,0,0,0,2.133,2.78L3.612,40.54a4.808,4.808,0,0,1-3.6-4.575L0,4.885A4.748,4.748,0,0,1,4.453.02L43.88,0a4.848,4.848,0,0,1,4.562,5.743,4.854,4.854,0,0,1-1.89-.029c.262-1.521-.593-3.746-2.493-3.749L5,1.906a2.856,2.856,0,0,0-3.032,2.78" transform="translate(0 0.001)" fill="#12263f"/>
            <path id="Trazado_1285881" data-name="Trazado 1285881" d="M87.278,155.493l-1.972.039V143.941l1.969,0Z" transform="translate(-69.791 -117.76)" fill="#12263f"/>
            <path id="Trazado_1285882" data-name="Trazado 1285882" d="M108.587,168.562l-1.957.012v-8.681l1.951,0Z" transform="translate(-87.237 -130.813)" fill="#12263f"/>
            <path id="Trazado_1285883" data-name="Trazado 1285883" d="M66.035,181.676l-1.94.027v-5.775l1.916,0Z" transform="translate(-52.437 -143.931)" fill="#12263f"/>
            <path id="Trazado_1285884" data-name="Trazado 1285884" d="M23.346,22.962l-1.936.007V21.014a14.269,14.269,0,0,1,1.909.029Z" transform="translate(-17.516 -17.178)" fill="#12263f"/>
            <path id="Trazado_1285885" data-name="Trazado 1285885" d="M44.716,23.021l-1.916.019-.007-1.936,1.91-.031Z" transform="translate(-35.01 -17.242)" fill="#12263f"/>
            <path id="Trazado_1285886" data-name="Trazado 1285886" d="M55.3,65.779,53.37,65.8l0-1.926,1.941,0Z" transform="translate(-43.662 -52.256)" fill="#12263f"/>
            <path id="Trazado_1285887" data-name="Trazado 1285887" d="M76.639,65.792l-1.9-.015-.016-1.913,1.911,0Z" transform="translate(-61.13 -52.249)" fill="#12263f"/>
            <path id="Trazado_1285888" data-name="Trazado 1285888" d="M65.986,23.018,64.1,23.03l-.034-1.9,1.892-.045Z" transform="translate(-52.413 -17.248)" fill="#12263f"/>
            <path id="Trazado_1285889" data-name="Trazado 1285889" d="M97.961,65.834,96.1,65.818a10.479,10.479,0,0,1,0-1.933l1.845,0Z" transform="translate(-78.582 -52.266)" fill="#12263f"/>
            <path id="Trazado_1285890" data-name="Trazado 1285890" d="M152.1,154.695a9.693,9.693,0,1,1-7.881,11.357,9.661,9.661,0,0,1,7.881-11.357m6.491,9.518-1.94-.005,0-7.167a7.031,7.031,0,0,0-1.919-.476l-.025,7.642-1.917,0-.026-7.634a4.912,4.912,0,0,0-1.935.525l.014,7.115-1.937.011-.133-5.942a7.682,7.682,0,0,0-2.512,7.922l14.975-.005a7.615,7.615,0,0,0-2.573-7.938Zm1.773,3.916-13.31.013a7.684,7.684,0,0,0,6.78,3.851,7.414,7.414,0,0,0,6.529-3.864" transform="translate(-117.855 -126.442)" fill="#12263f"/>
          </g>
        </g>
      </g>
    </g>
  </g>
</svg>
