<svg xmlns="http://www.w3.org/2000/svg" xmlns:xlink="http://www.w3.org/1999/xlink" width="85" height="85" viewBox="0 0 85 85">
  <defs>
    <clipPath id="clip-path">
      <rect id="Rectángulo_468123" data-name="Rectángulo 468123" width="64.707" height="64.706" fill="#12263f"/>
    </clipPath>
  </defs>
  <g id="Grupo_1212774" data-name="Grupo 1212774" transform="translate(-705.629 -1685)">
    <g id="Grupo_1180020" data-name="Grupo 1180020" transform="translate(0 1275)">
      <rect id="Rectángulo_456333" data-name="Rectángulo 456333" width="85" height="85" rx="10" transform="translate(705.629 410)" fill="#fff"/>
    </g>
    <g id="Grupo_1213168" data-name="Grupo 1213168" transform="translate(715.776 1695.147)">
      <g id="Grupo_1213167" data-name="Grupo 1213167" clip-path="url(#clip-path)">
        <path id="Trazado_1285992" data-name="Trazado 1285992" d="M78.763,96.6l-4.758.012a1.731,1.731,0,0,1-1.742-1.837,3.431,3.431,0,0,0-6.052-2.614,1.716,1.716,0,0,1-2.631.1l-3.216-3.217a1.715,1.715,0,0,1,.1-2.631,3.4,3.4,0,0,0,1-3.936,3.446,3.446,0,0,0-3.613-2.119,1.731,1.731,0,0,1-1.84-1.738V73.966a1.729,1.729,0,0,1,1.84-1.741,3.431,3.431,0,0,0,2.612-6.052,1.717,1.717,0,0,1-.1-2.631l3.217-3.217a1.718,1.718,0,0,1,2.632.1,3.4,3.4,0,0,0,3.935,1,3.444,3.444,0,0,0,2.117-3.614A1.733,1.733,0,0,1,74,55.969h4.665a1.734,1.734,0,0,1,1.74,1.847,3.443,3.443,0,0,0,1.964,3.547,3.406,3.406,0,0,0,4.088-.935,1.718,1.718,0,0,1,2.632-.1l3.217,3.217a1.715,1.715,0,0,1-.1,2.632,3.4,3.4,0,0,0-1,3.934,3.44,3.44,0,0,0,3.611,2.121,1.734,1.734,0,0,1,1.843,1.736v4.663a1.729,1.729,0,0,1-1.84,1.74A3.432,3.432,0,0,0,92.2,86.42a1.714,1.714,0,0,1,.1,2.632L89.089,92.27a1.714,1.714,0,0,1-2.631-.108,3.376,3.376,0,0,0-3.935-.994,3.419,3.419,0,0,0-2.114,3.614A1.7,1.7,0,0,1,78.763,96.6m.048-1.637a4.918,4.918,0,0,1,3.238-5.339,5.02,5.02,0,0,1,5.788,1.663l3.493-3.556a4.883,4.883,0,0,1-1.542-6.017,5.007,5.007,0,0,1,5.279-2.957l0-4.932A5.06,5.06,0,0,1,91.34,64.79L87.774,61.3a4.883,4.883,0,0,1-6.018,1.543A5,5,0,0,1,78.8,57.578l-4.934-.005a4.968,4.968,0,0,1-2.984,5.283A5.031,5.031,0,0,1,64.827,61.3L61.34,64.858a4.876,4.876,0,0,1,1.541,6.017A4.971,4.971,0,0,1,57.6,73.83l0,4.932a4.988,4.988,0,0,1,5.347,3.1,4.885,4.885,0,0,1-1.606,5.873l3.493,3.559a5.06,5.06,0,0,1,9.033,3.743Z" transform="translate(-43.981 -43.947)" fill="#12263f"/>
        <path id="Trazado_1285993" data-name="Trazado 1285993" d="M220.969,17.3a.883.883,0,0,1-1.246-.014.952.952,0,0,1,.128-1.2l5.386-5.392a6.642,6.642,0,1,1,1.185,1.178Zm8.468-15.555a5,5,0,1,0,5.951,3.906,4.952,4.952,0,0,0-5.951-3.906" transform="translate(-172.401 0)" fill="#12263f"/>
        <path id="Trazado_1285994" data-name="Trazado 1285994" d="M11.875,226.293a6.682,6.682,0,1,1-1.189-1.165l5.627-5.569c.247-.244.785-.079.97.048.222.152.441.79.155,1.079Zm-5.727-.9a5.009,5.009,0,1,0,1.121,9.954,5.063,5.063,0,0,0,4.346-5.541A4.981,4.981,0,0,0,6.148,225.4" transform="translate(0 -172.298)" fill="#12263f"/>
        <path id="Trazado_1285995" data-name="Trazado 1285995" d="M222.182,220.975a6.7,6.7,0,1,1-1.139,1.138l-1.327-1.336a.9.9,0,0,1-.035-1.084.8.8,0,0,1,1.054-.143Zm3.58.319a4.962,4.962,0,0,0-4.522,5.562,5.01,5.01,0,0,0,9.964-1.047,4.946,4.946,0,0,0-5.442-4.516" transform="translate(-172.362 -172.275)" fill="#12263f"/>
        <path id="Trazado_1285996" data-name="Trazado 1285996" d="M32.77,32.2a.866.866,0,0,1,0,1.019.8.8,0,0,1-1.067.138l-1.376-1.247a6.594,6.594,0,1,1,1.21-1.236ZM25.384,21.985a4.97,4.97,0,0,0-4.1,5.823,5.009,5.009,0,0,0,9.867-1.733,4.948,4.948,0,0,0-5.764-4.091" transform="translate(-15.377 -15.931)" fill="#12263f"/>
        <path id="Trazado_1285997" data-name="Trazado 1285997" d="M112.038,102.971a10.259,10.259,0,1,1-9.1,11.443,10.214,10.214,0,0,1,9.1-11.443m-.636,1.722a8.642,8.642,0,1,0,10.194,6.763,8.632,8.632,0,0,0-10.194-6.763" transform="translate(-80.765 -80.807)" fill="#12263f"/>
        <path id="Trazado_1285998" data-name="Trazado 1285998" d="M126.148,137.273l-2.333-2.286a2.343,2.343,0,0,1,.116-3.5,2.387,2.387,0,0,1,3.628.7l3.456-3.387a2.346,2.346,0,0,1,3.228.112,2.257,2.257,0,0,1,.155,3.073l-5.244,5.274a2.191,2.191,0,0,1-3,.012m-1.235-3.5,2.2,2.209a.761.761,0,0,0,1.121-.077l4.724-4.722a.755.755,0,0,0,.147-1.087.709.709,0,0,0-1.054-.04l-3.749,3.766a.907.907,0,0,1-1.329-.062l-1.109-1.047a.7.7,0,0,0-1.035.106.786.786,0,0,0,.087.955" transform="translate(-96.645 -100.671)" fill="#12263f"/>
      </g>
    </g>
  </g>
</svg>
