<svg xmlns="http://www.w3.org/2000/svg" xmlns:xlink="http://www.w3.org/1999/xlink" width="98" height="98" viewBox="0 0 98 98">
  <defs>
    <clipPath id="clip-path">
      <rect id="Rectángulo_456312" data-name="Rectángulo 456312" width="98" height="98" transform="translate(0.059 0.059)" fill="none"/>
    </clipPath>
    <clipPath id="clip-path-3">
      <rect id="Rectángulo_468122" data-name="Rectángulo 468122" width="58.823" height="67.365" fill="#19538d"/>
    </clipPath>
  </defs>
  <g id="Grupo_1212770" data-name="Grupo 1212770" transform="translate(-307.117 -10093.059)">
    <g id="Grupo_1179968" data-name="Grupo 1179968" transform="translate(307.059 10093)">
      <g id="Grupo_1179959" data-name="Grupo 1179959" clip-path="url(#clip-path)">
        <path id="Trazado_999654" data-name="Trazado 999654" d="M1.5,5.146H81.261A12.087,12.087,0,0,1,93.377,17.2V96.585H13.616A12.087,12.087,0,0,1,1.5,84.527Z" transform="translate(0.014 0.025)" fill="#fff"/>
      </g>
      <g id="Grupo_1179960" data-name="Grupo 1179960">
        <g id="Grupo_1179956" data-name="Grupo 1179956" clip-path="url(#clip-path)">
          <path id="Trazado_999651" data-name="Trazado 999651" d="M92.229,30a5.024,5.024,0,1,1-5.048,5.024A5.037,5.037,0,0,1,92.229,30" transform="translate(0.84 0.145)" fill="#19538d"/>
          <path id="Trazado_999652" data-name="Trazado 999652" d="M63.229,0a5.024,5.024,0,1,1-5.048,5.024A5.037,5.037,0,0,1,63.229,0" transform="translate(0.56 0)" fill="#19538d"/>
          <path id="Trazado_999653" data-name="Trazado 999653" d="M93.377,35.144V96.585H13.616A12.087,12.087,0,0,1,1.5,84.527V5.146H64.459" transform="translate(0.014 0.025)" fill="none" stroke="#19538d" stroke-miterlimit="10" stroke-width="3"/>
        </g>
      </g>
    </g>
    <g id="Grupo_1213166" data-name="Grupo 1213166" transform="translate(327.848 10108.377)">
      <g id="Grupo_1213165" data-name="Grupo 1213165" clip-path="url(#clip-path-3)">
        <path id="Trazado_1285978" data-name="Trazado 1285978" d="M47.066,63.8a3.406,3.406,0,0,1-3.506,3.566l-40.35-.038A3.4,3.4,0,0,1,0,63.655L.023,10.188a3.281,3.281,0,0,1,3.247-3.3l10.048-.073c.267-.751.64-1.517,1.513-1.522l4.23-.027c-.852-1.5-2.137-2.442-1.417-4.031A2.084,2.084,0,0,1,19.264,0l8.678.046c1.429.007,2.159,2.043,1.473,3.1l-1.359,2.1,4.494.107c.64.015,1,.82,1.143,1.49l10.061.026a3.316,3.316,0,0,1,3.288,3.289L47.068,25.7a13.324,13.324,0,0,1,0,26.462Zm-16.4-52.935.7-3.461-5.347.011a1.093,1.093,0,0,1-1.1-.693,1.149,1.149,0,0,1,.176-1.08l2.481-3.553L19.525,2.07,22.1,5.848a1,1,0,0,1-.034,1.069,1.08,1.08,0,0,1-.9.488L15.7,7.4l.794,3.5Zm12.492,50.2a2.761,2.761,0,0,1-2.759,2.71l-33.6.006a2.864,2.864,0,0,1-2.917-2.9l.028-47.853a2.8,2.8,0,0,1,2.86-2.578l7.345-.017a4.011,4.011,0,0,0-.29-1.457l-10.521.03a1.244,1.244,0,0,0-1.175,1.2l0,53.654a1.262,1.262,0,0,0,1.3,1.369l40.136,0a1.271,1.271,0,0,0,1.379-1.34l0-11.6L43.2,52.1Zm.033-35.322,1.744-.177.013-15.191A1.251,1.251,0,0,0,43.716,9L33.2,8.987l-.192,1.446,7.183.009a2.9,2.9,0,0,1,2.99,2.89Zm-2.116.614V13.339a.838.838,0,0,0-.74-.8l-8.495.11c-.74.01-1.389.457-2.216.457L17.37,13.1c-.815,0-1.473-.458-2.2-.465l-8.347-.085A.809.809,0,0,0,6,13.4V60.865a.793.793,0,0,0,.816.8l33.576,0a.736.736,0,0,0,.685-.742L41.059,51.5a13.331,13.331,0,0,1,.017-25.144m2.93,1.489a11.2,11.2,0,1,0,12.6,9.605,11.185,11.185,0,0,0-12.6-9.605" transform="translate(0 0)" fill="#19538d"/>
        <path id="Trazado_1285979" data-name="Trazado 1285979" d="M46.392,77.53H39.866a1.726,1.726,0,0,1-1.716-1.809l0-6.133a1.7,1.7,0,0,1,1.875-1.732l6.566.06c.787.007,1.282.929,1.281,1.652l-.013,6.367a1.64,1.64,0,0,1-1.469,1.592m-.635-2.111V69.984L40.273,70l.047,5.421Z" transform="translate(-30.079 -53.503)" fill="#19538d"/>
        <path id="Trazado_1285980" data-name="Trazado 1285980" d="M46.279,134.033l-6.472.01a1.573,1.573,0,0,1-1.619-1.535l-.046-6.314a1.72,1.72,0,0,1,1.5-1.8l6.693-.011a1.557,1.557,0,0,1,1.529,1.611l0,6.358a1.6,1.6,0,0,1-1.586,1.684m-.523-2.129-.011-5.433h-5.47l.011,5.439Z" transform="translate(-30.073 -98.067)" fill="#19538d"/>
        <path id="Trazado_1285981" data-name="Trazado 1285981" d="M46.278,246.935l-6.468.014a1.58,1.58,0,0,1-1.618-1.532l-.046-6.305a1.75,1.75,0,0,1,1.682-1.847l6.5.015a1.548,1.548,0,0,1,1.53,1.623l0,6.356a1.6,1.6,0,0,1-1.59,1.676m-.518-2.12-.008-5.448-5.467-.005-.01,5.475Z" transform="translate(-30.076 -187.07)" fill="#19538d"/>
        <path id="Trazado_1285982" data-name="Trazado 1285982" d="M46.228,190.636l-6.363,0a1.828,1.828,0,0,1-1.711-1.858l.025-6.332a1.564,1.564,0,0,1,1.639-1.517l6.776.043c.792.005,1.285.931,1.283,1.654l-.019,6.352a1.715,1.715,0,0,1-1.63,1.653m-.464-2.113-.005-5.471-5.468,0,.032,5.418c1.858.1,3.558.051,5.441.056" transform="translate(-30.082 -142.656)" fill="#19538d"/>
        <path id="Trazado_1285983" data-name="Trazado 1285983" d="M114.9,268.248H98.866a1.093,1.093,0,0,1-1.121-.769c-.121-.419.068-1.321.715-1.321l16.839,0c.57,0,.741.783.7,1.113a1.09,1.09,0,0,1-1.1.974" transform="translate(-77.04 -209.852)" fill="#19538d"/>
        <path id="Trazado_1285984" data-name="Trazado 1285984" d="M115.014,98.616l-16.163.016a1.069,1.069,0,0,1-1.136-1.053,1.012,1.012,0,0,1,1.008-1.062l16.319,0a1.058,1.058,0,0,1,.956.873,1.026,1.026,0,0,1-.984,1.223" transform="translate(-77.042 -76.098)" fill="#19538d"/>
        <path id="Trazado_1285985" data-name="Trazado 1285985" d="M109.528,77.1,98.866,77.1a1.051,1.051,0,0,1-1.136-.954.984.984,0,0,1,.915-1.156l10.991-.007a.982.982,0,0,1,.938.958,1.013,1.013,0,0,1-1.047,1.152" transform="translate(-77.051 -59.123)" fill="#19538d"/>
        <path id="Trazado_1285986" data-name="Trazado 1285986" d="M109.528,133.606l-10.677.013a1.063,1.063,0,0,1-1.1-.846c-.1-.434.105-1.251.763-1.251l11.26-.005c.589,0,.829.671.8,1.061a1.053,1.053,0,0,1-1.046,1.028" transform="translate(-77.049 -103.694)" fill="#19538d"/>
        <path id="Trazado_1285987" data-name="Trazado 1285987" d="M109.633,246.45l-10.785.027a1.063,1.063,0,0,1-1.124-1.02,1.036,1.036,0,0,1,1.172-1.1l10.512,0a1.053,1.053,0,1,1,.226,2.094" transform="translate(-77.049 -192.661)" fill="#19538d"/>
        <path id="Trazado_1285988" data-name="Trazado 1285988" d="M107.95,211.536l-9.1-.01a1.071,1.071,0,0,1-1.125-1.029A1.04,1.04,0,0,1,98.9,209.4l9.182.009a1.036,1.036,0,0,1,1.092,1.079c-.015.676-.485,1.044-1.22,1.043" transform="translate(-77.048 -165.104)" fill="#19538d"/>
        <path id="Trazado_1285989" data-name="Trazado 1285989" d="M107.51,155.155l-8.868-.014a.955.955,0,0,1-.921-.941c-.042-.383.17-1.113.739-1.115l9.267-.03a1,1,0,0,1,.928,1.149,1.056,1.056,0,0,1-1.145.95" transform="translate(-77.044 -120.675)" fill="#19538d"/>
        <path id="Trazado_1285990" data-name="Trazado 1285990" d="M106.971,190.122l-8.108.027a1.062,1.062,0,0,1-1.1-.756c-.131-.448.067-1.306.7-1.308l8.635-.032c.547,0,.827.568.856.96a1.057,1.057,0,0,1-.98,1.11" transform="translate(-77.048 -148.269)" fill="#19538d"/>
        <path id="Trazado_1285991" data-name="Trazado 1285991" d="M174.954,165.718l-3.8-4.791a2.762,2.762,0,0,1,.618-3.85,2.874,2.874,0,0,1,3.908.588l1.657,2.022,6.572-6.493a2.678,2.678,0,0,1,3.65.314,2.716,2.716,0,0,1,.121,3.674l-8.882,8.88a2.681,2.681,0,0,1-3.844-.344m-2.112-6.062,3.445,4.381c.215.274.395.507.682.532a.988.988,0,0,0,.8-.4l8.326-8.359c.276-.277.049-.781-.138-.909-.15-.1-.584-.245-.8-.028l-7.2,7.177a1.048,1.048,0,0,1-1.524-.05l-2.457-3.044a.7.7,0,0,0-.9-.182.663.663,0,0,0-.234.882" transform="translate(-134.527 -120.321)" fill="#19538d"/>
      </g>
    </g>
  </g>
</svg>
