<svg xmlns="http://www.w3.org/2000/svg" xmlns:xlink="http://www.w3.org/1999/xlink" width="150" height="150" viewBox="0 0 150 150">
  <defs>
    <clipPath id="clip-path">
      <rect id="Rectángulo_456312" data-name="Rectángulo 456312" width="150" height="150" fill="none"/>
    </clipPath>
    <clipPath id="clip-path-3">
      <rect id="Rectángulo_468161" data-name="Rectángulo 468161" width="108" height="84.498" fill="#19538d"/>
    </clipPath>
  </defs>
  <g id="Grupo_1212997" data-name="Grupo 1212997" transform="translate(-307.059 -10093)">
    <g id="Grupo_1179968" data-name="Grupo 1179968" transform="translate(-115 658)">
      <g id="Grupo_1179959" data-name="Grupo 1179959" transform="translate(422.059 9435)" clip-path="url(#clip-path)">
        <path id="Trazado_999654" data-name="Trazado 999654" d="M1.5,5.146H123.437A18.479,18.479,0,0,1,141.96,23.58V144.937H20.022A18.479,18.479,0,0,1,1.5,126.5Z" transform="translate(0.815 2.76)" fill="#fff"/>
      </g>
      <g id="Grupo_1179960" data-name="Grupo 1179960" transform="translate(422.059 9435)">
        <g id="Grupo_1179956" data-name="Grupo 1179956" clip-path="url(#clip-path)">
          <path id="Trazado_999651" data-name="Trazado 999651" d="M94.9,30a7.681,7.681,0,1,1-7.718,7.681A7.7,7.7,0,0,1,94.9,30" transform="translate(47.384 16.085)" fill="#19538d"/>
          <path id="Trazado_999652" data-name="Trazado 999652" d="M65.9,0a7.681,7.681,0,1,1-7.718,7.681A7.7,7.7,0,0,1,65.9,0" transform="translate(31.622 0)" fill="#19538d"/>
          <path id="Trazado_999653" data-name="Trazado 999653" d="M141.96,51.007v93.93H20.022A18.479,18.479,0,0,1,1.5,126.5V5.146H97.75" transform="translate(0.815 2.76)" fill="none" stroke="#19538d" stroke-miterlimit="10" stroke-width="4"/>
        </g>
      </g>
    </g>
    <g id="Grupo_1213245" data-name="Grupo 1213245" transform="translate(328.059 10125.751)">
      <g id="Grupo_1213244" data-name="Grupo 1213244" clip-path="url(#clip-path-3)">
        <path id="Trazado_1286341" data-name="Trazado 1286341" d="M3.142,79.547a1.661,1.661,0,0,0,1.691,1.791l78.756,0a1.591,1.591,0,0,0,1.662-1.664l.01-15.1a5.191,5.191,0,0,1-2.774-1.187l-5.814-5.774-12.663.008c-.4.869-.9,1.559-1.744,1.564-.868.006-1.355-.69-1.753-1.559l-14.258-.062c-3.459-.015-2.219-4.186-2.765-7.416-.706-.406-1.365-.859-1.384-1.648s.677-1.3,1.427-1.667l.145-7.14-33.205-.017a1.594,1.594,0,0,1-1.638-1.625c.024-1.007.837-1.559,1.98-1.558l32.757.006.119-4.268c.033-1.194.9-2.647,2.279-2.647l17.023-.007c.934,0,1.271,1.044,1.216,1.694-.076.886-.735,1.418-1.809,1.462l-15.5.01,0,21.683,26.408-.048a3.014,3.014,0,0,1-1.144-2.157,1.45,1.45,0,0,1,1.729-1.4c1.044.132,1.545,1.1,2.454,1.76l.037-19.865c-3.966-.042-8.153.724-7.925-1.742a1.616,1.616,0,0,1,1.755-1.453l7.022.069a2.706,2.706,0,0,1,2.388,2.886L79.6,55.993l5.626,5.4.038-37.93-51.417,0c-.968,1.082-1.97,2.2-3.5,2.21l-16.153.118c-2.147.016-3.421-1.019-4.841-2.195l-6.2-.1L3.142,65.534a1.567,1.567,0,0,1-1.318,1.733A1.479,1.479,0,0,1,0,65.845l.013-54.58c0-2.89,2.359-4.659,5.015-4.713l3.865-.079C8.3,3.466,9.954.14,13.157.116L29.015,0A5.44,5.44,0,0,1,33.37,1.673a5.963,5.963,0,0,1,1.1,4.856l4.662.028a1.641,1.641,0,0,1,1.853,1.457,1.534,1.534,0,0,1-1.556,1.75l-4.874.025.012,10.515,50.671-.021,0-8.95a1.484,1.484,0,0,0-1.562-1.546l-36.719,0a1.658,1.658,0,0,1-1.7-1.47,1.669,1.669,0,0,1,1.7-1.76l37.306.077c2.138,0,3.522,1.888,4.07,3.65,1.654.1,3.317-.353,4.671.425,1.3.75,1.242,2.422,1.147,4.129l1.959-1.682a2.386,2.386,0,0,1,3.206.331l3.874,3.9a2.343,2.343,0,0,1,.165,3.005L101.6,22.3l2.34.089a2.329,2.329,0,0,1,2.258,2.394l0,5.6a2.243,2.243,0,0,1-2.01,2.329l-2.609.188,1.784,1.884a2.332,2.332,0,0,1-.177,2.994l-4.056,4.047a2.286,2.286,0,0,1-3,.185l-1.98-1.7c.1,1.747.123,3.08-.944,4.057-1.375.709-2.846.634-4.718.46l-.061,16.388,17.868.007a1.667,1.667,0,0,1,1.664,1.225c.182.588-.246,1.9-1.2,1.9l-18.3.11-.08,15.607A4.682,4.682,0,0,1,83.995,84.5L4.431,84.469A4.548,4.548,0,0,1,.045,80.117L.018,72.987a1.407,1.407,0,0,1,1.5-1.379,1.55,1.55,0,0,1,1.618,1.7ZM27.068,7.417c1.264-1.221,3.256.256,4.132,1.467l.073-4.375a1.574,1.574,0,0,0-1.591-1.35l-16.118.03a1.53,1.53,0,0,0-1.533,1.592l.044,7.788c.89-.02,1.938-.252,2.491.281l3.443,3.315ZM8.824,20.283,8.811,9.816l-4.429.025a1.378,1.378,0,0,0-1.237,1.433l-.014,9.018Zm3.18.4A1.759,1.759,0,0,0,13.914,22.6l15.421.007c.824,0,1.934-.418,1.938-1.3l.038-7.94L28.3,10.423,20,18.733c-.863.864-2.4,1.291-3.328.439L13.329,16.1c-.485-.447-1.337.871-1.335,1.472Zm88.115,9.179,2.927-.3-.029-4.062c-2.262.395-3.957-.166-4.625-2.112-.581-1.694.316-3.088,2.046-4.322l-3.11-2.968c-1.173,1.994-2.742,2.54-4.4,1.946-1.757-.628-2.184-2.286-1.96-4.194-.412-.6-1.794-.589-2.506-.225l-.007,6.811a7.183,7.183,0,1,1,0,14.343l.022,6.783a2.333,2.333,0,0,0,2.474-.262c-.235-1.977.334-3.679,2.212-4.261,1.573-.488,3.054.2,4.171,2a18.755,18.755,0,0,0,3.058-2.92c-1.094-1.01-2.224-1.893-2.17-3.162.047-1.129.538-2.952,1.9-3.094M88.455,31.485a3.936,3.936,0,1,0-.016-7.809Z" transform="translate(0.001 0)" fill="#19538d"/>
        <path id="Trazado_1286342" data-name="Trazado 1286342" d="M50.133,90.771l-22.283.008A1.764,1.764,0,0,1,26.128,89.3a1.587,1.587,0,0,1,1.37-1.7l23.085.019c.914,0,1.316,1.035,1.216,1.685a1.668,1.668,0,0,1-1.667,1.468" transform="translate(-17.305 -58.032)" fill="#19538d"/>
        <path id="Trazado_1286343" data-name="Trazado 1286343" d="M38.358,166.692l-10.539.013a1.723,1.723,0,0,1-1.691-1.469,1.633,1.633,0,0,1,1.694-1.716l10.385-.021a1.632,1.632,0,0,1,1.764,1.45,1.6,1.6,0,0,1-1.614,1.742" transform="translate(-17.304 -108.314)" fill="#19538d"/>
        <path id="Trazado_1286344" data-name="Trazado 1286344" d="M38.347,215.887l-10.855-.03c-.885,0-1.445-1.154-1.368-1.752a1.647,1.647,0,0,1,1.7-1.407l10.854.061c.859.005,1.342,1.027,1.307,1.627a1.583,1.583,0,0,1-1.643,1.5" transform="translate(-17.302 -140.906)" fill="#19538d"/>
        <path id="Trazado_1286345" data-name="Trazado 1286345" d="M38.736,191.3l-10.951-.015a1.584,1.584,0,1,1,.012-3.168L38.27,188.1a1.607,1.607,0,0,1,1.713,1.258,1.674,1.674,0,0,1-1.247,1.938" transform="translate(-17.336 -124.614)" fill="#19538d"/>
        <path id="Trazado_1286346" data-name="Trazado 1286346" d="M290.978,143.255l-10.317.038a1.561,1.561,0,0,1-1.684-1.6,1.525,1.525,0,0,1,1.686-1.558l10.125.014a1.591,1.591,0,0,1,1.582,1.287,1.5,1.5,0,0,1-1.391,1.82" transform="translate(-184.814 -92.834)" fill="#19538d"/>
        <path id="Trazado_1286347" data-name="Trazado 1286347" d="M290.938,163.97l-10.241.05a1.611,1.611,0,0,1-1.7-1.532,1.524,1.524,0,0,1,1.674-1.6l10.148-.018a1.535,1.535,0,0,1,1.578,1.377,1.566,1.566,0,0,1-1.459,1.72" transform="translate(-184.826 -106.574)" fill="#19538d"/>
        <path id="Trazado_1286348" data-name="Trazado 1286348" d="M147.719,215.885l-3.837.039a1.609,1.609,0,0,1-1.6-1.491,1.5,1.5,0,0,1,1.369-1.665l3.8-.01a1.569,1.569,0,0,1,.264,3.127" transform="translate(-94.256 -140.946)" fill="#19538d"/>
        <path id="Trazado_1286349" data-name="Trazado 1286349" d="M115.042,215.785c-3.037.544-5.874.286-5.652-1.654a1.573,1.573,0,0,1,1.663-1.416l3.47.005a1.559,1.559,0,0,1,.518,3.065" transform="translate(-72.46 -140.917)" fill="#19538d"/>
        <path id="Trazado_1286350" data-name="Trazado 1286350" d="M179.344,212.25c-.77.81-3.76,1.029-4.285-.678-.335-1.088.554-1.462,1.287-2.176s1.085-1.667,2.2-1.351c1.7.48,1.4,3.567.8,4.205" transform="translate(-115.924 -137.782)" fill="#19538d"/>
        <path id="Trazado_1286351" data-name="Trazado 1286351" d="M85.7,212.775a3.6,3.6,0,0,1-2.439-.365c-.968-.743-1.111-3.93.615-4.374,1.1-.283,1.491.614,2.2,1.4.556.614,1.5.869,1.332,1.838a1.726,1.726,0,0,1-1.71,1.5" transform="translate(-54.686 -137.782)" fill="#19538d"/>
        <path id="Trazado_1286352" data-name="Trazado 1286352" d="M86.148,142.186c-.688.631-.909,1.518-1.881,1.4a1.771,1.771,0,0,1-1.584-1.962,3.609,3.609,0,0,1,.41-2.2c.6-.782,3.941-1.124,4.364.738.219.966-.513,1.3-1.308,2.026" transform="translate(-54.773 -91.946)" fill="#19538d"/>
        <path id="Trazado_1286353" data-name="Trazado 1286353" d="M182.887,187.5a1.383,1.383,0,0,1-1.489,1.288,1.482,1.482,0,0,1-1.57-1.434l0-3.036a1.536,1.536,0,0,1,1.571-1.482,1.493,1.493,0,0,1,1.521,1.484Z" transform="translate(-119.129 -121.125)" fill="#19538d"/>
        <path id="Trazado_1286354" data-name="Trazado 1286354" d="M85.756,188.133a1.521,1.521,0,0,1-1.3,1.653,1.463,1.463,0,0,1-1.777-1.043c-.51-2.359-.223-4.751,1.475-4.746a1.491,1.491,0,0,1,1.584,1.429Z" transform="translate(-54.619 -121.893)" fill="#19538d"/>
        <path id="Trazado_1286355" data-name="Trazado 1286355" d="M85.715,160.9c.434,2.554.195,4.635-1.52,4.649-1.688.015-1.917-2.08-1.488-4.642a1.533,1.533,0,0,1,3.008-.007" transform="translate(-54.666 -105.777)" fill="#19538d"/>
        <path id="Trazado_1286356" data-name="Trazado 1286356" d="M107.069,141.888c-2.073.487-4.278.3-4.631-1.192a1.531,1.531,0,0,1,1.2-1.7c2.34-.317,4.167-.24,4.4,1.187a1.421,1.421,0,0,1-.978,1.707" transform="translate(-67.846 -91.978)" fill="#19538d"/>
        <path id="Trazado_1286357" data-name="Trazado 1286357" d="M195.814,40.113a1.789,1.789,0,0,1,2.408.535,1.592,1.592,0,0,1-.536,2.124,1.788,1.788,0,0,1-2.237-.3,1.561,1.561,0,0,1,.365-2.362" transform="translate(-129.226 -26.411)" fill="#19538d"/>
        <path id="Trazado_1286358" data-name="Trazado 1286358" d="M213.945,40.16a1.776,1.776,0,0,1,2.517.4,1.721,1.721,0,0,1-.469,2.2,1.819,1.819,0,0,1-2.232-.346,1.519,1.519,0,0,1,.185-2.247" transform="translate(-141.335 -26.369)" fill="#19538d"/>
        <path id="Trazado_1286359" data-name="Trazado 1286359" d="M232.548,40.086a1.722,1.722,0,0,1,2.355.646,1.691,1.691,0,0,1-2.79,1.807,1.558,1.558,0,0,1,.434-2.454" transform="translate(-153.495 -26.417)" fill="#19538d"/>
        <path id="Trazado_1286360" data-name="Trazado 1286360" d="M49.43,18.114a1.485,1.485,0,0,1,2.088.913,1.581,1.581,0,0,1-.8,1.941,1.552,1.552,0,0,1-2.065-.723,1.517,1.517,0,0,1,.776-2.131" transform="translate(-32.11 -11.905)" fill="#19538d"/>
      </g>
    </g>
  </g>
</svg>
