<svg xmlns="http://www.w3.org/2000/svg" xmlns:xlink="http://www.w3.org/1999/xlink" width="98" height="98" viewBox="0 0 98 98">
  <defs>
    <clipPath id="clip-path">
      <rect id="Rectángulo_456312" data-name="Rectángulo 456312" width="98" height="98" transform="translate(0.059 0.059)" fill="none"/>
    </clipPath>
    <clipPath id="clip-path-3">
      <rect id="Rectángulo_468121" data-name="Rectángulo 468121" width="57.067" height="57.539" fill="#19538d"/>
    </clipPath>
  </defs>
  <g id="Grupo_1212769" data-name="Grupo 1212769" transform="translate(-307.117 -10093.059)">
    <g id="Grupo_1179968" data-name="Grupo 1179968" transform="translate(307.059 10093)">
      <g id="Grupo_1179959" data-name="Grupo 1179959" clip-path="url(#clip-path)">
        <path id="Trazado_999654" data-name="Trazado 999654" d="M1.5,5.146H81.261A12.087,12.087,0,0,1,93.377,17.2V96.585H13.616A12.087,12.087,0,0,1,1.5,84.527Z" transform="translate(0.014 0.025)" fill="#fff"/>
      </g>
      <g id="Grupo_1179960" data-name="Grupo 1179960">
        <g id="Grupo_1179956" data-name="Grupo 1179956" clip-path="url(#clip-path)">
          <path id="Trazado_999651" data-name="Trazado 999651" d="M92.229,30a5.024,5.024,0,1,1-5.048,5.024A5.037,5.037,0,0,1,92.229,30" transform="translate(0.84 0.145)" fill="#19538d"/>
          <path id="Trazado_999652" data-name="Trazado 999652" d="M63.229,0a5.024,5.024,0,1,1-5.048,5.024A5.037,5.037,0,0,1,63.229,0" transform="translate(0.56 0)" fill="#19538d"/>
          <path id="Trazado_999653" data-name="Trazado 999653" d="M93.377,35.144V96.585H13.616A12.087,12.087,0,0,1,1.5,84.527V5.146H64.459" transform="translate(0.014 0.025)" fill="none" stroke="#19538d" stroke-miterlimit="10" stroke-width="3"/>
        </g>
      </g>
    </g>
    <g id="Grupo_1213164" data-name="Grupo 1213164" transform="translate(327.584 10113.289)">
      <g id="Grupo_1213163" data-name="Grupo 1213163" clip-path="url(#clip-path-3)">
        <path id="Trazado_1285976" data-name="Trazado 1285976" d="M35.357,57.528,21.8,57.539a1.712,1.712,0,0,1-1.71-1.718l-.011-3.678a5.017,5.017,0,0,0-2.445-4.265,4.925,4.925,0,0,0-5.064-.108L9.6,49.5a1.769,1.769,0,0,1-2.471-.316L.164,37.122a1.586,1.586,0,0,1,.48-1.966l3.719-2.233a4.7,4.7,0,0,0,2.163-4.064,4.71,4.71,0,0,0-2.163-4.243L.658,22.393a1.689,1.689,0,0,1-.324-2.325L7.2,8.254a1.642,1.642,0,0,1,2.04-.374l3.687,2.067a4.64,4.64,0,0,0,4.815-.357A5,5,0,0,0,20.076,5.4l.011-3.66A1.721,1.721,0,0,1,21.973,0H35.092A1.769,1.769,0,0,1,37,1.827l0,3.756a4.878,4.878,0,0,0,2.431,4.074,4.776,4.776,0,0,0,4.946.177l3.09-1.783c.746-.431,1.954-.576,2.467.309L56.852,20.3a1.6,1.6,0,0,1-.432,2.1L52.6,24.7a4.658,4.658,0,0,0-2.081,4.158,4.734,4.734,0,0,0,2.183,4.062l3.715,2.226a1.6,1.6,0,0,1,.432,2.1L49.939,49.177a1.77,1.77,0,0,1-2.47.321l-2.733-1.6a5.079,5.079,0,0,0-5.068-.145A4.922,4.922,0,0,0,37,51.959l-.018,3.93a1.648,1.648,0,0,1-1.626,1.639M33.636,54.14l.06-3.049a8.328,8.328,0,0,1,4.446-6.355,8.514,8.514,0,0,1,8.264.212l1.594.9,5.064-8.776L50.377,35.42a8.464,8.464,0,0,1-.2-13.143,23.8,23.8,0,0,1,2.888-1.8L48,11.7l-1.373.757a8.764,8.764,0,0,1-8.49.348,8.338,8.338,0,0,1-4.461-6.518l-.046-2.871-10.168,0-.005,1.984a8.4,8.4,0,0,1-4.281,7.277,8.727,8.727,0,0,1-8.63-.153l-1.482-.811L4,20.47a23.3,23.3,0,0,1,2.887,1.809,8.465,8.465,0,0,1-.2,13.142A29.641,29.641,0,0,1,4,37.074l5.062,8.759,1.262-.676a8.479,8.479,0,0,1,13.136,6.992l.04,2.009Z" transform="translate(0 0)" fill="#19538d"/>
        <path id="Trazado_1285977" data-name="Trazado 1285977" d="M104.1,94.484a11.793,11.793,0,1,1-10.946,12.721A11.776,11.776,0,0,1,104.1,94.484m-.186,3.4a8.423,8.423,0,1,0,9.365,7.382,8.4,8.4,0,0,0-9.365-7.382" transform="translate(-76.379 -77.473)" fill="#19538d"/>
      </g>
    </g>
  </g>
</svg>
