<svg xmlns="http://www.w3.org/2000/svg" xmlns:xlink="http://www.w3.org/1999/xlink" width="98" height="98" viewBox="0 0 98 98">
  <defs>
    <clipPath id="clip-path">
      <rect id="Rectángulo_456312" data-name="Rectángulo 456312" width="98" height="98" transform="translate(0.059 0.059)" fill="none"/>
    </clipPath>
    <clipPath id="clip-path-3">
      <rect id="Rectángulo_468119" data-name="Rectángulo 468119" width="63.505" height="64.163" fill="#19538d"/>
    </clipPath>
  </defs>
  <g id="Grupo_1212768" data-name="Grupo 1212768" transform="translate(-307.117 -10093.059)">
    <g id="Grupo_1179968" data-name="Grupo 1179968" transform="translate(307.059 10093)">
      <g id="Grupo_1179959" data-name="Grupo 1179959" clip-path="url(#clip-path)">
        <path id="Trazado_999654" data-name="Trazado 999654" d="M1.5,5.146H81.261A12.087,12.087,0,0,1,93.377,17.2V96.585H13.616A12.087,12.087,0,0,1,1.5,84.527Z" transform="translate(0.014 0.025)" fill="#fff"/>
      </g>
      <g id="Grupo_1179960" data-name="Grupo 1179960">
        <g id="Grupo_1179956" data-name="Grupo 1179956" clip-path="url(#clip-path)">
          <path id="Trazado_999651" data-name="Trazado 999651" d="M92.229,30a5.024,5.024,0,1,1-5.048,5.024A5.037,5.037,0,0,1,92.229,30" transform="translate(0.84 0.145)" fill="#19538d"/>
          <path id="Trazado_999652" data-name="Trazado 999652" d="M63.229,0a5.024,5.024,0,1,1-5.048,5.024A5.037,5.037,0,0,1,63.229,0" transform="translate(0.56 0)" fill="#19538d"/>
          <path id="Trazado_999653" data-name="Trazado 999653" d="M93.377,35.144V96.585H13.616A12.087,12.087,0,0,1,1.5,84.527V5.146H64.459" transform="translate(0.014 0.025)" fill="none" stroke="#19538d" stroke-miterlimit="10" stroke-width="3"/>
        </g>
      </g>
    </g>
    <g id="Grupo_1213160" data-name="Grupo 1213160" transform="translate(324.364 10111.977)">
      <g id="Grupo_1213159" data-name="Grupo 1213159" clip-path="url(#clip-path-3)">
        <path id="Trazado_1285950" data-name="Trazado 1285950" d="M61.183,24.561l-7.021.024,0,4.3a3.106,3.106,0,0,1-2.921,3.252L32.357,32.2l-.02,4.573a6.829,6.829,0,0,0,2.176.027A10.171,10.171,0,0,1,51,48.658c.365,1.075,1.517,1.4,2.29,2.1l9.45,8.516c1.311,1.181.775,3.313-.451,4.264-1.445,1.12-3.178.647-4.4-.72l-7.868-8.8c-.672-.752-1.041-1.724-2.042-2.257l-1.572.808L42.858,60.98A3.458,3.458,0,0,1,40.07,63.13l-25.642.038a1.734,1.734,0,0,1-1.742-1.788l-.016-25.018a3.058,3.058,0,0,1,3.066-3.319c2.121.1,4.59-.446,6.607.177l5.36,3.532a13.793,13.793,0,0,0,3.165.065L30.861,32.2l-18.352,0c-1.661,0-3.383-.964-3.406-2.726l-.065-4.889L2,24.565a2,2,0,0,1-1.98-1.914L0,5.316,5.286,0,17.6.014a2.021,2.021,0,0,1,1.926,2.117v20.3A2.079,2.079,0,0,1,17.4,24.575l-6.864.013-.024,4.3a1.682,1.682,0,0,0,1.636,1.819l18.706.02.014-6.144-7.032-.021a2.011,2.011,0,0,1-1.991-2.116l0-17.146L27.113,0,39.425.013a2.031,2.031,0,0,1,1.928,2.117v20.3a2.087,2.087,0,0,1-2.123,2.141l-6.908.01-.006,6.129,18.627.006a1.635,1.635,0,0,0,1.688-1.452l.037-4.678-7.008-.03a2.037,2.037,0,0,1-1.993-2.116V5.306L48.94,0,61.26.009a2.015,2.015,0,0,1,1.923,1.922v20.7a2.023,2.023,0,0,1-2,1.929M1.553,23.084l16.475-.023V1.511L6.33,1.467l-.008,2.8A2.02,2.02,0,0,1,4.306,6.319l-2.842.054Zm21.828,0,16.472-.015V1.51L28.177,1.474l-.015,2.794A1.945,1.945,0,0,1,26.306,6.3L23.3,6.367Zm21.821,0,16.5-.018V1.51L50.013,1.476l-.007,2.789a2.036,2.036,0,0,1-2.05,2.055l-2.841.053ZM4.615,4.663c.447-.463.3-1.372.118-1.951l-2.079,2.1c.474.006,1.515.313,1.962-.149m21.938.111a3.9,3.9,0,0,0,.029-2.125l-2.148,2.2Zm21.729-.123c.5-.466.289-1.448.2-2l-2.2,2.185c.6,0,1.523.224,2-.182M32.617,40.406l.847-2.113L27.1,38.258l-5.236-3.8-6.163.026a1.677,1.677,0,0,0-1.585,1.672l.077,20.924,5.89-13.96c.555-1.315,1.563-2.633,3.11-2.644Zm16.963,7.8A8.713,8.713,0,0,0,36.22,37.114,8.714,8.714,0,0,0,47.444,50.348c1.223-.828,2.53,1.537,2.963,1.364.228-.091.627-.473.607-.695-.035-.387-2.212-1.657-1.433-2.81M41.527,60.379l2.979-7.186a10.289,10.289,0,0,1-9.089-2.62,10.152,10.152,0,0,1-3.086-8.657l-9.122,0a2.625,2.625,0,0,0-1.566,1.3L13.978,61.689l25.577.036a2.195,2.195,0,0,0,1.971-1.345m11.2-7.193c.444-.411.4-.766.1-1.018-.586-.485-1.575.649-1.522,1,.049.323.436.645.663.6.285-.058.514-.35.762-.58m6.945,9.252c.677.738,1.946,0,2.169-.575a1.731,1.731,0,0,0-.655-2.117L54.32,53.6a8.609,8.609,0,0,1-1.463,1.417Z" fill="#19538d"/>
        <path id="Trazado_1285951" data-name="Trazado 1285951" d="M130.553,55.394l-10.469,0c-.561,0-.892-.295-.894-.745,0-.493.307-.752.884-.752l10.481,0a.748.748,0,1,1,0,1.489" transform="translate(-93.686 -42.368)" fill="#19538d"/>
        <path id="Trazado_1285952" data-name="Trazado 1285952" d="M128.25,91.45l-8.374.019a.72.72,0,0,1-.706-.746.685.685,0,0,1,.708-.713l8.087-.018c.482,0,.793.192.886.529.083.3-.047.928-.6.93" transform="translate(-93.671 -70.735)" fill="#19538d"/>
        <path id="Trazado_1285953" data-name="Trazado 1285953" d="M144.529,19.377l-7.024-.031c-.419,0-.536-.443-.535-.7a.686.686,0,0,1,.72-.751h6.841a.767.767,0,0,1,.816.749.753.753,0,0,1-.818.733" transform="translate(-107.662 -14.066)" fill="#19538d"/>
        <path id="Trazado_1285954" data-name="Trazado 1285954" d="M125.409,73.489l-5.538-.018a.7.7,0,0,1-.7-.723c-.006-.486.339-.722.9-.722l5.34,0a.737.737,0,0,1,.774.726.766.766,0,0,1-.771.742" transform="translate(-93.669 -56.61)" fill="#19538d"/>
        <path id="Trazado_1285955" data-name="Trazado 1285955" d="M154.371,37.372l-4.336-.01a.719.719,0,0,1-.006-1.433l4.249-.026a.781.781,0,0,1,.8.582.714.714,0,0,1-.7.887" transform="translate(-117.406 -28.221)" fill="#19538d"/>
        <path id="Trazado_1285956" data-name="Trazado 1285956" d="M123.379,37.324l-3.3.032c-.567.006-.894-.277-.891-.741s.3-.762.879-.76l3.217.01a.762.762,0,0,1,.758.616.7.7,0,0,1-.661.844" transform="translate(-93.683 -28.182)" fill="#19538d"/>
        <path id="Trazado_1285957" data-name="Trazado 1285957" d="M162.421,73.5l-2.389-.021a.718.718,0,0,1-.658-.711.686.686,0,0,1,.66-.7l2.11-.025a.733.733,0,0,1,.8.552.785.785,0,0,1-.518.9" transform="translate(-125.272 -56.627)" fill="#19538d"/>
        <path id="Trazado_1285958" data-name="Trazado 1285958" d="M25.8,34.914l-7.752,4.4a.737.737,0,0,1-.9-.131.771.771,0,0,1,.121-1.084l7.956-4.626a1.812,1.812,0,0,1-1.155-.558.658.658,0,0,1,.3-.969c.726-.209,3.437.5,3.472,1.113a10.782,10.782,0,0,1-.621,2.78.717.717,0,0,1-.851.545c-.425-.124-.692-.3-.564-1.469" transform="translate(-13.344 -25.081)" fill="#19538d"/>
        <path id="Trazado_1285959" data-name="Trazado 1285959" d="M68.895,61.326a.636.636,0,0,1-.74.6.718.718,0,0,1-.729-.718l.009-10.628a.757.757,0,0,1,.718-.682.691.691,0,0,1,.747.647Z" transform="translate(-52.998 -39.223)" fill="#19538d"/>
        <path id="Trazado_1285960" data-name="Trazado 1285960" d="M52.08,68.991a.636.636,0,0,1-.755.6c-.228-.019-.663-.143-.664-.55l-.02-8.661a.742.742,0,0,1,.507-.689c.3-.131.912.021.913.459Z" transform="translate(-39.805 -46.881)" fill="#19538d"/>
        <path id="Trazado_1285961" data-name="Trazado 1285961" d="M35.231,76.168c0,.591-.217.934-.622,1a.754.754,0,0,1-.866-.761l-.009-6.3a.788.788,0,0,1,.7-.81.764.764,0,0,1,.768.77Z" transform="translate(-26.516 -54.466)" fill="#19538d"/>
        <path id="Trazado_1285962" data-name="Trazado 1285962" d="M18.385,84.005a.732.732,0,0,1-.627.788.681.681,0,0,1-.812-.68l-.017-4.292c0-.5.254-.785.633-.823a.734.734,0,0,1,.822.826Z" transform="translate(-13.307 -62.09)" fill="#19538d"/>
        <path id="Trazado_1285963" data-name="Trazado 1285963" d="M228.57,43.906a2.282,2.282,0,0,1,.036,3.339,2.368,2.368,0,0,1-3.413.167l-3.345-4.1a5.528,5.528,0,1,1,2.7-2.709Zm-10.208-9.47a4.011,4.011,0,0,0-2.654,5.158,4.041,4.041,0,1,0,2.654-5.158m7.925,11.944c.482.584,1.3-.028,1.45-.44.213-.6-.069-.967-.591-1.374l-3.268-2.54c-.226-.176-.777.328-.72.566Z" transform="translate(-168.224 -25.768)" fill="#19538d"/>
        <path id="Trazado_1285964" data-name="Trazado 1285964" d="M171.446,169.182a7.019,7.019,0,1,1-5.854,8.183,6.985,6.985,0,0,1,5.854-8.183m-.007,1.483a5.563,5.563,0,1,0,6.524,4.378,5.55,5.55,0,0,0-6.524-4.378" transform="translate(-130.078 -132.913)" fill="#19538d"/>
        <path id="Trazado_1285965" data-name="Trazado 1285965" d="M235.459,48.344c-1.086.294-.842-1.153-1.684-1.574-.881-.44-1.866.465-2.356-.194a.727.727,0,0,1,.166-.992,2.776,2.776,0,0,1,2.69-.189,2.874,2.874,0,0,1,1.65,2.1.707.707,0,0,1-.466.845" transform="translate(-181.803 -35.477)" fill="#19538d"/>
      </g>
    </g>
  </g>
</svg>
