<svg xmlns="http://www.w3.org/2000/svg" xmlns:xlink="http://www.w3.org/1999/xlink" width="85" height="85" viewBox="0 0 85 85">
  <defs>
    <clipPath id="clip-path">
      <rect id="Rectángulo_468153" data-name="Rectángulo 468153" width="59.411" height="61.505" fill="#12263f"/>
    </clipPath>
  </defs>
  <g id="Grupo_1212968" data-name="Grupo 1212968" transform="translate(-705.629 -1685)">
    <g id="Grupo_1180020" data-name="Grupo 1180020" transform="translate(0 1275)">
      <rect id="Rectángulo_456333" data-name="Rectángulo 456333" width="85" height="85" rx="10" transform="translate(705.629 410)" fill="#fff"/>
    </g>
    <g id="Grupo_1213229" data-name="Grupo 1213229" transform="translate(718.423 1696.748)">
      <g id="Grupo_1213228" data-name="Grupo 1213228" clip-path="url(#clip-path)">
        <path id="Trazado_1286244" data-name="Trazado 1286244" d="M37.007,61.5l-14.743-.016a.86.86,0,0,1-.738-.678.884.884,0,0,1,.569-.955c1.9-.715,2.1-3.839,2.177-6.184L2.8,53.611c-1.7,0-2.806-1.724-2.8-3.3L.014,14.325A3.082,3.082,0,0,1,3,11.2L5.86,11.15,5.889,4.98a5.082,5.082,0,0,1,5.2-4.96L48.16,0a5.347,5.347,0,0,1,5.421,5.577l-.023,5.58,2.872.039a3.1,3.1,0,0,1,2.98,3.245l-.024,36.309A2.982,2.982,0,0,1,56.8,53.589l-21.62.093c.04,2.347.3,5.445,2.165,6.168a.826.826,0,0,1,.588.963.847.847,0,0,1-.931.692M51.835,8.3l.052-3.186c-.054-1.432-1.211-3.359-2.975-3.359H10.525c-1.748,0-2.99,1.927-2.969,3.361L7.6,8.3Zm-.928,31.577a.989.989,0,0,0,.977-1.067L51.876,10H7.554L7.545,38.813A1.013,1.013,0,0,0,8.6,39.877Zm2.663-26.94L53.532,39.2a2.557,2.557,0,0,1-2.306,2.319L8.4,41.531a2.557,2.557,0,0,1-2.515-2.517L5.867,12.9,3.161,12.88a1.577,1.577,0,0,0-1.491,1.578L1.664,43.783l56.07.008,0-29.507a1.529,1.529,0,0,0-1.642-1.4Zm2.783,39.079c.893-.22,1.367-.737,1.369-1.49l.013-5.122H1.685l-.024,4.772a1.665,1.665,0,0,0,1.633,1.841ZM33.63,56.39l-.206-2.732-7.385,0L25.818,56.4Zm1.059,3.378-.758-1.681-8.427,0L24.728,59.8Z" transform="translate(0 0)" fill="#12263f"/>
        <path id="Trazado_1286245" data-name="Trazado 1286245" d="M75.384,147.88l-17.548,0a.916.916,0,0,1-.91-.8V138.3a.875.875,0,0,1,.782-.916l17.751,0a.879.879,0,0,1,.924.924v8.729a.969.969,0,0,1-1,.843m-.693-1.73v-7.107l-16.1,0v7.115Z" transform="translate(-45.98 -110.968)" fill="#12263f"/>
        <path id="Trazado_1286246" data-name="Trazado 1286246" d="M218.172,77.953l-7.379,0a.856.856,0,0,1-.893-.814l-.007-8.772a.88.88,0,0,1,.779-.9l7.5.009a.82.82,0,0,1,.773.856l0,8.66a.95.95,0,0,1-.777.968m-.908-1.713,0-7.12h-5.7v7.114Z" transform="translate(-169.535 -54.488)" fill="#12263f"/>
        <path id="Trazado_1286247" data-name="Trazado 1286247" d="M192.151,161.875l-13.523.024a.852.852,0,1,1,.016-1.694l13.4.008a.851.851,0,0,1,.865.639.834.834,0,0,1-.758,1.023" transform="translate(-143.524 -129.401)" fill="#12263f"/>
        <path id="Trazado_1286248" data-name="Trazado 1286248" d="M192.1,139.009l-13.636,0a.789.789,0,0,1-.745-.86.872.872,0,0,1,.946-.807l13.4.012a.806.806,0,0,1,.885.788.838.838,0,0,1-.849.871" transform="translate(-143.544 -110.931)" fill="#12263f"/>
        <path id="Trazado_1286249" data-name="Trazado 1286249" d="M192.124,184.675l-13.472.031a.9.9,0,0,1-.95-.862.866.866,0,0,1,.949-.864l13.43,0a.869.869,0,0,1,.84.687.833.833,0,0,1-.8,1.005" transform="translate(-143.533 -147.797)" fill="#12263f"/>
        <path id="Trazado_1286250" data-name="Trazado 1286250" d="M150.728,114.847l-10.637.017a.864.864,0,0,1-.84-.869.829.829,0,0,1,.864-.823l10.528-.009a.923.923,0,0,1,.879.711.88.88,0,0,1-.794.972" transform="translate(-112.476 -91.404)" fill="#12263f"/>
        <path id="Trazado_1286251" data-name="Trazado 1286251" d="M105.74,80.517a.908.908,0,0,1-1.151.162.822.822,0,0,1-.175-1.192l2.973-3.079-2.943-2.963a.83.83,0,0,1,.108-1.2.923.923,0,0,1,1.265.215l3.444,3.481a.783.783,0,0,1-.034,1.05Z" transform="translate(-84.189 -58.22)" fill="#12263f"/>
        <path id="Trazado_1286252" data-name="Trazado 1286252" d="M57.118,79.29a.848.848,0,0,1-.076,1.243.834.834,0,0,1-1.17-.1l-3.523-3.576c-.4-.409-.123-.977.2-1.3l3.487-3.431a.84.84,0,0,1,1.141.155.817.817,0,0,1-.079,1.085L54.17,76.293Z" transform="translate(-42.122 -58.129)" fill="#12263f"/>
        <path id="Trazado_1286253" data-name="Trazado 1286253" d="M84.75,77.385a.834.834,0,0,1-.881.667.822.822,0,0,1-.749-.964L84.783,68.3a.824.824,0,0,1,.822-.692c.378-.022.946.317.846.843Z" transform="translate(-67.126 -54.608)" fill="#12263f"/>
        <path id="Trazado_1286254" data-name="Trazado 1286254" d="M147.923,93.154l-7.7.007c-.591,0-.961-.217-1.022-.739a.841.841,0,0,1,.908-.968l7.92.013a.836.836,0,0,1,.8.765.849.849,0,0,1-.909.921" transform="translate(-112.431 -73.869)" fill="#12263f"/>
        <path id="Trazado_1286255" data-name="Trazado 1286255" d="M144.934,250.647l-3.694,0a.788.788,0,0,1-.833-.819c0-.541.374-.867.986-.867h3.471a.858.858,0,0,1,.959.692.816.816,0,0,1-.889,1" transform="translate(-113.41 -201.087)" fill="#12263f"/>
        <path id="Trazado_1286256" data-name="Trazado 1286256" d="M80.173,13.933A2.314,2.314,0,0,1,83.254,15.4a2.358,2.358,0,0,1-4.439,1.579,2.316,2.316,0,0,1,1.358-3.051m.382,1.693a.666.666,0,0,0-.012.974.711.711,0,0,0,.949-.019.774.774,0,0,0,.077-.826.662.662,0,0,0-1.014-.13" transform="translate(-63.516 -11.116)" fill="#12263f"/>
        <path id="Trazado_1286257" data-name="Trazado 1286257" d="M110.138,13.937a2.3,2.3,0,0,1,3.072,1.5,2.35,2.35,0,0,1-4.43,1.558,2.309,2.309,0,0,1,1.358-3.055m.433,1.645a.655.655,0,0,0-.059,1.032.728.728,0,0,0,.946-.03.769.769,0,0,0,.077-.812.68.68,0,0,0-.964-.19" transform="translate(-87.719 -11.125)" fill="#12263f"/>
        <path id="Trazado_1286258" data-name="Trazado 1286258" d="M50.364,13.933a2.335,2.335,0,0,1,3.093,1.451A2.362,2.362,0,0,1,52.081,18.3a2.344,2.344,0,1,1-1.716-4.363m.386,1.7a.664.664,0,0,0-.007.962.759.759,0,0,0,.953,0,.771.771,0,0,0,.079-.872.678.678,0,0,0-1.025-.092" transform="translate(-39.474 -11.114)" fill="#12263f"/>
      </g>
    </g>
  </g>
</svg>
