<svg xmlns="http://www.w3.org/2000/svg" xmlns:xlink="http://www.w3.org/1999/xlink" width="150" height="150" viewBox="0 0 150 150">
  <defs>
    <clipPath id="clip-path">
      <rect id="Rectángulo_456312" data-name="Rectángulo 456312" width="150" height="150" fill="none"/>
    </clipPath>
    <clipPath id="clip-path-3">
      <rect id="Rectángulo_468152" data-name="Rectángulo 468152" width="95" height="87.048" fill="#19538d"/>
    </clipPath>
  </defs>
  <g id="Grupo_1212961" data-name="Grupo 1212961" transform="translate(-307.059 -10093)">
    <g id="Grupo_1179968" data-name="Grupo 1179968" transform="translate(-115 658)">
      <g id="Grupo_1179959" data-name="Grupo 1179959" transform="translate(422.059 9435)" clip-path="url(#clip-path)">
        <path id="Trazado_999654" data-name="Trazado 999654" d="M1.5,5.146H123.437A18.479,18.479,0,0,1,141.96,23.58V144.937H20.022A18.479,18.479,0,0,1,1.5,126.5Z" transform="translate(0.815 2.76)" fill="#fff"/>
      </g>
      <g id="Grupo_1179960" data-name="Grupo 1179960" transform="translate(422.059 9435)">
        <g id="Grupo_1179956" data-name="Grupo 1179956" clip-path="url(#clip-path)">
          <path id="Trazado_999651" data-name="Trazado 999651" d="M94.9,30a7.681,7.681,0,1,1-7.718,7.681A7.7,7.7,0,0,1,94.9,30" transform="translate(47.384 16.085)" fill="#19538d"/>
          <path id="Trazado_999652" data-name="Trazado 999652" d="M65.9,0a7.681,7.681,0,1,1-7.718,7.681A7.7,7.7,0,0,1,65.9,0" transform="translate(31.622 0)" fill="#19538d"/>
          <path id="Trazado_999653" data-name="Trazado 999653" d="M141.96,51.007v93.93H20.022A18.479,18.479,0,0,1,1.5,126.5V5.146H97.75" transform="translate(0.815 2.76)" fill="none" stroke="#19538d" stroke-miterlimit="10" stroke-width="4"/>
        </g>
      </g>
    </g>
    <g id="Grupo_1213226" data-name="Grupo 1213226" transform="translate(334.559 10125.387)">
      <g id="Grupo_1213225" data-name="Grupo 1213225" clip-path="url(#clip-path-3)">
        <path id="Trazado_1286241" data-name="Trazado 1286241" d="M95,79.678a7.2,7.2,0,0,1-7.522,7.368H7.52A7.19,7.19,0,0,1,0,79.68l.023-6.238c.008-2.211,1.95-3.4,4.147-3.172L4.208,14.7A6.84,6.84,0,0,1,11.04,7.972l48.3-.012a4.009,4.009,0,0,0,4.035-2.949,4.3,4.3,0,0,1,4.9-2.858,4.531,4.531,0,0,0,3.963-1.015,4.483,4.483,0,0,1,6,.03,4.174,4.174,0,0,0,3.691,1A4.41,4.41,0,0,1,87.059,5.1,4.464,4.464,0,0,0,89.9,7.907a4.478,4.478,0,0,1,2.887,5.256A4.153,4.153,0,0,0,93.8,16.75a4.448,4.448,0,0,1,.013,5.961c-2.487,2.946.778,6.073-2.989,8.4l0,39.1a5.365,5.365,0,0,1,2.943.749A3.458,3.458,0,0,1,95,73.737ZM82.224,34.6c3.041.53,1.719-3.84,6.444-5.447,2.941-1-.425-4.2,2.93-8.054a1.9,1.9,0,0,0-.017-2.7c-3.357-3.9.088-7.011-2.962-8.046a6.209,6.209,0,0,1-4.007-4c-1.1-3.13-4.2.386-8.014-2.961a2.072,2.072,0,0,0-2.925.064c-3.647,3.174-6.852-.105-7.85,2.829-1.595,4.687-6.146,3.426-5.466,6.533,1.037,4.735-3.628,5.916-1.522,8.335,3.336,3.831-.034,6.864,2.78,7.91A7.225,7.225,0,0,1,65.9,33.376c1.061,2.7,4.144-.508,7.925,2.756,2.386,2.06,3.292-2.423,8.394-1.533M54.258,73.269a3.187,3.187,0,0,1,3.115-2.961l25.076-.028V37.529a3.96,3.96,0,0,0-4.187.781,4.5,4.5,0,0,1-6.083.039c-2.382-1.919-3.683-.525-6.652-1.183a18.018,18.018,0,1,1-9.989-16.134,5.434,5.434,0,0,1,1.306-4.637L48.5,16.307a1.4,1.4,0,0,1-1.456-1.478,1.423,1.423,0,0,1,1.348-1.313l9.179-.009-.028-2.778-46.515.028a4.12,4.12,0,0,0-4.055,4.327l0,55.157a7.75,7.75,0,0,0,2.76-.083L9.723,16.5a2.739,2.739,0,0,1,2.486-2.954l29.617-.038a1.416,1.416,0,0,1,1.494,1.351A1.375,1.375,0,0,1,41.958,16.3l-29.411.034V70.278l25.078.028a3.18,3.18,0,0,1,3.1,2.853l.168,3.32,13.3-.052Zm-.595-33.08a12.649,12.649,0,0,1,5.5,6.676,15.075,15.075,0,0,0,2.76-14.56C58.6,30.827,57.053,29.829,57.7,25.87a15.2,15.2,0,0,0-21.873,21,13.035,13.035,0,0,1,5.518-6.737,9.089,9.089,0,0,1-.959-5.278,7.136,7.136,0,0,1,7.249-7.735,7.312,7.312,0,0,1,7.04,8.039,11.12,11.12,0,0,1-1.016,5.027m-1.736-4.863c-.1-2.151-.478-3.74-2.1-4.761a4.391,4.391,0,0,0-4.846.128c-1.637,1.132-1.792,2.812-1.9,4.777-.154,2.838,1.677,5.408,4.553,5.311,2.747-.092,4.431-2.535,4.293-5.455M85.272,70.171a6.07,6.07,0,0,0,2.768-.007L88,32.868c-1.1,1.549-1.456,2.976-2.746,4.076ZM56.877,49.1a9.647,9.647,0,0,0-5.237-6.861,7.145,7.145,0,0,1-8.283,0,9.325,9.325,0,0,0-5.183,6.918,15.133,15.133,0,0,0,18.7-.058m.317,23.956-.13,3.084a3.182,3.182,0,0,1-3.1,3.139l-12.937,0a3.17,3.17,0,0,1-3.087-3.129l-.056-3.067L2.863,73.062l-.07,6.9a4.207,4.207,0,0,0,4.392,4.267l80.924-.019a4.072,4.072,0,0,0,4.07-3.969l.018-7.147Z" transform="translate(0 0)" fill="#19538d"/>
        <path id="Trazado_1286242" data-name="Trazado 1286242" d="M130.508,202.654a7.4,7.4,0,0,0,.07-3.72l-32.936,0a8.839,8.839,0,0,0,.006,3.67c4.355.594,9.742-.942,9.525,1.462a1.435,1.435,0,0,1-1.369,1.375l-8.309-.062a3.041,3.041,0,0,1-2.753-2.859l-.012-3.334a3.02,3.02,0,0,1,3.079-3.019l32.306-.019a3.109,3.109,0,0,1,3.379,3.056l-.017,3.329a3.082,3.082,0,0,1-2.764,2.856l-18.364.053a1.518,1.518,0,0,1-1.413-1.12c-.129-.427.131-1.534.843-1.539Z" transform="translate(-66.613 -137.928)" fill="#19538d"/>
        <path id="Trazado_1286243" data-name="Trazado 1286243" d="M225.134,55.558l-4.37-4.351a1.369,1.369,0,0,1,2.069-1.781l3.639,3.636,11.171-11.14a1.445,1.445,0,0,1,1.987.047,1.428,1.428,0,0,1-.188,2.041l-11.429,11.4a2.08,2.08,0,0,1-2.879.15" transform="translate(-155.043 -29.217)" fill="#19538d"/>
      </g>
    </g>
  </g>
</svg>
