<svg xmlns="http://www.w3.org/2000/svg" xmlns:xlink="http://www.w3.org/1999/xlink" width="150" height="150" viewBox="0 0 150 150">
  <defs>
    <clipPath id="clip-path">
      <rect id="Rectángulo_456312" data-name="Rectángulo 456312" width="150" height="150" fill="none"/>
    </clipPath>
    <clipPath id="clip-path-3">
      <rect id="Rectángulo_468151" data-name="Rectángulo 468151" width="85.903" height="98.159" fill="#19538d"/>
    </clipPath>
  </defs>
  <g id="Grupo_1212962" data-name="Grupo 1212962" transform="translate(-307.059 -10093)">
    <g id="Grupo_1179968" data-name="Grupo 1179968" transform="translate(-115 658)">
      <g id="Grupo_1179959" data-name="Grupo 1179959" transform="translate(422.059 9435)" clip-path="url(#clip-path)">
        <path id="Trazado_999654" data-name="Trazado 999654" d="M1.5,5.146H123.437A18.479,18.479,0,0,1,141.96,23.58V144.937H20.022A18.479,18.479,0,0,1,1.5,126.5Z" transform="translate(0.815 2.76)" fill="#fff"/>
      </g>
      <g id="Grupo_1179960" data-name="Grupo 1179960" transform="translate(422.059 9435)">
        <g id="Grupo_1179956" data-name="Grupo 1179956" clip-path="url(#clip-path)">
          <path id="Trazado_999651" data-name="Trazado 999651" d="M94.9,30a7.681,7.681,0,1,1-7.718,7.681A7.7,7.7,0,0,1,94.9,30" transform="translate(47.384 16.085)" fill="#19538d"/>
          <path id="Trazado_999652" data-name="Trazado 999652" d="M65.9,0a7.681,7.681,0,1,1-7.718,7.681A7.7,7.7,0,0,1,65.9,0" transform="translate(31.622 0)" fill="#19538d"/>
          <path id="Trazado_999653" data-name="Trazado 999653" d="M141.96,51.007v93.93H20.022A18.479,18.479,0,0,1,1.5,126.5V5.146H97.75" transform="translate(0.815 2.76)" fill="none" stroke="#19538d" stroke-miterlimit="10" stroke-width="4"/>
        </g>
      </g>
    </g>
    <g id="Grupo_1213227" data-name="Grupo 1213227" transform="translate(339.107 10121.92)">
      <g id="Grupo_1213223" data-name="Grupo 1213223" clip-path="url(#clip-path-3)">
        <path id="Trazado_1286235" data-name="Trazado 1286235" d="M62.2,98.159l-38.964-.041a4.955,4.955,0,0,1-4.72-4.7c-.173-2.511,1.709-5.154,4.377-5.225l5.564-.149a33.279,33.279,0,0,0,2.332-11.629L7.024,76.33C2.908,76.316,0,72.8,0,68.757L.048,21.079a7.345,7.345,0,0,1,7.559-7.132l9.158,0,.053-9.834C16.826,2.583,18.153.091,20.1.087L65.812,0a4.261,4.261,0,0,1,3.24,3.88l.1,10.059,11.028.039A5.73,5.73,0,0,1,85.9,19.509l-.028,49.565c0,3.766-2.9,7.193-6.7,7.215l-24.234.136a32.659,32.659,0,0,0,2.494,11.612l5.581.154c2.675.074,4.561,2.758,4.376,5.214A5.043,5.043,0,0,1,62.2,98.159M49.673,33.475l10.364-.082a11.158,11.158,0,0,1,6.278-4.918L66.293,4.2a1.45,1.45,0,0,0-1.484-1.492H21.1a1.451,1.451,0,0,0-1.486,1.5l0,27.648a1.582,1.582,0,0,0,1.736,1.571l16.846-.022a1.3,1.3,0,0,1,1.449,1.141A12.544,12.544,0,0,0,49.655,45.891c-2.085-4.038-1.863-12.4.018-12.416m1.48,2.842a14,14,0,0,0,2.579,10.9,1.433,1.433,0,0,1-1.513,2.107c-7.837-1.113-13.654-5.273-15.18-13.147l-16.172-.04A4.246,4.246,0,0,1,16.8,31.888l-.034-15.12-9.446,0a4.5,4.5,0,0,0-4.487,4l.006,40.955,80.234,0,0-42.513a2.962,2.962,0,0,0-2.89-2.445L69.1,16.806,69.173,28.1a10.614,10.614,0,1,1-10.328,8.123Zm16.6-5.244a7.8,7.8,0,1,0,9.111,6.192,7.774,7.774,0,0,0-9.111-6.192M78.389,73.629c2.642-.08,4.654-1.865,4.645-4.206l-.017-4.887H2.89L2.87,69.419c-.01,2.506,2.242,4.215,4.817,4.215Zm-24,14.485a37.818,37.818,0,0,1-2.244-11.731l-18.571.063a38.718,38.718,0,0,1-2.1,11.677Zm7.983,7.31a2.229,2.229,0,0,0,2.189-2.043c.107-.847-.386-2.366-1.641-2.365l-39.946.01c-1.36,0-1.822,1.7-1.6,2.616a2.308,2.308,0,0,0,2.275,1.8Z" transform="translate(0)" fill="#19538d"/>
        <path id="Trazado_1286236" data-name="Trazado 1286236" d="M114.245,28.441l-30.5,0a1.409,1.409,0,1,1-.193-2.808h30.88a1.407,1.407,0,0,1,1.366,1.311,1.383,1.383,0,0,1-1.552,1.494" transform="translate(-56.04 -17.481)" fill="#19538d"/>
        <path id="Trazado_1286237" data-name="Trazado 1286237" d="M114.254,55.194H83.786a1.415,1.415,0,1,1,0-2.814h30.46a1.414,1.414,0,1,1,0,2.813" transform="translate(-56.066 -35.717)" fill="#19538d"/>
        <path id="Trazado_1286238" data-name="Trazado 1286238" d="M114.367,82.04l-30.57.014a1.583,1.583,0,0,1-1.54-1.165c-.124-.457.12-1.64.924-1.64l31.677-.012c.717,0,.977,1,.954,1.413a1.471,1.471,0,0,1-1.445,1.391" transform="translate(-56.068 -54.029)" fill="#19538d"/>
        <path id="Trazado_1286239" data-name="Trazado 1286239" d="M128.235,215.534h-6.379a1.392,1.392,0,1,1-.007-2.78h6.392a1.359,1.359,0,0,1,1.456,1.289,1.376,1.376,0,0,1-1.461,1.49" transform="translate(-82.091 -145.071)" fill="#19538d"/>
        <path id="Trazado_1286240" data-name="Trazado 1286240" d="M201.879,116.276l-2.686-3.176a1.511,1.511,0,0,1,.17-2.188,1.492,1.492,0,0,1,1.986.356l1.821,2.126c2.3-2.244,4.759-6.325,6.241-4.613a1.462,1.462,0,0,1,.067,1.864c-1.5,1.854-5.571,6.07-6.079,6.191a1.521,1.521,0,0,1-1.52-.561" transform="translate(-135.56 -73.896)" fill="#19538d"/>
      </g>
    </g>
  </g>
</svg>
