<svg xmlns="http://www.w3.org/2000/svg" xmlns:xlink="http://www.w3.org/1999/xlink" width="150" height="150" viewBox="0 0 150 150">
  <defs>
    <clipPath id="clip-path">
      <rect id="Rectángulo_456312" data-name="Rectángulo 456312" width="150" height="150" fill="none"/>
    </clipPath>
    <clipPath id="clip-path-3">
      <rect id="Rectángulo_468150" data-name="Rectángulo 468150" width="96.04" height="87.526" fill="#19538d"/>
    </clipPath>
  </defs>
  <g id="Grupo_1212960" data-name="Grupo 1212960" transform="translate(-307.059 -10093)">
    <g id="Grupo_1179968" data-name="Grupo 1179968" transform="translate(-115 658)">
      <g id="Grupo_1179959" data-name="Grupo 1179959" transform="translate(422.059 9435)" clip-path="url(#clip-path)">
        <path id="Trazado_999654" data-name="Trazado 999654" d="M1.5,5.146H123.437A18.479,18.479,0,0,1,141.96,23.58V144.937H20.022A18.479,18.479,0,0,1,1.5,126.5Z" transform="translate(0.815 2.76)" fill="#fff"/>
      </g>
      <g id="Grupo_1179960" data-name="Grupo 1179960" transform="translate(422.059 9435)">
        <g id="Grupo_1179956" data-name="Grupo 1179956" clip-path="url(#clip-path)">
          <path id="Trazado_999651" data-name="Trazado 999651" d="M94.9,30a7.681,7.681,0,1,1-7.718,7.681A7.7,7.7,0,0,1,94.9,30" transform="translate(47.384 16.085)" fill="#19538d"/>
          <path id="Trazado_999652" data-name="Trazado 999652" d="M65.9,0a7.681,7.681,0,1,1-7.718,7.681A7.7,7.7,0,0,1,65.9,0" transform="translate(31.622 0)" fill="#19538d"/>
          <path id="Trazado_999653" data-name="Trazado 999653" d="M141.96,51.007v93.93H20.022A18.479,18.479,0,0,1,1.5,126.5V5.146H97.75" transform="translate(0.815 2.76)" fill="none" stroke="#19538d" stroke-miterlimit="10" stroke-width="4"/>
        </g>
      </g>
    </g>
    <g id="Grupo_1213222" data-name="Grupo 1213222" transform="translate(334.039 10124.237)">
      <g id="Grupo_1213221" data-name="Grupo 1213221" clip-path="url(#clip-path-3)">
        <path id="Trazado_1286225" data-name="Trazado 1286225" d="M81.138,85.99a1.449,1.449,0,0,1-1.561,1.534l-63.113,0a1.419,1.419,0,0,1-1.547-1.4l.069-5.8a6.706,6.706,0,0,1,6.464-5.5l10.391-.117-.033-8.236-22.816.006A8.752,8.752,0,0,1,0,57.661V8.715C0,4.318,3.407,0,8.084,0H87.957c4.681,0,8.082,4.31,8.082,8.716V57.658a8.738,8.738,0,0,1-8.995,8.818H64.233L64.2,74.709l10.385.119a6.721,6.721,0,0,1,6.472,5.5ZM92.914,57.815,92.946,8.73c0-2.69-2.034-5.644-4.989-5.644H8.086c-2.956,0-4.993,2.952-4.991,5.643l.039,49.223a5.5,5.5,0,0,0,5.579,5.41H87.326a5.5,5.5,0,0,0,5.588-5.547M61.09,74.717l-.016-8.25-26.139.012.033,8.259Zm16.918,9.7a11.448,11.448,0,0,0-.125-4.035,4.151,4.151,0,0,0-3.907-2.535l-51.908,0a4.15,4.15,0,0,0-3.911,2.53,11.43,11.43,0,0,0-.123,4.035Z" fill="#19538d"/>
        <path id="Trazado_1286226" data-name="Trazado 1286226" d="M101.939,67.623H20.772a1.484,1.484,0,0,1-1.529-1.47l-.008-44.188c0-1.2.688-2.817,2.161-2.817h79.8c1.419,0,2.195,1.62,2.194,2.82l0,43.907a1.569,1.569,0,0,1-1.451,1.749m-1.686-3.118V22.22H22.337l.02,42.3Z" transform="translate(-13.275 -13.215)" fill="#19538d"/>
        <path id="Trazado_1286227" data-name="Trazado 1286227" d="M153.108,40.238c.006,1.156-.615,1.731-1.4,1.79a1.5,1.5,0,0,1-1.694-1.641l.009-4.623a1.533,1.533,0,1,1,3.065,0Z" transform="translate(-103.535 -23.624)" fill="#19538d"/>
        <path id="Trazado_1286228" data-name="Trazado 1286228" d="M99.7,93.443c.849,2.326-2.9,2.182-6.724,1.856-.816-.07-1.036-1.035-.968-1.6a1.54,1.54,0,0,1,1.544-1.378l4.629,0a1.637,1.637,0,0,1,1.518,1.13" transform="translate(-63.496 -63.712)" fill="#19538d"/>
        <path id="Trazado_1286229" data-name="Trazado 1286229" d="M199.847,95.194a23.514,23.514,0,0,1-5.906.061c-.757-.064-1.054-1.082-.983-1.607a1.584,1.584,0,0,1,1.559-1.378l4.338-.02a1.771,1.771,0,0,1,1.71.919c.275.53.225,1.867-.718,2.025" transform="translate(-133.167 -63.668)" fill="#19538d"/>
        <path id="Trazado_1286230" data-name="Trazado 1286230" d="M111.538,128.659a1.613,1.613,0,0,1-2.144.039,1.525,1.525,0,0,1-.111-2.131l3.4-3.427a1.5,1.5,0,0,1,2.1-.132,1.572,1.572,0,0,1,.075,2.318Z" transform="translate(-75.159 -84.643)" fill="#19538d"/>
        <path id="Trazado_1286231" data-name="Trazado 1286231" d="M186.168,126.315a1.679,1.679,0,0,1,.377,2.066,1.511,1.511,0,0,1-2.151.466l-3.584-3.511a1.589,1.589,0,0,1-.087-2.164,1.518,1.518,0,0,1,2.265-.021Z" transform="translate(-124.465 -84.653)" fill="#19538d"/>
        <path id="Trazado_1286232" data-name="Trazado 1286232" d="M114.722,54.933a1.621,1.621,0,0,1,.266,2.244,1.5,1.5,0,0,1-2.209.163l-3.405-3.388a1.56,1.56,0,0,1,.1-2.28,1.611,1.611,0,0,1,2.24.243Z" transform="translate(-75.176 -35.422)" fill="#19538d"/>
        <path id="Trazado_1286233" data-name="Trazado 1286233" d="M183.029,57.272a1.508,1.508,0,0,1-2.3-.1,1.573,1.573,0,0,1,.19-2.154l3.09-3.106a1.607,1.607,0,0,1,2.238-.244,1.56,1.56,0,0,1,.1,2.281Z" transform="translate(-124.501 -35.422)" fill="#19538d"/>
        <path id="Trazado_1286234" data-name="Trazado 1286234" d="M153.109,141.232c.006,1.159-.615,1.711-1.4,1.768a1.488,1.488,0,0,1-1.692-1.618l.012-4.625a1.569,1.569,0,0,1,1.4-1.531,1.546,1.546,0,0,1,1.659,1.532Z" transform="translate(-103.536 -93.325)" fill="#19538d"/>
      </g>
    </g>
  </g>
</svg>
