<svg xmlns="http://www.w3.org/2000/svg" xmlns:xlink="http://www.w3.org/1999/xlink" width="85" height="85" viewBox="0 0 85 85">
  <defs>
    <clipPath id="clip-path">
      <rect id="Rectángulo_468139" data-name="Rectángulo 468139" width="59.059" height="60.87" fill="#12263f"/>
    </clipPath>
  </defs>
  <g id="Grupo_1212808" data-name="Grupo 1212808" transform="translate(-705.629 -410)">
    <g id="Grupo_1180019" data-name="Grupo 1180019">
      <g id="Grupo_1180023" data-name="Grupo 1180023">
        <rect id="Rectángulo_456333" data-name="Rectángulo 456333" width="85" height="85" rx="10" transform="translate(705.629 410)" fill="#68eae0"/>
        <g id="Grupo_1213200" data-name="Grupo 1213200" transform="translate(713.502 411)">
          <g id="Grupo_1213199" data-name="Grupo 1213199" transform="translate(5 11)" clip-path="url(#clip-path)">
            <path id="Trazado_1286153" data-name="Trazado 1286153" d="M169.894,126.768a2.178,2.178,0,0,1-2.256-1.947,14.855,14.855,0,0,1,.1-3.872c.275-1.343,1.746-1.845,3.19-1.544l.11-9a6.621,6.621,0,0,1,2.8-5.208,46.028,46.028,0,0,0,5.69-5.243,3.949,3.949,0,0,1,2.9-1.52,3.873,3.873,0,0,1,2.984,1.407L185.4,88.85a11.177,11.177,0,0,1,.695-4.217,3.7,3.7,0,0,1,3.982-2.482,3.778,3.778,0,0,1,3.248,3.765l.526,18.166a6.791,6.791,0,0,1-1.727,5.142l-8.473,8.533a1.571,1.571,0,0,0-.011,1.743c1.481-.3,3.144.24,3.341,1.81L186.969,125c0,1.249-1.344,1.928-2.506,1.916Zm4.787-19.654a4.365,4.365,0,0,0-1.7,3.465l-.046,8.767,8.562.052a9.5,9.5,0,0,1,.088-2.354l8.513-8.476a5.732,5.732,0,0,0,1.81-4.5l-.6-18.537a1.668,1.668,0,0,0-1.649-1.418c-1.7-.1-2.274,2.2-2.273,4.341l.007,10.751a6.487,6.487,0,0,1-1.563,4.108,46.863,46.863,0,0,1-5.2,5.352.965.965,0,0,1-1.45-.342,1.089,1.089,0,0,1,.277-1.249,55.145,55.145,0,0,0,4.161-4.213,1.458,1.458,0,0,0-.089-2.074,1.561,1.561,0,0,0-2.033-.019,41.139,41.139,0,0,1-3.615,3.579Zm10.374,17.8,0-3.466-15.412-.162a15.715,15.715,0,0,0-.011,3.526Z" transform="translate(-134.797 -66.047)" fill="#12263f"/>
            <path id="Trazado_1286154" data-name="Trazado 1286154" d="M26.218,124.834a2.17,2.17,0,0,1-2.171,1.936l-14.655.156c-1.162.012-2.5-.669-2.507-1.916l-.011-3.692c0-1.575,1.858-2.094,3.342-1.822a1.582,1.582,0,0,0,.069-1.628l-8.556-8.64A6.619,6.619,0,0,1,0,104.285L.591,85.344A3.393,3.393,0,0,1,2.36,82.683a3.573,3.573,0,0,1,3.456-.228c2.207,1.092,2.644,4.021,2.64,6.6l-.012,10.8a3.872,3.872,0,0,1,2.985-1.406,3.952,3.952,0,0,1,2.9,1.517,46.334,46.334,0,0,0,5.688,5.244,6.619,6.619,0,0,1,2.8,5.207l.111,9.012c1.435-.32,2.912.2,3.189,1.533a14.909,14.909,0,0,1,.1,3.878M15.872,104.268a40.1,40.1,0,0,1-3.515-3.489,1.553,1.553,0,0,0-2.132.119,1.464,1.464,0,0,0,.014,1.974,54.4,54.4,0,0,0,4.162,4.211,1.044,1.044,0,0,1,.111,1.483,1.028,1.028,0,0,1-1.505-.074,50.968,50.968,0,0,1-4.984-5.161,6.927,6.927,0,0,1-1.581-4.515l-.016-11.3a4.816,4.816,0,0,0-.9-2.809A1.573,1.573,0,0,0,3.7,84.221,1.588,1.588,0,0,0,2.54,85.544l-.577,18.543A5.19,5.19,0,0,0,3.3,108.061l8.971,9a8.778,8.778,0,0,1,.1,2.35l8.562-.056-.046-8.766a4.406,4.406,0,0,0-1.754-3.509Zm8.377,20.551a18.323,18.323,0,0,0-.033-3.521L8.8,121.462l.016,3.487Z" transform="translate(0.001 -66.055)" fill="#12263f"/>
            <path id="Trazado_1286155" data-name="Trazado 1286155" d="M115.881,81.617l-16.548.01c-1,0-2.3-.643-2.3-1.787l-.042-13.865A2.267,2.267,0,0,1,99.7,63.859l.032-1.806a7.82,7.82,0,0,1,15.638-.2l.05,2.007c1.208-.136,2.675.558,2.674,1.931l-.012,14.048c0,1.035-1.176,1.776-2.2,1.776m-3.661-18.68c-.066.5.02.887.31.927.265.037.781.055.855-.154a5.344,5.344,0,0,0-.006-.85,5.886,5.886,0,1,0-11.649.01c.029.249-.171.811.079.936a1.448,1.448,0,0,0,.936,0c.192-.1.164-.673.133-.931a4.752,4.752,0,1,1,9.343.065m-1.937.9V61.864a2.69,2.69,0,0,0-2.628-2.611,2.625,2.625,0,0,0-2.8,2.435l-.019,2.148Zm5.9,15.821-.023-13.832h-17.2l-.017,13.847Z" transform="translate(-78.024 -43.572)" fill="#12263f"/>
            <path id="Trazado_1286156" data-name="Trazado 1286156" d="M52.44,28.87a1.627,1.627,0,0,0,1.631,1.691l3.52.009a.952.952,0,0,1,.992.871.962.962,0,0,1-.992,1.086H53.879a3.58,3.58,0,0,1-3.433-3.773l0-20.479c0-1.767,1.2-3.65,3.064-3.668l8.566-.083A3.92,3.92,0,0,1,64.835,6.3l2.553,4.34,9.682.046a.976.976,0,0,1,.893.987.961.961,0,0,1-1.024.95l-24.507,0ZM65.023,10.633,63.2,7.337a2.256,2.256,0,0,0-1.688-.85l-7.435.006a1.563,1.563,0,0,0-1.624,1.556l.021,2.616Z" transform="translate(-40.582 -3.639)" fill="#12263f"/>
            <path id="Trazado_1286157" data-name="Trazado 1286157" d="M204.71,22.224l1.028,1.139a2.069,2.069,0,0,1,.047,1.868,26.73,26.73,0,0,1-3.169,3.476.928.928,0,0,1-1.356-.289l-2.944-3.186-.01-12.484a6.937,6.937,0,1,1,7.609-.048l-.048,5.335-1.162,1.183c.455.441,1.118.8,1.179,1.435.065.663-.556,1.09-1.176,1.569m-2.46-.066c.1-.739,1.1-1.146,1.084-1.414s-1.118-.755-1.091-1.563c.033-.972,1.635-1.468,1.647-2.065l.12-5.561a5.053,5.053,0,0,0,2.958-5.572,4.964,4.964,0,1,0-7.319,5.258,1.1,1.1,0,0,1,.62,1l0,12.248,1.857,1.98L204,24.374c-.738-.952-1.88-1.29-1.754-2.215" transform="translate(-157.007 0)" fill="#12263f"/>
            <path id="Trazado_1286158" data-name="Trazado 1286158" d="M182.108,286.5a1.07,1.07,0,0,1,1.532.368,1.144,1.144,0,0,1-.319,1.426,1.093,1.093,0,0,1-1.368-.145,1.06,1.06,0,0,1,.155-1.648" transform="translate(-146.117 -230.339)" fill="#12263f"/>
            <path id="Trazado_1286159" data-name="Trazado 1286159" d="M110.009,286.472a1.043,1.043,0,0,1,1.5.406,1.067,1.067,0,0,1-.559,1.488,1.016,1.016,0,0,1-1.287-.383,1.07,1.07,0,0,1,.346-1.511" transform="translate(-88.081 -230.329)" fill="#12263f"/>
            <path id="Trazado_1286160" data-name="Trazado 1286160" d="M139.237,129.081a2.266,2.266,0,0,1-2.344,2.276,2.305,2.305,0,0,1-2.171-2.368l0-3.1a3.432,3.432,0,0,1-.131-5,3.378,3.378,0,0,1,4.792,0,3.434,3.434,0,0,1-.126,5Zm-2.263.44c.552-1.6-.149-3.267.518-4.694.462-.553,1.226-1.026.88-1.949a1.548,1.548,0,0,0-1.467-1.027,1.569,1.569,0,0,0-1.36,1.2c-.245.874.551,1.228.918,1.779.695,1.452-.025,3.156.512,4.692" transform="translate(-107.452 -96.455)" fill="#12263f"/>
            <path id="Trazado_1286161" data-name="Trazado 1286161" d="M219.01,14.084a2.736,2.736,0,0,1,.842,5.4,2.737,2.737,0,1,1-.842-5.4m-.189,2.142a.792.792,0,0,0,0,1.163.827.827,0,0,0,1.088-.073.724.724,0,0,0,.1-.905.783.783,0,0,0-1.182-.185" transform="translate(-174.243 -11.312)" fill="#12263f"/>
          </g>
        </g>
      </g>
    </g>
  </g>
</svg>
