<svg xmlns="http://www.w3.org/2000/svg" xmlns:xlink="http://www.w3.org/1999/xlink" width="150" height="150" viewBox="0 0 150 150">
  <defs>
    <clipPath id="clip-path">
      <rect id="Rectángulo_456267" data-name="Rectángulo 456267" width="150" height="150" fill="none"/>
    </clipPath>
    <clipPath id="clip-path-2">
      <rect id="Rectángulo_468154" data-name="Rectángulo 468154" width="83.09" height="83.174" fill="#19538d"/>
    </clipPath>
  </defs>
  <g id="Grupo_1212969" data-name="Grupo 1212969" transform="translate(533.746 8549) rotate(180)">
    <path id="Trazado_999622" data-name="Trazado 999622" d="M70.07,0A70.07,70.07,0,1,1,0,70.07,70.071,70.071,0,0,1,70.07,0" transform="translate(388.676 8403.93)" fill="#e1f5ff"/>
    <g id="Grupo_1179902" data-name="Grupo 1179902" transform="translate(383.746 8399)">
      <g id="Grupo_1179905" data-name="Grupo 1179905" clip-path="url(#clip-path)">
        <path id="Trazado_999618" data-name="Trazado 999618" d="M75,0A75,75,0,1,1,0,75,75,75,0,0,1,75,0" fill="none"/>
        <path id="Trazado_999619" data-name="Trazado 999619" d="M5.859,59A5.859,5.859,0,1,1,0,64.859,5.86,5.86,0,0,1,5.859,59" transform="translate(0 10.141)" fill="#19538d"/>
        <path id="Trazado_999620" data-name="Trazado 999620" d="M21.859,19A5.859,5.859,0,1,1,16,24.859,5.86,5.86,0,0,1,21.859,19" transform="translate(2.75 3.266)" fill="#19538d"/>
        <path id="Trazado_999621" data-name="Trazado 999621" d="M74.313,144.625A70.392,70.392,0,0,1,4,74.313H7.516A66.8,66.8,0,1,0,25.572,28.638l-2.564-2.4a70.312,70.312,0,1,1,51.3,118.392" transform="translate(0.688 0.688)" fill="#19538d"/>
        <rect id="Rectángulo_456268" data-name="Rectángulo 456268" width="150" height="150" fill="none"/>
        <rect id="Rectángulo_456269" data-name="Rectángulo 456269" width="150" height="150" fill="none"/>
      </g>
    </g>
    <g id="Grupo_1213231" data-name="Grupo 1213231" transform="translate(500.291 8517.587) rotate(180)">
      <g id="Grupo_1213230" data-name="Grupo 1213230" clip-path="url(#clip-path-2)">
        <path id="Trazado_1286259" data-name="Trazado 1286259" d="M59.318,79.974a3.111,3.111,0,0,1-3.115,3.2l-29.312,0a3.188,3.188,0,0,1-3.13-3.36l.009-4.6a3.1,3.1,0,0,1,3.037-3.19l4.485-.047V66.17L6.446,66.153A6.3,6.3,0,0,1,0,59.934L0,19.259a6.456,6.456,0,0,1,6.525-6.282,5.8,5.8,0,0,1,.464-1.133c.563-.676,2.878-.129,3.309-1.048.5-1.056-2.508-2.058-1.461-3.645a15.829,15.829,0,0,1,4.777-4.594C15.259,1.507,16.07,4.415,17.2,4.2c1.411-.267.064-3.5,1.935-3.89A15.743,15.743,0,0,1,25.58.356C27.727.8,25.9,3.338,27.2,4.178c.5.323,1.347-.386,1.626-.86,1.337-2.277,4.5,1.12,6.346,3.793,1.491,2.162-1.844,2.753-1.411,4.09.351,1.085,3.111-.378,3.6,1.82l39.547.054a6.209,6.209,0,0,1,6.18,6.18l0,40.675c0,3.761-3.158,6.26-6.71,6.257L51.8,66.161v5.831l4.486.036a3.1,3.1,0,0,1,3.033,3.189Zm-35.9-50.816a3.992,3.992,0,0,1,1.992-3.537,3.887,3.887,0,0,1,4.378,1.14,8.683,8.683,0,0,0,2.64-2.349,3.86,3.86,0,0,1-.8-4.91c.771-1.134,2.14-1.4,3.466-1.595a9.039,9.039,0,0,0,.212-3.489,3.787,3.787,0,0,1-3.682-2.028,3.611,3.611,0,0,1,1.2-4.174,6.178,6.178,0,0,0-2.409-2.681A3.634,3.634,0,0,1,26.07,6.569a4.085,4.085,0,0,1-1.784-3.794,9.43,9.43,0,0,0-3.508-.021,4.84,4.84,0,0,1-1.435,3.37c-1.609,1.308-3.65.715-5.06-.78a10.184,10.184,0,0,0-2.558,2.378c.934,1.113,1.723,2.44,1.263,3.853A3.781,3.781,0,0,1,8.949,13.9a7.275,7.275,0,0,0,.062,3.568c1.635.113,3.248.835,3.73,2.39a4.021,4.021,0,0,1-1.288,3.912,6.567,6.567,0,0,0,2.426,2.572c1.1-1.146,2.82-1.833,4.147-1.027,1.369.831,1.7,2.473,1.9,3.944a6.38,6.38,0,0,0,3.495-.1m.6,2.587a14.238,14.238,0,0,1-5.426-.011c-2.492-.352-.416-3.45-1.969-3.94-1.064-.336-1.864,2.437-3.4,1.549A14.519,14.519,0,0,1,8.7,24.753c-1.124-1.626.941-2.055,1.732-3.879-1.435-1.179-3.747-.12-3.891-2l-.249-3.259A3.848,3.848,0,0,0,2.572,19.53l.01,36.15H80.518l-.057-36.668c0-2.164-2.171-3.5-4.093-3.313l-38.808-.02c-.136,1.932-.083,4.07-1,4.609-.768.452-2.653-.4-3.234.635-.643,1.141,1.549,1.881,1.707,3.054.167,1.239-3.423,4.893-5.617,5.573-1.22-.058-2.185-2.441-3.153-1.842-1.193.738.492,3.375-2.248,4.04M77.31,63.438c2.561-.008,3.662-3.059,3.086-5.122L2.7,58.3a4.428,4.428,0,0,0,.778,3.9A3.948,3.948,0,0,0,6.75,63.549l44.158-.031Zm-28.083,8.51.01-5.789-15.381.006.08,5.824Zm7.47,8.6V74.671l-30.261.009a26.99,26.99,0,0,0,.066,5.911Z" transform="translate(0 0)" fill="#19538d"/>
        <path id="Trazado_1286260" data-name="Trazado 1286260" d="M185.318,106.438l-27.677.049a4.479,4.479,0,0,1-4.559-4.5l.025-23.821a4.3,4.3,0,0,1,4.277-4.271l28.088,0a4.308,4.308,0,0,1,4.226,4.276l0,23.8a4.472,4.472,0,0,1-4.383,4.467m1.769-23.833.049-3.908c.02-1.551-1.039-2.218-2.46-2.216l-27.036.033a1.879,1.879,0,0,0-1.945,1.894l-.011,4.19ZM185.066,103.9a2.106,2.106,0,0,0,2.058-2.179l.006-16.531-31.444,0-.019,16.548a2.133,2.133,0,0,0,2.246,2.17Z" transform="translate(-112.061 -54.094)" fill="#19538d"/>
        <path id="Trazado_1286261" data-name="Trazado 1286261" d="M49.062,164.888l-21.488.04a5.443,5.443,0,0,1-5.345-5.646,5.521,5.521,0,0,1,5.582-5.494l20.613-.009a5.519,5.519,0,0,1,5.728,5.24c.171,2.8-1.8,5.862-5.089,5.869m-.228-2.567a3.008,3.008,0,0,0,2.729-3.016,2.947,2.947,0,0,0-2.858-2.867l-21.165.016a2.893,2.893,0,0,0-2.686,3.061,3.015,3.015,0,0,0,2.967,2.845Z" transform="translate(-16.271 -112.571)" fill="#19538d"/>
        <path id="Trazado_1286262" data-name="Trazado 1286262" d="M149.4,224.142c.048,1.691-2.448,1.618-5.293,1.359a1.249,1.249,0,0,1-1.2-1.118c-.069-.515.162-1.375.872-1.376l4.74-.008c.636,0,.871.728.883,1.143" transform="translate(-104.605 -163.242)" fill="#19538d"/>
        <path id="Trazado_1286263" data-name="Trazado 1286263" d="M56.5,27.992a8.693,8.693,0,1,1-6.982,10.193A8.649,8.649,0,0,1,56.5,27.992m-.011,2.677a6.049,6.049,0,0,0-4.307,7.5,6.1,6.1,0,0,0,11.823-2.98,6.012,6.012,0,0,0-7.517-4.517" transform="translate(-36.134 -20.388)" fill="#19538d"/>
        <path id="Trazado_1286264" data-name="Trazado 1286264" d="M213.809,138.272a1.459,1.459,0,0,1-1.657.963,1.308,1.308,0,0,1-.888-1.732l2.758-10.1c.176-.644.985-.816,1.53-.725a1.238,1.238,0,0,1,.859,1.528Z" transform="translate(-154.606 -92.717)" fill="#19538d"/>
        <path id="Trazado_1286265" data-name="Trazado 1286265" d="M190.576,139a1.358,1.358,0,0,1,.078,1.827,1.3,1.3,0,0,1-1.826.061l-3.875-3.9a1.406,1.406,0,0,1,.27-2l3.739-3.5a1.261,1.261,0,0,1,1.534-.174c.514.287.979,1.131.465,1.653l-3.151,3.2Z" transform="translate(-135.159 -95.997)" fill="#19538d"/>
        <path id="Trazado_1286266" data-name="Trazado 1286266" d="M235.781,140.957a1.257,1.257,0,0,1-1.807-1.682l3-3.072-3.011-2.985a1.28,1.28,0,0,1,.218-1.866,1.387,1.387,0,0,1,1.761.176l4.006,4c.6.6-.077,1.476-.542,1.925Z" transform="translate(-171.038 -95.981)" fill="#19538d"/>
        <path id="Trazado_1286267" data-name="Trazado 1286267" d="M185.375,92.791l-14.316.066a1.308,1.308,0,0,1-1.448-1.255,1.217,1.217,0,0,1,1.293-1.341l14.2.015a1.178,1.178,0,0,1,1.112,1.1c.038.389-.107,1.413-.842,1.416" transform="translate(-124.158 -66.074)" fill="#19538d"/>
        <path id="Trazado_1286268" data-name="Trazado 1286268" d="M240.46,92.488a3.918,3.918,0,0,1-2.932-.036c-.667-.344-.572-1.392-.254-1.811.582-.768,2.9-.784,3.535.009a1.232,1.232,0,0,1-.349,1.838" transform="translate(-173.513 -65.926)" fill="#19538d"/>
        <path id="Trazado_1286269" data-name="Trazado 1286269" d="M260.947,90.286a1.293,1.293,0,0,1,.792,1.665c-.269.937-1.168.825-2.009.844-.936.021-1.739-.126-1.93-1.016a1.308,1.308,0,0,1,1.277-1.576,5.5,5.5,0,0,1,1.87.083" transform="translate(-188.696 -66.002)" fill="#19538d"/>
        <path id="Trazado_1286270" data-name="Trazado 1286270" d="M57.876,172.441l-11.488.023a1.286,1.286,0,0,1-1.353-1.219,1.227,1.227,0,0,1,1.1-1.417l11.748-.021a1.265,1.265,0,0,1,1.288,1.216,1.3,1.3,0,0,1-1.3,1.419" transform="translate(-32.963 -124.303)" fill="#19538d"/>
      </g>
    </g>
  </g>
</svg>
