<svg xmlns="http://www.w3.org/2000/svg" xmlns:xlink="http://www.w3.org/1999/xlink" width="128" height="128" viewBox="0 0 128 128">
  <defs>
    <clipPath id="clip-path">
      <rect id="Rectángulo_456267" data-name="Rectángulo 456267" width="128" height="128" fill="none"/>
    </clipPath>
    <clipPath id="clip-path-2">
      <rect id="Rectángulo_468131" data-name="Rectángulo 468131" width="67.115" height="67.179" fill="#19538d"/>
    </clipPath>
  </defs>
  <g id="Grupo_1212787" data-name="Grupo 1212787" transform="translate(511.746 8527) rotate(180)">
    <path id="Trazado_999622" data-name="Trazado 999622" d="M59.07,0A59.07,59.07,0,1,1,0,59.07,59.071,59.071,0,0,1,59.07,0" transform="translate(388.676 8403.93)" fill="#fff"/>
    <g id="Grupo_1179902" data-name="Grupo 1179902" transform="translate(383.746 8399)">
      <g id="Grupo_1179905" data-name="Grupo 1179905" clip-path="url(#clip-path)">
        <path id="Trazado_999618" data-name="Trazado 999618" d="M64,0A64,64,0,1,1,0,64,64,64,0,0,1,64,0" fill="none"/>
        <path id="Trazado_999619" data-name="Trazado 999619" d="M5,59a5,5,0,1,1-5,5,5,5,0,0,1,5-5" fill="#19538d"/>
        <path id="Trazado_999620" data-name="Trazado 999620" d="M21,19a5,5,0,1,1-5,5,5,5,0,0,1,5-5" fill="#19538d"/>
        <path id="Trazado_999621" data-name="Trazado 999621" d="M64,124A60.068,60.068,0,0,1,4,64H7A57,57,0,1,0,22.408,25.024L20.22,22.972A60,60,0,1,1,64,124" fill="#19538d"/>
        <rect id="Rectángulo_456268" data-name="Rectángulo 456268" width="128" height="128" fill="none"/>
        <rect id="Rectángulo_456269" data-name="Rectángulo 456269" width="128" height="128" fill="none"/>
      </g>
    </g>
    <g id="Grupo_1213184" data-name="Grupo 1213184" transform="translate(480.304 8493.371) rotate(180)">
      <g id="Grupo_1213183" data-name="Grupo 1213183" clip-path="url(#clip-path-2)">
        <path id="Trazado_1286069" data-name="Trazado 1286069" d="M48.113,67.179A27.908,27.908,0,0,1,32.267,53.688H3.379A3.336,3.336,0,0,1,0,50.343V41.524a3.346,3.346,0,0,1,2.221-3.277l.013-3.775A3.366,3.366,0,0,1,.021,31.462V22.234a3.32,3.32,0,0,1,2.213-3l.025-3.746A3.359,3.359,0,0,1,.015,12.382l0-9.039A3.25,3.25,0,0,1,3.177.034L43.391,0a3.292,3.292,0,0,1,3.557,3.162l.022,9.219a3.3,3.3,0,0,1-2.2,3.058l-.026,3.794a3.333,3.333,0,0,1,2.217,3l.029,6.674a3.413,3.413,0,0,1,2.836.334c3.633,2.61,8.107,2.481,12.4,1.352a3.359,3.359,0,0,1,4.211,2.592,48.023,48.023,0,0,1,.669,8.136,27.816,27.816,0,0,1-19,25.863M43.651,13.435a1.14,1.14,0,0,0,1.085-1.068l-.01-9.009a1.061,1.061,0,0,0-1.135-1.108l-40.2,0a1.053,1.053,0,0,0-1.136,1.1l0,9.015A1.144,1.144,0,0,0,3.4,13.435ZM42.47,19.026l-.022-3.367-37.979.006v3.369ZM33.907,30.584a20.056,20.056,0,0,0,7.919.569,9.17,9.17,0,0,0,2.894-.979l-.013-7.937a1.115,1.115,0,0,0-1.152-1l-40.128,0A1.173,1.173,0,0,0,2.25,22.429v8.833a1.14,1.14,0,0,0,1.169,1.175l26.6-.007a3.265,3.265,0,0,1,3.885-1.846m30.8,13.1a37.259,37.259,0,0,0-.483-10.141,1.032,1.032,0,0,0-1.293-.811C58.31,33.88,52.81,34.179,49.017,31.34a1.4,1.4,0,0,0-1.915.046c-3.753,2.767-9.226,2.528-13.775,1.347a1.1,1.1,0,0,0-1.373.9,43.724,43.724,0,0,0-.641,6.839A25.535,25.535,0,0,0,48.087,64.8,25.44,25.44,0,0,0,64.709,43.683M29.17,37.993l.338-3.315H4.5l.013,3.333ZM3.5,51.46l27.679,0a25.721,25.721,0,0,1-2.042-11.179l-25.931.007a1.058,1.058,0,0,0-.956,1.033l0,9.02A1.1,1.1,0,0,0,3.5,51.46" transform="translate(0 0)" fill="#19538d"/>
        <path id="Trazado_1286070" data-name="Trazado 1286070" d="M192.268,192.119a1.088,1.088,0,0,1,.157-1.477,1.061,1.061,0,0,1,1.439-.031l3.678,3.647L207.88,181.9a1.1,1.1,0,0,1,1.456-.336,1.078,1.078,0,0,1,.318,1.684l-11.029,13.246a1.367,1.367,0,0,1-.844.564,1.262,1.262,0,0,1-1.1-.459Z" transform="translate(-151.765 -143.367)" fill="#19538d"/>
        <path id="Trazado_1286071" data-name="Trazado 1286071" d="M146.342,29.937c.005.78-.365,1.255-.912,1.35a1.094,1.094,0,0,1-1.312-1.034l.015-2.479a.949.949,0,0,1,1.111-.9,1.087,1.087,0,0,1,1.085,1.12Z" transform="translate(-113.895 -21.236)" fill="#19538d"/>
        <path id="Trazado_1286072" data-name="Trazado 1286072" d="M167.562,30.106a1.117,1.117,0,0,1-1.14,1.142,1.135,1.135,0,0,1-1.091-1.267l.01-2.045a1.112,1.112,0,0,1,.891-1.106.994.994,0,0,1,1.3.887Z" transform="translate(-130.66 -21.182)" fill="#19538d"/>
        <path id="Trazado_1286073" data-name="Trazado 1286073" d="M188.835,29.9c0,.75-.321,1.191-.868,1.307-.4.085-1.151-.024-1.267-.622a8.857,8.857,0,0,1-.012-3.068c.108-.643.85-.787,1.309-.68a1.151,1.151,0,0,1,.841,1.268Z" transform="translate(-147.437 -21.183)" fill="#19538d"/>
        <path id="Trazado_1286074" data-name="Trazado 1286074" d="M48.676,32.2a1.075,1.075,0,0,1,1.505.543,1.114,1.114,0,0,1-.535,1.453,1.126,1.126,0,0,1-1.4-.368,1.076,1.076,0,0,1,.427-1.627" transform="translate(-37.966 -25.349)" fill="#19538d"/>
        <path id="Trazado_1286075" data-name="Trazado 1286075" d="M69.934,32.22a1.11,1.11,0,1,1-.41,1.606,1.126,1.126,0,0,1,.41-1.606" transform="translate(-54.804 -25.357)" fill="#19538d"/>
        <path id="Trazado_1286076" data-name="Trazado 1286076" d="M27.426,32.236a1.1,1.1,0,1,1,.816,2.044,1.086,1.086,0,0,1-1.324-.495,1.053,1.053,0,0,1,.508-1.549" transform="translate(-21.153 -25.409)" fill="#19538d"/>
        <path id="Trazado_1286077" data-name="Trazado 1286077" d="M146.235,120.524c0,.819-.461,1.315-1.092,1.32a1.137,1.137,0,0,1-1.154-1.18v-2.115a1.117,1.117,0,0,1,1.155-1.179,1.1,1.1,0,0,1,1.084,1.228Z" transform="translate(-113.794 -92.757)" fill="#19538d"/>
        <path id="Trazado_1286078" data-name="Trazado 1286078" d="M167.61,120.571a1.165,1.165,0,0,1-1.16,1.277,1.118,1.118,0,0,1-1.086-1.23V118.6a1.123,1.123,0,1,1,2.239-.048Z" transform="translate(-130.686 -92.761)" fill="#19538d"/>
        <path id="Trazado_1286079" data-name="Trazado 1286079" d="M188.95,120.8a1.108,1.108,0,0,1-1.175,1.059,1.123,1.123,0,0,1-1.035-1.173v-2.116a1.131,1.131,0,0,1,1.034-1.167,1.083,1.083,0,0,1,1.166.966Z" transform="translate(-147.58 -92.779)" fill="#19538d"/>
        <path id="Trazado_1286080" data-name="Trazado 1286080" d="M27.25,122.961A1.113,1.113,0,1,1,28.5,124.8a1.189,1.189,0,0,1-1.462-.187,1.147,1.147,0,0,1,.217-1.657" transform="translate(-21.161 -97.027)" fill="#19538d"/>
        <path id="Trazado_1286081" data-name="Trazado 1286081" d="M48.727,122.871a1.114,1.114,0,0,1,1.477.635,1.114,1.114,0,1,1-1.477-.635" transform="translate(-37.974 -97.035)" fill="#19538d"/>
        <path id="Trazado_1286082" data-name="Trazado 1286082" d="M70.031,122.9a1.1,1.1,0,0,1,1,1.954,1.121,1.121,0,0,1-1.492-.439,1.08,1.08,0,0,1,.494-1.515" transform="translate(-54.843 -97.033)" fill="#19538d"/>
        <path id="Trazado_1286083" data-name="Trazado 1286083" d="M48.812,213.47a1.106,1.106,0,0,1,1.369.726,1.163,1.163,0,0,1-.7,1.4A1.128,1.128,0,0,1,48.1,215a1.056,1.056,0,0,1,.712-1.527" transform="translate(-37.917 -168.671)" fill="#19538d"/>
        <path id="Trazado_1286084" data-name="Trazado 1286084" d="M70.295,213.442a1.08,1.08,0,0,1,1.248.9,1.134,1.134,0,0,1-.935,1.3,1.086,1.086,0,0,1-1.234-.824,1.066,1.066,0,0,1,.92-1.374" transform="translate(-54.791 -168.67)" fill="#19538d"/>
        <path id="Trazado_1286085" data-name="Trazado 1286085" d="M27.681,213.462a1.133,1.133,0,0,1,1.3.855,1.109,1.109,0,0,1-.831,1.306,1.085,1.085,0,0,1-1.315-.724,1.111,1.111,0,0,1,.842-1.437" transform="translate(-21.177 -168.678)" fill="#19538d"/>
      </g>
    </g>
  </g>
</svg>
