<svg xmlns="http://www.w3.org/2000/svg" xmlns:xlink="http://www.w3.org/1999/xlink" width="85" height="85" viewBox="0 0 85 85">
  <defs>
    <clipPath id="clip-path">
      <rect id="Rectángulo_468125" data-name="Rectángulo 468125" width="63.804" height="60.647" fill="#12263f"/>
    </clipPath>
  </defs>
  <g id="Grupo_1212777" data-name="Grupo 1212777" transform="translate(-705.629 -410)">
    <g id="Grupo_1180019" data-name="Grupo 1180019">
      <g id="Grupo_1180023" data-name="Grupo 1180023">
        <rect id="Rectángulo_456333" data-name="Rectángulo 456333" width="85" height="85" rx="10" transform="translate(705.629 410)" fill="#68eae0"/>
        <g id="Grupo_1213172" data-name="Grupo 1213172" transform="translate(720.227 422.176)">
          <g id="Grupo_1213171" data-name="Grupo 1213171" clip-path="url(#clip-path)">
            <path id="Trazado_1286009" data-name="Trazado 1286009" d="M42.547,9.561A3.107,3.107,0,0,0,39.474,6.4L5.219,6.4A3.1,3.1,0,0,0,2.146,9.5L2.131,55.2a3.18,3.18,0,0,0,3.217,3.312H39.561c2.049,0,2.467-2.368,3.825-1.633a1.119,1.119,0,0,1,.264,1.632,5.652,5.652,0,0,1-4.031,2.141L4.906,60.593A5.161,5.161,0,0,1,.025,55.422L0,9.706a5.434,5.434,0,0,1,4.364-5.39A5.323,5.323,0,0,1,9.625,0L43.557,0a5.258,5.258,0,0,1,5.366,5.22l.033,17.012a1.059,1.059,0,0,1-.968,1.155,1.046,1.046,0,0,1-1.169-1.153L46.8,5.224a3.093,3.093,0,0,0-3.066-3.08l-34.25,0a3.139,3.139,0,0,0-2.889,2.1L39.3,4.258a5.255,5.255,0,0,1,5.366,5.217l.021,13.392a1.074,1.074,0,0,1-1.143,1.025c-.652-.048-.984-.522-.985-1.229Z" transform="translate(0 0)" fill="#12263f"/>
            <path id="Trazado_1286010" data-name="Trazado 1286010" d="M178.486,141.09c-5.177,6.4-14.7,7.514-21.424,3.058a15.688,15.688,0,0,1-6.832-12.075,15.916,15.916,0,1,1,31.778-.565,16.277,16.277,0,0,1-3.522,9.582m1.389-10.905a13.8,13.8,0,0,0-27.523-.448,13.8,13.8,0,1,0,27.523.448" transform="translate(-118.221 -90.528)" fill="#12263f"/>
            <path id="Trazado_1286011" data-name="Trazado 1286011" d="M35.692,60.231l-.023,2.194a3.207,3.207,0,0,1-3.19,3.273H28.212a3.19,3.19,0,0,1-3.185-3.274l.015-4.275a3.075,3.075,0,0,1,3.042-3.064h4.521a3.071,3.071,0,0,1,2.966,2.476l1.392-1.089a1.108,1.108,0,0,1,1.476-.109A1.061,1.061,0,0,1,38.492,58Zm-3.9,2.023-2.246-2.24a1.035,1.035,0,0,1,.036-1.43.967.967,0,0,1,1.327-.151l1.649,1.582c.626-.393,1-.8,1.009-1.344s-.129-1.414-.83-1.42l-4.611-.042a1.056,1.056,0,0,0-.981,1.146l.031,4.241a1.006,1.006,0,0,0,1.026.977l4.067.01a1.136,1.136,0,0,0,1.124-.575A1.025,1.025,0,0,0,33.422,62a1.117,1.117,0,0,1-1.627.253" transform="translate(-19.701 -43.364)" fill="#12263f"/>
            <path id="Trazado_1286012" data-name="Trazado 1286012" d="M35.771,120.294a5.611,5.611,0,0,0-.087,2.118,3.212,3.212,0,0,1-3.208,3.285H28.213a3.189,3.189,0,0,1-3.185-3.274l.014-4.276a3.075,3.075,0,0,1,3.042-3.064h4.521a3.07,3.07,0,0,1,2.966,2.476l1.393-1.089a1.108,1.108,0,0,1,1.473-.11A1.062,1.062,0,0,1,38.491,118ZM31.8,122.254l-2.246-2.24a1.035,1.035,0,0,1,.036-1.43.967.967,0,0,1,1.327-.151l1.649,1.582c.626-.393,1-.8,1.009-1.344s-.129-1.414-.83-1.42l-4.611-.042a1.056,1.056,0,0,0-.981,1.146l.031,4.241a1.006,1.006,0,0,0,1.026.977l4.067.01a1.136,1.136,0,0,0,1.124-.575A1.025,1.025,0,0,0,33.423,122a1.117,1.117,0,0,1-1.627.253" transform="translate(-19.702 -90.596)" fill="#12263f"/>
            <path id="Trazado_1286013" data-name="Trazado 1286013" d="M32.607,185.613l-4.394.015a3.186,3.186,0,0,1-3.185-3.271l.014-4.271A3.137,3.137,0,0,1,28.262,175h4.17a3.136,3.136,0,0,1,3.219,3.088l.014,4.273a3.134,3.134,0,0,1-3.058,3.254m-.016-2.129a.973.973,0,0,0,.924-.952l.021-4.215a1.1,1.1,0,0,0-1.182-1.194l-3.877-.006c-.755,0-1.334.372-1.329,1.179l.031,4.23a1,1,0,0,0,1.025.978Z" transform="translate(-19.702 -137.761)" fill="#12263f"/>
            <path id="Trazado_1286014" data-name="Trazado 1286014" d="M100.537,82.166l-9.158,0a1.084,1.084,0,0,1-1.235-.9,1.006,1.006,0,0,1,.9-1.219l9.834-.007a1,1,0,0,1,.908,1.048,1.085,1.085,0,0,1-1.247,1.082" transform="translate(-70.95 -63.005)" fill="#12263f"/>
            <path id="Trazado_1286015" data-name="Trazado 1286015" d="M100.537,142.166l-9.158,0a1.084,1.084,0,0,1-1.235-.9,1.006,1.006,0,0,1,.9-1.219l9.834-.007a1,1,0,0,1,.908,1.048,1.085,1.085,0,0,1-1.247,1.082" transform="translate(-70.95 -110.238)" fill="#12263f"/>
            <path id="Trazado_1286016" data-name="Trazado 1286016" d="M100.537,202.166l-9.158,0a1.084,1.084,0,0,1-1.235-.9,1.006,1.006,0,0,1,.9-1.219l9.834-.007a1,1,0,0,1,.908,1.048,1.085,1.085,0,0,1-1.247,1.082" transform="translate(-70.95 -157.471)" fill="#12263f"/>
            <path id="Trazado_1286017" data-name="Trazado 1286017" d="M189.527,175.223l-3.985-3.975a1.176,1.176,0,0,1-.264-1.544c.237-.354.972-.717,1.424-.27l3.772,3.728,9.725-7.807a1.09,1.09,0,0,1,1.589-.014,1.078,1.078,0,0,1-.175,1.638l-10.388,8.306a1.16,1.16,0,0,1-1.7-.063" transform="translate(-145.706 -129.895)" fill="#12263f"/>
          </g>
        </g>
      </g>
    </g>
  </g>
</svg>
