<svg xmlns="http://www.w3.org/2000/svg" xmlns:xlink="http://www.w3.org/1999/xlink" width="150" height="150" viewBox="0 0 150 150">
  <defs>
    <clipPath id="clip-path">
      <rect id="Rectángulo_456267" data-name="Rectángulo 456267" width="150" height="150" fill="none"/>
    </clipPath>
    <clipPath id="clip-path-2">
      <rect id="Rectángulo_468156" data-name="Rectángulo 468156" width="78.92" height="73.927" fill="#19538d"/>
    </clipPath>
  </defs>
  <g id="Grupo_1212971" data-name="Grupo 1212971" transform="translate(533.746 8549) rotate(180)">
    <path id="Trazado_999622" data-name="Trazado 999622" d="M70.07,0A70.07,70.07,0,1,1,0,70.07,70.071,70.071,0,0,1,70.07,0" transform="translate(388.676 8403.93)" fill="#e1f5ff"/>
    <g id="Grupo_1179902" data-name="Grupo 1179902" transform="translate(383.746 8399)">
      <g id="Grupo_1179905" data-name="Grupo 1179905" clip-path="url(#clip-path)">
        <path id="Trazado_999618" data-name="Trazado 999618" d="M75,0A75,75,0,1,1,0,75,75,75,0,0,1,75,0" fill="none"/>
        <path id="Trazado_999619" data-name="Trazado 999619" d="M5.859,59A5.859,5.859,0,1,1,0,64.859,5.86,5.86,0,0,1,5.859,59" transform="translate(0 10.141)" fill="#19538d"/>
        <path id="Trazado_999620" data-name="Trazado 999620" d="M21.859,19A5.859,5.859,0,1,1,16,24.859,5.86,5.86,0,0,1,21.859,19" transform="translate(2.75 3.266)" fill="#19538d"/>
        <path id="Trazado_999621" data-name="Trazado 999621" d="M74.313,144.625A70.392,70.392,0,0,1,4,74.313H7.516A66.8,66.8,0,1,0,25.572,28.638l-2.564-2.4a70.312,70.312,0,1,1,51.3,118.392" transform="translate(0.688 0.688)" fill="#19538d"/>
        <rect id="Rectángulo_456268" data-name="Rectángulo 456268" width="150" height="150" fill="none"/>
        <rect id="Rectángulo_456269" data-name="Rectángulo 456269" width="150" height="150" fill="none"/>
      </g>
    </g>
    <g id="Grupo_1213235" data-name="Grupo 1213235" transform="translate(498.206 8510.963) rotate(180)">
      <g id="Grupo_1213234" data-name="Grupo 1213234" clip-path="url(#clip-path-2)">
        <path id="Trazado_1286276" data-name="Trazado 1286276" d="M48.5,66.385l2.78.111c2.5.1,3.516,2.407,3.342,4.792-.073.993-.2,2.605-1.665,2.605l-30.928,0c-1.483,0-1.682-1.58-1.752-2.6-.17-2.51,1.022-4.807,3.666-4.822l2.378-.014,1.373-4.572L11.839,61.9A3.251,3.251,0,0,1,8.41,58.66L8.392,43.689l-5.185-.014A3.2,3.2,0,0,1,0,40.645L.036,2.992A3.071,3.071,0,0,1,3.246.027L48.562,0c1.855,0,3.592,1.024,3.6,3.022l.068,17.843,11.153.028a3.169,3.169,0,0,1,3.128,3.071l.014,20.083,8.947-.018a3.3,3.3,0,0,1,3.446,3.312l0,23.156a3.335,3.335,0,0,1-3.465,3.43l-14.269-.015a3.424,3.424,0,0,1-3.013-3.642l.029-8.39H47.264Zm.355-25c.688-.071,1.043-.458,1.043-.98l0-27.287-21.029,0a1.114,1.114,0,0,1-1.214-.956c-.061-.379.082-1.3.758-1.3l21.455-.037.046-7.156a1.692,1.692,0,0,0-.2-.98,1.067,1.067,0,0,0-.919-.359L3.256,2.34c-.57.073-.948.4-.948.887L2.3,10.819l21.334.033c.739,0,1.015.856.942,1.289-.115.675-.618.986-1.4.985L2.3,13.109l0,27.255a.957.957,0,0,0,.98,1.018Zm9.362,5.8a3.1,3.1,0,0,1,2.915-3.11l3.081-.08,0-19.822a1.043,1.043,0,0,0-1.086-.994l-10.894.006-.075,17.639a3.152,3.152,0,0,1-3.1,2.879l-38.348,0,.04,10.036,47.432-.008ZM75.572,71.618a1.086,1.086,0,0,0,1.046-.963V47.39a.971.971,0,0,0-.918-1.05l-14.278-.014a.95.95,0,0,0-.9.866V70.65a1.049,1.049,0,0,0,.9.959ZM46.116,66.454l-1.362-4.594-4.561.026a1.137,1.137,0,1,1,.011-2.264L58.177,59.6l-.009-3.549-47.414,0-.02,2.536a1.079,1.079,0,0,0,1.14,1.03l22.646-.011c.873,0,1.409.31,1.425,1.158a1.117,1.117,0,0,1-1.169,1.114l-4.641.013L28.8,66.452ZM52.061,71.6a2.083,2.083,0,0,0-.628-2.781l-27.725.011c-1.108,0-1.46,2.131-.779,2.76Z" transform="translate(0 0)" fill="#19538d"/>
        <path id="Trazado_1286277" data-name="Trazado 1286277" d="M37.775,88.851l-11.482.028a2,2,0,0,1-2.186-1.992l0-17a1.954,1.954,0,0,1,1.968-1.964l11.589-.021a2.007,2.007,0,0,1,2.1,1.781l0,17.405a1.9,1.9,0,0,1-1.987,1.757m-.306-2.337,0-16.267H26.444V86.568Z" transform="translate(-18.159 -51.162)" fill="#19538d"/>
        <path id="Trazado_1286278" data-name="Trazado 1286278" d="M121.623,76.938l-17.452.038a2,2,0,0,1-1.72-1.955l.019-5.307a1.914,1.914,0,0,1,1.865-1.784l17-.022a1.973,1.973,0,0,1,2.091,1.815l.02,5.309a1.878,1.878,0,0,1-1.819,1.906m-.535-2.3.015-4.4-16.33,0,.036,4.409Z" transform="translate(-77.188 -51.163)" fill="#19538d"/>
        <path id="Trazado_1286279" data-name="Trazado 1286279" d="M122.351,123.6l-18.762-.008a1.18,1.18,0,0,1,.035-2.359h18.623a1.191,1.191,0,0,1,1.185,1.068,1.242,1.242,0,0,1-1.08,1.3" transform="translate(-77.174 -91.34)" fill="#19538d"/>
        <path id="Trazado_1286280" data-name="Trazado 1286280" d="M37.836,24.242l-11.952-.019a1.1,1.1,0,0,1-1.035-1.15,1.125,1.125,0,0,1,1.276-1.116l11.572.018a1.166,1.166,0,0,1,1.263.875,1.138,1.138,0,0,1-1.124,1.393" transform="translate(-18.721 -16.542)" fill="#19538d"/>
        <path id="Trazado_1286281" data-name="Trazado 1286281" d="M150.27,145.822l-9.7.022a1.192,1.192,0,0,1-1.145-1.122c-.017-.789.564-1.166,1.374-1.166l9.139-.006a1.22,1.22,0,0,1,1.368,1.016,1.134,1.134,0,0,1-1.032,1.256" transform="translate(-105.042 -108.152)" fill="#19538d"/>
        <path id="Trazado_1286282" data-name="Trazado 1286282" d="M106.237,145.73l-2.708-.024a1.142,1.142,0,0,1-1.113-.951c-.364-1.476,1.782-1.529,4.286-1.246a1.054,1.054,0,0,1,.8,1.328,1.141,1.141,0,0,1-1.262.893" transform="translate(-77.13 -108.02)" fill="#19538d"/>
        <path id="Trazado_1286283" data-name="Trazado 1286283" d="M131.937,22.123a1.148,1.148,0,0,1,1.476.709,1.094,1.094,0,0,1-.52,1.366,1.222,1.222,0,0,1-1.616-.463,1.155,1.155,0,0,1,.66-1.612" transform="translate(-98.813 -16.618)" fill="#19538d"/>
        <path id="Trazado_1286284" data-name="Trazado 1286284" d="M155.114,22.146a1.154,1.154,0,0,1,1.482.651,1.12,1.12,0,0,1-.54,1.41,1.19,1.19,0,0,1-1.59-.492,1.133,1.133,0,0,1,.647-1.569" transform="translate(-116.29 -16.626)" fill="#19538d"/>
        <path id="Trazado_1286285" data-name="Trazado 1286285" d="M178.286,22.149a1.2,1.2,0,0,1,1.446.46,1.134,1.134,0,0,1-.331,1.537,1.215,1.215,0,0,1-1.658-.332,1.175,1.175,0,0,1,.543-1.665" transform="translate(-133.802 -16.623)" fill="#19538d"/>
        <path id="Trazado_1286286" data-name="Trazado 1286286" d="M273.684,271.923a1.15,1.15,0,1,1,1.366,1.849,1.177,1.177,0,0,1-1.59-.209,1.125,1.125,0,0,1,.223-1.64" transform="translate(-205.835 -204.702)" fill="#19538d"/>
      </g>
    </g>
  </g>
</svg>
