<svg xmlns="http://www.w3.org/2000/svg" xmlns:xlink="http://www.w3.org/1999/xlink" width="128" height="128" viewBox="0 0 128 128">
  <defs>
    <clipPath id="clip-path">
      <rect id="Rectángulo_456267" data-name="Rectángulo 456267" width="128" height="128" fill="none"/>
    </clipPath>
    <clipPath id="clip-path-2">
      <rect id="Rectángulo_468130" data-name="Rectángulo 468130" width="60.107" height="64.134" fill="#19538d"/>
    </clipPath>
  </defs>
  <g id="Grupo_1212786" data-name="Grupo 1212786" transform="translate(511.746 8527) rotate(180)">
    <path id="Trazado_999622" data-name="Trazado 999622" d="M59.07,0A59.07,59.07,0,1,1,0,59.07,59.071,59.071,0,0,1,59.07,0" transform="translate(388.676 8403.93)" fill="#fff"/>
    <g id="Grupo_1179902" data-name="Grupo 1179902" transform="translate(383.746 8399)">
      <g id="Grupo_1179905" data-name="Grupo 1179905" clip-path="url(#clip-path)">
        <path id="Trazado_999618" data-name="Trazado 999618" d="M64,0A64,64,0,1,1,0,64,64,64,0,0,1,64,0" fill="none"/>
        <path id="Trazado_999619" data-name="Trazado 999619" d="M5,59a5,5,0,1,1-5,5,5,5,0,0,1,5-5" fill="#19538d"/>
        <path id="Trazado_999620" data-name="Trazado 999620" d="M21,19a5,5,0,1,1-5,5,5,5,0,0,1,5-5" fill="#19538d"/>
        <path id="Trazado_999621" data-name="Trazado 999621" d="M64,124A60.068,60.068,0,0,1,4,64H7A57,57,0,1,0,22.408,25.024L20.22,22.972A60,60,0,1,1,64,124" fill="#19538d"/>
        <rect id="Rectángulo_456268" data-name="Rectángulo 456268" width="128" height="128" fill="none"/>
        <rect id="Rectángulo_456269" data-name="Rectángulo 456269" width="128" height="128" fill="none"/>
      </g>
    </g>
    <g id="Grupo_1213182" data-name="Grupo 1213182" transform="translate(477.8 8494.83) rotate(180)">
      <g id="Grupo_1213181" data-name="Grupo 1213181" clip-path="url(#clip-path-2)">
        <path id="Trazado_1286060" data-name="Trazado 1286060" d="M58.312,19.934l-5.228.039-.009,2.908a2.977,2.977,0,0,1-2.845,3.087l-17.342.027a3.719,3.719,0,0,1-1.9,1.895V38.157l17.171,0a2.046,2.046,0,0,0-2.085-2.132L33.932,36a.928.928,0,0,1,0-1.838l12.122-.016a4.01,4.01,0,0,1,4.022,3.995l5.6.014a1.972,1.972,0,0,1,1.565.714,1.839,1.839,0,0,1,.377,1.767l-6.888,20.7a3.928,3.928,0,0,1-3.872,2.8l-32.808-.008a3.921,3.921,0,0,1-4-4.02l-.014-25.82a3.982,3.982,0,0,1,4-4.149l8.957.013a3.437,3.437,0,0,1,2.4.974l2.526,2.483a1.579,1.579,0,0,0,1.2.487L29.1,27.88a3.664,3.664,0,0,1-1.892-1.887L9.865,25.97a2.844,2.844,0,0,1-2.812-2.711l-.04-3.295-4.978,0A1.96,1.96,0,0,1,.009,18.04L0,2.026A1.865,1.865,0,0,1,1.641.075L10.357.036l5.56,5.578,0,12.515a1.825,1.825,0,0,1-1.765,1.806l-5.232.03L8.9,23a1.067,1.067,0,0,0,.929,1.094l17.371.02a3.692,3.692,0,0,1,1.86-1.87,9.309,9.309,0,0,0-.006-2.269l-5.145-.038a1.871,1.871,0,0,1-1.827-1.911L22.1,1.871A1.9,1.9,0,0,1,24.026.027l8.413.008,5.547,5.552.024,12.444a1.876,1.876,0,0,1-1.826,1.908l-5.145.037a9.224,9.224,0,0,0-.007,2.271,3.69,3.69,0,0,1,1.857,1.863l17.186,0a1.085,1.085,0,0,0,1.116-1.123l-.011-3.007-5.235-.047a1.827,1.827,0,0,1-1.767-1.81L44.175,1.91A2.042,2.042,0,0,1,46.465,0l8.119.06,5.479,5.483.043,12.308a1.935,1.935,0,0,1-1.795,2.082M10.895,6.893A1.868,1.868,0,0,1,9.047,5.021l-.026-3.14L1.87,1.9l0,16.189,12.182-.007,0-11.151Zm22.037,0a1.862,1.862,0,0,1-1.809-1.9l-.009-3.1L23.958,1.9l0,16.181H36.135L36.14,6.934Zm22.043,0a1.787,1.787,0,0,1-1.759-1.851L53.2,1.892l-7.16.009,0,16.181,12.193-.009L58.222,6.922ZM12.634,4.983,10.949,3.311,10.9,5.017Zm22.037-.017-1.581-1.6a4.1,4.1,0,0,0-.064,1.654,5.159,5.159,0,0,0,1.645-.051m22.089.007L55.141,3.354a5.957,5.957,0,0,0-.047,1.68Zm-27.3,19.2a1.084,1.084,0,0,0-.211,1.6,1.135,1.135,0,0,0,1.394.181,1.1,1.1,0,0,0,.3-1.486,1.066,1.066,0,0,0-1.486-.293m-.38,13.985-.009-2.13a4.115,4.115,0,0,1-2.69-1.282l-2.1-2.11a2.228,2.228,0,0,0-1.642-.625l-8.636,0a2.07,2.07,0,0,0-2.082,1.964l.01,23.222,5.433-16.156a3.985,3.985,0,0,1,3.9-2.88Zm17.837,24.14a2.157,2.157,0,0,0,2.027-1.555l6.9-20.7-34.574-.007a2.127,2.127,0,0,0-2.117,1.594L12.539,61.523c.219.544,1.091.772,1.717.772Z" transform="translate(0 0)" fill="#19538d"/>
        <path id="Trazado_1286061" data-name="Trazado 1286061" d="M203.344,267.543l-7-.012a.967.967,0,0,1-.924-.887c-.007-.672.445-.985,1.109-.984l6.829.007a.906.906,0,0,1,.948.975.939.939,0,0,1-.964.9" transform="translate(-156.273 -212.44)" fill="#19538d"/>
        <path id="Trazado_1286062" data-name="Trazado 1286062" d="M193.332,287.591l-7-.007a.963.963,0,0,1-.905-.767c-.091-.395.139-1.045.692-1.049l7.229-.049a.9.9,0,0,1,.945.969.921.921,0,0,1-.965.9" transform="translate(-148.268 -228.481)" fill="#19538d"/>
        <path id="Trazado_1286063" data-name="Trazado 1286063" d="M25.9,47.026l-4.823-.007a.909.909,0,0,1-.972-.962.928.928,0,0,1,.989-.9l4.8-.016a.953.953,0,0,1,1.074.9c.02.631-.391.982-1.069.981" transform="translate(-16.074 -36.102)" fill="#19538d"/>
        <path id="Trazado_1286064" data-name="Trazado 1286064" d="M25.9,67.049l-4.823-.009a.908.908,0,0,1-.97-.965.936.936,0,0,1,.987-.9l4.8-.009a.95.95,0,0,1,1.075.9c.021.633-.391.989-1.07.988" transform="translate(-16.078 -52.11)" fill="#19538d"/>
        <path id="Trazado_1286065" data-name="Trazado 1286065" d="M246.6,47.009l-4.923.026c-.68,0-1.093-.356-1.072-.982a.953.953,0,0,1,1.076-.9l4.8.009a.927.927,0,0,1,.962.738.87.87,0,0,1-.846,1.106" transform="translate(-192.405 -36.11)" fill="#19538d"/>
        <path id="Trazado_1286066" data-name="Trazado 1286066" d="M246.6,67.018l-4.922.027c-.679,0-1.094-.357-1.073-.987a.954.954,0,0,1,1.077-.9l4.8.011a.938.938,0,0,1,.964.734.872.872,0,0,1-.846,1.112" transform="translate(-192.402 -52.107)" fill="#19538d"/>
        <path id="Trazado_1286067" data-name="Trazado 1286067" d="M136.576,47.014l-5.107.071c-.606.009-1.052-.237-1.121-.814a.962.962,0,0,1,.931-1.052h5a.946.946,0,0,1,.914.767c.076.288-.045,1.02-.617,1.028" transform="translate(-104.231 -36.159)" fill="#19538d"/>
        <path id="Trazado_1286068" data-name="Trazado 1286068" d="M136.086,67.105l-4.625,0c-.6,0-1.051-.228-1.12-.821a.963.963,0,0,1,.935-1.051h5a.958.958,0,0,1,.933.906c.023.649-.457.97-1.119.969" transform="translate(-104.226 -52.162)" fill="#19538d"/>
      </g>
    </g>
  </g>
</svg>
