<svg xmlns="http://www.w3.org/2000/svg" xmlns:xlink="http://www.w3.org/1999/xlink" width="150" height="150" viewBox="0 0 150 150">
  <defs>
    <clipPath id="clip-path">
      <rect id="Rectángulo_456312" data-name="Rectángulo 456312" width="150" height="150" fill="none"/>
    </clipPath>
    <clipPath id="clip-path-3">
      <rect id="Rectángulo_468160" data-name="Rectángulo 468160" width="99.118" height="95.3" fill="#19538d"/>
    </clipPath>
  </defs>
  <g id="Grupo_1212999" data-name="Grupo 1212999" transform="translate(-307.059 -10093)">
    <g id="Grupo_1179968" data-name="Grupo 1179968" transform="translate(-115 658)">
      <g id="Grupo_1179959" data-name="Grupo 1179959" transform="translate(422.059 9435)" clip-path="url(#clip-path)">
        <path id="Trazado_999654" data-name="Trazado 999654" d="M1.5,5.146H123.437A18.479,18.479,0,0,1,141.96,23.58V144.937H20.022A18.479,18.479,0,0,1,1.5,126.5Z" transform="translate(0.815 2.76)" fill="#fff"/>
      </g>
      <g id="Grupo_1179960" data-name="Grupo 1179960" transform="translate(422.059 9435)">
        <g id="Grupo_1179956" data-name="Grupo 1179956" clip-path="url(#clip-path)">
          <path id="Trazado_999651" data-name="Trazado 999651" d="M94.9,30a7.681,7.681,0,1,1-7.718,7.681A7.7,7.7,0,0,1,94.9,30" transform="translate(47.384 16.085)" fill="#19538d"/>
          <path id="Trazado_999652" data-name="Trazado 999652" d="M65.9,0a7.681,7.681,0,1,1-7.718,7.681A7.7,7.7,0,0,1,65.9,0" transform="translate(31.622 0)" fill="#19538d"/>
          <path id="Trazado_999653" data-name="Trazado 999653" d="M141.96,51.007v93.93H20.022A18.479,18.479,0,0,1,1.5,126.5V5.146H97.75" transform="translate(0.815 2.76)" fill="none" stroke="#19538d" stroke-miterlimit="10" stroke-width="4"/>
        </g>
      </g>
    </g>
    <g id="Grupo_1213243" data-name="Grupo 1213243" transform="translate(332.5 10120.35)">
      <g id="Grupo_1213242" data-name="Grupo 1213242" clip-path="url(#clip-path-3)">
        <path id="Trazado_1286331" data-name="Trazado 1286331" d="M43.5,68.08l-3.934-.031c-2.317-.018-5.158-1.609-5.158-4.332l0-40.849c0-2.486,2.5-4.18,4.656-4.2l7.361-.064a5.641,5.641,0,0,1,1.911-1.98c.649-.506-.045-3.037-1.894-3.039l-15.957-.014,0,30.945a4.668,4.668,0,0,1-4.454,4.732l-9.786.073L16.23,72.946a4.84,4.84,0,0,1,2.147,2.2l8.561.1c1.989.024,3.5,2.023,3.506,3.945l.043,7.791a4.454,4.454,0,0,1-4.512,4.563L4.387,91.543A4.3,4.3,0,0,1,.029,87.289l.054-8.371A4.039,4.039,0,0,1,4,75.218l8.019-.084a5.6,5.6,0,0,1,2.211-2.147l0-23.557-9.514-.08A4.757,4.757,0,0,1,0,44.513L0,4.892A4.664,4.664,0,0,1,4.433.065L25.7,0a4.953,4.953,0,0,1,4.8,5.162l0,6.161,16.495.2c2.485.03,3.87,2.783,3.551,5.018a5.775,5.775,0,0,1,2.225,2.123l7.938.178c2.566.058,4.136,2.423,4.133,4.966l-.052,39.6c0,2.888-2.657,4.654-5.284,4.649l-13.909-.03.04,5.559a2.465,2.465,0,0,0,2.688,2.335l18.229-.015a3.23,3.23,0,0,1,2.061-2l.047-23.185A4.809,4.809,0,0,1,73.55,45.93l21.038.042a4.655,4.655,0,0,1,4.524,4.768l.006,39.617a4.867,4.867,0,0,1-4.975,4.929L73.722,95.3a4.835,4.835,0,0,1-4.991-4.594L68.655,80.05a3.887,3.887,0,0,1-2.114-2.086l-18.817-.054c-2.565-.007-4.252-2.527-4.244-4.869Zm-15.069-27v-27.5a7.789,7.789,0,0,0-2.8-.017l-.054,2.664a2.77,2.77,0,0,1-2.957,2.709L7.441,18.9a2.521,2.521,0,0,1-2.5-2.541l0-7.756A2.574,2.574,0,0,1,7.737,5.994l15.192.039a2.512,2.512,0,0,1,2.627,2.436l.113,2.887,2.763-.01L28.416,4.9A2.734,2.734,0,0,0,25.7,2.082L4.673,2.111A2.71,2.71,0,0,0,2.077,4.9V41.109l12.15-.023-.018-6.375L7.424,34.7a2.5,2.5,0,0,1-2.484-2.548V24.386a2.449,2.449,0,0,1,2.492-2.508l16.1.055c1.238,0,2.033,1.512,2.033,2.552v7.544a2.625,2.625,0,0,1-2.623,2.688l-6.659.039.056,6.364ZM23.513,16.773l-.066-8.69L7,8.105l.105,8.76Zm25.74,1.894a1.121,1.121,0,0,0-.7,1.617,1.136,1.136,0,0,0,1.342.574,1.157,1.157,0,0,0,.77-1.435,1.143,1.143,0,0,0-1.407-.757m-.559,30.5-.04,3.422c-.017,1.443-1.674,1.912-3.057,1.575l0,5.557H62.779L62.77,23.555a2.687,2.687,0,0,0-2.738-2.75L52.7,20.765a3.522,3.522,0,0,1-3.011,2.314c-1.445.131-2.484-1.029-3.186-2.182l-7.392-.072c-1.893-.019-2.758,1.595-2.757,3.317l.026,35.5,7.055.068,0-5.495c-1.622.132-2.641-.577-2.621-1.931l.05-3.413a1.748,1.748,0,0,1,1.862-1.563h4.068a1.848,1.848,0,0,1,1.9,1.855M23.514,32.544l-.071-8.658-16.417.037.081,8.8Zm-9.3,14.748-.069-4.182-11.978.022c-.505,2.019.532,4.09,2.5,4.1ZM25.55,47.3a2.7,2.7,0,0,0,2.428-1.315,3.563,3.563,0,0,0,.311-2.816l-11.952.02.026,4.131ZM70.833,86.989l26.224-.008-.046-36.542a2.763,2.763,0,0,0-2.839-2.491l-20.744.015A2.672,2.672,0,0,0,70.739,50.5l-.053,23.35A3.319,3.319,0,0,1,72.879,76.9a3.055,3.055,0,0,1-2.185,3.049ZM46.639,52.144l-.046-2.8-3.674,0-.029,2.8ZM43.46,65.892l-.079-4.081-6.785.136c-.756,1.219.22,3.842,1.823,3.867Zm17.064-.085c1.887-.019,2.606-2.452,2.028-3.948l-16.988-.021.011,4.117ZM14.956,75.033a1.163,1.163,0,0,0-.67,1.747,1.128,1.128,0,0,0,1.479.42,1.21,1.21,0,0,0,.565-1.446,1.16,1.16,0,0,0-1.373-.721m54.116.915a1.056,1.056,0,0,0-.34,1.609,1.179,1.179,0,0,0,1.581.278,1.1,1.1,0,0,0,.437-1.4,1.155,1.155,0,0,0-1.678-.488M28.411,87.084l.009-7.549a2.3,2.3,0,0,0-2.2-2.329l-7.877.128A4,4,0,0,1,15.031,79.4c-1.272-.034-2.187-1.174-2.89-2.057L4.461,77.2A2.173,2.173,0,0,0,2.112,79.2l-.046,7.788a2.357,2.357,0,0,0,2.3,2.449L26,89.46a2.277,2.277,0,0,0,2.406-2.376m65.435,6.134a3.136,3.136,0,0,0,2.718-1.282,2.653,2.653,0,0,0,.186-2.881L70.8,89.088c-.453,1.59.284,3.973,2.059,3.985Z" transform="translate(0 0)" fill="#19538d"/>
        <path id="Trazado_1286332" data-name="Trazado 1286332" d="M170.663,157.667a1.875,1.875,0,0,1-1.913,1.893l-4.367-.037a1.816,1.816,0,0,1-1.612-1.845v-3.141a1.866,1.866,0,0,1,1.909-1.863l4.067-.01a1.865,1.865,0,0,1,1.915,1.872Zm-2.059-.146-.053-2.8-3.676.016-.022,2.788Z" transform="translate(-112.353 -105.376)" fill="#19538d"/>
        <path id="Trazado_1286333" data-name="Trazado 1286333" d="M148.051,85.935l-14.945.026c-.71,0-1.14-.275-1.29-.764-.13-.424.03-1.33.678-1.33l16.039-.008c.575,0,.74.708.721,1.049a1.064,1.064,0,0,1-1.2,1.028" transform="translate(-90.958 -57.883)" fill="#19538d"/>
        <path id="Trazado_1286334" data-name="Trazado 1286334" d="M148.652,101.946l-16.151.033c-.653,0-.813-.923-.684-1.325.162-.507.579-.763,1.285-.763l14.833,0a1.414,1.414,0,0,1,1.2.517c.237.3.2,1.54-.479,1.542" transform="translate(-90.959 -68.947)" fill="#19538d"/>
        <path id="Trazado_1286335" data-name="Trazado 1286335" d="M148.647,118.262l-16.159.031c-.577,0-.764-.752-.718-1.081.047-.344.3-.931.873-.931l15.735,0c.506,0,.682.449.816.664.168.269.071,1.319-.547,1.32" transform="translate(-90.95 -80.261)" fill="#19538d"/>
        <path id="Trazado_1286336" data-name="Trazado 1286336" d="M138.179,134.632l-5.431,0a1,1,0,0,1-1-.887.943.943,0,0,1,.99-1.118l5.29-.01a1.049,1.049,0,0,1,1.18.872.962.962,0,0,1-1.031,1.145" transform="translate(-90.934 -91.538)" fill="#19538d"/>
        <path id="Trazado_1286337" data-name="Trazado 1286337" d="M255.752,240.471l-15.653-.008a2.665,2.665,0,0,1-2.635-2.707l0-7.55c0-1.043.814-2.521,2.025-2.528l15.8-.093a2.537,2.537,0,0,1,2.793,2.535l0,7.75a2.612,2.612,0,0,1-2.34,2.6m.288-2.1-.064-8.722-16.44.028.128,8.788Z" transform="translate(-163.911 -157.091)" fill="#19538d"/>
        <path id="Trazado_1286338" data-name="Trazado 1286338" d="M245.215,188.164l-5.132.047a2.62,2.62,0,0,1-2.628-2.685l0-7.519a2.555,2.555,0,0,1,2.468-2.729l5.021-.019a2.554,2.554,0,0,1,2.588,2.628l0,7.756a2.385,2.385,0,0,1-2.307,2.521m.2-2.065,0-8.617-5.85-.062,0,8.713a32.528,32.528,0,0,0,5.851-.034" transform="translate(-163.901 -120.973)" fill="#19538d"/>
        <path id="Trazado_1286339" data-name="Trazado 1286339" d="M36.962,275.9l-16.415-.013a1.139,1.139,0,0,1-1.184-1.068,1.038,1.038,0,0,1,1.136-1.035l16.086-.007c.65,0,1.158.275,1.244.787a1.2,1.2,0,0,1-.868,1.337" transform="translate(-13.366 -188.977)" fill="#19538d"/>
        <path id="Trazado_1286340" data-name="Trazado 1286340" d="M36.739,259.454,20.5,259.446a1.161,1.161,0,0,1-1.126-.9,1.033,1.033,0,0,1,1.115-1.141l16.11-.006c.731,0,1.18.313,1.247.9a1,1,0,0,1-1.109,1.161" transform="translate(-13.366 -177.668)" fill="#19538d"/>
      </g>
    </g>
  </g>
</svg>
