<svg xmlns="http://www.w3.org/2000/svg" xmlns:xlink="http://www.w3.org/1999/xlink" width="85" height="85" viewBox="0 0 85 85">
  <defs>
    <clipPath id="clip-path">
      <rect id="Rectángulo_468157" data-name="Rectángulo 468157" width="62.959" height="62.936" fill="#12263f"/>
    </clipPath>
  </defs>
  <g id="Grupo_1212973" data-name="Grupo 1212973" transform="translate(-705.629 -410)">
    <g id="Grupo_1180019" data-name="Grupo 1180019">
      <g id="Grupo_1180023" data-name="Grupo 1180023">
        <rect id="Rectángulo_456333" data-name="Rectángulo 456333" width="85" height="85" rx="10" transform="translate(705.629 410)" fill="#68eae0"/>
        <g id="Grupo_1213237" data-name="Grupo 1213237" transform="translate(716.649 421.031)">
          <g id="Grupo_1213236" data-name="Grupo 1213236" clip-path="url(#clip-path)">
            <path id="Trazado_1286287" data-name="Trazado 1286287" d="M54.6,38.519l-1.113,1.175a17.086,17.086,0,0,1,1.161,2.67c1.176.258,2.869-.084,2.872,1.2l.017,5.672a1.186,1.186,0,0,1-1.244,1.141l-1.626-.006c-.23.967-.776,1.824-1.06,2.78-.176.592.76.968,1.252.963l4.366-.042A1.232,1.232,0,0,0,60.487,52.9l.006-14.082A1.219,1.219,0,0,1,61.5,37.52a1.176,1.176,0,0,1,1.433,1.026l.008,14.346A3.566,3.566,0,0,1,59.5,56.533l-5.218.032-3.374,3.363a1.2,1.2,0,0,1-1.676.2l-1.347-1.307a11.856,11.856,0,0,1-2.819,1.186l-.052,1.726a1.254,1.254,0,0,1-1.332,1.2l-5.309-.013a1.182,1.182,0,0,1-1.219-1.163l-.025-1.734a12.167,12.167,0,0,1-2.847-1.191l-1.193,1.174a1.2,1.2,0,0,1-1.684.045l-3.492-3.467L3.642,56.55A3.656,3.656,0,0,1,.007,52.873L0,3.726A3.619,3.619,0,0,1,3.389,0L59.567,0a3.62,3.62,0,0,1,3.386,3.705L62.959,27.5a1.235,1.235,0,1,1-2.464.13l-.01-15.313-58.011.007L2.465,52.867a1.274,1.274,0,0,0,1.3,1.223l23.943-.02c.418-.011.727-.611.956-.84A13.445,13.445,0,0,1,27.5,50.388l-1.735-.021a1.173,1.173,0,0,1-1.16-1.221l-.013-5.309a1.35,1.35,0,0,1,1.571-1.349,4.3,4.3,0,0,0,1.361-.057A13.74,13.74,0,0,1,28.7,39.586L27.312,38.17a1.114,1.114,0,0,1,.187-1.45l3.625-3.66a1.331,1.331,0,0,1,1.9-.2l1.231,1.18A15.114,15.114,0,0,1,37.079,32.9c.143-1.434-.146-2.9,1.21-2.9l5.67,0c.7,0,1.064.805,1.075,1.425l.025,1.436a15.2,15.2,0,0,1,2.775,1.178l1.337-1.246a1.228,1.228,0,0,1,1.451-.031l4.05,4.021a1.274,1.274,0,0,1-.076,1.736m5.873-28.7.02-6.308a1.1,1.1,0,0,0-1.31-1.024l-55.6,0A1.012,1.012,0,0,0,2.488,3.513l0,6.31Zm-20.722,50.6,2.818-.014c-.115-.843-.181-2.086.68-2.39a14.988,14.988,0,0,0,4.051-1.7c1.079-.781,1.7.331,2.681,1.018l2-2.019c-.771-.961-1.741-1.465-1.108-2.5,1.673-2.739,1.476-4.836,2.633-4.845l1.586-.012-.1-3.023c-.822.176-2.052.183-2.334-.579A15.041,15.041,0,0,0,50.968,40.3c-.818-1.1.155-1.78,1.017-2.766l-2.016-2.012-1.142,1.076a1.452,1.452,0,0,1-1.848-.18c-1.172-.9-2.618-1.02-3.918-1.615-.7-.319-.6-1.51-.473-2.269l-3.013-.088,0,1.384a1.234,1.234,0,0,1-.978,1.2c-2.961.674-4.377,2.389-5.206,1.6L32.228,35.52l-2.042,2.02c.686.986,1.795,1.6,1.018,2.681a15.23,15.23,0,0,0-1.7,4.051c-.3.855-1.55.812-2.4.687L27.1,47.944l1.442.015c1.4.015.93,1.938,2.7,4.789a1.311,1.311,0,0,1-.2,1.668l-.923.923,2.068,2.067,1.026-1.015c1.021-1.01,2.285.783,5.472,1.508,1.456.331.594,2.519,1.068,2.517" transform="translate(0 0)" fill="#12263f"/>
            <path id="Trazado_1286288" data-name="Trazado 1286288" d="M39.3,98.124H33.956c-1.7,0-1.072-2.091-1.319-2.671a9.544,9.544,0,0,0-1.61-.959c-.488-.038-2.168,1.542-2.849.387l-2.85-4.828a1.385,1.385,0,0,1-.1-1.245c.27-.665,1.331-.867,1.614-1.173a4.343,4.343,0,0,0,.088-2.026c-.163-.378-2.385-1.1-1.73-2.246l2.852-5a1.212,1.212,0,0,1,1.676-.411l1.257.724a12.918,12.918,0,0,1,1.7-1l.029-1.544A1.159,1.159,0,0,1,33.927,75h5.486c1.29,0,1.212,1.221,1.246,2.686.595.317,1.12.628,1.664.991l1.29-.726a1.223,1.223,0,0,1,1.667.422l2.849,5.005c.377.663-.356,1.448-.954,1.675a1.189,1.189,0,0,0-.84,1.559c.035.216-.109.706.064.93.243.316,2.388,1.02,1.708,2.2l-2.956,5.138c-.672,1.167-2.354-.419-2.844-.384a15.731,15.731,0,0,0-1.528.845c-.418.436.38,2.785-1.48,2.785M38.218,95.6c-.118-.73-.13-1.723.372-1.957a16.985,16.985,0,0,0,3.145-1.813c.574-.428,1.442.165,2.006.571L45.3,89.762c-.477-.267-1.457-.64-1.481-1.25.032-1.325.07-2.554-.009-3.878-.041-.678.961-.99,1.445-1.336L43.7,80.662c-.466.4-1.333,1.016-1.916.612a21.206,21.206,0,0,0-3.143-1.814c-.576-.273-.532-1.317-.435-1.949H35.077c.514,2.577-1.382,1.925-3.023,3.471-.754.71-1.706.421-2.427-.357a11.62,11.62,0,0,0-1.507,2.752c.532.277,1.388.67,1.386,1.25l-.015,3.851c0,.658-.952.995-1.464,1.254L29.6,92.394c.556-.413,1.426-1,2-.562,2.567,1.943,3.917,1.284,3.488,3.773Z" transform="translate(-20.144 -60.24)" fill="#12263f"/>
            <path id="Trazado_1286289" data-name="Trazado 1286289" d="M188.078,126.193l-12.863,0a1.18,1.18,0,0,1-1.166-1.134c-.042-.481.309-1.252.975-1.253l13.137-.02a1.3,1.3,0,0,1,.818,1.111,1.264,1.264,0,0,1-.9,1.3" transform="translate(-139.804 -99.431)" fill="#12263f"/>
            <path id="Trazado_1286290" data-name="Trazado 1286290" d="M231.678,96.1l-10.726.021a1.225,1.225,0,0,1-1.224-1.306,1.266,1.266,0,0,1,1.423-1.122l10.622.035a1.121,1.121,0,0,1,1.016,1.084,1.159,1.159,0,0,1-1.111,1.288" transform="translate(-176.495 -75.264)" fill="#12263f"/>
            <path id="Trazado_1286291" data-name="Trazado 1286291" d="M42.591,248.49l-7.5.038a1.224,1.224,0,0,1-1.223-1.251,1.2,1.2,0,0,1,1.218-1.242l7.256,0a1.28,1.28,0,0,1,1.292,1.122c.068.43-.3,1.332-1.046,1.336" transform="translate(-27.207 -197.628)" fill="#12263f"/>
            <path id="Trazado_1286292" data-name="Trazado 1286292" d="M69.254,218.472l-5.883.018a1.265,1.265,0,1,1,0-2.52l5.888.015a1.244,1.244,0,0,1,0,2.488" transform="translate(-49.794 -173.479)" fill="#12263f"/>
            <path id="Trazado_1286293" data-name="Trazado 1286293" d="M178.266,96.224l-2.864.027a1.244,1.244,0,0,1-1.337-.981c-.127-.545.224-1.4.945-1.407l3.352-.019A1.107,1.107,0,0,1,179.4,94.93a1.14,1.14,0,0,1-1.131,1.294" transform="translate(-139.798 -75.382)" fill="#12263f"/>
            <path id="Trazado_1286294" data-name="Trazado 1286294" d="M266.939,126.269l-2.621-.037a1.047,1.047,0,0,1-.928-1.1c-.031-.518.268-1.22.928-1.224l2.532-.015a1.1,1.1,0,0,1,1.011,1.073,1.232,1.232,0,0,1-.922,1.3" transform="translate(-211.568 -99.522)" fill="#12263f"/>
            <path id="Trazado_1286295" data-name="Trazado 1286295" d="M34.694,216.152a1.194,1.194,0,0,1,1.554.789,1.22,1.22,0,0,1-.779,1.549,1.2,1.2,0,0,1-1.5-.675,1.226,1.226,0,0,1,.722-1.663" transform="translate(-27.212 -173.571)" fill="#12263f"/>
            <path id="Trazado_1286296" data-name="Trazado 1286296" d="M308.019,162.689a1.273,1.273,0,0,1,1.746.329,1.221,1.221,0,0,1-1.9,1.515,1.209,1.209,0,0,1,.156-1.844" transform="translate(-247.01 -130.511)" fill="#12263f"/>
            <path id="Trazado_1286297" data-name="Trazado 1286297" d="M166.571,27.355l-26.43.01a1.3,1.3,0,0,1-1.294-1.054,1.162,1.162,0,0,1,1.047-1.426l26.489-.026c.824,0,1.356.379,1.43,1.1a1.266,1.266,0,0,1-1.241,1.4" transform="translate(-111.516 -19.968)" fill="#12263f"/>
            <path id="Trazado_1286298" data-name="Trazado 1286298" d="M61.974,25.008a1.219,1.219,0,1,1-.645,1.611,1.193,1.193,0,0,1,.645-1.611" transform="translate(-49.174 -20.001)" fill="#12263f"/>
            <path id="Trazado_1286299" data-name="Trazado 1286299" d="M34.627,24.981a1.217,1.217,0,0,1,.846,2.283,1.218,1.218,0,1,1-.846-2.283" transform="translate(-27.16 -20.011)" fill="#12263f"/>
            <path id="Trazado_1286300" data-name="Trazado 1286300" d="M89.627,24.981a1.217,1.217,0,0,1,.846,2.283,1.218,1.218,0,1,1-.846-2.283" transform="translate(-71.339 -20.011)" fill="#12263f"/>
            <path id="Trazado_1286301" data-name="Trazado 1286301" d="M174.3,195.634a8.006,8.006,0,1,1-6.076,9.62,7.967,7.967,0,0,1,6.076-9.62m.787,2.354a5.539,5.539,0,1,0,6.405,4.462,5.532,5.532,0,0,0-6.405-4.462" transform="translate(-134.958 -156.991)" fill="#12263f"/>
            <path id="Trazado_1286302" data-name="Trazado 1286302" d="M65.663,112.725a4.13,4.13,0,0,1,5.208,2.848,4.176,4.176,0,0,1-7.976,2.469,4.111,4.111,0,0,1,2.768-5.317m.791,2.33a1.71,1.71,0,1,0,.871,3.305,1.716,1.716,0,0,0,1.2-2,1.679,1.679,0,0,0-2.074-1.305" transform="translate(-50.337 -90.409)" fill="#12263f"/>
          </g>
        </g>
      </g>
    </g>
  </g>
</svg>
