<svg xmlns="http://www.w3.org/2000/svg" xmlns:xlink="http://www.w3.org/1999/xlink" width="128" height="128" viewBox="0 0 128 128">
  <defs>
    <clipPath id="clip-path">
      <rect id="Rectángulo_456267" data-name="Rectángulo 456267" width="128" height="128" fill="none"/>
    </clipPath>
    <clipPath id="clip-path-2">
      <rect id="Rectángulo_468128" data-name="Rectángulo 468128" width="63.113" height="59.666" fill="#19538d"/>
    </clipPath>
  </defs>
  <g id="Grupo_1212783" data-name="Grupo 1212783" transform="translate(511.746 8527) rotate(180)">
    <path id="Trazado_999622" data-name="Trazado 999622" d="M59.07,0A59.07,59.07,0,1,1,0,59.07,59.071,59.071,0,0,1,59.07,0" transform="translate(388.676 8403.93)" fill="#fff"/>
    <g id="Grupo_1179902" data-name="Grupo 1179902" transform="translate(383.746 8399)">
      <g id="Grupo_1179905" data-name="Grupo 1179905" clip-path="url(#clip-path)">
        <path id="Trazado_999618" data-name="Trazado 999618" d="M64,0A64,64,0,1,1,0,64,64,64,0,0,1,64,0" fill="none"/>
        <path id="Trazado_999619" data-name="Trazado 999619" d="M5,59a5,5,0,1,1-5,5,5,5,0,0,1,5-5" fill="#19538d"/>
        <path id="Trazado_999620" data-name="Trazado 999620" d="M21,19a5,5,0,1,1-5,5,5,5,0,0,1,5-5" fill="#19538d"/>
        <path id="Trazado_999621" data-name="Trazado 999621" d="M64,124A60.068,60.068,0,0,1,4,64H7A57,57,0,1,0,22.408,25.024L20.22,22.972A60,60,0,1,1,64,124" fill="#19538d"/>
        <rect id="Rectángulo_456268" data-name="Rectángulo 456268" width="128" height="128" fill="none"/>
        <rect id="Rectángulo_456269" data-name="Rectángulo 456269" width="128" height="128" fill="none"/>
      </g>
    </g>
    <g id="Grupo_1213178" data-name="Grupo 1213178" transform="translate(479.492 8492.716) rotate(180)">
      <g id="Grupo_1213177" data-name="Grupo 1213177" clip-path="url(#clip-path-2)">
        <path id="Trazado_1286038" data-name="Trazado 1286038" d="M54.091,59.666,8.642,59.644l-.107-4.327-4.2-.1-.1-3.406L.751,51.79A.7.7,0,0,1,0,51.112V8.547a.682.682,0,0,1,.751-.668l3.484-.018.1-3.422,4.2-.095L8.548.67A.631.631,0,0,1,9.214,0L54.094,0a.655.655,0,0,1,.7.683l.012,13.029a11.913,11.913,0,0,1,7.558,12.218,11.512,11.512,0,0,1-6.588,9.413l.7,1.854a2.459,2.459,0,0,1,1.709-.346L62.833,47.17a4.139,4.139,0,0,1-.7,4.078A4.3,4.3,0,0,1,58.5,52.962a4.79,4.79,0,0,1-3.667-2.45l-.049,8.465a.677.677,0,0,1-.69.689m-2.054-23.2A11.552,11.552,0,0,1,41.91,32.623a11.752,11.752,0,0,1,11.6-19.278L53.516,1.3,9.863,1.314l0,56.895,43.643.006,0-12.125-1.922-6.795a1.755,1.755,0,0,1,1.222-.794ZM8.433,53.9,8.428,5.684l-2.884.024V53.944a8.213,8.213,0,0,0,2.89-.041m-4.185-3.57L4.236,9.208l-2.922.02L1.32,50.472a10.582,10.582,0,0,0,2.928-.138M56.4,33.246a10.312,10.312,0,0,0,1.809-15.29A10.153,10.153,0,0,0,47.222,14.88a10.6,10.6,0,0,0-6.712,6.679A10.408,10.408,0,0,0,56.4,33.246m-1.919,2.613a1.6,1.6,0,0,0-.858.342,2.8,2.8,0,0,0,.627,1.662,1.082,1.082,0,0,0,.831-.238c.3-.308-.228-1.822-.6-1.766M55.9,49.708c.513,1.835,2.794,2.217,4.173,1.553a3.146,3.146,0,0,0,1.4-4.132L57.341,38a4.776,4.776,0,0,1-4.281,1.552Z" fill="#19538d"/>
        <path id="Trazado_1286039" data-name="Trazado 1286039" d="M80.1,43.971a3.527,3.527,0,0,1-3.071.442,2.974,2.974,0,0,1-1.36-4.385,3.04,3.04,0,0,1,4.668-.424l3.192-2.145a3.247,3.247,0,0,1,.755-2.952,3.1,3.1,0,0,1,2.88-.877,2.89,2.89,0,0,1,2.107,1.927,3.02,3.02,0,0,1-.682,2.958l1.865,2.868a3.256,3.256,0,0,1,3.7.245L100.51,37.3a2.967,2.967,0,0,1,1.1-3.25,2.943,2.943,0,1,1,2.129,5.231,2.941,2.941,0,0,1-2.591-.812l-6.163,4.237a4.1,4.1,0,0,1-.5,2.971,3.491,3.491,0,0,1-2.587,1.134,2.77,2.77,0,0,1-2.4-1.456c-.687-.991-.264-2.032-.063-3.057L87.4,39.151a2.571,2.571,0,0,1-3.136-.546l-3.233,2.1a3.058,3.058,0,0,1-.928,3.269m5.658-9.211a1.673,1.673,0,1,0,.949,3.209,1.661,1.661,0,0,0,1.148-2.081,1.715,1.715,0,0,0-2.1-1.127m18.916.512a1.676,1.676,0,1,0-2.42,2.26,1.654,1.654,0,0,0,2.212-.1,1.58,1.58,0,0,0,.208-2.158M79.637,41.108c-.408-.942-.932-1.3-1.876-1.116a1.611,1.611,0,0,0-1.313,2A1.677,1.677,0,0,0,78.616,43.2a1.526,1.526,0,0,0,1.021-2.094m12.134.985a1.654,1.654,0,1,0,.628,3.244,1.564,1.564,0,0,0,1.253-1.864,1.723,1.723,0,0,0-1.881-1.379" transform="translate(-59.743 -26.557)" fill="#19538d"/>
        <path id="Trazado_1286040" data-name="Trazado 1286040" d="M208.715,199.975c0,.625-.3.906-.8.9l-5.346-.066-.017-16.444,5.372-.073a.727.727,0,0,1,.772.658Zm-1.336-.521-.008-13.783-3.527-.03-.027,13.867Z" transform="translate(-160.972 -146.459)" fill="#19538d"/>
        <path id="Trazado_1286041" data-name="Trazado 1286041" d="M124.615,212.006a.768.768,0,0,1-.836.767l-4.658.006a.688.688,0,0,1-.7-.76l.056-12.688,6.066-.044Zm-1.463-.62-.006-10.82-3.526.045.021,10.808Z" transform="translate(-94.109 -158.376)" fill="#19538d"/>
        <path id="Trazado_1286042" data-name="Trazado 1286042" d="M81.477,225.267l-5.209-.055-.112-9.336a1.075,1.075,0,0,1,.182-.627.932.932,0,0,1,.736-.254l5.211.086.072,9.383a.77.77,0,0,1-.881.8m-.451-1.382-.018-7.572H77.5v7.6Z" transform="translate(-60.522 -170.858)" fill="#19538d"/>
        <path id="Trazado_1286043" data-name="Trazado 1286043" d="M166.132,231.816l-5.386.141a.736.736,0,0,1-.791-.79l-.006-6.946c0-.342.176-.8.59-.8l5.513.036Zm-1.279-1.24-.017-5.867-3.564.021.022,5.877Z" transform="translate(-127.113 -177.554)" fill="#19538d"/>
        <path id="Trazado_1286044" data-name="Trazado 1286044" d="M86.763,161.992,75.482,162a.706.706,0,0,1-.627-.686.655.655,0,0,1,.659-.639l11.171-.008a.707.707,0,0,1,.647.48c.094.23-.073.847-.57.847" transform="translate(-59.488 -127.682)" fill="#19538d"/>
        <path id="Trazado_1286045" data-name="Trazado 1286045" d="M85.816,132.6l-10.768,0a.688.688,0,0,1-.679-.592c-.041-.226.093-.72.491-.72H85.9c.344,0,.474.353.507.526a.625.625,0,0,1-.591.784" transform="translate(-59.096 -104.334)" fill="#19538d"/>
        <path id="Trazado_1286046" data-name="Trazado 1286046" d="M126,117.786c-2.591.115-5.038.053-7.554.037a.673.673,0,0,1-.01-1.342l7.54,0a.692.692,0,0,1,.635.511.661.661,0,0,1-.611.8" transform="translate(-93.633 -92.567)" fill="#19538d"/>
        <path id="Trazado_1286047" data-name="Trazado 1286047" d="M152.452,161.993l-6.3,0a.651.651,0,0,1-.7-.683.617.617,0,0,1,.7-.646l6.291,0c.493,0,.72.251.729.649a.659.659,0,0,1-.724.684" transform="translate(-115.596 -127.678)" fill="#19538d"/>
        <path id="Trazado_1286048" data-name="Trazado 1286048" d="M82.716,176.667l-7.075.032c-.446,0-.756-.231-.777-.6a.67.67,0,0,1,.609-.689l7.148-.019a.624.624,0,0,1,.67.507.636.636,0,0,1-.575.771" transform="translate(-59.494 -139.383)" fill="#19538d"/>
        <path id="Trazado_1286049" data-name="Trazado 1286049" d="M150.414,132.507l-6.872.03c-.468,0-.767-.233-.8-.607-.038-.449.247-.735.8-.735h6.782a.658.658,0,0,1,.09,1.313" transform="translate(-113.436 -104.261)" fill="#19538d"/>
        <path id="Trazado_1286050" data-name="Trazado 1286050" d="M80.949,117.75c-1.842.032-3.611.062-5.44-.008a.663.663,0,0,1-.039-1.325l5.513-.024a.682.682,0,1,1-.033,1.356" transform="translate(-59.493 -92.499)" fill="#19538d"/>
        <path id="Trazado_1286051" data-name="Trazado 1286051" d="M127.564,147.468l-6.442.01a.628.628,0,0,1-.653-.542c-.053-.241.079-.729.456-.728l6.955.019c.264,0,.339.545.283.71a.624.624,0,0,1-.6.531" transform="translate(-95.729 -116.193)" fill="#19538d"/>
        <path id="Trazado_1286052" data-name="Trazado 1286052" d="M81.712,147.354l-6.191-.009c-.327,0-.544-.372-.581-.559a.6.6,0,0,1,.547-.72l6.172-.012a.6.6,0,0,1,.634.564.741.741,0,0,1-.58.736" transform="translate(-59.548 -116.07)" fill="#19538d"/>
        <path id="Trazado_1286053" data-name="Trazado 1286053" d="M206.7,93.56a8.408,8.408,0,1,1,11.515,1.525A8.411,8.411,0,0,1,206.7,93.56m13.538-4.252a7.069,7.069,0,0,0-2.2-6.5,6.744,6.744,0,0,0-6.706-1.456,7.216,7.216,0,0,0-5.1,7.883,7.139,7.139,0,0,0,6.9,6.036,7.043,7.043,0,0,0,7.107-5.963" transform="translate(-162.781 -63.464)" fill="#19538d"/>
      </g>
    </g>
  </g>
</svg>
